%TF.GenerationSoftware,KiCad,Pcbnew,9.0.0*%
%TF.CreationDate,2025-04-07T13:38:34-03:00*%
%TF.ProjectId,KDT_Hierarchical,4b44545f-4869-4657-9261-726368696361,1.1*%
%TF.SameCoordinates,Original*%
%TF.FileFunction,Copper,L1,Top*%
%TF.FilePolarity,Positive*%
%FSLAX46Y46*%
G04 Gerber Fmt 4.6, Leading zero omitted, Abs format (unit mm)*
G04 Created by KiCad (PCBNEW 9.0.0) date 2025-04-07 13:38:34*
%MOMM*%
%LPD*%
G01*
G04 APERTURE LIST*
G04 Aperture macros list*
%AMRoundRect*
0 Rectangle with rounded corners*
0 $1 Rounding radius*
0 $2 $3 $4 $5 $6 $7 $8 $9 X,Y pos of 4 corners*
0 Add a 4 corners polygon primitive as box body*
4,1,4,$2,$3,$4,$5,$6,$7,$8,$9,$2,$3,0*
0 Add four circle primitives for the rounded corners*
1,1,$1+$1,$2,$3*
1,1,$1+$1,$4,$5*
1,1,$1+$1,$6,$7*
1,1,$1+$1,$8,$9*
0 Add four rect primitives between the rounded corners*
20,1,$1+$1,$2,$3,$4,$5,0*
20,1,$1+$1,$4,$5,$6,$7,0*
20,1,$1+$1,$6,$7,$8,$9,0*
20,1,$1+$1,$8,$9,$2,$3,0*%
G04 Aperture macros list end*
%TA.AperFunction,ComponentPad*%
%ADD10R,1.700000X1.700000*%
%TD*%
%TA.AperFunction,ComponentPad*%
%ADD11O,1.700000X1.700000*%
%TD*%
%TA.AperFunction,SMDPad,CuDef*%
%ADD12RoundRect,0.250000X-0.337500X-0.475000X0.337500X-0.475000X0.337500X0.475000X-0.337500X0.475000X0*%
%TD*%
%TA.AperFunction,SMDPad,CuDef*%
%ADD13RoundRect,0.237500X-0.250000X-0.237500X0.250000X-0.237500X0.250000X0.237500X-0.250000X0.237500X0*%
%TD*%
%TA.AperFunction,SMDPad,CuDef*%
%ADD14RoundRect,0.237500X-0.237500X0.250000X-0.237500X-0.250000X0.237500X-0.250000X0.237500X0.250000X0*%
%TD*%
%TA.AperFunction,SMDPad,CuDef*%
%ADD15RoundRect,0.250000X-0.400000X-0.625000X0.400000X-0.625000X0.400000X0.625000X-0.400000X0.625000X0*%
%TD*%
%TA.AperFunction,ComponentPad*%
%ADD16C,2.200000*%
%TD*%
%TA.AperFunction,SMDPad,CuDef*%
%ADD17C,1.000000*%
%TD*%
%TA.AperFunction,SMDPad,CuDef*%
%ADD18RoundRect,0.218750X-0.256250X0.218750X-0.256250X-0.218750X0.256250X-0.218750X0.256250X0.218750X0*%
%TD*%
%TA.AperFunction,SMDPad,CuDef*%
%ADD19RoundRect,0.250000X0.337500X0.475000X-0.337500X0.475000X-0.337500X-0.475000X0.337500X-0.475000X0*%
%TD*%
%TA.AperFunction,SMDPad,CuDef*%
%ADD20RoundRect,0.225000X-0.375000X0.225000X-0.375000X-0.225000X0.375000X-0.225000X0.375000X0.225000X0*%
%TD*%
%TA.AperFunction,SMDPad,CuDef*%
%ADD21RoundRect,0.075000X-0.650000X-0.075000X0.650000X-0.075000X0.650000X0.075000X-0.650000X0.075000X0*%
%TD*%
%TA.AperFunction,ComponentPad*%
%ADD22C,2.000000*%
%TD*%
%TA.AperFunction,ViaPad*%
%ADD23C,0.550000*%
%TD*%
%TA.AperFunction,Conductor*%
%ADD24C,0.200000*%
%TD*%
G04 APERTURE END LIST*
D10*
%TO.P,J5,1,Pin_1*%
%TO.N,/Project Architecture/Sense/SDA*%
X122960000Y-117246400D03*
D11*
%TO.P,J5,2,Pin_2*%
%TO.N,/Project Architecture/Sense/A1*%
X125500000Y-117246400D03*
%TO.P,J5,3,Pin_3*%
%TO.N,/Project Architecture/Sense/SCL*%
X128040000Y-117246400D03*
%TD*%
D12*
%TO.P,C4,1*%
%TO.N,/Project Architecture/Sense/VIN-*%
X131499700Y-101676200D03*
%TO.P,C4,2*%
%TO.N,GND*%
X133574700Y-101676200D03*
%TD*%
D13*
%TO.P,R3,1*%
%TO.N,Net-(D1-K)*%
X130507100Y-92862400D03*
%TO.P,R3,2*%
%TO.N,GND*%
X132332100Y-92862400D03*
%TD*%
D14*
%TO.P,R2,1*%
%TO.N,VCC*%
X123825000Y-110110900D03*
%TO.P,R2,2*%
%TO.N,/Project Architecture/Sense/SCL*%
X123825000Y-111935900D03*
%TD*%
D10*
%TO.P,J6,1,Pin_1*%
%TO.N,GND*%
X116522200Y-114000600D03*
D11*
%TO.P,J6,2,Pin_2*%
%TO.N,/Project Architecture/Sense/SCL*%
X116522200Y-111460600D03*
%TO.P,J6,3,Pin_3*%
%TO.N,/Project Architecture/Sense/SDA*%
X116522200Y-108920600D03*
%TO.P,J6,4,Pin_4*%
%TO.N,VCC*%
X116522200Y-106380600D03*
%TD*%
D13*
%TO.P,R8,1*%
%TO.N,VBUS*%
X135180700Y-109677200D03*
%TO.P,R8,2*%
%TO.N,/Project Architecture/Sense/VIN-*%
X137005700Y-109677200D03*
%TD*%
D15*
%TO.P,R10,1*%
%TO.N,/Project Architecture/Sense/VIN+*%
X128955200Y-99060000D03*
%TO.P,R10,2*%
%TO.N,/Project Architecture/Sense/VIN-*%
X132055200Y-99060000D03*
%TD*%
D16*
%TO.P,P2,1,1*%
%TO.N,GND*%
X118110000Y-94500000D03*
%TO.P,P2,2,2*%
%TO.N,/Project Architecture/Sense/VIN+*%
X118110000Y-99500000D03*
%TD*%
D17*
%TO.P,FID3,*%
%TO.N,*%
X121158000Y-87985600D03*
%TD*%
D18*
%TO.P,D2,1,K*%
%TO.N,Net-(D2-K)*%
X134500000Y-88239500D03*
%TO.P,D2,2,A*%
%TO.N,VCC*%
X134500000Y-89814500D03*
%TD*%
D14*
%TO.P,R1,1*%
%TO.N,VCC*%
X121996200Y-108917100D03*
%TO.P,R1,2*%
%TO.N,/Project Architecture/Sense/SDA*%
X121996200Y-110742100D03*
%TD*%
D17*
%TO.P,FID2,*%
%TO.N,*%
X116535200Y-117094000D03*
%TD*%
D16*
%TO.P,P1,1,1*%
%TO.N,/Project Architecture/Sense/VIN-*%
X143000000Y-99500000D03*
%TO.P,P1,2,2*%
%TO.N,GND*%
X143000000Y-94500000D03*
%TD*%
D14*
%TO.P,R4,1*%
%TO.N,Net-(D2-K)*%
X123215400Y-104827700D03*
%TO.P,R4,2*%
%TO.N,/Project Architecture/Sense/ALERT*%
X123215400Y-106652700D03*
%TD*%
%TO.P,R9,1*%
%TO.N,/Project Architecture/Sense/VIN+*%
X126517400Y-106046900D03*
%TO.P,R9,2*%
%TO.N,VBUS*%
X126517400Y-107871900D03*
%TD*%
D19*
%TO.P,C2,1*%
%TO.N,/Project Architecture/Sense/VIN+*%
X129510700Y-101676200D03*
%TO.P,C2,2*%
%TO.N,GND*%
X127435700Y-101676200D03*
%TD*%
D10*
%TO.P,J4,1,Pin_1*%
%TO.N,VCC*%
X122960000Y-121023200D03*
D11*
%TO.P,J4,2,Pin_2*%
%TO.N,/Project Architecture/Sense/A1*%
X125500000Y-121023200D03*
%TO.P,J4,3,Pin_3*%
%TO.N,GND*%
X128040000Y-121023200D03*
%TD*%
D18*
%TO.P,D3,1,K*%
%TO.N,GND*%
X126500000Y-88239500D03*
%TO.P,D3,2,A*%
%TO.N,Net-(D3-A)*%
X126500000Y-89814500D03*
%TD*%
D10*
%TO.P,J3,1,Pin_1*%
%TO.N,/Project Architecture/Sense/SDA*%
X133000000Y-117246400D03*
D11*
%TO.P,J3,2,Pin_2*%
%TO.N,/Project Architecture/Sense/A0*%
X135540000Y-117246400D03*
%TO.P,J3,3,Pin_3*%
%TO.N,/Project Architecture/Sense/SCL*%
X138080000Y-117246400D03*
%TD*%
D19*
%TO.P,C1,1*%
%TO.N,/Project Architecture/Sense/VIN-INA*%
X131517300Y-107619800D03*
%TO.P,C1,2*%
%TO.N,/Project Architecture/Sense/VIN+INA*%
X129442300Y-107619800D03*
%TD*%
D20*
%TO.P,T1,1,K*%
%TO.N,Net-(D3-A)*%
X127228600Y-93777800D03*
%TO.P,T1,2,A*%
%TO.N,/Project Architecture/Sense/VIN+*%
X127228600Y-97077800D03*
%TD*%
D10*
%TO.P,J2,1,Pin_1*%
%TO.N,VCC*%
X133000000Y-120925200D03*
D11*
%TO.P,J2,2,Pin_2*%
%TO.N,/Project Architecture/Sense/A0*%
X135540000Y-120925200D03*
%TO.P,J2,3,Pin_3*%
%TO.N,GND*%
X138080000Y-120925200D03*
%TD*%
D17*
%TO.P,FID1,*%
%TO.N,*%
X139954000Y-87985600D03*
%TD*%
D14*
%TO.P,R5,1*%
%TO.N,VCC*%
X124739400Y-104827700D03*
%TO.P,R5,2*%
%TO.N,/Project Architecture/Sense/ALERT*%
X124739400Y-106652700D03*
%TD*%
D21*
%TO.P,U1,1,A1*%
%TO.N,/Project Architecture/Sense/A1*%
X128279800Y-109642400D03*
%TO.P,U1,2,A0*%
%TO.N,/Project Architecture/Sense/A0*%
X128279800Y-110142400D03*
%TO.P,U1,3,~{Alert}*%
%TO.N,/Project Architecture/Sense/ALERT*%
X128279800Y-110642400D03*
%TO.P,U1,4,SDA*%
%TO.N,/Project Architecture/Sense/SDA*%
X128279800Y-111142400D03*
%TO.P,U1,5,SCL*%
%TO.N,/Project Architecture/Sense/SCL*%
X128279800Y-111642400D03*
%TO.P,U1,6,VS*%
%TO.N,VCC*%
X132679800Y-111642400D03*
%TO.P,U1,7,GND*%
%TO.N,GND*%
X132679800Y-111142400D03*
%TO.P,U1,8,Vbus*%
%TO.N,VBUS*%
X132679800Y-110642400D03*
%TO.P,U1,9,Vin-*%
%TO.N,/Project Architecture/Sense/VIN-INA*%
X132679800Y-110142400D03*
%TO.P,U1,10,Vin+*%
%TO.N,/Project Architecture/Sense/VIN+INA*%
X132679800Y-109642400D03*
%TD*%
D18*
%TO.P,D1,1,K*%
%TO.N,Net-(D1-K)*%
X130500000Y-88239500D03*
%TO.P,D1,2,A*%
%TO.N,VCC*%
X130500000Y-89814500D03*
%TD*%
D14*
%TO.P,R6,1*%
%TO.N,/Project Architecture/Sense/VIN+*%
X129514600Y-103938700D03*
%TO.P,R6,2*%
%TO.N,/Project Architecture/Sense/VIN+INA*%
X129514600Y-105763700D03*
%TD*%
%TO.P,R7,1*%
%TO.N,/Project Architecture/Sense/VIN-*%
X131495800Y-103938700D03*
%TO.P,R7,2*%
%TO.N,/Project Architecture/Sense/VIN-INA*%
X131495800Y-105763700D03*
%TD*%
D10*
%TO.P,J7,1,Pin_1*%
%TO.N,VCC*%
X144500600Y-106400600D03*
D11*
%TO.P,J7,2,Pin_2*%
%TO.N,/Project Architecture/Sense/SDA*%
X144500600Y-108940600D03*
%TO.P,J7,3,Pin_3*%
%TO.N,/Project Architecture/Sense/SCL*%
X144500600Y-111480600D03*
%TO.P,J7,4,Pin_4*%
%TO.N,GND*%
X144500600Y-114020600D03*
%TD*%
D19*
%TO.P,C3,1*%
%TO.N,GND*%
X137638700Y-111582200D03*
%TO.P,C3,2*%
%TO.N,VCC*%
X135563700Y-111582200D03*
%TD*%
D22*
%TO.P,TP3,1,1*%
%TO.N,GND*%
X134848600Y-93370400D03*
%TD*%
%TO.P,TP2,1,1*%
%TO.N,VCC*%
X138353800Y-103500000D03*
%TD*%
%TO.P,TP1,1,1*%
%TO.N,VBUS*%
X135204200Y-106273600D03*
%TD*%
D23*
%TO.N,GND*%
X133070600Y-93853000D03*
X125730000Y-101600000D03*
X130911600Y-111480600D03*
X123774200Y-88265000D03*
X139700000Y-110896400D03*
X135128000Y-101600000D03*
%TO.N,/Project Architecture/Sense/SCL*%
X122682000Y-111912400D03*
%TO.N,/Project Architecture/Sense/A1*%
X126619000Y-109626400D03*
%TD*%
D24*
%TO.N,Net-(D2-K)*%
X123215400Y-102133400D02*
X123215400Y-104827700D01*
X116865400Y-101803200D02*
X122885200Y-101803200D01*
X115493800Y-100431600D02*
X116865400Y-101803200D01*
X122885200Y-101803200D02*
X123215400Y-102133400D01*
X115493800Y-91389200D02*
X115493800Y-100431600D01*
X119456200Y-90627200D02*
X119176800Y-90906600D01*
X119456200Y-87477600D02*
X119456200Y-90627200D01*
X120523000Y-86410800D02*
X119456200Y-87477600D01*
X133883400Y-86410800D02*
X120523000Y-86410800D01*
X134500000Y-87027400D02*
X133883400Y-86410800D01*
X115976400Y-90906600D02*
X115493800Y-91389200D01*
X134500000Y-88239500D02*
X134500000Y-87027400D01*
X119176800Y-90906600D02*
X115976400Y-90906600D01*
%TO.N,/Project Architecture/Sense/SCL*%
X141224000Y-117246400D02*
X142265400Y-116205000D01*
X142265400Y-116205000D02*
X142265400Y-112090200D01*
X142265400Y-112090200D02*
X142875000Y-111480600D01*
X142875000Y-111480600D02*
X144500600Y-111480600D01*
X138080000Y-117246400D02*
X141224000Y-117246400D01*
%TO.N,/Project Architecture/Sense/A0*%
X135540000Y-113925600D02*
X135000000Y-113385600D01*
X135540000Y-120925200D02*
X135540000Y-113925600D01*
%TO.N,GND*%
X123799700Y-88239500D02*
X123774200Y-88265000D01*
X126500000Y-88239500D02*
X123799700Y-88239500D01*
%TO.N,Net-(D3-A)*%
X126500000Y-89814500D02*
X126500000Y-92921200D01*
X126500000Y-92921200D02*
X126539400Y-92960600D01*
%TO.N,/Project Architecture/Sense/VIN-INA*%
X131517300Y-107619800D02*
X133197600Y-107619800D01*
X133840600Y-110142400D02*
X132679800Y-110142400D01*
X134086600Y-109931200D02*
X133858000Y-110159800D01*
X134112000Y-108534200D02*
X134112000Y-109931200D01*
X133858000Y-110159800D02*
X133840600Y-110142400D01*
X131542700Y-105810600D02*
X131495800Y-105763700D01*
X131542700Y-108000800D02*
X131542700Y-105810600D01*
X133197600Y-107619800D02*
X134112000Y-108534200D01*
X134112000Y-109931200D02*
X134086600Y-109931200D01*
%TO.N,/Project Architecture/Sense/VIN+INA*%
X129442300Y-107619800D02*
X129442300Y-108614300D01*
X130479800Y-109651800D02*
X130489200Y-109642400D01*
X130489200Y-109642400D02*
X132679800Y-109642400D01*
X129467700Y-105810600D02*
X129514600Y-105763700D01*
X129442300Y-108614300D02*
X130479800Y-109651800D01*
X129467700Y-108000800D02*
X129467700Y-105810600D01*
%TO.N,/Project Architecture/Sense/VIN+*%
X126517400Y-104749600D02*
X126517400Y-106046900D01*
X129514600Y-103938700D02*
X129514600Y-101680100D01*
X129514600Y-101680100D02*
X129510700Y-101676200D01*
X129510700Y-98608300D02*
X129505200Y-98602800D01*
X129510700Y-101676200D02*
X129510700Y-98608300D01*
X126492000Y-104724200D02*
X126517400Y-104749600D01*
X127277500Y-103938700D02*
X129514600Y-103938700D01*
X126492000Y-104724200D02*
X127277500Y-103938700D01*
%TO.N,GND*%
X131249800Y-111142400D02*
X130911600Y-111480600D01*
X133574700Y-101676200D02*
X135051800Y-101676200D01*
X125806200Y-101676200D02*
X125730000Y-101600000D01*
X132332100Y-93114500D02*
X133070600Y-93853000D01*
X139014200Y-111582200D02*
X139700000Y-110896400D01*
X127435700Y-101676200D02*
X125806200Y-101676200D01*
X137638700Y-111582200D02*
X139014200Y-111582200D01*
X132332100Y-92862400D02*
X132332100Y-93114500D01*
X132679800Y-111142400D02*
X131249800Y-111142400D01*
X135051800Y-101676200D02*
X135128000Y-101600000D01*
%TO.N,VCC*%
X132679800Y-111642400D02*
X135503500Y-111642400D01*
X135503500Y-111642400D02*
X135563700Y-111582200D01*
%TO.N,/Project Architecture/Sense/VIN-*%
X137005700Y-104798500D02*
X136144000Y-103936800D01*
X131495800Y-103938700D02*
X131495800Y-101680100D01*
X131495800Y-101680100D02*
X131499700Y-101676200D01*
X131499700Y-98608300D02*
X131505200Y-98602800D01*
X137005700Y-109677200D02*
X137005700Y-104798500D01*
X133017900Y-103938700D02*
X131495800Y-103938700D01*
X136144000Y-103936800D02*
X133019800Y-103936800D01*
X131499700Y-101676200D02*
X131499700Y-98608300D01*
X133019800Y-103936800D02*
X133017900Y-103938700D01*
%TO.N,Net-(D1-K)*%
X129006600Y-91389200D02*
X129006600Y-88823800D01*
X129590900Y-88239500D02*
X130530600Y-88239500D01*
X130507100Y-92862400D02*
X130507100Y-92885900D01*
X129006600Y-88823800D02*
X129590900Y-88239500D01*
X130507100Y-92885900D02*
X130505200Y-92887800D01*
X130505200Y-92887800D02*
X129006600Y-91389200D01*
%TO.N,Net-(D3-A)*%
X127382000Y-93803200D02*
X126539400Y-92960600D01*
%TO.N,/Project Architecture/Sense/SDA*%
X119080600Y-108920600D02*
X120902100Y-110742100D01*
X116522200Y-108920600D02*
X119080600Y-108920600D01*
X121996200Y-111633000D02*
X121996200Y-110742100D01*
X128279800Y-111142400D02*
X122396500Y-111142400D01*
X122847100Y-117246400D02*
X120650000Y-115049300D01*
X120650000Y-112979200D02*
X121996200Y-111633000D01*
X122396500Y-111142400D02*
X121996200Y-110742100D01*
X120902100Y-110742100D02*
X121996200Y-110742100D01*
X120650000Y-115049300D02*
X120650000Y-112979200D01*
%TO.N,/Project Architecture/Sense/SCL*%
X126847600Y-114147600D02*
X127939800Y-115239800D01*
X123801500Y-111912400D02*
X123825000Y-111935900D01*
X123825000Y-111935900D02*
X123825000Y-112826800D01*
X122682000Y-111912400D02*
X123801500Y-111912400D01*
X124118500Y-111642400D02*
X123825000Y-111935900D01*
X128279800Y-111642400D02*
X124118500Y-111642400D01*
X123825000Y-112826800D02*
X125145800Y-114147600D01*
X125145800Y-114147600D02*
X126847600Y-114147600D01*
X127927100Y-115252500D02*
X127927100Y-117246400D01*
X127939800Y-115239800D02*
X127927100Y-115252500D01*
%TO.N,/Project Architecture/Sense/A0*%
X128279800Y-110142400D02*
X129328800Y-110142400D01*
X129806700Y-112788700D02*
X130403600Y-113385600D01*
X129336800Y-110134400D02*
X129806700Y-110604300D01*
X129806700Y-110604300D02*
X129806700Y-112788700D01*
X130403600Y-113385600D02*
X135000000Y-113385600D01*
X129328800Y-110142400D02*
X129336800Y-110134400D01*
%TO.N,/Project Architecture/Sense/A1*%
X128279800Y-109642400D02*
X126635000Y-109642400D01*
X125387100Y-121023200D02*
X125387100Y-117246400D01*
X126635000Y-109642400D02*
X126619000Y-109626400D01*
%TO.N,/Project Architecture/Sense/ALERT*%
X128279800Y-110642400D02*
X126111000Y-110642400D01*
X123215400Y-106652700D02*
X124739400Y-106652700D01*
X126111000Y-110642400D02*
X124739400Y-109270800D01*
X124739400Y-109270800D02*
X124739400Y-106652700D01*
%TO.N,VBUS*%
X135180700Y-109552100D02*
X135204200Y-109528600D01*
X135204200Y-109528600D02*
X135204200Y-106273600D01*
X132679800Y-110642400D02*
X134215500Y-110642400D01*
X135180700Y-109677200D02*
X135180700Y-109552100D01*
X134215500Y-110642400D02*
X135180700Y-109677200D01*
X132679800Y-110642400D02*
X130632200Y-110642400D01*
X127861700Y-107871900D02*
X126517400Y-107871900D01*
X128953900Y-108964100D02*
X127861700Y-107871900D01*
X130632200Y-110642400D02*
X128953900Y-108964100D01*
%TD*%
%TA.AperFunction,Conductor*%
%TO.N,/Project Architecture/Sense/VIN-*%
G36*
X144392839Y-96361885D02*
G01*
X144438594Y-96414689D01*
X144449800Y-96466200D01*
X144449800Y-99825000D01*
X144430115Y-99892039D01*
X144377311Y-99937794D01*
X144325800Y-99949000D01*
X130832400Y-99949000D01*
X130765361Y-99929315D01*
X130719606Y-99876511D01*
X130708400Y-99825000D01*
X130708400Y-96466200D01*
X130728085Y-96399161D01*
X130780889Y-96353406D01*
X130832400Y-96342200D01*
X144325800Y-96342200D01*
X144392839Y-96361885D01*
G37*
%TD.AperFunction*%
%TD*%
%TA.AperFunction,Conductor*%
%TO.N,VCC*%
G36*
X144490936Y-85494126D02*
G01*
X144780996Y-85511671D01*
X144795859Y-85513476D01*
X145077998Y-85565180D01*
X145092535Y-85568763D01*
X145366372Y-85654095D01*
X145380363Y-85659400D01*
X145641943Y-85777127D01*
X145655189Y-85784080D01*
X145900665Y-85932475D01*
X145912976Y-85940973D01*
X146129107Y-86110300D01*
X146138773Y-86117873D01*
X146149981Y-86127803D01*
X146352796Y-86330618D01*
X146362726Y-86341826D01*
X146482681Y-86494938D01*
X146539622Y-86567617D01*
X146548128Y-86579940D01*
X146696516Y-86825404D01*
X146703475Y-86838663D01*
X146821197Y-87100231D01*
X146826506Y-87114232D01*
X146911835Y-87388063D01*
X146915419Y-87402601D01*
X146967123Y-87684740D01*
X146968928Y-87699605D01*
X146982714Y-87927508D01*
X146986358Y-87987754D01*
X146986474Y-87989663D01*
X146986700Y-87997150D01*
X146986700Y-121989649D01*
X146986474Y-121997136D01*
X146968928Y-122287194D01*
X146967123Y-122302059D01*
X146915419Y-122584198D01*
X146911835Y-122598736D01*
X146826506Y-122872567D01*
X146821197Y-122886568D01*
X146703475Y-123148136D01*
X146696516Y-123161395D01*
X146548128Y-123406859D01*
X146539622Y-123419182D01*
X146362726Y-123644973D01*
X146352796Y-123656181D01*
X146149981Y-123858996D01*
X146138773Y-123868926D01*
X145912982Y-124045822D01*
X145900659Y-124054328D01*
X145655195Y-124202716D01*
X145641936Y-124209675D01*
X145380368Y-124327397D01*
X145366367Y-124332706D01*
X145092536Y-124418035D01*
X145077998Y-124421619D01*
X144795859Y-124473323D01*
X144780994Y-124475128D01*
X144490936Y-124492674D01*
X144483449Y-124492900D01*
X116490951Y-124492900D01*
X116483464Y-124492674D01*
X116193405Y-124475128D01*
X116178540Y-124473323D01*
X115896401Y-124421619D01*
X115881863Y-124418035D01*
X115608032Y-124332706D01*
X115594031Y-124327397D01*
X115332463Y-124209675D01*
X115319204Y-124202716D01*
X115073740Y-124054328D01*
X115061417Y-124045822D01*
X114835626Y-123868926D01*
X114824418Y-123858996D01*
X114621603Y-123656181D01*
X114611673Y-123644973D01*
X114582009Y-123607110D01*
X114434773Y-123419176D01*
X114426275Y-123406865D01*
X114277880Y-123161389D01*
X114270927Y-123148143D01*
X114153200Y-122886563D01*
X114147893Y-122872567D01*
X114062564Y-122598736D01*
X114058980Y-122584198D01*
X114007275Y-122302057D01*
X114005471Y-122287194D01*
X114004745Y-122275199D01*
X113987926Y-121997136D01*
X113987700Y-121989649D01*
X113987700Y-121881949D01*
X114812100Y-121881949D01*
X114812100Y-122104850D01*
X114812101Y-122104866D01*
X114841194Y-122325852D01*
X114841195Y-122325857D01*
X114841196Y-122325863D01*
X114898890Y-122541180D01*
X114898893Y-122541190D01*
X114984193Y-122747122D01*
X114984195Y-122747126D01*
X115095652Y-122940174D01*
X115095657Y-122940180D01*
X115095658Y-122940182D01*
X115231351Y-123117022D01*
X115231357Y-123117029D01*
X115388970Y-123274642D01*
X115388976Y-123274647D01*
X115565826Y-123410348D01*
X115758874Y-123521805D01*
X115964819Y-123607110D01*
X116180137Y-123664804D01*
X116401143Y-123693900D01*
X116401150Y-123693900D01*
X116624050Y-123693900D01*
X116624057Y-123693900D01*
X116845063Y-123664804D01*
X117060381Y-123607110D01*
X117266326Y-123521805D01*
X117459374Y-123410348D01*
X117636224Y-123274647D01*
X117793847Y-123117024D01*
X117929548Y-122940174D01*
X118041005Y-122747126D01*
X118126310Y-122541181D01*
X118184004Y-122325863D01*
X118213100Y-122104857D01*
X118213100Y-121881943D01*
X118184004Y-121660937D01*
X118126310Y-121445619D01*
X118117852Y-121425200D01*
X118053273Y-121269291D01*
X118041006Y-121239677D01*
X118041005Y-121239674D01*
X117929548Y-121046626D01*
X117793847Y-120869776D01*
X117793842Y-120869770D01*
X117636229Y-120712157D01*
X117636222Y-120712151D01*
X117459382Y-120576458D01*
X117459380Y-120576457D01*
X117459374Y-120576452D01*
X117266326Y-120464995D01*
X117266322Y-120464993D01*
X117060390Y-120379693D01*
X117060383Y-120379691D01*
X117060381Y-120379690D01*
X116845063Y-120321996D01*
X116845057Y-120321995D01*
X116845052Y-120321994D01*
X116624066Y-120292901D01*
X116624063Y-120292900D01*
X116624057Y-120292900D01*
X116401143Y-120292900D01*
X116401137Y-120292900D01*
X116401133Y-120292901D01*
X116180147Y-120321994D01*
X116180140Y-120321995D01*
X116180137Y-120321996D01*
X116062405Y-120353542D01*
X115964819Y-120379690D01*
X115964809Y-120379693D01*
X115758877Y-120464993D01*
X115758873Y-120464995D01*
X115565826Y-120576452D01*
X115565817Y-120576458D01*
X115388977Y-120712151D01*
X115388970Y-120712157D01*
X115231357Y-120869770D01*
X115231351Y-120869777D01*
X115095658Y-121046617D01*
X115095652Y-121046626D01*
X114984195Y-121239673D01*
X114984193Y-121239677D01*
X114898893Y-121445609D01*
X114898890Y-121445619D01*
X114878747Y-121520796D01*
X114841197Y-121660934D01*
X114841194Y-121660947D01*
X114812101Y-121881933D01*
X114812100Y-121881949D01*
X113987700Y-121881949D01*
X113987700Y-120125355D01*
X121610000Y-120125355D01*
X121610000Y-120773200D01*
X122526988Y-120773200D01*
X122494075Y-120830207D01*
X122460000Y-120957374D01*
X122460000Y-121089026D01*
X122494075Y-121216193D01*
X122526988Y-121273200D01*
X121610000Y-121273200D01*
X121610000Y-121921044D01*
X121616401Y-121980572D01*
X121616403Y-121980579D01*
X121666645Y-122115286D01*
X121666649Y-122115293D01*
X121752809Y-122230387D01*
X121752812Y-122230390D01*
X121867906Y-122316550D01*
X121867913Y-122316554D01*
X122002620Y-122366796D01*
X122002627Y-122366798D01*
X122062155Y-122373199D01*
X122062172Y-122373200D01*
X122710000Y-122373200D01*
X122710000Y-121456212D01*
X122767007Y-121489125D01*
X122894174Y-121523200D01*
X123025826Y-121523200D01*
X123152993Y-121489125D01*
X123210000Y-121456212D01*
X123210000Y-122373200D01*
X123857828Y-122373200D01*
X123857844Y-122373199D01*
X123917372Y-122366798D01*
X123917379Y-122366796D01*
X124052086Y-122316554D01*
X124052093Y-122316550D01*
X124167187Y-122230390D01*
X124167190Y-122230387D01*
X124253350Y-122115293D01*
X124253354Y-122115286D01*
X124303596Y-121980579D01*
X124303598Y-121980572D01*
X124309999Y-121921044D01*
X124310000Y-121921027D01*
X124310000Y-121518764D01*
X124329685Y-121451725D01*
X124382489Y-121405970D01*
X124451647Y-121396026D01*
X124515203Y-121425051D01*
X124548561Y-121471312D01*
X124555939Y-121489125D01*
X124569059Y-121520798D01*
X124645701Y-121635502D01*
X124684024Y-121692857D01*
X124830342Y-121839175D01*
X124830345Y-121839177D01*
X125002402Y-121954141D01*
X125193580Y-122033330D01*
X125396530Y-122073699D01*
X125396534Y-122073700D01*
X125396535Y-122073700D01*
X125603466Y-122073700D01*
X125603467Y-122073699D01*
X125806420Y-122033330D01*
X125997598Y-121954141D01*
X126169655Y-121839177D01*
X126315977Y-121692855D01*
X126430941Y-121520798D01*
X126510130Y-121329620D01*
X126550500Y-121126665D01*
X126550500Y-120919735D01*
X126550499Y-120919730D01*
X126989500Y-120919730D01*
X126989500Y-121126669D01*
X127029868Y-121329612D01*
X127029870Y-121329620D01*
X127109058Y-121520796D01*
X127224024Y-121692857D01*
X127370342Y-121839175D01*
X127370345Y-121839177D01*
X127542402Y-121954141D01*
X127733580Y-122033330D01*
X127936530Y-122073699D01*
X127936534Y-122073700D01*
X127936535Y-122073700D01*
X128143466Y-122073700D01*
X128143467Y-122073699D01*
X128346420Y-122033330D01*
X128537598Y-121954141D01*
X128709655Y-121839177D01*
X128855977Y-121692855D01*
X128970941Y-121520798D01*
X129050130Y-121329620D01*
X129090500Y-121126665D01*
X129090500Y-120919735D01*
X129050130Y-120716780D01*
X128970941Y-120525602D01*
X128855977Y-120353545D01*
X128855975Y-120353542D01*
X128709657Y-120207224D01*
X128589822Y-120127154D01*
X128589820Y-120127151D01*
X128537599Y-120092259D01*
X128346420Y-120013070D01*
X128346412Y-120013068D01*
X128143469Y-119972700D01*
X128143465Y-119972700D01*
X127936535Y-119972700D01*
X127936530Y-119972700D01*
X127733587Y-120013068D01*
X127733579Y-120013070D01*
X127542403Y-120092258D01*
X127370342Y-120207224D01*
X127224024Y-120353542D01*
X127109058Y-120525603D01*
X127029870Y-120716779D01*
X127029868Y-120716787D01*
X126989500Y-120919730D01*
X126550499Y-120919730D01*
X126510130Y-120716780D01*
X126430941Y-120525602D01*
X126315977Y-120353545D01*
X126315975Y-120353542D01*
X126169657Y-120207224D01*
X126022988Y-120109224D01*
X125997598Y-120092259D01*
X125989935Y-120089085D01*
X125806420Y-120013070D01*
X125806412Y-120013068D01*
X125787409Y-120009288D01*
X125725498Y-119976903D01*
X125690924Y-119916188D01*
X125687600Y-119887671D01*
X125687600Y-118381928D01*
X125707285Y-118314889D01*
X125760089Y-118269134D01*
X125787408Y-118260311D01*
X125806420Y-118256530D01*
X125997598Y-118177341D01*
X126169655Y-118062377D01*
X126315977Y-117916055D01*
X126430941Y-117743998D01*
X126510130Y-117552820D01*
X126550500Y-117349865D01*
X126550500Y-117142935D01*
X126510130Y-116939980D01*
X126430941Y-116748802D01*
X126315977Y-116576745D01*
X126315975Y-116576742D01*
X126169657Y-116430424D01*
X126001655Y-116318170D01*
X125997598Y-116315459D01*
X125997593Y-116315457D01*
X125806420Y-116236270D01*
X125806412Y-116236268D01*
X125603469Y-116195900D01*
X125603465Y-116195900D01*
X125396535Y-116195900D01*
X125396530Y-116195900D01*
X125193587Y-116236268D01*
X125193579Y-116236270D01*
X125002403Y-116315458D01*
X124830342Y-116430424D01*
X124684024Y-116576742D01*
X124569058Y-116748803D01*
X124489870Y-116939979D01*
X124489868Y-116939987D01*
X124449500Y-117142930D01*
X124449500Y-117349869D01*
X124489868Y-117552812D01*
X124489870Y-117552820D01*
X124569058Y-117743996D01*
X124684024Y-117916057D01*
X124830342Y-118062375D01*
X124830345Y-118062377D01*
X125002402Y-118177341D01*
X125002403Y-118177341D01*
X125002404Y-118177342D01*
X125010050Y-118180509D01*
X125064455Y-118224349D01*
X125086521Y-118290642D01*
X125086600Y-118295071D01*
X125086600Y-119974528D01*
X125066915Y-120041567D01*
X125014111Y-120087322D01*
X125010062Y-120089085D01*
X125002407Y-120092256D01*
X125002394Y-120092263D01*
X124830344Y-120207222D01*
X124684024Y-120353542D01*
X124569058Y-120525603D01*
X124548561Y-120575088D01*
X124504720Y-120629491D01*
X124438426Y-120651556D01*
X124370726Y-120634277D01*
X124323116Y-120583139D01*
X124310000Y-120527635D01*
X124310000Y-120125372D01*
X124309999Y-120125355D01*
X124303598Y-120065827D01*
X124303596Y-120065820D01*
X124253354Y-119931113D01*
X124253350Y-119931106D01*
X124167190Y-119816012D01*
X124167187Y-119816009D01*
X124052093Y-119729849D01*
X124052086Y-119729845D01*
X123917379Y-119679603D01*
X123917372Y-119679601D01*
X123857844Y-119673200D01*
X123210000Y-119673200D01*
X123210000Y-120590188D01*
X123152993Y-120557275D01*
X123025826Y-120523200D01*
X122894174Y-120523200D01*
X122767007Y-120557275D01*
X122710000Y-120590188D01*
X122710000Y-119673200D01*
X122062155Y-119673200D01*
X122002627Y-119679601D01*
X122002620Y-119679603D01*
X121867913Y-119729845D01*
X121867906Y-119729849D01*
X121752812Y-119816009D01*
X121752809Y-119816012D01*
X121666649Y-119931106D01*
X121666645Y-119931113D01*
X121616403Y-120065820D01*
X121616401Y-120065827D01*
X121610000Y-120125355D01*
X113987700Y-120125355D01*
X113987700Y-117192543D01*
X115534699Y-117192543D01*
X115573147Y-117385829D01*
X115573150Y-117385839D01*
X115648564Y-117567907D01*
X115648571Y-117567920D01*
X115758060Y-117731781D01*
X115758063Y-117731785D01*
X115897414Y-117871136D01*
X115897418Y-117871139D01*
X116061279Y-117980628D01*
X116061292Y-117980635D01*
X116243360Y-118056049D01*
X116243365Y-118056051D01*
X116243369Y-118056051D01*
X116243370Y-118056052D01*
X116436656Y-118094500D01*
X116436659Y-118094500D01*
X116633743Y-118094500D01*
X116795242Y-118062375D01*
X116827035Y-118056051D01*
X117009114Y-117980632D01*
X117172982Y-117871139D01*
X117312339Y-117731782D01*
X117421832Y-117567914D01*
X117430504Y-117546979D01*
X117497249Y-117385839D01*
X117497251Y-117385835D01*
X117535700Y-117192541D01*
X117535700Y-116995459D01*
X117535700Y-116995456D01*
X117497252Y-116802170D01*
X117497251Y-116802169D01*
X117497251Y-116802165D01*
X117490196Y-116785133D01*
X117421835Y-116620092D01*
X117421828Y-116620079D01*
X117312339Y-116456218D01*
X117312336Y-116456214D01*
X117172985Y-116316863D01*
X117172981Y-116316860D01*
X117009120Y-116207371D01*
X117009107Y-116207364D01*
X116827039Y-116131950D01*
X116827029Y-116131947D01*
X116633743Y-116093500D01*
X116633741Y-116093500D01*
X116436659Y-116093500D01*
X116436657Y-116093500D01*
X116243370Y-116131947D01*
X116243360Y-116131950D01*
X116061292Y-116207364D01*
X116061279Y-116207371D01*
X115897418Y-116316860D01*
X115897414Y-116316863D01*
X115758063Y-116456214D01*
X115758060Y-116456218D01*
X115648571Y-116620079D01*
X115648564Y-116620092D01*
X115573150Y-116802160D01*
X115573147Y-116802170D01*
X115534700Y-116995456D01*
X115534700Y-116995459D01*
X115534700Y-117192541D01*
X115534700Y-117192543D01*
X115534699Y-117192543D01*
X113987700Y-117192543D01*
X113987700Y-113130847D01*
X115471700Y-113130847D01*
X115471700Y-114870352D01*
X115483331Y-114928829D01*
X115483332Y-114928830D01*
X115527647Y-114995152D01*
X115593969Y-115039467D01*
X115593970Y-115039468D01*
X115652447Y-115051099D01*
X115652450Y-115051100D01*
X115652452Y-115051100D01*
X117391950Y-115051100D01*
X117391951Y-115051099D01*
X117406768Y-115048152D01*
X117450429Y-115039468D01*
X117450429Y-115039467D01*
X117450431Y-115039467D01*
X117516752Y-114995152D01*
X117561067Y-114928831D01*
X117561067Y-114928829D01*
X117561068Y-114928829D01*
X117569752Y-114885168D01*
X117572700Y-114870348D01*
X117572700Y-113130852D01*
X117572700Y-113130849D01*
X117572699Y-113130847D01*
X117561068Y-113072370D01*
X117561067Y-113072369D01*
X117516752Y-113006047D01*
X117450430Y-112961732D01*
X117450429Y-112961731D01*
X117391952Y-112950100D01*
X117391948Y-112950100D01*
X115652452Y-112950100D01*
X115652447Y-112950100D01*
X115593970Y-112961731D01*
X115593969Y-112961732D01*
X115527647Y-113006047D01*
X115483332Y-113072369D01*
X115483331Y-113072370D01*
X115471700Y-113130847D01*
X113987700Y-113130847D01*
X113987700Y-111357130D01*
X115471700Y-111357130D01*
X115471700Y-111564069D01*
X115512068Y-111767012D01*
X115512070Y-111767020D01*
X115559986Y-111882700D01*
X115591259Y-111958198D01*
X115614446Y-111992900D01*
X115706224Y-112130257D01*
X115852542Y-112276575D01*
X115852545Y-112276577D01*
X116024602Y-112391541D01*
X116215780Y-112470730D01*
X116358457Y-112499110D01*
X116418730Y-112511099D01*
X116418734Y-112511100D01*
X116418735Y-112511100D01*
X116625666Y-112511100D01*
X116625667Y-112511099D01*
X116828620Y-112470730D01*
X117019798Y-112391541D01*
X117191855Y-112276577D01*
X117338177Y-112130255D01*
X117453141Y-111958198D01*
X117532330Y-111767020D01*
X117572700Y-111564065D01*
X117572700Y-111357135D01*
X117532330Y-111154180D01*
X117453141Y-110963002D01*
X117338177Y-110790945D01*
X117338175Y-110790942D01*
X117191857Y-110644624D01*
X117049729Y-110549658D01*
X117019798Y-110529659D01*
X116984128Y-110514884D01*
X116828620Y-110450470D01*
X116828612Y-110450468D01*
X116625669Y-110410100D01*
X116625665Y-110410100D01*
X116418735Y-110410100D01*
X116418730Y-110410100D01*
X116215787Y-110450468D01*
X116215779Y-110450470D01*
X116024603Y-110529658D01*
X115852542Y-110644624D01*
X115706224Y-110790942D01*
X115591258Y-110963003D01*
X115512070Y-111154179D01*
X115512068Y-111154187D01*
X115471700Y-111357130D01*
X113987700Y-111357130D01*
X113987700Y-91349638D01*
X115193300Y-91349638D01*
X115193300Y-100471162D01*
X115198875Y-100491966D01*
X115213779Y-100547590D01*
X115213782Y-100547595D01*
X115251132Y-100612287D01*
X115253340Y-100616111D01*
X116624940Y-101987711D01*
X116680889Y-102043660D01*
X116680891Y-102043661D01*
X116680895Y-102043664D01*
X116736038Y-102075500D01*
X116749411Y-102083221D01*
X116825838Y-102103700D01*
X116904962Y-102103700D01*
X122709367Y-102103700D01*
X122738807Y-102112344D01*
X122768794Y-102118868D01*
X122773809Y-102122622D01*
X122776406Y-102123385D01*
X122797048Y-102140019D01*
X122878581Y-102221552D01*
X122912066Y-102282875D01*
X122914900Y-102309233D01*
X122914900Y-104047722D01*
X122895215Y-104114761D01*
X122842411Y-104160516D01*
X122831855Y-104164763D01*
X122770924Y-104186083D01*
X122770923Y-104186084D01*
X122664689Y-104264488D01*
X122664688Y-104264489D01*
X122586284Y-104370723D01*
X122542674Y-104495350D01*
X122539900Y-104524939D01*
X122539900Y-105130460D01*
X122542674Y-105160049D01*
X122586284Y-105284676D01*
X122664688Y-105390910D01*
X122664689Y-105390911D01*
X122770923Y-105469315D01*
X122770924Y-105469315D01*
X122770925Y-105469316D01*
X122895551Y-105512925D01*
X122895550Y-105512925D01*
X122925140Y-105515700D01*
X122925144Y-105515700D01*
X123505660Y-105515700D01*
X123535249Y-105512925D01*
X123659875Y-105469316D01*
X123700614Y-105439249D01*
X123766240Y-105415279D01*
X123834411Y-105430594D01*
X123879784Y-105473922D01*
X123919454Y-105538237D01*
X124041361Y-105660144D01*
X124041365Y-105660147D01*
X124188088Y-105750648D01*
X124188101Y-105750654D01*
X124280605Y-105781306D01*
X124338050Y-105821078D01*
X124364874Y-105885593D01*
X124352560Y-105954369D01*
X124305017Y-106005570D01*
X124299550Y-106008639D01*
X124294923Y-106011084D01*
X124188689Y-106089488D01*
X124188688Y-106089489D01*
X124110284Y-106195723D01*
X124094441Y-106241000D01*
X124053719Y-106297776D01*
X123988765Y-106323522D01*
X123920204Y-106310065D01*
X123869802Y-106261677D01*
X123860359Y-106241000D01*
X123844515Y-106195723D01*
X123766111Y-106089489D01*
X123766110Y-106089488D01*
X123659876Y-106011084D01*
X123535248Y-105967474D01*
X123535249Y-105967474D01*
X123505660Y-105964700D01*
X123505656Y-105964700D01*
X122925144Y-105964700D01*
X122925140Y-105964700D01*
X122895550Y-105967474D01*
X122770923Y-106011084D01*
X122664689Y-106089488D01*
X122664688Y-106089489D01*
X122586284Y-106195723D01*
X122542674Y-106320350D01*
X122539900Y-106349939D01*
X122539900Y-106955460D01*
X122542674Y-106985049D01*
X122586284Y-107109676D01*
X122664688Y-107215910D01*
X122664689Y-107215911D01*
X122770923Y-107294315D01*
X122770924Y-107294315D01*
X122770925Y-107294316D01*
X122895551Y-107337925D01*
X122895550Y-107337925D01*
X122925140Y-107340700D01*
X122925144Y-107340700D01*
X123505660Y-107340700D01*
X123535249Y-107337925D01*
X123659875Y-107294316D01*
X123766111Y-107215911D01*
X123844516Y-107109675D01*
X123860359Y-107064399D01*
X123901081Y-107007624D01*
X123966034Y-106981877D01*
X124034595Y-106995334D01*
X124084998Y-107043721D01*
X124094441Y-107064399D01*
X124110284Y-107109676D01*
X124188688Y-107215910D01*
X124188689Y-107215911D01*
X124294925Y-107294316D01*
X124355857Y-107315637D01*
X124412630Y-107356357D01*
X124438378Y-107421309D01*
X124438900Y-107432677D01*
X124438900Y-109036969D01*
X124419215Y-109104008D01*
X124366411Y-109149763D01*
X124297253Y-109159707D01*
X124275898Y-109154675D01*
X124212657Y-109133720D01*
X124212653Y-109133719D01*
X124111654Y-109123400D01*
X124075000Y-109123400D01*
X124075000Y-109860900D01*
X124851361Y-109860900D01*
X124851361Y-109864651D01*
X124895598Y-109867815D01*
X124939945Y-109896316D01*
X125673848Y-110630219D01*
X125707333Y-110691542D01*
X125702349Y-110761234D01*
X125660477Y-110817167D01*
X125595013Y-110841584D01*
X125586167Y-110841900D01*
X124851769Y-110841900D01*
X124784730Y-110822215D01*
X124738975Y-110769411D01*
X124729031Y-110700253D01*
X124734063Y-110678896D01*
X124789680Y-110511051D01*
X124799999Y-110410054D01*
X124800000Y-110410041D01*
X124800000Y-110360900D01*
X122850000Y-110360900D01*
X122842741Y-110368159D01*
X122781418Y-110401644D01*
X122711726Y-110396658D01*
X122655793Y-110354786D01*
X122638022Y-110321437D01*
X122625316Y-110285125D01*
X122625010Y-110284711D01*
X122546911Y-110178889D01*
X122546910Y-110178888D01*
X122440679Y-110100487D01*
X122440675Y-110100484D01*
X122440670Y-110100482D01*
X122436052Y-110098041D01*
X122385981Y-110049310D01*
X122370204Y-109981245D01*
X122393731Y-109915455D01*
X122449091Y-109872829D01*
X122454994Y-109870706D01*
X122547498Y-109840054D01*
X122547507Y-109840050D01*
X122660902Y-109770106D01*
X122728294Y-109751665D01*
X122794958Y-109772587D01*
X122839728Y-109826228D01*
X122846130Y-109857030D01*
X122850000Y-109860900D01*
X123575000Y-109860900D01*
X123575000Y-109123400D01*
X123538361Y-109123400D01*
X123538343Y-109123401D01*
X123437347Y-109133719D01*
X123273699Y-109187946D01*
X123273688Y-109187951D01*
X123160297Y-109257893D01*
X123092905Y-109276334D01*
X123026241Y-109255412D01*
X122981472Y-109201770D01*
X122975069Y-109170969D01*
X122971200Y-109167100D01*
X121021201Y-109167100D01*
X121021201Y-109216254D01*
X121031519Y-109317252D01*
X121085746Y-109480900D01*
X121085751Y-109480911D01*
X121176252Y-109627634D01*
X121176255Y-109627638D01*
X121298161Y-109749544D01*
X121298165Y-109749547D01*
X121444888Y-109840048D01*
X121444901Y-109840054D01*
X121537405Y-109870706D01*
X121594850Y-109910478D01*
X121621674Y-109974993D01*
X121609360Y-110043769D01*
X121561817Y-110094970D01*
X121556350Y-110098039D01*
X121551723Y-110100484D01*
X121445489Y-110178888D01*
X121445488Y-110178889D01*
X121367084Y-110285123D01*
X121367084Y-110285124D01*
X121341389Y-110358555D01*
X121327770Y-110377542D01*
X121318061Y-110398803D01*
X121307784Y-110405406D01*
X121300667Y-110415331D01*
X121278943Y-110423942D01*
X121259283Y-110436577D01*
X121240116Y-110439332D01*
X121235714Y-110441078D01*
X121224348Y-110441600D01*
X121077933Y-110441600D01*
X121010894Y-110421915D01*
X120990252Y-110405281D01*
X119265112Y-108680141D01*
X119265104Y-108680135D01*
X119196595Y-108640582D01*
X119196590Y-108640579D01*
X119171113Y-108633752D01*
X119120162Y-108620100D01*
X119120160Y-108620100D01*
X117617636Y-108620100D01*
X117610297Y-108617945D01*
X121021200Y-108617945D01*
X121021200Y-108667100D01*
X121746200Y-108667100D01*
X122246200Y-108667100D01*
X122971199Y-108667100D01*
X122971199Y-108617960D01*
X122971198Y-108617945D01*
X122960880Y-108516947D01*
X122906653Y-108353299D01*
X122906648Y-108353288D01*
X122816147Y-108206565D01*
X122816144Y-108206561D01*
X122694238Y-108084655D01*
X122694234Y-108084652D01*
X122547511Y-107994151D01*
X122547500Y-107994146D01*
X122383852Y-107939919D01*
X122282854Y-107929600D01*
X122246200Y-107929600D01*
X122246200Y-108667100D01*
X121746200Y-108667100D01*
X121746200Y-107929600D01*
X121709561Y-107929600D01*
X121709543Y-107929601D01*
X121608547Y-107939919D01*
X121444899Y-107994146D01*
X121444888Y-107994151D01*
X121298165Y-108084652D01*
X121298161Y-108084655D01*
X121176255Y-108206561D01*
X121176252Y-108206565D01*
X121085751Y-108353288D01*
X121085746Y-108353299D01*
X121031519Y-108516947D01*
X121021200Y-108617945D01*
X117610297Y-108617945D01*
X117550597Y-108600415D01*
X117504842Y-108547611D01*
X117503075Y-108543553D01*
X117453141Y-108423002D01*
X117338177Y-108250945D01*
X117338175Y-108250942D01*
X117191857Y-108104624D01*
X117046059Y-108007206D01*
X117019798Y-107989659D01*
X117019793Y-107989657D01*
X116899875Y-107939985D01*
X116855090Y-107921434D01*
X116800688Y-107877594D01*
X116778623Y-107811300D01*
X116795902Y-107743601D01*
X116847039Y-107695990D01*
X116864226Y-107688943D01*
X117040417Y-107631695D01*
X117229757Y-107535220D01*
X117401659Y-107410327D01*
X117401664Y-107410323D01*
X117551923Y-107260064D01*
X117551927Y-107260059D01*
X117676820Y-107088157D01*
X117773295Y-106898817D01*
X117838957Y-106696729D01*
X117838957Y-106696726D01*
X117849431Y-106630600D01*
X116955212Y-106630600D01*
X116988125Y-106573593D01*
X117022200Y-106446426D01*
X117022200Y-106314774D01*
X116988125Y-106187607D01*
X116955212Y-106130600D01*
X117849431Y-106130600D01*
X117838957Y-106064473D01*
X117838957Y-106064470D01*
X117773295Y-105862382D01*
X117676820Y-105673042D01*
X117551927Y-105501140D01*
X117551923Y-105501135D01*
X117401664Y-105350876D01*
X117401659Y-105350872D01*
X117229757Y-105225979D01*
X117040415Y-105129503D01*
X116838324Y-105063841D01*
X116772200Y-105053368D01*
X116772200Y-105947588D01*
X116715193Y-105914675D01*
X116588026Y-105880600D01*
X116456374Y-105880600D01*
X116329207Y-105914675D01*
X116272200Y-105947588D01*
X116272200Y-105053368D01*
X116272199Y-105053368D01*
X116206075Y-105063841D01*
X116003984Y-105129503D01*
X115814642Y-105225979D01*
X115642740Y-105350872D01*
X115642735Y-105350876D01*
X115492476Y-105501135D01*
X115492472Y-105501140D01*
X115367579Y-105673042D01*
X115271104Y-105862382D01*
X115205442Y-106064470D01*
X115205442Y-106064473D01*
X115194969Y-106130600D01*
X116089188Y-106130600D01*
X116056275Y-106187607D01*
X116022200Y-106314774D01*
X116022200Y-106446426D01*
X116056275Y-106573593D01*
X116089188Y-106630600D01*
X115194969Y-106630600D01*
X115205442Y-106696726D01*
X115205442Y-106696729D01*
X115271104Y-106898817D01*
X115367579Y-107088157D01*
X115492472Y-107260059D01*
X115492476Y-107260064D01*
X115642735Y-107410323D01*
X115642740Y-107410327D01*
X115814642Y-107535220D01*
X116003982Y-107631695D01*
X116180173Y-107688943D01*
X116237848Y-107728380D01*
X116265047Y-107792739D01*
X116253132Y-107861585D01*
X116205888Y-107913061D01*
X116189308Y-107921435D01*
X116024603Y-107989657D01*
X115852542Y-108104624D01*
X115706224Y-108250942D01*
X115591258Y-108423003D01*
X115512070Y-108614179D01*
X115512068Y-108614187D01*
X115471700Y-108817130D01*
X115471700Y-109024069D01*
X115512068Y-109227012D01*
X115512070Y-109227020D01*
X115570787Y-109368776D01*
X115591259Y-109418198D01*
X115616057Y-109455311D01*
X115706224Y-109590257D01*
X115852542Y-109736575D01*
X115852545Y-109736577D01*
X116024602Y-109851541D01*
X116215780Y-109930730D01*
X116401305Y-109967633D01*
X116418730Y-109971099D01*
X116418734Y-109971100D01*
X116418735Y-109971100D01*
X116625666Y-109971100D01*
X116625667Y-109971099D01*
X116828620Y-109930730D01*
X117019798Y-109851541D01*
X117191855Y-109736577D01*
X117338177Y-109590255D01*
X117453141Y-109418198D01*
X117503075Y-109297646D01*
X117546916Y-109243244D01*
X117613210Y-109221179D01*
X117617636Y-109221100D01*
X118904767Y-109221100D01*
X118971806Y-109240785D01*
X118992448Y-109257419D01*
X120661640Y-110926611D01*
X120717589Y-110982560D01*
X120717591Y-110982561D01*
X120717595Y-110982564D01*
X120773791Y-111015008D01*
X120786111Y-111022121D01*
X120862538Y-111042600D01*
X121224348Y-111042600D01*
X121291387Y-111062285D01*
X121337142Y-111115089D01*
X121341389Y-111125645D01*
X121367084Y-111199075D01*
X121367084Y-111199076D01*
X121445488Y-111305310D01*
X121445489Y-111305311D01*
X121551721Y-111383714D01*
X121551723Y-111383714D01*
X121551725Y-111383716D01*
X121564569Y-111388210D01*
X121621343Y-111428928D01*
X121647093Y-111493880D01*
X121633639Y-111562442D01*
X121611296Y-111592932D01*
X120465489Y-112738740D01*
X120409541Y-112794687D01*
X120409535Y-112794695D01*
X120369982Y-112863204D01*
X120369979Y-112863209D01*
X120358865Y-112904689D01*
X120349500Y-112939638D01*
X120349500Y-115088862D01*
X120358865Y-115123812D01*
X120369979Y-115165290D01*
X120390155Y-115200234D01*
X120390156Y-115200238D01*
X120390157Y-115200238D01*
X120409539Y-115233809D01*
X120409541Y-115233812D01*
X121873181Y-116697452D01*
X121906666Y-116758775D01*
X121909500Y-116785133D01*
X121909500Y-118116152D01*
X121921131Y-118174629D01*
X121921132Y-118174630D01*
X121965447Y-118240952D01*
X122031769Y-118285267D01*
X122031770Y-118285268D01*
X122090247Y-118296899D01*
X122090250Y-118296900D01*
X122090252Y-118296900D01*
X123829750Y-118296900D01*
X123829751Y-118296899D01*
X123844568Y-118293952D01*
X123888229Y-118285268D01*
X123888229Y-118285267D01*
X123888231Y-118285267D01*
X123954552Y-118240952D01*
X123998867Y-118174631D01*
X123998867Y-118174629D01*
X123998868Y-118174629D01*
X124010499Y-118116152D01*
X124010500Y-118116150D01*
X124010500Y-116376648D01*
X124010499Y-116376647D01*
X123998868Y-116318170D01*
X123998867Y-116318169D01*
X123954552Y-116251847D01*
X123888230Y-116207532D01*
X123888229Y-116207531D01*
X123829752Y-116195900D01*
X123829748Y-116195900D01*
X122272933Y-116195900D01*
X122205894Y-116176215D01*
X122185252Y-116159581D01*
X120986819Y-114961148D01*
X120953334Y-114899825D01*
X120950500Y-114873467D01*
X120950500Y-113155032D01*
X120970185Y-113087993D01*
X120986814Y-113067356D01*
X122027726Y-112026443D01*
X122089047Y-111992960D01*
X122158739Y-111997944D01*
X122214672Y-112039816D01*
X122235178Y-112082029D01*
X122238905Y-112095936D01*
X122301505Y-112204364D01*
X122390036Y-112292895D01*
X122498464Y-112355495D01*
X122619399Y-112387900D01*
X122619401Y-112387900D01*
X122744599Y-112387900D01*
X122744601Y-112387900D01*
X122865536Y-112355495D01*
X122973964Y-112292895D01*
X122973970Y-112292888D01*
X122980409Y-112287949D01*
X122981442Y-112289296D01*
X123034209Y-112260477D01*
X123103901Y-112265454D01*
X123159839Y-112307319D01*
X123177621Y-112340684D01*
X123195884Y-112392876D01*
X123274288Y-112499110D01*
X123274289Y-112499111D01*
X123317631Y-112531099D01*
X123380525Y-112577516D01*
X123441457Y-112598837D01*
X123498230Y-112639557D01*
X123523978Y-112704509D01*
X123524500Y-112715877D01*
X123524500Y-112866362D01*
X123534770Y-112904689D01*
X123544980Y-112942793D01*
X123555916Y-112961733D01*
X123560747Y-112970100D01*
X123584540Y-113011311D01*
X124905340Y-114332111D01*
X124961289Y-114388060D01*
X124961291Y-114388061D01*
X124961295Y-114388064D01*
X125029804Y-114427617D01*
X125029811Y-114427621D01*
X125106238Y-114448100D01*
X126671767Y-114448100D01*
X126738806Y-114467785D01*
X126759448Y-114484419D01*
X127590281Y-115315252D01*
X127623766Y-115376575D01*
X127626600Y-115402933D01*
X127626600Y-116197728D01*
X127606915Y-116264767D01*
X127554111Y-116310522D01*
X127550062Y-116312285D01*
X127542407Y-116315456D01*
X127542394Y-116315463D01*
X127370344Y-116430422D01*
X127224024Y-116576742D01*
X127109058Y-116748803D01*
X127029870Y-116939979D01*
X127029868Y-116939987D01*
X126989500Y-117142930D01*
X126989500Y-117349869D01*
X127029868Y-117552812D01*
X127029870Y-117552820D01*
X127109058Y-117743996D01*
X127224024Y-117916057D01*
X127370342Y-118062375D01*
X127370345Y-118062377D01*
X127542402Y-118177341D01*
X127733580Y-118256530D01*
X127878052Y-118285267D01*
X127936530Y-118296899D01*
X127936534Y-118296900D01*
X127936535Y-118296900D01*
X128143466Y-118296900D01*
X128143467Y-118296899D01*
X128346420Y-118256530D01*
X128537598Y-118177341D01*
X128709655Y-118062377D01*
X128855977Y-117916055D01*
X128970941Y-117743998D01*
X129050130Y-117552820D01*
X129090500Y-117349865D01*
X129090500Y-117142935D01*
X129050130Y-116939980D01*
X128970941Y-116748802D01*
X128855977Y-116576745D01*
X128855975Y-116576742D01*
X128709657Y-116430424D01*
X128629173Y-116376647D01*
X131949500Y-116376647D01*
X131949500Y-118116152D01*
X131961131Y-118174629D01*
X131961132Y-118174630D01*
X132005447Y-118240952D01*
X132071769Y-118285267D01*
X132071770Y-118285268D01*
X132130247Y-118296899D01*
X132130250Y-118296900D01*
X132130252Y-118296900D01*
X133869750Y-118296900D01*
X133869751Y-118296899D01*
X133884568Y-118293952D01*
X133928229Y-118285268D01*
X133928229Y-118285267D01*
X133928231Y-118285267D01*
X133994552Y-118240952D01*
X134038867Y-118174631D01*
X134038867Y-118174629D01*
X134038868Y-118174629D01*
X134050499Y-118116152D01*
X134050500Y-118116150D01*
X134050500Y-116376648D01*
X134050499Y-116376647D01*
X134038868Y-116318170D01*
X134038867Y-116318169D01*
X133994552Y-116251847D01*
X133928230Y-116207532D01*
X133928229Y-116207531D01*
X133869752Y-116195900D01*
X133869748Y-116195900D01*
X132130252Y-116195900D01*
X132130247Y-116195900D01*
X132071770Y-116207531D01*
X132071769Y-116207532D01*
X132005447Y-116251847D01*
X131961132Y-116318169D01*
X131961131Y-116318170D01*
X131949500Y-116376647D01*
X128629173Y-116376647D01*
X128541655Y-116318170D01*
X128537598Y-116315459D01*
X128537593Y-116315457D01*
X128346420Y-116236270D01*
X128346412Y-116236268D01*
X128327409Y-116232488D01*
X128265498Y-116200103D01*
X128230924Y-116139388D01*
X128227600Y-116110871D01*
X128227600Y-115343084D01*
X128231825Y-115310991D01*
X128240300Y-115279362D01*
X128240300Y-115200238D01*
X128219822Y-115123812D01*
X128180260Y-115055289D01*
X128124311Y-114999340D01*
X127032111Y-113907140D01*
X127032110Y-113907139D01*
X127013836Y-113896589D01*
X126995561Y-113886038D01*
X126995560Y-113886037D01*
X126963594Y-113867581D01*
X126963593Y-113867580D01*
X126954560Y-113865159D01*
X126887162Y-113847100D01*
X126887160Y-113847100D01*
X125321633Y-113847100D01*
X125254594Y-113827415D01*
X125233952Y-113810781D01*
X124209903Y-112786732D01*
X124176418Y-112725409D01*
X124181402Y-112655717D01*
X124223274Y-112599784D01*
X124256629Y-112582010D01*
X124269475Y-112577516D01*
X124375711Y-112499111D01*
X124454116Y-112392875D01*
X124497725Y-112268249D01*
X124500500Y-112238656D01*
X124500500Y-112066900D01*
X124520185Y-111999861D01*
X124572989Y-111954106D01*
X124624500Y-111942900D01*
X127433783Y-111942900D01*
X127500822Y-111962585D01*
X127502650Y-111963782D01*
X127522305Y-111976915D01*
X127522307Y-111976915D01*
X127522307Y-111976916D01*
X127582303Y-111988849D01*
X127602667Y-111992900D01*
X128956932Y-111992899D01*
X129037295Y-111976915D01*
X129128424Y-111916024D01*
X129189315Y-111824895D01*
X129205300Y-111744533D01*
X129205299Y-111540268D01*
X129189315Y-111459905D01*
X129189313Y-111459902D01*
X129184641Y-111448622D01*
X129186085Y-111448023D01*
X129169363Y-111394611D01*
X129185317Y-111336456D01*
X129184642Y-111336177D01*
X129186870Y-111330796D01*
X129187849Y-111327231D01*
X129189252Y-111325047D01*
X129189316Y-111324893D01*
X129198888Y-111276765D01*
X129205300Y-111244533D01*
X129205299Y-111040268D01*
X129189315Y-110959905D01*
X129189313Y-110959902D01*
X129184641Y-110948622D01*
X129186085Y-110948023D01*
X129182819Y-110937592D01*
X129171511Y-110915487D01*
X129172562Y-110904829D01*
X129169363Y-110894611D01*
X129175932Y-110870666D01*
X129178370Y-110845954D01*
X129187392Y-110828895D01*
X129187849Y-110827231D01*
X129189068Y-110825492D01*
X129189316Y-110824893D01*
X129202966Y-110756268D01*
X129205300Y-110744533D01*
X129205299Y-110727233D01*
X129224981Y-110660197D01*
X129277783Y-110614440D01*
X129346941Y-110604493D01*
X129410498Y-110633516D01*
X129416980Y-110639551D01*
X129469881Y-110692452D01*
X129470711Y-110693972D01*
X129472210Y-110694844D01*
X129487399Y-110724533D01*
X129503366Y-110753775D01*
X129503634Y-110756268D01*
X129504032Y-110757046D01*
X129503881Y-110758570D01*
X129506200Y-110780133D01*
X129506200Y-112828262D01*
X129515563Y-112863204D01*
X129526679Y-112904690D01*
X129537677Y-112923739D01*
X129548676Y-112942789D01*
X129566240Y-112973211D01*
X130163140Y-113570111D01*
X130219089Y-113626060D01*
X130219091Y-113626061D01*
X130219095Y-113626064D01*
X130287604Y-113665617D01*
X130287611Y-113665621D01*
X130364038Y-113686100D01*
X134824167Y-113686100D01*
X134891206Y-113705785D01*
X134911848Y-113722419D01*
X135203181Y-114013752D01*
X135236666Y-114075075D01*
X135239500Y-114101433D01*
X135239500Y-116150963D01*
X135219815Y-116218002D01*
X135167011Y-116263757D01*
X135162953Y-116265524D01*
X135042404Y-116315457D01*
X134870342Y-116430424D01*
X134724024Y-116576742D01*
X134609058Y-116748803D01*
X134529870Y-116939979D01*
X134529868Y-116939987D01*
X134489500Y-117142930D01*
X134489500Y-117349869D01*
X134529868Y-117552812D01*
X134529870Y-117552820D01*
X134609058Y-117743996D01*
X134724024Y-117916057D01*
X134870342Y-118062375D01*
X134870345Y-118062377D01*
X135042402Y-118177341D01*
X135162953Y-118227275D01*
X135217356Y-118271114D01*
X135239421Y-118337408D01*
X135239500Y-118341835D01*
X135239500Y-119829763D01*
X135219815Y-119896802D01*
X135167011Y-119942557D01*
X135162953Y-119944324D01*
X135042404Y-119994257D01*
X134870342Y-120109224D01*
X134724024Y-120255542D01*
X134609058Y-120427603D01*
X134588561Y-120477088D01*
X134544720Y-120531491D01*
X134478426Y-120553556D01*
X134410726Y-120536277D01*
X134363116Y-120485139D01*
X134350000Y-120429635D01*
X134350000Y-120027372D01*
X134349999Y-120027355D01*
X134343598Y-119967827D01*
X134343596Y-119967820D01*
X134293354Y-119833113D01*
X134293350Y-119833106D01*
X134207190Y-119718012D01*
X134207187Y-119718009D01*
X134092093Y-119631849D01*
X134092086Y-119631845D01*
X133957379Y-119581603D01*
X133957372Y-119581601D01*
X133897844Y-119575200D01*
X133250000Y-119575200D01*
X133250000Y-120492188D01*
X133192993Y-120459275D01*
X133065826Y-120425200D01*
X132934174Y-120425200D01*
X132807007Y-120459275D01*
X132750000Y-120492188D01*
X132750000Y-119575200D01*
X132102155Y-119575200D01*
X132042627Y-119581601D01*
X132042620Y-119581603D01*
X131907913Y-119631845D01*
X131907906Y-119631849D01*
X131792812Y-119718009D01*
X131792809Y-119718012D01*
X131706649Y-119833106D01*
X131706645Y-119833113D01*
X131656403Y-119967820D01*
X131656401Y-119967827D01*
X131650000Y-120027355D01*
X131650000Y-120675200D01*
X132566988Y-120675200D01*
X132534075Y-120732207D01*
X132500000Y-120859374D01*
X132500000Y-120991026D01*
X132534075Y-121118193D01*
X132566988Y-121175200D01*
X131650000Y-121175200D01*
X131650000Y-121823044D01*
X131656401Y-121882572D01*
X131656403Y-121882579D01*
X131706645Y-122017286D01*
X131706649Y-122017293D01*
X131792809Y-122132387D01*
X131792812Y-122132390D01*
X131907906Y-122218550D01*
X131907913Y-122218554D01*
X132042620Y-122268796D01*
X132042627Y-122268798D01*
X132102155Y-122275199D01*
X132102172Y-122275200D01*
X132750000Y-122275200D01*
X132750000Y-121358212D01*
X132807007Y-121391125D01*
X132934174Y-121425200D01*
X133065826Y-121425200D01*
X133192993Y-121391125D01*
X133250000Y-121358212D01*
X133250000Y-122275200D01*
X133897828Y-122275200D01*
X133897844Y-122275199D01*
X133957372Y-122268798D01*
X133957379Y-122268796D01*
X134092086Y-122218554D01*
X134092093Y-122218550D01*
X134207187Y-122132390D01*
X134207190Y-122132387D01*
X134293350Y-122017293D01*
X134293354Y-122017286D01*
X134343596Y-121882579D01*
X134343598Y-121882572D01*
X134349999Y-121823044D01*
X134350000Y-121823027D01*
X134350000Y-121420764D01*
X134369685Y-121353725D01*
X134422489Y-121307970D01*
X134491647Y-121298026D01*
X134555203Y-121327051D01*
X134588561Y-121373312D01*
X134602088Y-121405970D01*
X134609059Y-121422798D01*
X134641475Y-121471312D01*
X134724024Y-121594857D01*
X134870342Y-121741175D01*
X134870345Y-121741177D01*
X135042402Y-121856141D01*
X135233580Y-121935330D01*
X135436530Y-121975699D01*
X135436534Y-121975700D01*
X135436535Y-121975700D01*
X135643466Y-121975700D01*
X135643467Y-121975699D01*
X135846420Y-121935330D01*
X136037598Y-121856141D01*
X136209655Y-121741177D01*
X136355977Y-121594855D01*
X136470941Y-121422798D01*
X136550130Y-121231620D01*
X136590500Y-121028665D01*
X136590500Y-120821735D01*
X136590499Y-120821730D01*
X137029500Y-120821730D01*
X137029500Y-121028669D01*
X137069868Y-121231612D01*
X137069870Y-121231620D01*
X137142088Y-121405970D01*
X137149059Y-121422798D01*
X137168387Y-121451725D01*
X137264024Y-121594857D01*
X137410342Y-121741175D01*
X137410345Y-121741177D01*
X137582402Y-121856141D01*
X137773580Y-121935330D01*
X137976530Y-121975699D01*
X137976534Y-121975700D01*
X137976535Y-121975700D01*
X138183466Y-121975700D01*
X138183467Y-121975699D01*
X138386420Y-121935330D01*
X138515292Y-121881949D01*
X142812100Y-121881949D01*
X142812100Y-122104850D01*
X142812101Y-122104866D01*
X142841194Y-122325852D01*
X142841195Y-122325857D01*
X142841196Y-122325863D01*
X142898890Y-122541180D01*
X142898893Y-122541190D01*
X142984193Y-122747122D01*
X142984195Y-122747126D01*
X143095652Y-122940174D01*
X143095657Y-122940180D01*
X143095658Y-122940182D01*
X143231351Y-123117022D01*
X143231357Y-123117029D01*
X143388970Y-123274642D01*
X143388976Y-123274647D01*
X143565826Y-123410348D01*
X143758874Y-123521805D01*
X143964819Y-123607110D01*
X144180137Y-123664804D01*
X144401143Y-123693900D01*
X144401150Y-123693900D01*
X144624050Y-123693900D01*
X144624057Y-123693900D01*
X144845063Y-123664804D01*
X145060381Y-123607110D01*
X145266326Y-123521805D01*
X145459374Y-123410348D01*
X145636224Y-123274647D01*
X145793847Y-123117024D01*
X145929548Y-122940174D01*
X146041005Y-122747126D01*
X146126310Y-122541181D01*
X146184004Y-122325863D01*
X146213100Y-122104857D01*
X146213100Y-121881943D01*
X146184004Y-121660937D01*
X146126310Y-121445619D01*
X146117790Y-121425051D01*
X146041006Y-121239677D01*
X146041005Y-121239674D01*
X145929548Y-121046626D01*
X145793847Y-120869776D01*
X145793842Y-120869770D01*
X145636229Y-120712157D01*
X145636222Y-120712151D01*
X145459382Y-120576458D01*
X145459380Y-120576457D01*
X145459374Y-120576452D01*
X145266326Y-120464995D01*
X145266322Y-120464993D01*
X145060390Y-120379693D01*
X145060383Y-120379691D01*
X145060381Y-120379690D01*
X144845063Y-120321996D01*
X144845057Y-120321995D01*
X144845052Y-120321994D01*
X144624066Y-120292901D01*
X144624063Y-120292900D01*
X144624057Y-120292900D01*
X144401143Y-120292900D01*
X144401137Y-120292900D01*
X144401133Y-120292901D01*
X144180147Y-120321994D01*
X144180140Y-120321995D01*
X144180137Y-120321996D01*
X144062405Y-120353542D01*
X143964819Y-120379690D01*
X143964809Y-120379693D01*
X143758877Y-120464993D01*
X143758873Y-120464995D01*
X143565826Y-120576452D01*
X143565817Y-120576458D01*
X143388977Y-120712151D01*
X143388970Y-120712157D01*
X143231357Y-120869770D01*
X143231351Y-120869777D01*
X143095658Y-121046617D01*
X143095652Y-121046626D01*
X142984195Y-121239673D01*
X142984193Y-121239677D01*
X142898893Y-121445609D01*
X142898890Y-121445619D01*
X142878747Y-121520796D01*
X142841197Y-121660934D01*
X142841194Y-121660947D01*
X142812101Y-121881933D01*
X142812100Y-121881949D01*
X138515292Y-121881949D01*
X138577598Y-121856141D01*
X138749655Y-121741177D01*
X138895977Y-121594855D01*
X139010941Y-121422798D01*
X139090130Y-121231620D01*
X139130500Y-121028665D01*
X139130500Y-120821735D01*
X139090130Y-120618780D01*
X139010941Y-120427602D01*
X138895977Y-120255545D01*
X138895975Y-120255542D01*
X138749657Y-120109224D01*
X138605748Y-120013068D01*
X138577598Y-119994259D01*
X138577593Y-119994257D01*
X138386420Y-119915070D01*
X138386412Y-119915068D01*
X138183469Y-119874700D01*
X138183465Y-119874700D01*
X137976535Y-119874700D01*
X137976530Y-119874700D01*
X137773587Y-119915068D01*
X137773579Y-119915070D01*
X137582403Y-119994258D01*
X137410342Y-120109224D01*
X137264024Y-120255542D01*
X137149058Y-120427603D01*
X137069870Y-120618779D01*
X137069868Y-120618787D01*
X137029500Y-120821730D01*
X136590499Y-120821730D01*
X136550130Y-120618780D01*
X136470941Y-120427602D01*
X136355977Y-120255545D01*
X136355975Y-120255542D01*
X136209657Y-120109224D01*
X136037595Y-119994257D01*
X135917047Y-119944324D01*
X135862643Y-119900482D01*
X135840579Y-119834188D01*
X135840500Y-119829763D01*
X135840500Y-118341835D01*
X135860185Y-118274796D01*
X135912989Y-118229041D01*
X135917012Y-118227289D01*
X136037598Y-118177341D01*
X136209655Y-118062377D01*
X136355977Y-117916055D01*
X136470941Y-117743998D01*
X136550130Y-117552820D01*
X136590500Y-117349865D01*
X136590500Y-117142935D01*
X136590499Y-117142930D01*
X137029500Y-117142930D01*
X137029500Y-117349869D01*
X137069868Y-117552812D01*
X137069870Y-117552820D01*
X137149058Y-117743996D01*
X137264024Y-117916057D01*
X137410342Y-118062375D01*
X137410345Y-118062377D01*
X137582402Y-118177341D01*
X137773580Y-118256530D01*
X137918052Y-118285267D01*
X137976530Y-118296899D01*
X137976534Y-118296900D01*
X137976535Y-118296900D01*
X138183466Y-118296900D01*
X138183467Y-118296899D01*
X138386420Y-118256530D01*
X138577598Y-118177341D01*
X138749655Y-118062377D01*
X138895977Y-117916055D01*
X139010941Y-117743998D01*
X139060875Y-117623446D01*
X139104716Y-117569044D01*
X139171010Y-117546979D01*
X139175436Y-117546900D01*
X141263560Y-117546900D01*
X141263562Y-117546900D01*
X141339989Y-117526421D01*
X141408511Y-117486860D01*
X141464460Y-117430911D01*
X142505860Y-116389511D01*
X142513284Y-116376652D01*
X142545421Y-116320989D01*
X142565900Y-116244562D01*
X142565900Y-113917130D01*
X143450100Y-113917130D01*
X143450100Y-114124069D01*
X143490468Y-114327012D01*
X143490470Y-114327020D01*
X143569658Y-114518196D01*
X143684624Y-114690257D01*
X143830942Y-114836575D01*
X143830945Y-114836577D01*
X144003002Y-114951541D01*
X144194180Y-115030730D01*
X144397130Y-115071099D01*
X144397134Y-115071100D01*
X144397135Y-115071100D01*
X144604066Y-115071100D01*
X144604067Y-115071099D01*
X144807020Y-115030730D01*
X144998198Y-114951541D01*
X145170255Y-114836577D01*
X145316577Y-114690255D01*
X145431541Y-114518198D01*
X145510730Y-114327020D01*
X145551100Y-114124065D01*
X145551100Y-113917135D01*
X145510730Y-113714180D01*
X145431541Y-113523002D01*
X145316577Y-113350945D01*
X145316575Y-113350942D01*
X145170257Y-113204624D01*
X145059848Y-113130852D01*
X144998198Y-113089659D01*
X144899510Y-113048781D01*
X144807020Y-113010470D01*
X144807012Y-113010468D01*
X144604069Y-112970100D01*
X144604065Y-112970100D01*
X144397135Y-112970100D01*
X144397130Y-112970100D01*
X144194187Y-113010468D01*
X144194179Y-113010470D01*
X144003003Y-113089658D01*
X143830942Y-113204624D01*
X143684624Y-113350942D01*
X143569658Y-113523003D01*
X143490470Y-113714179D01*
X143490468Y-113714187D01*
X143450100Y-113917130D01*
X142565900Y-113917130D01*
X142565900Y-112266033D01*
X142585585Y-112198994D01*
X142602219Y-112178352D01*
X142963152Y-111817419D01*
X143024475Y-111783934D01*
X143050833Y-111781100D01*
X143405164Y-111781100D01*
X143472203Y-111800785D01*
X143517958Y-111853589D01*
X143519721Y-111857639D01*
X143530102Y-111882700D01*
X143569127Y-111976915D01*
X143569659Y-111978198D01*
X143610831Y-112039816D01*
X143684624Y-112150257D01*
X143830942Y-112296575D01*
X143830945Y-112296577D01*
X144003002Y-112411541D01*
X144194180Y-112490730D01*
X144369208Y-112525545D01*
X144397130Y-112531099D01*
X144397134Y-112531100D01*
X144397135Y-112531100D01*
X144604066Y-112531100D01*
X144604067Y-112531099D01*
X144807020Y-112490730D01*
X144998198Y-112411541D01*
X145170255Y-112296577D01*
X145316577Y-112150255D01*
X145431541Y-111978198D01*
X145510730Y-111787020D01*
X145551100Y-111584065D01*
X145551100Y-111377135D01*
X145510730Y-111174180D01*
X145431541Y-110983002D01*
X145316577Y-110810945D01*
X145316575Y-110810942D01*
X145170257Y-110664624D01*
X145020765Y-110564738D01*
X144998198Y-110549659D01*
X144975526Y-110540268D01*
X144807020Y-110470470D01*
X144807012Y-110470468D01*
X144604069Y-110430100D01*
X144604065Y-110430100D01*
X144397135Y-110430100D01*
X144397130Y-110430100D01*
X144194187Y-110470468D01*
X144194179Y-110470470D01*
X144003003Y-110549658D01*
X143830942Y-110664624D01*
X143684624Y-110810942D01*
X143569658Y-110983003D01*
X143519725Y-111103553D01*
X143475884Y-111157956D01*
X143409590Y-111180021D01*
X143405164Y-111180100D01*
X142835438Y-111180100D01*
X142759010Y-111200578D01*
X142690489Y-111240140D01*
X142690486Y-111240142D01*
X142024941Y-111905687D01*
X142024935Y-111905695D01*
X141985382Y-111974204D01*
X141985379Y-111974209D01*
X141964900Y-112050639D01*
X141964900Y-116029167D01*
X141945215Y-116096206D01*
X141928581Y-116116848D01*
X141135848Y-116909581D01*
X141074525Y-116943066D01*
X141048167Y-116945900D01*
X139175436Y-116945900D01*
X139108397Y-116926215D01*
X139062642Y-116873411D01*
X139060875Y-116869353D01*
X139033045Y-116802165D01*
X139010941Y-116748802D01*
X138895977Y-116576745D01*
X138895975Y-116576742D01*
X138749657Y-116430424D01*
X138581655Y-116318170D01*
X138577598Y-116315459D01*
X138577593Y-116315457D01*
X138386420Y-116236270D01*
X138386412Y-116236268D01*
X138183469Y-116195900D01*
X138183465Y-116195900D01*
X137976535Y-116195900D01*
X137976530Y-116195900D01*
X137773587Y-116236268D01*
X137773579Y-116236270D01*
X137582403Y-116315458D01*
X137410342Y-116430424D01*
X137264024Y-116576742D01*
X137149058Y-116748803D01*
X137069870Y-116939979D01*
X137069868Y-116939987D01*
X137029500Y-117142930D01*
X136590499Y-117142930D01*
X136550130Y-116939980D01*
X136470941Y-116748802D01*
X136355977Y-116576745D01*
X136355975Y-116576742D01*
X136209657Y-116430424D01*
X136037595Y-116315457D01*
X135917047Y-116265524D01*
X135862643Y-116221682D01*
X135840579Y-116155388D01*
X135840500Y-116150963D01*
X135840500Y-113886039D01*
X135840500Y-113886038D01*
X135820021Y-113809611D01*
X135820017Y-113809604D01*
X135780464Y-113741095D01*
X135780458Y-113741087D01*
X135184510Y-113145139D01*
X135159758Y-113130849D01*
X135153611Y-113127300D01*
X135134800Y-113116439D01*
X135115990Y-113105579D01*
X135090513Y-113098752D01*
X135039562Y-113085100D01*
X135039560Y-113085100D01*
X130579433Y-113085100D01*
X130512394Y-113065415D01*
X130491752Y-113048781D01*
X130143519Y-112700548D01*
X130110034Y-112639225D01*
X130107200Y-112612867D01*
X130107200Y-110841733D01*
X130126885Y-110774694D01*
X130179689Y-110728939D01*
X130248847Y-110718995D01*
X130312403Y-110748020D01*
X130318881Y-110754052D01*
X130447689Y-110882860D01*
X130516212Y-110922422D01*
X130530457Y-110926238D01*
X130590116Y-110962600D01*
X130620647Y-111025446D01*
X130612355Y-111094821D01*
X130586047Y-111133694D01*
X130531104Y-111188637D01*
X130468505Y-111297063D01*
X130452410Y-111357130D01*
X130436100Y-111417999D01*
X130436100Y-111543201D01*
X130468505Y-111664136D01*
X130531105Y-111772564D01*
X130619636Y-111861095D01*
X130728064Y-111923695D01*
X130848999Y-111956100D01*
X130849001Y-111956100D01*
X130974199Y-111956100D01*
X130974201Y-111956100D01*
X131095136Y-111923695D01*
X131203564Y-111861095D01*
X131260160Y-111804498D01*
X131321479Y-111771016D01*
X131391171Y-111776000D01*
X131447105Y-111817871D01*
X131467612Y-111860087D01*
X131469599Y-111867504D01*
X131527536Y-112007378D01*
X131619705Y-112127494D01*
X131739821Y-112219663D01*
X131879691Y-112277598D01*
X131879695Y-112277599D01*
X131992102Y-112292399D01*
X131992117Y-112292400D01*
X132529800Y-112292400D01*
X132829800Y-112292400D01*
X133367483Y-112292400D01*
X133367497Y-112292399D01*
X133479904Y-112277599D01*
X133479908Y-112277598D01*
X133619778Y-112219663D01*
X133739894Y-112127494D01*
X133755477Y-112107186D01*
X134476201Y-112107186D01*
X134486694Y-112209897D01*
X134541841Y-112376319D01*
X134541843Y-112376324D01*
X134633884Y-112525545D01*
X134757854Y-112649515D01*
X134907075Y-112741556D01*
X134907080Y-112741558D01*
X135073502Y-112796705D01*
X135073509Y-112796706D01*
X135176219Y-112807199D01*
X135313699Y-112807199D01*
X135313700Y-112807198D01*
X135313700Y-111832200D01*
X134476201Y-111832200D01*
X134476201Y-112107186D01*
X133755477Y-112107186D01*
X133832063Y-112007378D01*
X133889998Y-111867508D01*
X133889999Y-111867504D01*
X133899888Y-111792400D01*
X132829800Y-111792400D01*
X132829800Y-112292400D01*
X132529800Y-112292400D01*
X132529800Y-111766400D01*
X132532350Y-111757714D01*
X132531062Y-111748753D01*
X132542040Y-111724712D01*
X132549485Y-111699361D01*
X132556325Y-111693433D01*
X132560087Y-111685197D01*
X132582321Y-111670907D01*
X132602289Y-111653606D01*
X132612803Y-111651318D01*
X132618865Y-111647423D01*
X132653800Y-111642400D01*
X132679800Y-111642400D01*
X132679800Y-111616899D01*
X132699485Y-111549860D01*
X132752289Y-111504105D01*
X132803798Y-111492899D01*
X133356932Y-111492899D01*
X133357929Y-111492899D01*
X133368089Y-111492400D01*
X133899888Y-111492400D01*
X133899888Y-111492399D01*
X133889999Y-111417296D01*
X133889998Y-111417291D01*
X133832063Y-111277421D01*
X133739890Y-111157300D01*
X133737171Y-111154581D01*
X133735609Y-111151721D01*
X133734947Y-111150858D01*
X133735081Y-111150754D01*
X133703686Y-111093258D01*
X133708670Y-111023566D01*
X133750542Y-110967633D01*
X133816006Y-110943216D01*
X133824852Y-110942900D01*
X134255061Y-110942900D01*
X134255062Y-110942900D01*
X134320699Y-110925312D01*
X134390549Y-110926973D01*
X134448412Y-110966135D01*
X134475917Y-111030363D01*
X134476120Y-111054051D01*
X134476361Y-111054064D01*
X134476200Y-111057226D01*
X134476200Y-111332200D01*
X135439700Y-111332200D01*
X135506739Y-111351885D01*
X135552494Y-111404689D01*
X135563700Y-111456200D01*
X135563700Y-111582200D01*
X135689700Y-111582200D01*
X135756739Y-111601885D01*
X135802494Y-111654689D01*
X135813700Y-111706200D01*
X135813700Y-112807199D01*
X135951172Y-112807199D01*
X135951186Y-112807198D01*
X136053897Y-112796705D01*
X136220319Y-112741558D01*
X136220324Y-112741556D01*
X136369545Y-112649515D01*
X136493515Y-112525545D01*
X136585556Y-112376324D01*
X136585559Y-112376317D01*
X136641294Y-112208118D01*
X136681066Y-112150673D01*
X136745582Y-112123849D01*
X136814358Y-112136164D01*
X136865558Y-112183706D01*
X136876041Y-112206165D01*
X136887412Y-112238660D01*
X136898407Y-112270082D01*
X136979050Y-112379350D01*
X137088318Y-112459993D01*
X137119000Y-112470729D01*
X137216499Y-112504846D01*
X137246930Y-112507700D01*
X137246934Y-112507700D01*
X138030470Y-112507700D01*
X138060899Y-112504846D01*
X138060901Y-112504846D01*
X138124990Y-112482419D01*
X138189082Y-112459993D01*
X138298350Y-112379350D01*
X138378993Y-112270082D01*
X138420776Y-112150673D01*
X138423846Y-112141901D01*
X138423846Y-112141899D01*
X138426700Y-112111469D01*
X138426700Y-112006700D01*
X138446385Y-111939661D01*
X138499189Y-111893906D01*
X138550700Y-111882700D01*
X139053760Y-111882700D01*
X139053762Y-111882700D01*
X139130189Y-111862221D01*
X139198711Y-111822660D01*
X139254660Y-111766711D01*
X139613152Y-111408219D01*
X139674475Y-111374734D01*
X139700833Y-111371900D01*
X139762599Y-111371900D01*
X139762601Y-111371900D01*
X139883536Y-111339495D01*
X139991964Y-111276895D01*
X140080495Y-111188364D01*
X140143095Y-111079936D01*
X140175500Y-110959001D01*
X140175500Y-110833799D01*
X140143095Y-110712864D01*
X140080495Y-110604436D01*
X139991964Y-110515905D01*
X139883536Y-110453305D01*
X139883537Y-110453305D01*
X139837905Y-110441078D01*
X139762601Y-110420900D01*
X139637399Y-110420900D01*
X139562095Y-110441078D01*
X139516463Y-110453305D01*
X139408037Y-110515904D01*
X139408034Y-110515906D01*
X139319506Y-110604434D01*
X139319504Y-110604437D01*
X139256905Y-110712863D01*
X139245275Y-110756268D01*
X139226887Y-110824893D01*
X139224500Y-110833800D01*
X139224500Y-110895567D01*
X139204815Y-110962606D01*
X139188181Y-110983248D01*
X138926048Y-111245381D01*
X138864725Y-111278866D01*
X138838367Y-111281700D01*
X138550700Y-111281700D01*
X138483661Y-111262015D01*
X138437906Y-111209211D01*
X138426700Y-111157700D01*
X138426700Y-111052930D01*
X138423846Y-111022500D01*
X138423846Y-111022498D01*
X138379430Y-110895567D01*
X138378993Y-110894318D01*
X138298350Y-110785050D01*
X138189082Y-110704407D01*
X138189080Y-110704406D01*
X138060900Y-110659553D01*
X138030470Y-110656700D01*
X138030466Y-110656700D01*
X137246934Y-110656700D01*
X137246930Y-110656700D01*
X137216500Y-110659553D01*
X137216498Y-110659553D01*
X137088319Y-110704406D01*
X137088317Y-110704407D01*
X136979050Y-110785050D01*
X136898407Y-110894317D01*
X136876042Y-110958233D01*
X136835320Y-111015008D01*
X136770367Y-111040755D01*
X136701805Y-111027298D01*
X136651403Y-110978911D01*
X136641295Y-110956281D01*
X136585558Y-110788080D01*
X136585556Y-110788075D01*
X136493515Y-110638854D01*
X136369545Y-110514884D01*
X136220324Y-110422843D01*
X136220319Y-110422841D01*
X136053897Y-110367694D01*
X136053890Y-110367693D01*
X135951186Y-110357200D01*
X135894121Y-110357200D01*
X135827082Y-110337515D01*
X135781327Y-110284711D01*
X135771383Y-110215553D01*
X135794351Y-110159566D01*
X135798030Y-110154581D01*
X135822316Y-110121675D01*
X135865925Y-109997049D01*
X135867597Y-109979219D01*
X135868700Y-109967460D01*
X135868700Y-109386939D01*
X135865925Y-109357350D01*
X135830957Y-109257419D01*
X135822316Y-109232725D01*
X135813736Y-109221100D01*
X135743911Y-109126489D01*
X135743910Y-109126488D01*
X135637676Y-109048084D01*
X135637677Y-109048084D01*
X135587744Y-109030612D01*
X135530969Y-108989890D01*
X135505222Y-108924937D01*
X135504700Y-108913571D01*
X135504700Y-107528333D01*
X135524385Y-107461294D01*
X135577189Y-107415539D01*
X135590383Y-107410402D01*
X135665027Y-107386149D01*
X135665029Y-107386147D01*
X135665032Y-107386147D01*
X135833399Y-107300360D01*
X135986273Y-107189290D01*
X136119890Y-107055673D01*
X136230960Y-106902799D01*
X136316747Y-106734432D01*
X136375140Y-106554718D01*
X136379488Y-106527266D01*
X136404700Y-106368086D01*
X136404700Y-106179113D01*
X136375140Y-105992481D01*
X136338787Y-105880600D01*
X136316747Y-105812768D01*
X136316745Y-105812765D01*
X136316745Y-105812763D01*
X136230959Y-105644400D01*
X136119890Y-105491527D01*
X135986273Y-105357910D01*
X135833399Y-105246840D01*
X135792457Y-105225979D01*
X135665036Y-105161054D01*
X135485318Y-105102659D01*
X135298686Y-105073100D01*
X135298681Y-105073100D01*
X135109719Y-105073100D01*
X135109714Y-105073100D01*
X134923081Y-105102659D01*
X134743363Y-105161054D01*
X134575000Y-105246840D01*
X134492577Y-105306725D01*
X134422127Y-105357910D01*
X134422125Y-105357912D01*
X134422124Y-105357912D01*
X134288512Y-105491524D01*
X134288512Y-105491525D01*
X134288510Y-105491527D01*
X134254575Y-105538234D01*
X134177440Y-105644400D01*
X134091654Y-105812763D01*
X134033259Y-105992481D01*
X134003700Y-106179113D01*
X134003700Y-106368086D01*
X134033259Y-106554718D01*
X134091654Y-106734436D01*
X134166129Y-106880600D01*
X134177440Y-106902799D01*
X134288510Y-107055673D01*
X134422127Y-107189290D01*
X134575001Y-107300360D01*
X134743368Y-107386147D01*
X134743372Y-107386149D01*
X134818017Y-107410402D01*
X134875693Y-107449838D01*
X134902892Y-107514197D01*
X134903700Y-107528333D01*
X134903700Y-108897124D01*
X134884015Y-108964163D01*
X134831211Y-109009918D01*
X134820656Y-109014165D01*
X134723725Y-109048083D01*
X134610133Y-109131918D01*
X134544504Y-109155888D01*
X134476334Y-109140572D01*
X134427266Y-109090832D01*
X134412500Y-109032147D01*
X134412500Y-108494639D01*
X134398664Y-108443003D01*
X134392021Y-108418211D01*
X134391292Y-108416949D01*
X134352464Y-108349695D01*
X134352458Y-108349687D01*
X133382112Y-107379341D01*
X133382104Y-107379335D01*
X133313595Y-107339782D01*
X133313590Y-107339779D01*
X133288113Y-107332952D01*
X133237162Y-107319300D01*
X133237160Y-107319300D01*
X132429300Y-107319300D01*
X132362261Y-107299615D01*
X132316506Y-107246811D01*
X132305300Y-107195300D01*
X132305300Y-107090530D01*
X132302446Y-107060100D01*
X132302446Y-107060098D01*
X132257593Y-106931919D01*
X132257592Y-106931917D01*
X132233163Y-106898817D01*
X132176950Y-106822650D01*
X132067682Y-106742007D01*
X132067680Y-106742006D01*
X131932377Y-106694661D01*
X131932908Y-106693141D01*
X131913865Y-106682720D01*
X131885997Y-106669993D01*
X131883494Y-106666099D01*
X131879436Y-106663878D01*
X131864783Y-106636983D01*
X131848223Y-106611215D01*
X131847319Y-106604928D01*
X131846009Y-106602524D01*
X131843200Y-106576280D01*
X131843200Y-106527266D01*
X131862885Y-106460227D01*
X131915689Y-106414472D01*
X131926235Y-106410228D01*
X131940275Y-106405316D01*
X132046511Y-106326911D01*
X132124916Y-106220675D01*
X132168525Y-106096049D01*
X132171300Y-106066456D01*
X132171300Y-105460944D01*
X132168525Y-105431351D01*
X132159403Y-105405283D01*
X132134446Y-105333961D01*
X132124916Y-105306725D01*
X132108643Y-105284676D01*
X132046511Y-105200489D01*
X132046510Y-105200488D01*
X131940276Y-105122084D01*
X131815648Y-105078474D01*
X131815649Y-105078474D01*
X131786060Y-105075700D01*
X131786056Y-105075700D01*
X131205544Y-105075700D01*
X131205540Y-105075700D01*
X131175950Y-105078474D01*
X131051323Y-105122084D01*
X130945089Y-105200488D01*
X130945088Y-105200489D01*
X130866684Y-105306723D01*
X130823074Y-105431350D01*
X130820300Y-105460939D01*
X130820300Y-106066460D01*
X130823074Y-106096049D01*
X130866684Y-106220676D01*
X130942588Y-106323522D01*
X130945089Y-106326911D01*
X131051325Y-106405316D01*
X131104272Y-106423843D01*
X131159155Y-106443048D01*
X131178142Y-106456666D01*
X131199403Y-106466376D01*
X131206006Y-106476652D01*
X131215931Y-106483770D01*
X131224542Y-106505494D01*
X131237177Y-106525154D01*
X131239932Y-106544318D01*
X131241678Y-106548722D01*
X131242200Y-106560089D01*
X131242200Y-106570507D01*
X131222515Y-106637546D01*
X131169711Y-106683301D01*
X131128353Y-106693324D01*
X131128420Y-106694029D01*
X131095100Y-106697153D01*
X131095098Y-106697153D01*
X130966919Y-106742006D01*
X130966917Y-106742007D01*
X130857650Y-106822650D01*
X130777007Y-106931917D01*
X130777006Y-106931919D01*
X130732153Y-107060098D01*
X130732153Y-107060100D01*
X130729300Y-107090530D01*
X130729300Y-108149069D01*
X130732153Y-108179499D01*
X130732153Y-108179501D01*
X130777006Y-108307680D01*
X130777007Y-108307682D01*
X130857650Y-108416950D01*
X130966918Y-108497593D01*
X130982225Y-108502949D01*
X131095099Y-108542446D01*
X131125530Y-108545300D01*
X131125534Y-108545300D01*
X131909070Y-108545300D01*
X131939499Y-108542446D01*
X131939501Y-108542446D01*
X132012371Y-108516947D01*
X132067682Y-108497593D01*
X132176950Y-108416950D01*
X132257593Y-108307682D01*
X132292222Y-108208719D01*
X132302446Y-108179501D01*
X132302446Y-108179499D01*
X132305300Y-108149069D01*
X132305300Y-108044300D01*
X132324985Y-107977261D01*
X132377789Y-107931506D01*
X132429300Y-107920300D01*
X133021767Y-107920300D01*
X133088806Y-107939985D01*
X133109448Y-107956619D01*
X133775181Y-108622352D01*
X133808666Y-108683675D01*
X133811500Y-108710033D01*
X133811500Y-109383655D01*
X133791815Y-109450694D01*
X133739011Y-109496449D01*
X133669853Y-109506393D01*
X133606297Y-109477368D01*
X133584398Y-109452546D01*
X133528424Y-109368775D01*
X133456924Y-109321001D01*
X133437295Y-109307885D01*
X133437293Y-109307884D01*
X133437290Y-109307883D01*
X133356936Y-109291900D01*
X132002670Y-109291900D01*
X131922303Y-109307885D01*
X131922300Y-109307886D01*
X131902675Y-109321001D01*
X131835998Y-109341880D01*
X131833783Y-109341900D01*
X130646233Y-109341900D01*
X130579194Y-109322215D01*
X130558552Y-109305581D01*
X129952867Y-108699896D01*
X129919382Y-108638573D01*
X129924366Y-108568881D01*
X129966238Y-108512948D01*
X129985006Y-108502949D01*
X129984469Y-108501933D01*
X129992676Y-108497594D01*
X129992682Y-108497593D01*
X130101950Y-108416950D01*
X130182593Y-108307682D01*
X130217222Y-108208719D01*
X130227446Y-108179501D01*
X130227446Y-108179499D01*
X130230300Y-108149069D01*
X130230300Y-107090530D01*
X130227446Y-107060100D01*
X130227446Y-107060098D01*
X130182593Y-106931919D01*
X130182592Y-106931917D01*
X130158163Y-106898817D01*
X130101950Y-106822650D01*
X129992682Y-106742007D01*
X129992680Y-106742006D01*
X129857377Y-106694661D01*
X129857908Y-106693141D01*
X129838865Y-106682720D01*
X129810997Y-106669993D01*
X129808494Y-106666099D01*
X129804436Y-106663878D01*
X129789783Y-106636983D01*
X129773223Y-106611215D01*
X129772319Y-106604928D01*
X129771009Y-106602524D01*
X129768200Y-106576280D01*
X129768200Y-106560089D01*
X129787885Y-106493050D01*
X129840689Y-106447295D01*
X129851245Y-106443048D01*
X129878379Y-106433553D01*
X129959075Y-106405316D01*
X130065311Y-106326911D01*
X130143716Y-106220675D01*
X130187325Y-106096049D01*
X130190100Y-106066456D01*
X130190100Y-105460944D01*
X130187325Y-105431351D01*
X130178203Y-105405283D01*
X130153246Y-105333961D01*
X130143716Y-105306725D01*
X130127443Y-105284676D01*
X130065311Y-105200489D01*
X130065310Y-105200488D01*
X129959076Y-105122084D01*
X129834448Y-105078474D01*
X129834449Y-105078474D01*
X129804860Y-105075700D01*
X129804856Y-105075700D01*
X129224344Y-105075700D01*
X129224340Y-105075700D01*
X129194750Y-105078474D01*
X129070123Y-105122084D01*
X128963889Y-105200488D01*
X128963888Y-105200489D01*
X128885484Y-105306723D01*
X128841874Y-105431350D01*
X128839100Y-105460939D01*
X128839100Y-106066460D01*
X128841874Y-106096049D01*
X128885484Y-106220676D01*
X128961388Y-106323522D01*
X128963889Y-106326911D01*
X129070125Y-106405316D01*
X129084154Y-106410225D01*
X129103142Y-106423843D01*
X129124403Y-106433553D01*
X129131006Y-106443828D01*
X129140929Y-106450945D01*
X129149541Y-106472668D01*
X129162177Y-106492331D01*
X129164932Y-106511493D01*
X129166678Y-106515897D01*
X129167200Y-106527266D01*
X129167200Y-106570507D01*
X129147515Y-106637546D01*
X129094711Y-106683301D01*
X129053353Y-106693324D01*
X129053420Y-106694029D01*
X129020100Y-106697153D01*
X129020098Y-106697153D01*
X128891919Y-106742006D01*
X128891917Y-106742007D01*
X128782650Y-106822650D01*
X128702007Y-106931917D01*
X128702006Y-106931919D01*
X128657153Y-107060098D01*
X128657153Y-107060100D01*
X128654300Y-107090530D01*
X128654300Y-107940167D01*
X128634615Y-108007206D01*
X128581811Y-108052961D01*
X128512653Y-108062905D01*
X128449097Y-108033880D01*
X128442619Y-108027848D01*
X128046212Y-107631441D01*
X128046204Y-107631435D01*
X127977695Y-107591882D01*
X127977690Y-107591879D01*
X127952213Y-107585052D01*
X127901262Y-107571400D01*
X127901260Y-107571400D01*
X127289252Y-107571400D01*
X127222213Y-107551715D01*
X127176458Y-107498911D01*
X127172211Y-107488355D01*
X127154675Y-107438242D01*
X127146516Y-107414925D01*
X127120253Y-107379340D01*
X127068111Y-107308689D01*
X127068110Y-107308688D01*
X126961876Y-107230284D01*
X126837248Y-107186674D01*
X126837249Y-107186674D01*
X126807660Y-107183900D01*
X126807656Y-107183900D01*
X126227144Y-107183900D01*
X126227140Y-107183900D01*
X126197550Y-107186674D01*
X126072923Y-107230284D01*
X125966689Y-107308688D01*
X125966688Y-107308689D01*
X125888284Y-107414923D01*
X125844674Y-107539550D01*
X125841900Y-107569139D01*
X125841900Y-108174660D01*
X125844674Y-108204249D01*
X125888284Y-108328876D01*
X125966688Y-108435110D01*
X125966689Y-108435111D01*
X126072923Y-108513515D01*
X126072924Y-108513515D01*
X126072925Y-108513516D01*
X126197551Y-108557125D01*
X126197550Y-108557125D01*
X126227140Y-108559900D01*
X126227144Y-108559900D01*
X126807660Y-108559900D01*
X126837249Y-108557125D01*
X126864438Y-108547611D01*
X126961875Y-108513516D01*
X127068111Y-108435111D01*
X127146516Y-108328875D01*
X127164224Y-108278266D01*
X127172211Y-108255445D01*
X127212933Y-108198669D01*
X127277886Y-108172922D01*
X127289252Y-108172400D01*
X127685867Y-108172400D01*
X127752906Y-108192085D01*
X127773548Y-108208719D01*
X128645048Y-109080219D01*
X128678533Y-109141542D01*
X128673549Y-109211234D01*
X128631677Y-109267167D01*
X128566213Y-109291584D01*
X128557367Y-109291900D01*
X127602670Y-109291900D01*
X127522303Y-109307885D01*
X127522300Y-109307886D01*
X127502675Y-109321001D01*
X127435998Y-109341880D01*
X127433783Y-109341900D01*
X127058322Y-109341900D01*
X126991283Y-109322215D01*
X126970641Y-109305582D01*
X126941393Y-109276334D01*
X126910964Y-109245905D01*
X126802536Y-109183305D01*
X126802537Y-109183305D01*
X126742059Y-109167100D01*
X126681601Y-109150900D01*
X126556399Y-109150900D01*
X126495941Y-109167100D01*
X126435463Y-109183305D01*
X126327037Y-109245904D01*
X126327034Y-109245906D01*
X126238506Y-109334434D01*
X126238504Y-109334437D01*
X126175905Y-109442863D01*
X126165713Y-109480900D01*
X126143500Y-109563799D01*
X126143500Y-109689001D01*
X126175905Y-109809936D01*
X126238505Y-109918364D01*
X126327036Y-110006895D01*
X126435464Y-110069495D01*
X126556399Y-110101900D01*
X126681601Y-110101900D01*
X126802536Y-110069495D01*
X126910964Y-110006895D01*
X126938640Y-109979219D01*
X126965567Y-109964515D01*
X126991386Y-109947923D01*
X126997586Y-109947031D01*
X126999963Y-109945734D01*
X127026321Y-109942900D01*
X127230300Y-109942900D01*
X127297339Y-109962585D01*
X127343094Y-110015389D01*
X127354300Y-110066899D01*
X127354301Y-110217899D01*
X127334617Y-110284939D01*
X127281813Y-110330694D01*
X127230301Y-110341900D01*
X126286833Y-110341900D01*
X126219794Y-110322215D01*
X126199152Y-110305581D01*
X125076219Y-109182648D01*
X125042734Y-109121325D01*
X125039900Y-109094967D01*
X125039900Y-107432677D01*
X125059585Y-107365638D01*
X125112389Y-107319883D01*
X125122922Y-107315644D01*
X125183875Y-107294316D01*
X125290111Y-107215911D01*
X125368516Y-107109675D01*
X125412125Y-106985049D01*
X125414900Y-106955456D01*
X125414900Y-106349944D01*
X125414873Y-106349660D01*
X125412125Y-106320350D01*
X125377246Y-106220675D01*
X125368516Y-106195725D01*
X125356260Y-106179119D01*
X125290111Y-106089489D01*
X125290110Y-106089488D01*
X125183879Y-106011087D01*
X125183875Y-106011084D01*
X125183870Y-106011082D01*
X125179252Y-106008641D01*
X125129181Y-105959910D01*
X125113404Y-105891845D01*
X125136931Y-105826055D01*
X125192291Y-105783429D01*
X125198194Y-105781306D01*
X125290698Y-105750654D01*
X125290711Y-105750648D01*
X125437434Y-105660147D01*
X125437438Y-105660144D01*
X125559344Y-105538238D01*
X125559347Y-105538234D01*
X125649848Y-105391511D01*
X125649853Y-105391500D01*
X125704080Y-105227852D01*
X125714399Y-105126854D01*
X125714400Y-105126841D01*
X125714400Y-105077700D01*
X124863400Y-105077700D01*
X124796361Y-105058015D01*
X124750606Y-105005211D01*
X124739400Y-104953700D01*
X124739400Y-104827700D01*
X124613400Y-104827700D01*
X124546361Y-104808015D01*
X124500606Y-104755211D01*
X124489400Y-104703700D01*
X124489400Y-104577700D01*
X124989400Y-104577700D01*
X125714399Y-104577700D01*
X125714399Y-104528560D01*
X125714398Y-104528545D01*
X125704080Y-104427547D01*
X125649853Y-104263899D01*
X125649848Y-104263888D01*
X125559347Y-104117165D01*
X125559344Y-104117161D01*
X125437438Y-103995255D01*
X125437434Y-103995252D01*
X125290711Y-103904751D01*
X125290700Y-103904746D01*
X125127052Y-103850519D01*
X125026054Y-103840200D01*
X124989400Y-103840200D01*
X124989400Y-104577700D01*
X124489400Y-104577700D01*
X124489400Y-103840200D01*
X124452761Y-103840200D01*
X124452743Y-103840201D01*
X124351747Y-103850519D01*
X124188099Y-103904746D01*
X124188088Y-103904751D01*
X124041365Y-103995252D01*
X124041361Y-103995255D01*
X123919454Y-104117162D01*
X123879784Y-104181477D01*
X123827835Y-104228201D01*
X123758873Y-104239422D01*
X123717818Y-104226796D01*
X123708779Y-104222177D01*
X123659875Y-104186084D01*
X123590982Y-104161977D01*
X123583472Y-104158139D01*
X123563978Y-104139683D01*
X123542169Y-104124041D01*
X123538992Y-104116028D01*
X123532734Y-104110103D01*
X123526312Y-104084040D01*
X123516422Y-104059088D01*
X123515900Y-104047722D01*
X123515900Y-102093839D01*
X123515900Y-102093838D01*
X123495421Y-102017411D01*
X123481508Y-101993312D01*
X123455864Y-101948895D01*
X123455858Y-101948887D01*
X123127411Y-101620440D01*
X123069711Y-101562740D01*
X123048623Y-101550565D01*
X123025820Y-101537399D01*
X125254500Y-101537399D01*
X125254500Y-101662601D01*
X125286905Y-101783536D01*
X125349505Y-101891964D01*
X125438036Y-101980495D01*
X125546464Y-102043095D01*
X125667399Y-102075500D01*
X125667401Y-102075500D01*
X125792599Y-102075500D01*
X125792601Y-102075500D01*
X125913536Y-102043095D01*
X125999764Y-101993312D01*
X126061763Y-101976700D01*
X126523700Y-101976700D01*
X126590739Y-101996385D01*
X126636494Y-102049189D01*
X126647700Y-102100700D01*
X126647700Y-102205469D01*
X126650553Y-102235899D01*
X126650553Y-102235901D01*
X126695406Y-102364080D01*
X126695407Y-102364082D01*
X126776050Y-102473350D01*
X126885318Y-102553993D01*
X126928045Y-102568944D01*
X127013499Y-102598846D01*
X127043930Y-102601700D01*
X127043934Y-102601700D01*
X127827470Y-102601700D01*
X127857899Y-102598846D01*
X127857901Y-102598846D01*
X127921990Y-102576419D01*
X127986082Y-102553993D01*
X128095350Y-102473350D01*
X128175993Y-102364082D01*
X128199643Y-102296493D01*
X128220846Y-102235901D01*
X128220846Y-102235899D01*
X128223700Y-102205469D01*
X128223700Y-101146930D01*
X128220846Y-101116500D01*
X128220846Y-101116498D01*
X128175993Y-100988319D01*
X128175992Y-100988317D01*
X128095350Y-100879050D01*
X127986082Y-100798407D01*
X127986080Y-100798406D01*
X127857900Y-100753553D01*
X127827470Y-100750700D01*
X127827466Y-100750700D01*
X127043934Y-100750700D01*
X127043930Y-100750700D01*
X127013500Y-100753553D01*
X127013498Y-100753553D01*
X126885319Y-100798406D01*
X126885317Y-100798407D01*
X126776050Y-100879050D01*
X126695407Y-100988317D01*
X126695406Y-100988319D01*
X126650553Y-101116498D01*
X126650553Y-101116500D01*
X126647700Y-101146930D01*
X126647700Y-101251700D01*
X126628015Y-101318739D01*
X126575211Y-101364494D01*
X126523700Y-101375700D01*
X126221152Y-101375700D01*
X126154113Y-101356015D01*
X126113763Y-101313697D01*
X126110495Y-101308036D01*
X126021965Y-101219506D01*
X126021964Y-101219505D01*
X125913536Y-101156905D01*
X125913537Y-101156905D01*
X125873224Y-101146103D01*
X125792601Y-101124500D01*
X125667399Y-101124500D01*
X125586775Y-101146103D01*
X125546463Y-101156905D01*
X125438037Y-101219504D01*
X125438034Y-101219506D01*
X125349506Y-101308034D01*
X125349504Y-101308037D01*
X125286905Y-101416463D01*
X125286905Y-101416464D01*
X125254500Y-101537399D01*
X123025820Y-101537399D01*
X123017830Y-101532786D01*
X123001190Y-101523179D01*
X122975713Y-101516352D01*
X122924762Y-101502700D01*
X122924760Y-101502700D01*
X117041233Y-101502700D01*
X116974194Y-101483015D01*
X116953552Y-101466381D01*
X115830619Y-100343448D01*
X115797134Y-100282125D01*
X115794300Y-100255767D01*
X115794300Y-96466203D01*
X116329700Y-96466203D01*
X116329700Y-99799827D01*
X116334356Y-99843324D01*
X116345466Y-99894623D01*
X116347897Y-99904629D01*
X116347899Y-99904634D01*
X116371935Y-99949940D01*
X116390758Y-99985420D01*
X116436416Y-100038308D01*
X116453974Y-100056294D01*
X116533710Y-100101088D01*
X116600713Y-100120896D01*
X116658594Y-100129327D01*
X116897092Y-100129766D01*
X116964095Y-100149574D01*
X116997182Y-100180881D01*
X117118028Y-100347212D01*
X117118032Y-100347217D01*
X117262786Y-100491971D01*
X117417749Y-100604556D01*
X117428390Y-100612287D01*
X117541611Y-100669976D01*
X117610776Y-100705218D01*
X117610778Y-100705218D01*
X117610781Y-100705220D01*
X117715137Y-100739127D01*
X117805465Y-100768477D01*
X117906557Y-100784488D01*
X118007648Y-100800500D01*
X118007649Y-100800500D01*
X118212351Y-100800500D01*
X118212352Y-100800500D01*
X118414534Y-100768477D01*
X118609219Y-100705220D01*
X118791610Y-100612287D01*
X118884590Y-100544732D01*
X118957213Y-100491971D01*
X118957215Y-100491968D01*
X118957219Y-100491966D01*
X119101966Y-100347219D01*
X119219575Y-100185341D01*
X119274904Y-100142677D01*
X119320117Y-100134228D01*
X129086428Y-100152214D01*
X129153431Y-100172022D01*
X129199089Y-100224910D01*
X129210200Y-100276214D01*
X129210200Y-100629225D01*
X129190515Y-100696264D01*
X129137711Y-100742019D01*
X129097782Y-100752683D01*
X129088499Y-100753553D01*
X129088498Y-100753553D01*
X128960319Y-100798406D01*
X128960317Y-100798407D01*
X128851050Y-100879050D01*
X128770407Y-100988317D01*
X128770406Y-100988319D01*
X128725553Y-101116498D01*
X128725553Y-101116500D01*
X128722700Y-101146930D01*
X128722700Y-102205469D01*
X128725553Y-102235899D01*
X128725553Y-102235901D01*
X128770406Y-102364080D01*
X128770407Y-102364082D01*
X128851050Y-102473350D01*
X128960318Y-102553993D01*
X129003045Y-102568944D01*
X129088499Y-102598846D01*
X129101677Y-102600082D01*
X129166586Y-102625939D01*
X129207211Y-102682784D01*
X129214100Y-102723540D01*
X129214100Y-103158722D01*
X129194415Y-103225761D01*
X129141611Y-103271516D01*
X129131055Y-103275763D01*
X129070124Y-103297083D01*
X129070123Y-103297084D01*
X128963889Y-103375488D01*
X128963888Y-103375489D01*
X128885484Y-103481723D01*
X128885484Y-103481724D01*
X128859789Y-103555155D01*
X128819067Y-103611931D01*
X128754114Y-103637678D01*
X128742748Y-103638200D01*
X127237938Y-103638200D01*
X127161510Y-103658678D01*
X127092989Y-103698240D01*
X127092986Y-103698242D01*
X126251539Y-104539689D01*
X126211979Y-104608211D01*
X126211979Y-104608212D01*
X126191500Y-104684638D01*
X126191500Y-104763762D01*
X126203358Y-104808015D01*
X126212675Y-104842784D01*
X126216900Y-104874878D01*
X126216900Y-105266922D01*
X126197215Y-105333961D01*
X126144411Y-105379716D01*
X126133855Y-105383963D01*
X126072924Y-105405283D01*
X126072923Y-105405284D01*
X125966689Y-105483688D01*
X125966688Y-105483689D01*
X125888284Y-105589923D01*
X125844674Y-105714550D01*
X125841900Y-105744139D01*
X125841900Y-106349660D01*
X125844674Y-106379249D01*
X125888284Y-106503876D01*
X125966688Y-106610110D01*
X125966689Y-106610111D01*
X126072923Y-106688515D01*
X126072924Y-106688515D01*
X126072925Y-106688516D01*
X126197551Y-106732125D01*
X126197550Y-106732125D01*
X126227140Y-106734900D01*
X126227144Y-106734900D01*
X126807660Y-106734900D01*
X126837249Y-106732125D01*
X126961875Y-106688516D01*
X127068111Y-106610111D01*
X127146516Y-106503875D01*
X127190125Y-106379249D01*
X127191172Y-106368081D01*
X127192900Y-106349660D01*
X127192900Y-105744139D01*
X127190125Y-105714550D01*
X127146515Y-105589923D01*
X127068111Y-105483689D01*
X127068110Y-105483688D01*
X126961876Y-105405284D01*
X126961875Y-105405283D01*
X126900945Y-105383963D01*
X126844169Y-105343241D01*
X126818422Y-105278288D01*
X126817900Y-105266922D01*
X126817900Y-104874633D01*
X126837585Y-104807594D01*
X126854219Y-104786952D01*
X127365652Y-104275519D01*
X127426975Y-104242034D01*
X127453333Y-104239200D01*
X128742748Y-104239200D01*
X128809787Y-104258885D01*
X128855542Y-104311689D01*
X128859789Y-104322245D01*
X128885484Y-104395675D01*
X128885484Y-104395676D01*
X128963888Y-104501910D01*
X128963889Y-104501911D01*
X129070123Y-104580315D01*
X129070124Y-104580315D01*
X129070125Y-104580316D01*
X129194751Y-104623925D01*
X129194750Y-104623925D01*
X129224340Y-104626700D01*
X129224344Y-104626700D01*
X129804860Y-104626700D01*
X129834449Y-104623925D01*
X129862844Y-104613989D01*
X129959075Y-104580316D01*
X130065311Y-104501911D01*
X130143716Y-104395675D01*
X130187325Y-104271049D01*
X130187940Y-104264488D01*
X130190100Y-104241460D01*
X130190100Y-103635939D01*
X130187325Y-103606350D01*
X130143715Y-103481723D01*
X130065311Y-103375489D01*
X130065310Y-103375488D01*
X129959076Y-103297084D01*
X129959075Y-103297083D01*
X129898145Y-103275763D01*
X129841369Y-103235041D01*
X129815622Y-103170088D01*
X129815100Y-103158722D01*
X129815100Y-102722808D01*
X129834785Y-102655769D01*
X129887589Y-102610014D01*
X129927525Y-102599349D01*
X129932899Y-102598846D01*
X129932901Y-102598845D01*
X129932903Y-102598845D01*
X129979494Y-102582541D01*
X130061082Y-102553993D01*
X130170350Y-102473350D01*
X130250993Y-102364082D01*
X130274643Y-102296493D01*
X130295846Y-102235901D01*
X130295846Y-102235899D01*
X130298700Y-102205469D01*
X130298700Y-101146930D01*
X130295846Y-101116500D01*
X130295846Y-101116498D01*
X130250993Y-100988319D01*
X130250992Y-100988317D01*
X130170350Y-100879050D01*
X130061082Y-100798407D01*
X130061080Y-100798406D01*
X129932901Y-100753553D01*
X129923618Y-100752683D01*
X129858710Y-100726823D01*
X129818087Y-100669976D01*
X129811200Y-100629225D01*
X129811200Y-100277777D01*
X129830885Y-100210738D01*
X129883689Y-100164983D01*
X129935424Y-100153777D01*
X130201915Y-100154269D01*
X130246489Y-100149459D01*
X130246491Y-100149459D01*
X130246493Y-100149458D01*
X130246498Y-100149458D01*
X130299030Y-100137887D01*
X130310082Y-100135130D01*
X130390489Y-100091553D01*
X130434942Y-100052482D01*
X130498289Y-100023012D01*
X130567516Y-100032467D01*
X130608400Y-100062837D01*
X130608649Y-100062608D01*
X130608726Y-100062533D01*
X130608728Y-100062535D01*
X130608771Y-100062496D01*
X130610055Y-100063889D01*
X130627646Y-100081843D01*
X130627647Y-100081844D01*
X130627649Y-100081845D01*
X130697462Y-100120896D01*
X130707463Y-100126490D01*
X130774502Y-100146175D01*
X130832400Y-100154500D01*
X131075200Y-100154500D01*
X131142239Y-100174185D01*
X131187994Y-100226989D01*
X131199200Y-100278500D01*
X131199200Y-100629225D01*
X131179515Y-100696264D01*
X131126711Y-100742019D01*
X131086782Y-100752683D01*
X131077499Y-100753553D01*
X131077498Y-100753553D01*
X130949319Y-100798406D01*
X130949317Y-100798407D01*
X130840050Y-100879050D01*
X130759407Y-100988317D01*
X130759406Y-100988319D01*
X130714553Y-101116498D01*
X130714553Y-101116500D01*
X130711700Y-101146930D01*
X130711700Y-102205469D01*
X130714553Y-102235899D01*
X130714553Y-102235901D01*
X130759406Y-102364080D01*
X130759407Y-102364082D01*
X130840050Y-102473350D01*
X130949318Y-102553993D01*
X130990111Y-102568267D01*
X131077496Y-102598845D01*
X131077498Y-102598845D01*
X131077501Y-102598846D01*
X131082872Y-102599349D01*
X131147781Y-102625203D01*
X131188409Y-102682047D01*
X131195300Y-102722808D01*
X131195300Y-103158722D01*
X131175615Y-103225761D01*
X131122811Y-103271516D01*
X131112255Y-103275763D01*
X131051324Y-103297083D01*
X131051323Y-103297084D01*
X130945089Y-103375488D01*
X130945088Y-103375489D01*
X130866684Y-103481723D01*
X130823074Y-103606350D01*
X130820300Y-103635939D01*
X130820300Y-104241460D01*
X130823074Y-104271049D01*
X130866684Y-104395676D01*
X130945088Y-104501910D01*
X130945089Y-104501911D01*
X131051323Y-104580315D01*
X131051324Y-104580315D01*
X131051325Y-104580316D01*
X131175951Y-104623925D01*
X131175950Y-104623925D01*
X131205540Y-104626700D01*
X131205544Y-104626700D01*
X131786060Y-104626700D01*
X131815649Y-104623925D01*
X131844044Y-104613989D01*
X131940275Y-104580316D01*
X132046511Y-104501911D01*
X132124916Y-104395675D01*
X132150611Y-104322245D01*
X132191333Y-104265469D01*
X132256286Y-104239722D01*
X132267652Y-104239200D01*
X133057460Y-104239200D01*
X133057462Y-104239200D01*
X133057463Y-104239199D01*
X133063832Y-104238361D01*
X133080019Y-104237300D01*
X135968167Y-104237300D01*
X136035206Y-104256985D01*
X136055848Y-104273619D01*
X136668881Y-104886652D01*
X136702366Y-104947975D01*
X136705200Y-104974333D01*
X136705200Y-108905347D01*
X136685515Y-108972386D01*
X136632711Y-109018141D01*
X136622157Y-109022388D01*
X136548722Y-109048085D01*
X136442489Y-109126488D01*
X136442488Y-109126489D01*
X136364084Y-109232723D01*
X136320474Y-109357350D01*
X136317700Y-109386939D01*
X136317700Y-109967460D01*
X136320474Y-109997049D01*
X136364084Y-110121676D01*
X136442488Y-110227910D01*
X136442489Y-110227911D01*
X136548723Y-110306315D01*
X136548724Y-110306315D01*
X136548725Y-110306316D01*
X136673351Y-110349925D01*
X136673350Y-110349925D01*
X136702940Y-110352700D01*
X136702944Y-110352700D01*
X137308460Y-110352700D01*
X137338049Y-110349925D01*
X137393007Y-110330694D01*
X137462675Y-110306316D01*
X137568911Y-110227911D01*
X137647316Y-110121675D01*
X137690925Y-109997049D01*
X137692597Y-109979219D01*
X137693700Y-109967460D01*
X137693700Y-109386939D01*
X137690925Y-109357350D01*
X137655957Y-109257419D01*
X137647316Y-109232725D01*
X137638736Y-109221100D01*
X137568911Y-109126489D01*
X137568910Y-109126488D01*
X137462677Y-109048085D01*
X137462675Y-109048084D01*
X137430911Y-109036969D01*
X137389243Y-109022388D01*
X137332468Y-108981665D01*
X137306722Y-108916712D01*
X137306200Y-108905347D01*
X137306200Y-105502755D01*
X143150600Y-105502755D01*
X143150600Y-106150600D01*
X144067588Y-106150600D01*
X144034675Y-106207607D01*
X144000600Y-106334774D01*
X144000600Y-106466426D01*
X144034675Y-106593593D01*
X144067588Y-106650600D01*
X143150600Y-106650600D01*
X143150600Y-107298444D01*
X143157001Y-107357972D01*
X143157003Y-107357979D01*
X143207245Y-107492686D01*
X143207249Y-107492693D01*
X143293409Y-107607787D01*
X143293412Y-107607790D01*
X143408506Y-107693950D01*
X143408513Y-107693954D01*
X143543220Y-107744196D01*
X143543227Y-107744198D01*
X143602755Y-107750599D01*
X143602772Y-107750600D01*
X144005035Y-107750600D01*
X144072074Y-107770285D01*
X144117829Y-107823089D01*
X144127773Y-107892247D01*
X144098748Y-107955803D01*
X144052488Y-107989161D01*
X144003003Y-108009658D01*
X143830942Y-108124624D01*
X143684624Y-108270942D01*
X143569658Y-108443003D01*
X143490470Y-108634179D01*
X143490468Y-108634187D01*
X143450100Y-108837130D01*
X143450100Y-109044069D01*
X143490468Y-109247012D01*
X143490470Y-109247020D01*
X143548364Y-109386789D01*
X143569659Y-109438198D01*
X143598199Y-109480911D01*
X143684624Y-109610257D01*
X143830942Y-109756575D01*
X143830945Y-109756577D01*
X144003002Y-109871541D01*
X144194180Y-109950730D01*
X144397130Y-109991099D01*
X144397134Y-109991100D01*
X144397135Y-109991100D01*
X144604066Y-109991100D01*
X144604067Y-109991099D01*
X144807020Y-109950730D01*
X144998198Y-109871541D01*
X145170255Y-109756577D01*
X145316577Y-109610255D01*
X145431541Y-109438198D01*
X145510730Y-109247020D01*
X145551100Y-109044065D01*
X145551100Y-108837135D01*
X145510730Y-108634180D01*
X145431541Y-108443002D01*
X145316577Y-108270945D01*
X145316575Y-108270942D01*
X145170257Y-108124624D01*
X145050042Y-108044300D01*
X144998198Y-108009659D01*
X144948712Y-107989161D01*
X144894309Y-107945320D01*
X144872244Y-107879026D01*
X144889523Y-107811326D01*
X144940661Y-107763716D01*
X144996165Y-107750600D01*
X145398428Y-107750600D01*
X145398444Y-107750599D01*
X145457972Y-107744198D01*
X145457979Y-107744196D01*
X145592686Y-107693954D01*
X145592693Y-107693950D01*
X145707787Y-107607790D01*
X145707790Y-107607787D01*
X145793950Y-107492693D01*
X145793954Y-107492686D01*
X145844196Y-107357979D01*
X145844198Y-107357972D01*
X145850599Y-107298444D01*
X145850600Y-107298427D01*
X145850600Y-106650600D01*
X144933612Y-106650600D01*
X144966525Y-106593593D01*
X145000600Y-106466426D01*
X145000600Y-106334774D01*
X144966525Y-106207607D01*
X144933612Y-106150600D01*
X145850600Y-106150600D01*
X145850600Y-105502772D01*
X145850599Y-105502755D01*
X145844198Y-105443227D01*
X145844196Y-105443220D01*
X145793954Y-105308513D01*
X145793950Y-105308506D01*
X145707790Y-105193412D01*
X145707787Y-105193409D01*
X145592693Y-105107249D01*
X145592686Y-105107245D01*
X145457979Y-105057003D01*
X145457972Y-105057001D01*
X145398444Y-105050600D01*
X144750600Y-105050600D01*
X144750600Y-105967588D01*
X144693593Y-105934675D01*
X144566426Y-105900600D01*
X144434774Y-105900600D01*
X144307607Y-105934675D01*
X144250600Y-105967588D01*
X144250600Y-105050600D01*
X143602755Y-105050600D01*
X143543227Y-105057001D01*
X143543220Y-105057003D01*
X143408513Y-105107245D01*
X143408506Y-105107249D01*
X143293412Y-105193409D01*
X143293409Y-105193412D01*
X143207249Y-105308506D01*
X143207245Y-105308513D01*
X143157003Y-105443220D01*
X143157001Y-105443227D01*
X143150600Y-105502755D01*
X137306200Y-105502755D01*
X137306200Y-104836339D01*
X137325885Y-104769300D01*
X137378689Y-104723545D01*
X137447847Y-104713601D01*
X137503086Y-104736021D01*
X137567628Y-104782914D01*
X137777997Y-104890102D01*
X138002552Y-104963065D01*
X138002551Y-104963065D01*
X138235748Y-105000000D01*
X138471852Y-105000000D01*
X138705047Y-104963065D01*
X138929602Y-104890102D01*
X139139963Y-104782918D01*
X139139969Y-104782914D01*
X139222904Y-104722658D01*
X139222905Y-104722658D01*
X138483208Y-103982962D01*
X138546793Y-103965925D01*
X138660807Y-103900099D01*
X138753899Y-103807007D01*
X138819725Y-103692993D01*
X138836762Y-103629409D01*
X139576458Y-104369105D01*
X139576458Y-104369104D01*
X139636714Y-104286169D01*
X139636718Y-104286163D01*
X139743902Y-104075802D01*
X139816865Y-103851247D01*
X139853800Y-103618052D01*
X139853800Y-103381947D01*
X139816865Y-103148752D01*
X139743902Y-102924197D01*
X139636714Y-102713828D01*
X139576458Y-102630894D01*
X139576458Y-102630893D01*
X138836762Y-103370590D01*
X138819725Y-103307007D01*
X138753899Y-103192993D01*
X138660807Y-103099901D01*
X138546793Y-103034075D01*
X138483209Y-103017037D01*
X139222905Y-102277340D01*
X139222904Y-102277338D01*
X139139974Y-102217087D01*
X138929602Y-102109897D01*
X138705047Y-102036934D01*
X138705048Y-102036934D01*
X138471852Y-102000000D01*
X138235748Y-102000000D01*
X138002552Y-102036934D01*
X137777997Y-102109897D01*
X137567630Y-102217084D01*
X137484694Y-102277340D01*
X138224391Y-103017037D01*
X138160807Y-103034075D01*
X138046793Y-103099901D01*
X137953701Y-103192993D01*
X137887875Y-103307007D01*
X137870837Y-103370591D01*
X137131140Y-102630894D01*
X137070884Y-102713830D01*
X136963697Y-102924197D01*
X136890734Y-103148752D01*
X136853800Y-103381947D01*
X136853800Y-103618052D01*
X136890734Y-103851248D01*
X136927171Y-103963389D01*
X136929166Y-104033230D01*
X136893086Y-104093063D01*
X136830385Y-104123891D01*
X136760970Y-104115926D01*
X136721559Y-104089388D01*
X136328512Y-103696341D01*
X136328504Y-103696335D01*
X136259995Y-103656782D01*
X136259990Y-103656779D01*
X136234513Y-103649952D01*
X136183562Y-103636300D01*
X132980238Y-103636300D01*
X132980236Y-103636300D01*
X132973868Y-103637139D01*
X132957681Y-103638200D01*
X132267652Y-103638200D01*
X132200613Y-103618515D01*
X132154858Y-103565711D01*
X132150611Y-103555155D01*
X132131310Y-103499999D01*
X132124916Y-103481725D01*
X132046511Y-103375489D01*
X132046510Y-103375488D01*
X131940276Y-103297084D01*
X131940275Y-103297083D01*
X131879345Y-103275763D01*
X131822569Y-103235041D01*
X131796822Y-103170088D01*
X131796300Y-103158722D01*
X131796300Y-102723540D01*
X131815985Y-102656501D01*
X131868789Y-102610746D01*
X131908723Y-102600082D01*
X131921899Y-102598846D01*
X131921901Y-102598846D01*
X131985990Y-102576419D01*
X132050082Y-102553993D01*
X132159350Y-102473350D01*
X132239993Y-102364082D01*
X132263643Y-102296493D01*
X132284846Y-102235901D01*
X132284846Y-102235899D01*
X132287700Y-102205469D01*
X132287700Y-101146930D01*
X132786700Y-101146930D01*
X132786700Y-102205469D01*
X132789553Y-102235899D01*
X132789553Y-102235901D01*
X132834406Y-102364080D01*
X132834407Y-102364082D01*
X132915050Y-102473350D01*
X133024318Y-102553993D01*
X133067045Y-102568944D01*
X133152499Y-102598846D01*
X133182930Y-102601700D01*
X133182934Y-102601700D01*
X133966470Y-102601700D01*
X133996899Y-102598846D01*
X133996901Y-102598846D01*
X134060990Y-102576419D01*
X134125082Y-102553993D01*
X134234350Y-102473350D01*
X134314993Y-102364082D01*
X134359846Y-102235899D01*
X134362700Y-102205466D01*
X134362700Y-102093384D01*
X134363561Y-102086115D01*
X134374521Y-102060441D01*
X134382385Y-102033661D01*
X134388049Y-102028752D01*
X134390994Y-102021856D01*
X134414097Y-102006182D01*
X134435189Y-101987906D01*
X134443796Y-101986033D01*
X134448813Y-101982630D01*
X134460815Y-101982330D01*
X134486700Y-101976700D01*
X134796237Y-101976700D01*
X134858236Y-101993312D01*
X134944464Y-102043095D01*
X135065399Y-102075500D01*
X135065401Y-102075500D01*
X135190599Y-102075500D01*
X135190601Y-102075500D01*
X135311536Y-102043095D01*
X135419964Y-101980495D01*
X135508495Y-101891964D01*
X135571095Y-101783536D01*
X135603500Y-101662601D01*
X135603500Y-101537399D01*
X135571095Y-101416464D01*
X135508495Y-101308036D01*
X135419964Y-101219505D01*
X135311536Y-101156905D01*
X135311537Y-101156905D01*
X135271224Y-101146103D01*
X135190601Y-101124500D01*
X135065399Y-101124500D01*
X134984775Y-101146103D01*
X134944463Y-101156905D01*
X134836037Y-101219504D01*
X134836034Y-101219506D01*
X134747504Y-101308036D01*
X134744237Y-101313697D01*
X134735548Y-101321981D01*
X134730561Y-101332903D01*
X134710729Y-101345647D01*
X134693671Y-101361914D01*
X134680413Y-101365130D01*
X134671783Y-101370677D01*
X134636848Y-101375700D01*
X134486700Y-101375700D01*
X134419661Y-101356015D01*
X134373906Y-101303211D01*
X134362700Y-101251700D01*
X134362700Y-101146930D01*
X134359846Y-101116500D01*
X134359846Y-101116498D01*
X134314993Y-100988319D01*
X134314992Y-100988317D01*
X134234350Y-100879050D01*
X134125082Y-100798407D01*
X134125080Y-100798406D01*
X133996900Y-100753553D01*
X133966470Y-100750700D01*
X133966466Y-100750700D01*
X133182934Y-100750700D01*
X133182930Y-100750700D01*
X133152500Y-100753553D01*
X133152498Y-100753553D01*
X133024319Y-100798406D01*
X133024317Y-100798407D01*
X132915050Y-100879050D01*
X132834407Y-100988317D01*
X132834406Y-100988319D01*
X132789553Y-101116498D01*
X132789553Y-101116500D01*
X132786700Y-101146930D01*
X132287700Y-101146930D01*
X132284846Y-101116500D01*
X132284846Y-101116498D01*
X132239993Y-100988319D01*
X132239992Y-100988317D01*
X132159350Y-100879050D01*
X132050082Y-100798407D01*
X132050080Y-100798406D01*
X131921901Y-100753553D01*
X131912618Y-100752683D01*
X131847710Y-100726823D01*
X131807087Y-100669976D01*
X131800200Y-100629225D01*
X131800200Y-100278500D01*
X131819885Y-100211461D01*
X131872689Y-100165706D01*
X131924200Y-100154500D01*
X141804835Y-100154500D01*
X141871874Y-100174185D01*
X141905152Y-100205613D01*
X141957582Y-100277777D01*
X142008034Y-100347219D01*
X142152786Y-100491971D01*
X142307749Y-100604556D01*
X142318390Y-100612287D01*
X142431611Y-100669976D01*
X142500776Y-100705218D01*
X142500778Y-100705218D01*
X142500781Y-100705220D01*
X142605137Y-100739127D01*
X142695465Y-100768477D01*
X142796557Y-100784488D01*
X142897648Y-100800500D01*
X142897649Y-100800500D01*
X143102351Y-100800500D01*
X143102352Y-100800500D01*
X143304534Y-100768477D01*
X143499219Y-100705220D01*
X143681610Y-100612287D01*
X143774590Y-100544732D01*
X143847213Y-100491971D01*
X143847215Y-100491968D01*
X143847219Y-100491966D01*
X143991966Y-100347219D01*
X144094847Y-100205614D01*
X144150176Y-100162949D01*
X144195165Y-100154500D01*
X144325791Y-100154500D01*
X144325800Y-100154500D01*
X144369484Y-100149803D01*
X144398675Y-100143452D01*
X144420974Y-100138602D01*
X144420990Y-100138598D01*
X144420995Y-100138597D01*
X144431173Y-100136110D01*
X144511885Y-100093100D01*
X144564689Y-100047345D01*
X144582643Y-100029754D01*
X144627290Y-99949937D01*
X144646975Y-99882898D01*
X144655300Y-99825000D01*
X144655300Y-96466200D01*
X144650603Y-96422516D01*
X144646697Y-96404564D01*
X144639402Y-96371025D01*
X144639148Y-96369989D01*
X144636910Y-96360827D01*
X144593900Y-96280115D01*
X144548145Y-96227311D01*
X144548144Y-96227310D01*
X144548139Y-96227304D01*
X144530557Y-96209360D01*
X144530556Y-96209359D01*
X144530554Y-96209357D01*
X144530552Y-96209356D01*
X144530550Y-96209354D01*
X144450740Y-96164711D01*
X144450735Y-96164709D01*
X144383703Y-96145026D01*
X144383699Y-96145025D01*
X144383698Y-96145025D01*
X144325800Y-96136700D01*
X130832400Y-96136700D01*
X130832392Y-96136700D01*
X130788713Y-96141397D01*
X130737225Y-96152597D01*
X130727027Y-96155090D01*
X130727024Y-96155091D01*
X130646316Y-96198099D01*
X130646313Y-96198101D01*
X130593504Y-96243861D01*
X130591421Y-96245902D01*
X130529757Y-96278755D01*
X130460120Y-96273054D01*
X130410932Y-96238525D01*
X130401216Y-96227311D01*
X130401214Y-96227310D01*
X130383627Y-96209360D01*
X130383626Y-96209359D01*
X130383624Y-96209357D01*
X130383622Y-96209356D01*
X130383620Y-96209354D01*
X130303810Y-96164711D01*
X130303805Y-96164709D01*
X130236773Y-96145026D01*
X130236769Y-96145025D01*
X130236768Y-96145025D01*
X130178870Y-96136700D01*
X116659200Y-96136700D01*
X116659192Y-96136700D01*
X116615513Y-96141397D01*
X116564025Y-96152597D01*
X116553827Y-96155090D01*
X116553824Y-96155091D01*
X116473116Y-96198099D01*
X116473113Y-96198101D01*
X116420304Y-96243860D01*
X116402360Y-96261442D01*
X116402354Y-96261449D01*
X116357711Y-96341259D01*
X116357709Y-96341264D01*
X116338026Y-96408296D01*
X116338025Y-96408301D01*
X116338025Y-96408302D01*
X116329702Y-96466192D01*
X116329700Y-96466203D01*
X115794300Y-96466203D01*
X115794300Y-94397648D01*
X116809500Y-94397648D01*
X116809500Y-94602351D01*
X116841522Y-94804534D01*
X116904781Y-94999223D01*
X116997715Y-95181613D01*
X117118028Y-95347213D01*
X117262786Y-95491971D01*
X117417749Y-95604556D01*
X117428390Y-95612287D01*
X117544607Y-95671503D01*
X117610776Y-95705218D01*
X117610778Y-95705218D01*
X117610781Y-95705220D01*
X117715137Y-95739127D01*
X117805465Y-95768477D01*
X117906557Y-95784488D01*
X118007648Y-95800500D01*
X118007649Y-95800500D01*
X118212351Y-95800500D01*
X118212352Y-95800500D01*
X118414534Y-95768477D01*
X118609219Y-95705220D01*
X118791610Y-95612287D01*
X118884590Y-95544732D01*
X118957213Y-95491971D01*
X118957215Y-95491968D01*
X118957219Y-95491966D01*
X119101966Y-95347219D01*
X119101968Y-95347215D01*
X119101971Y-95347213D01*
X119154732Y-95274590D01*
X119222287Y-95181610D01*
X119315220Y-94999219D01*
X119378477Y-94804534D01*
X119410500Y-94602352D01*
X119410500Y-94397648D01*
X119378477Y-94195466D01*
X119364508Y-94152475D01*
X119349127Y-94105137D01*
X119315220Y-94000781D01*
X119315218Y-94000778D01*
X119315218Y-94000776D01*
X119278143Y-93928013D01*
X119222287Y-93818390D01*
X119201951Y-93790399D01*
X119101971Y-93652786D01*
X118957213Y-93508028D01*
X118791613Y-93387715D01*
X118791612Y-93387714D01*
X118791610Y-93387713D01*
X118732932Y-93357815D01*
X118609223Y-93294781D01*
X118414534Y-93231522D01*
X118239995Y-93203878D01*
X118212352Y-93199500D01*
X118007648Y-93199500D01*
X117983329Y-93203351D01*
X117805465Y-93231522D01*
X117610776Y-93294781D01*
X117428386Y-93387715D01*
X117262786Y-93508028D01*
X117118028Y-93652786D01*
X116997715Y-93818386D01*
X116904781Y-94000776D01*
X116841522Y-94195465D01*
X116809500Y-94397648D01*
X115794300Y-94397648D01*
X115794300Y-91565033D01*
X115813985Y-91497994D01*
X115830619Y-91477352D01*
X116064552Y-91243419D01*
X116125875Y-91209934D01*
X116152233Y-91207100D01*
X119216360Y-91207100D01*
X119216362Y-91207100D01*
X119292789Y-91186621D01*
X119361311Y-91147060D01*
X119417260Y-91091111D01*
X119696660Y-90811711D01*
X119708842Y-90790611D01*
X119736221Y-90743189D01*
X119756700Y-90666762D01*
X119756700Y-89562748D01*
X125824500Y-89562748D01*
X125824500Y-90066251D01*
X125840047Y-90164417D01*
X125847775Y-90179583D01*
X125900342Y-90282751D01*
X125900344Y-90282753D01*
X125900346Y-90282756D01*
X125994243Y-90376653D01*
X125994245Y-90376654D01*
X125994249Y-90376658D01*
X126112580Y-90436951D01*
X126112584Y-90436951D01*
X126112585Y-90436952D01*
X126113820Y-90437354D01*
X126115128Y-90438248D01*
X126121276Y-90441381D01*
X126120871Y-90442175D01*
X126171495Y-90476792D01*
X126198692Y-90541151D01*
X126199500Y-90555284D01*
X126199500Y-92960762D01*
X126213152Y-93011713D01*
X126219979Y-93037190D01*
X126231352Y-93056888D01*
X126242726Y-93076588D01*
X126242727Y-93076589D01*
X126259539Y-93105710D01*
X126423929Y-93270100D01*
X126457414Y-93331423D01*
X126452430Y-93401115D01*
X126446733Y-93414075D01*
X126443881Y-93419671D01*
X126443880Y-93419675D01*
X126428100Y-93519306D01*
X126428100Y-94036293D01*
X126443879Y-94135921D01*
X126443880Y-94135924D01*
X126443881Y-94135926D01*
X126493594Y-94233493D01*
X126505073Y-94256021D01*
X126505076Y-94256025D01*
X126600374Y-94351323D01*
X126600378Y-94351326D01*
X126600380Y-94351328D01*
X126720474Y-94412519D01*
X126720476Y-94412519D01*
X126720478Y-94412520D01*
X126820107Y-94428300D01*
X126820112Y-94428300D01*
X127637093Y-94428300D01*
X127736721Y-94412520D01*
X127736721Y-94412519D01*
X127736726Y-94412519D01*
X127856820Y-94351328D01*
X127952128Y-94256020D01*
X128013319Y-94135926D01*
X128013320Y-94135921D01*
X128029100Y-94036293D01*
X128029100Y-93519306D01*
X128013320Y-93419678D01*
X128013319Y-93419676D01*
X128013319Y-93419674D01*
X127952128Y-93299580D01*
X127952126Y-93299578D01*
X127952123Y-93299574D01*
X127856825Y-93204276D01*
X127856821Y-93204273D01*
X127856820Y-93204272D01*
X127736726Y-93143081D01*
X127736724Y-93143080D01*
X127736721Y-93143079D01*
X127637093Y-93127300D01*
X127637088Y-93127300D01*
X127182433Y-93127300D01*
X127115394Y-93107615D01*
X127094752Y-93090981D01*
X126836819Y-92833048D01*
X126803334Y-92771725D01*
X126800500Y-92745367D01*
X126800500Y-90555284D01*
X126820185Y-90488245D01*
X126872989Y-90442490D01*
X126886180Y-90437354D01*
X126887414Y-90436952D01*
X126887414Y-90436951D01*
X126887420Y-90436951D01*
X127005751Y-90376658D01*
X127099658Y-90282751D01*
X127159951Y-90164420D01*
X127159951Y-90164418D01*
X127159952Y-90164417D01*
X127175500Y-90066251D01*
X127175500Y-89562748D01*
X127159952Y-89464582D01*
X127159951Y-89464580D01*
X127099658Y-89346249D01*
X127099654Y-89346245D01*
X127099653Y-89346243D01*
X127005756Y-89252346D01*
X127005753Y-89252344D01*
X127005751Y-89252342D01*
X126887420Y-89192049D01*
X126887419Y-89192048D01*
X126887416Y-89192047D01*
X126887417Y-89192047D01*
X126789251Y-89176500D01*
X126789246Y-89176500D01*
X126210754Y-89176500D01*
X126210749Y-89176500D01*
X126112582Y-89192047D01*
X126033692Y-89232244D01*
X125994249Y-89252342D01*
X125994248Y-89252343D01*
X125994243Y-89252346D01*
X125900346Y-89346243D01*
X125900343Y-89346248D01*
X125900342Y-89346249D01*
X125880244Y-89385692D01*
X125840047Y-89464582D01*
X125824500Y-89562748D01*
X119756700Y-89562748D01*
X119756700Y-88084143D01*
X120157499Y-88084143D01*
X120195947Y-88277429D01*
X120195950Y-88277439D01*
X120271364Y-88459507D01*
X120271371Y-88459520D01*
X120380860Y-88623381D01*
X120380863Y-88623385D01*
X120520214Y-88762736D01*
X120520218Y-88762739D01*
X120684079Y-88872228D01*
X120684092Y-88872235D01*
X120857819Y-88944194D01*
X120866165Y-88947651D01*
X120866169Y-88947651D01*
X120866170Y-88947652D01*
X121059456Y-88986100D01*
X121059459Y-88986100D01*
X121256543Y-88986100D01*
X121386582Y-88960232D01*
X121449835Y-88947651D01*
X121631914Y-88872232D01*
X121795782Y-88762739D01*
X121935139Y-88623382D01*
X122044632Y-88459514D01*
X122120051Y-88277435D01*
X122134977Y-88202399D01*
X123298700Y-88202399D01*
X123298700Y-88327601D01*
X123331105Y-88448536D01*
X123393705Y-88556964D01*
X123482236Y-88645495D01*
X123590664Y-88708095D01*
X123711599Y-88740500D01*
X123711601Y-88740500D01*
X123836799Y-88740500D01*
X123836801Y-88740500D01*
X123957736Y-88708095D01*
X124066164Y-88645495D01*
X124135340Y-88576319D01*
X124196663Y-88542834D01*
X124223021Y-88540000D01*
X125738882Y-88540000D01*
X125805921Y-88559685D01*
X125849364Y-88607701D01*
X125896776Y-88700752D01*
X125900343Y-88707752D01*
X125900346Y-88707756D01*
X125994243Y-88801653D01*
X125994245Y-88801654D01*
X125994249Y-88801658D01*
X126112580Y-88861951D01*
X126112581Y-88861951D01*
X126112583Y-88861952D01*
X126112582Y-88861952D01*
X126210749Y-88877500D01*
X126210754Y-88877500D01*
X126789251Y-88877500D01*
X126887417Y-88861952D01*
X126887418Y-88861951D01*
X126887420Y-88861951D01*
X127005751Y-88801658D01*
X127023171Y-88784238D01*
X128706100Y-88784238D01*
X128706100Y-91428762D01*
X128719120Y-91477352D01*
X128726579Y-91505190D01*
X128726582Y-91505195D01*
X128766135Y-91573704D01*
X128766141Y-91573712D01*
X129782781Y-92590352D01*
X129816266Y-92651675D01*
X129819100Y-92678033D01*
X129819100Y-93152660D01*
X129821874Y-93182249D01*
X129865484Y-93306876D01*
X129943888Y-93413110D01*
X129943889Y-93413111D01*
X130050123Y-93491515D01*
X130050124Y-93491515D01*
X130050125Y-93491516D01*
X130174751Y-93535125D01*
X130174750Y-93535125D01*
X130204340Y-93537900D01*
X130204344Y-93537900D01*
X130809860Y-93537900D01*
X130839449Y-93535125D01*
X130884639Y-93519312D01*
X130964075Y-93491516D01*
X131070311Y-93413111D01*
X131148716Y-93306875D01*
X131192325Y-93182249D01*
X131195100Y-93152656D01*
X131195100Y-92572144D01*
X131195100Y-92572139D01*
X131644100Y-92572139D01*
X131644100Y-93152660D01*
X131646874Y-93182249D01*
X131690484Y-93306876D01*
X131768888Y-93413110D01*
X131768889Y-93413111D01*
X131875123Y-93491515D01*
X131875124Y-93491515D01*
X131875125Y-93491516D01*
X131999751Y-93535125D01*
X131999750Y-93535125D01*
X132029340Y-93537900D01*
X132029344Y-93537900D01*
X132279167Y-93537900D01*
X132346206Y-93557585D01*
X132366848Y-93574219D01*
X132558781Y-93766152D01*
X132592266Y-93827475D01*
X132595100Y-93853833D01*
X132595100Y-93915601D01*
X132627505Y-94036536D01*
X132690105Y-94144964D01*
X132778636Y-94233495D01*
X132887064Y-94296095D01*
X133007999Y-94328500D01*
X133008001Y-94328500D01*
X133133199Y-94328500D01*
X133133201Y-94328500D01*
X133254136Y-94296095D01*
X133362564Y-94233495D01*
X133451095Y-94144964D01*
X133513695Y-94036536D01*
X133542775Y-93928009D01*
X133579138Y-93868352D01*
X133641985Y-93837823D01*
X133711360Y-93846118D01*
X133765238Y-93890603D01*
X133773032Y-93903811D01*
X133821836Y-93999594D01*
X133846699Y-94033815D01*
X133932910Y-94152473D01*
X134066527Y-94286090D01*
X134219401Y-94397160D01*
X134249545Y-94412519D01*
X134387763Y-94482945D01*
X134387765Y-94482945D01*
X134387768Y-94482947D01*
X134484097Y-94514246D01*
X134567481Y-94541340D01*
X134754114Y-94570900D01*
X134754119Y-94570900D01*
X134943086Y-94570900D01*
X135129718Y-94541340D01*
X135309432Y-94482947D01*
X135476841Y-94397648D01*
X141699500Y-94397648D01*
X141699500Y-94602351D01*
X141731522Y-94804534D01*
X141794781Y-94999223D01*
X141887715Y-95181613D01*
X142008028Y-95347213D01*
X142152786Y-95491971D01*
X142307749Y-95604556D01*
X142318390Y-95612287D01*
X142434607Y-95671503D01*
X142500776Y-95705218D01*
X142500778Y-95705218D01*
X142500781Y-95705220D01*
X142605137Y-95739127D01*
X142695465Y-95768477D01*
X142796557Y-95784488D01*
X142897648Y-95800500D01*
X142897649Y-95800500D01*
X143102351Y-95800500D01*
X143102352Y-95800500D01*
X143304534Y-95768477D01*
X143499219Y-95705220D01*
X143681610Y-95612287D01*
X143774590Y-95544732D01*
X143847213Y-95491971D01*
X143847215Y-95491968D01*
X143847219Y-95491966D01*
X143991966Y-95347219D01*
X143991968Y-95347215D01*
X143991971Y-95347213D01*
X144044732Y-95274590D01*
X144112287Y-95181610D01*
X144205220Y-94999219D01*
X144268477Y-94804534D01*
X144300500Y-94602352D01*
X144300500Y-94397648D01*
X144268477Y-94195466D01*
X144254508Y-94152475D01*
X144239127Y-94105137D01*
X144205220Y-94000781D01*
X144205218Y-94000778D01*
X144205218Y-94000776D01*
X144168143Y-93928013D01*
X144112287Y-93818390D01*
X144091951Y-93790399D01*
X143991971Y-93652786D01*
X143847213Y-93508028D01*
X143681613Y-93387715D01*
X143681612Y-93387714D01*
X143681610Y-93387713D01*
X143622932Y-93357815D01*
X143499223Y-93294781D01*
X143304534Y-93231522D01*
X143129995Y-93203878D01*
X143102352Y-93199500D01*
X142897648Y-93199500D01*
X142873329Y-93203351D01*
X142695465Y-93231522D01*
X142500776Y-93294781D01*
X142318386Y-93387715D01*
X142152786Y-93508028D01*
X142008028Y-93652786D01*
X141887715Y-93818386D01*
X141794781Y-94000776D01*
X141731522Y-94195465D01*
X141699500Y-94397648D01*
X135476841Y-94397648D01*
X135477799Y-94397160D01*
X135630673Y-94286090D01*
X135764290Y-94152473D01*
X135875360Y-93999599D01*
X135961147Y-93831232D01*
X136019540Y-93651518D01*
X136033871Y-93561036D01*
X136049100Y-93464886D01*
X136049100Y-93275913D01*
X136019540Y-93089281D01*
X135961145Y-92909563D01*
X135903653Y-92796729D01*
X135875360Y-92741201D01*
X135764290Y-92588327D01*
X135630673Y-92454710D01*
X135477799Y-92343640D01*
X135309436Y-92257854D01*
X135129718Y-92199459D01*
X134943086Y-92169900D01*
X134943081Y-92169900D01*
X134754119Y-92169900D01*
X134754114Y-92169900D01*
X134567481Y-92199459D01*
X134387763Y-92257854D01*
X134219400Y-92343640D01*
X134132179Y-92407010D01*
X134066527Y-92454710D01*
X134066525Y-92454712D01*
X134066524Y-92454712D01*
X133932912Y-92588324D01*
X133932912Y-92588325D01*
X133932910Y-92588327D01*
X133886885Y-92651675D01*
X133821840Y-92741200D01*
X133736054Y-92909563D01*
X133677659Y-93089281D01*
X133648100Y-93275913D01*
X133648100Y-93458679D01*
X133628415Y-93525718D01*
X133575611Y-93571473D01*
X133506453Y-93581417D01*
X133442897Y-93552392D01*
X133436419Y-93546360D01*
X133362565Y-93472506D01*
X133362564Y-93472505D01*
X133254136Y-93409905D01*
X133254137Y-93409905D01*
X133213824Y-93399103D01*
X133133201Y-93377500D01*
X133133199Y-93377500D01*
X133123766Y-93377500D01*
X133056727Y-93357815D01*
X133010972Y-93305011D01*
X133001028Y-93235853D01*
X133006724Y-93212546D01*
X133017325Y-93182248D01*
X133020100Y-93152660D01*
X133020100Y-92572139D01*
X133017325Y-92542550D01*
X132973715Y-92417923D01*
X132895311Y-92311689D01*
X132895310Y-92311688D01*
X132789076Y-92233284D01*
X132664448Y-92189674D01*
X132664449Y-92189674D01*
X132634860Y-92186900D01*
X132634856Y-92186900D01*
X132029344Y-92186900D01*
X132029340Y-92186900D01*
X131999750Y-92189674D01*
X131875123Y-92233284D01*
X131768889Y-92311688D01*
X131768888Y-92311689D01*
X131690484Y-92417923D01*
X131646874Y-92542550D01*
X131644100Y-92572139D01*
X131195100Y-92572139D01*
X131192325Y-92542551D01*
X131148716Y-92417925D01*
X131070311Y-92311689D01*
X131070310Y-92311688D01*
X130964076Y-92233284D01*
X130839448Y-92189674D01*
X130839449Y-92189674D01*
X130809860Y-92186900D01*
X130809856Y-92186900D01*
X130280633Y-92186900D01*
X130213594Y-92167215D01*
X130192952Y-92150581D01*
X129343419Y-91301048D01*
X129309934Y-91239725D01*
X129307100Y-91213367D01*
X129307100Y-90260079D01*
X129326785Y-90193040D01*
X129379589Y-90147285D01*
X129448747Y-90137341D01*
X129512303Y-90166366D01*
X129548806Y-90221075D01*
X129587906Y-90339072D01*
X129587908Y-90339077D01*
X129676114Y-90482080D01*
X129794919Y-90600885D01*
X129937922Y-90689091D01*
X129937927Y-90689093D01*
X130097416Y-90741942D01*
X130195855Y-90751999D01*
X130750000Y-90751999D01*
X130804136Y-90751999D01*
X130804152Y-90751998D01*
X130902583Y-90741943D01*
X131062072Y-90689093D01*
X131062077Y-90689091D01*
X131205080Y-90600885D01*
X131323885Y-90482080D01*
X131412091Y-90339077D01*
X131412093Y-90339072D01*
X131464942Y-90179583D01*
X131474999Y-90081152D01*
X133525001Y-90081152D01*
X133535056Y-90179583D01*
X133587906Y-90339072D01*
X133587908Y-90339077D01*
X133676114Y-90482080D01*
X133794919Y-90600885D01*
X133937922Y-90689091D01*
X133937927Y-90689093D01*
X134097416Y-90741942D01*
X134195855Y-90751999D01*
X134750000Y-90751999D01*
X134804136Y-90751999D01*
X134804152Y-90751998D01*
X134902583Y-90741943D01*
X135062072Y-90689093D01*
X135062077Y-90689091D01*
X135205080Y-90600885D01*
X135323885Y-90482080D01*
X135412091Y-90339077D01*
X135412093Y-90339072D01*
X135464942Y-90179583D01*
X135474999Y-90081150D01*
X135475000Y-90081137D01*
X135475000Y-90064500D01*
X134750000Y-90064500D01*
X134750000Y-90751999D01*
X134195855Y-90751999D01*
X134249999Y-90751998D01*
X134250000Y-90751998D01*
X134250000Y-90064500D01*
X133525001Y-90064500D01*
X133525001Y-90081152D01*
X131474999Y-90081152D01*
X131474999Y-90081150D01*
X131475000Y-90081137D01*
X131475000Y-90064500D01*
X130750000Y-90064500D01*
X130750000Y-90751999D01*
X130195855Y-90751999D01*
X130249999Y-90751998D01*
X130250000Y-90751998D01*
X130250000Y-89938500D01*
X130269685Y-89871461D01*
X130322489Y-89825706D01*
X130374000Y-89814500D01*
X130500000Y-89814500D01*
X130500000Y-89688500D01*
X130519685Y-89621461D01*
X130572489Y-89575706D01*
X130624000Y-89564500D01*
X131474999Y-89564500D01*
X131474999Y-89547864D01*
X131474998Y-89547847D01*
X131464943Y-89449416D01*
X131412093Y-89289927D01*
X131412091Y-89289922D01*
X131323885Y-89146919D01*
X131205080Y-89028114D01*
X131075206Y-88948007D01*
X131028482Y-88896059D01*
X131017259Y-88827096D01*
X131045103Y-88763014D01*
X131052623Y-88754786D01*
X131099654Y-88707755D01*
X131099658Y-88707751D01*
X131159951Y-88589420D01*
X131159951Y-88589418D01*
X131159952Y-88589417D01*
X131175500Y-88491251D01*
X131175500Y-87987748D01*
X131159952Y-87889582D01*
X131150634Y-87871295D01*
X131099658Y-87771249D01*
X131099654Y-87771245D01*
X131099653Y-87771243D01*
X131005756Y-87677346D01*
X131005753Y-87677344D01*
X131005751Y-87677342D01*
X130887420Y-87617049D01*
X130887419Y-87617048D01*
X130887416Y-87617047D01*
X130887417Y-87617047D01*
X130789251Y-87601500D01*
X130789246Y-87601500D01*
X130210754Y-87601500D01*
X130210749Y-87601500D01*
X130112582Y-87617047D01*
X130041173Y-87653433D01*
X129994249Y-87677342D01*
X129994248Y-87677343D01*
X129994243Y-87677346D01*
X129900346Y-87771243D01*
X129900343Y-87771247D01*
X129900342Y-87771249D01*
X129849364Y-87871297D01*
X129801393Y-87922091D01*
X129738882Y-87939000D01*
X129551338Y-87939000D01*
X129513124Y-87949239D01*
X129474909Y-87959479D01*
X129474908Y-87959480D01*
X129425947Y-87987748D01*
X129425937Y-87987754D01*
X129422631Y-87989663D01*
X129406389Y-87999039D01*
X128766141Y-88639287D01*
X128766135Y-88639295D01*
X128726582Y-88707804D01*
X128726579Y-88707809D01*
X128717820Y-88740500D01*
X128706100Y-88784238D01*
X127023171Y-88784238D01*
X127099658Y-88707751D01*
X127159951Y-88589420D01*
X127159951Y-88589418D01*
X127159952Y-88589417D01*
X127175500Y-88491251D01*
X127175500Y-87987748D01*
X127159952Y-87889582D01*
X127150634Y-87871295D01*
X127099658Y-87771249D01*
X127099654Y-87771245D01*
X127099653Y-87771243D01*
X127005756Y-87677346D01*
X127005753Y-87677344D01*
X127005751Y-87677342D01*
X126887420Y-87617049D01*
X126887419Y-87617048D01*
X126887416Y-87617047D01*
X126887417Y-87617047D01*
X126789251Y-87601500D01*
X126789246Y-87601500D01*
X126210754Y-87601500D01*
X126210749Y-87601500D01*
X126112582Y-87617047D01*
X126041173Y-87653433D01*
X125994249Y-87677342D01*
X125994248Y-87677343D01*
X125994243Y-87677346D01*
X125900346Y-87771243D01*
X125900343Y-87771247D01*
X125900342Y-87771249D01*
X125849364Y-87871297D01*
X125801393Y-87922091D01*
X125738882Y-87939000D01*
X124172021Y-87939000D01*
X124104982Y-87919315D01*
X124084340Y-87902681D01*
X124066165Y-87884506D01*
X124066164Y-87884505D01*
X123957736Y-87821905D01*
X123957737Y-87821905D01*
X123917424Y-87811103D01*
X123836801Y-87789500D01*
X123711599Y-87789500D01*
X123630975Y-87811103D01*
X123590663Y-87821905D01*
X123482237Y-87884504D01*
X123482234Y-87884506D01*
X123393706Y-87973034D01*
X123393704Y-87973037D01*
X123331105Y-88081463D01*
X123324837Y-88104857D01*
X123298700Y-88202399D01*
X122134977Y-88202399D01*
X122141406Y-88170080D01*
X122141406Y-88170079D01*
X122158500Y-88084143D01*
X122158500Y-87887056D01*
X122120052Y-87693770D01*
X122120051Y-87693769D01*
X122120051Y-87693765D01*
X122113249Y-87677343D01*
X122044635Y-87511692D01*
X122044628Y-87511679D01*
X121935139Y-87347818D01*
X121935136Y-87347814D01*
X121795785Y-87208463D01*
X121795781Y-87208460D01*
X121631920Y-87098971D01*
X121631907Y-87098964D01*
X121449839Y-87023550D01*
X121449829Y-87023547D01*
X121256543Y-86985100D01*
X121256541Y-86985100D01*
X121059459Y-86985100D01*
X121059457Y-86985100D01*
X120866170Y-87023547D01*
X120866160Y-87023550D01*
X120684092Y-87098964D01*
X120684079Y-87098971D01*
X120520218Y-87208460D01*
X120520214Y-87208463D01*
X120380863Y-87347814D01*
X120380860Y-87347818D01*
X120271371Y-87511679D01*
X120271364Y-87511692D01*
X120195950Y-87693760D01*
X120195947Y-87693770D01*
X120157500Y-87887056D01*
X120157500Y-87887059D01*
X120157500Y-88084141D01*
X120157500Y-88084143D01*
X120157499Y-88084143D01*
X119756700Y-88084143D01*
X119756700Y-87653433D01*
X119776385Y-87586394D01*
X119793019Y-87565752D01*
X120611152Y-86747619D01*
X120672475Y-86714134D01*
X120698833Y-86711300D01*
X133707567Y-86711300D01*
X133774606Y-86730985D01*
X133795248Y-86747619D01*
X134163181Y-87115552D01*
X134196666Y-87176875D01*
X134199500Y-87203233D01*
X134199500Y-87498715D01*
X134179815Y-87565754D01*
X134127011Y-87611509D01*
X134113827Y-87616643D01*
X134112585Y-87617046D01*
X134055808Y-87645975D01*
X133994249Y-87677342D01*
X133994248Y-87677343D01*
X133994243Y-87677346D01*
X133900346Y-87771243D01*
X133900343Y-87771248D01*
X133840047Y-87889582D01*
X133824500Y-87987748D01*
X133824500Y-88491251D01*
X133840047Y-88589417D01*
X133849587Y-88608139D01*
X133900342Y-88707751D01*
X133900344Y-88707753D01*
X133900346Y-88707756D01*
X133947377Y-88754787D01*
X133980862Y-88816110D01*
X133975878Y-88885802D01*
X133934006Y-88941735D01*
X133924793Y-88948006D01*
X133794924Y-89028110D01*
X133794920Y-89028113D01*
X133676114Y-89146919D01*
X133587908Y-89289922D01*
X133587906Y-89289927D01*
X133535057Y-89449416D01*
X133525000Y-89547849D01*
X133525000Y-89564500D01*
X135474999Y-89564500D01*
X135474999Y-89547864D01*
X135474998Y-89547847D01*
X135464943Y-89449416D01*
X135412093Y-89289927D01*
X135412091Y-89289922D01*
X135323885Y-89146919D01*
X135205080Y-89028114D01*
X135075206Y-88948007D01*
X135028482Y-88896059D01*
X135017259Y-88827096D01*
X135045103Y-88763014D01*
X135052623Y-88754786D01*
X135099654Y-88707755D01*
X135099658Y-88707751D01*
X135159951Y-88589420D01*
X135159951Y-88589418D01*
X135159952Y-88589417D01*
X135175500Y-88491251D01*
X135175500Y-88084143D01*
X138953499Y-88084143D01*
X138991947Y-88277429D01*
X138991950Y-88277439D01*
X139067364Y-88459507D01*
X139067371Y-88459520D01*
X139176860Y-88623381D01*
X139176863Y-88623385D01*
X139316214Y-88762736D01*
X139316218Y-88762739D01*
X139480079Y-88872228D01*
X139480092Y-88872235D01*
X139653819Y-88944194D01*
X139662165Y-88947651D01*
X139662169Y-88947651D01*
X139662170Y-88947652D01*
X139855456Y-88986100D01*
X139855459Y-88986100D01*
X140052543Y-88986100D01*
X140182582Y-88960232D01*
X140245835Y-88947651D01*
X140427914Y-88872232D01*
X140591782Y-88762739D01*
X140731139Y-88623382D01*
X140840632Y-88459514D01*
X140916051Y-88277435D01*
X140930977Y-88202399D01*
X140954500Y-88084143D01*
X140954500Y-87887064D01*
X140954500Y-87887059D01*
X140953483Y-87881949D01*
X142812100Y-87881949D01*
X142812100Y-88104850D01*
X142812101Y-88104866D01*
X142841194Y-88325852D01*
X142841195Y-88325857D01*
X142841196Y-88325863D01*
X142898574Y-88540000D01*
X142898890Y-88541180D01*
X142898893Y-88541190D01*
X142981450Y-88740500D01*
X142984195Y-88747126D01*
X143095652Y-88940174D01*
X143095657Y-88940180D01*
X143095658Y-88940182D01*
X143231351Y-89117022D01*
X143231357Y-89117029D01*
X143388970Y-89274642D01*
X143388976Y-89274647D01*
X143565826Y-89410348D01*
X143758874Y-89521805D01*
X143964819Y-89607110D01*
X144180137Y-89664804D01*
X144401143Y-89693900D01*
X144401150Y-89693900D01*
X144624050Y-89693900D01*
X144624057Y-89693900D01*
X144845063Y-89664804D01*
X145060381Y-89607110D01*
X145266326Y-89521805D01*
X145459374Y-89410348D01*
X145636224Y-89274647D01*
X145793847Y-89117024D01*
X145929548Y-88940174D01*
X146041005Y-88747126D01*
X146126310Y-88541181D01*
X146184004Y-88325863D01*
X146213100Y-88104857D01*
X146213100Y-87881943D01*
X146184004Y-87660937D01*
X146126310Y-87445619D01*
X146041005Y-87239674D01*
X145929548Y-87046626D01*
X145882338Y-86985100D01*
X145793848Y-86869777D01*
X145793842Y-86869770D01*
X145636229Y-86712157D01*
X145636222Y-86712151D01*
X145459382Y-86576458D01*
X145459380Y-86576457D01*
X145459374Y-86576452D01*
X145266326Y-86464995D01*
X145266322Y-86464993D01*
X145060390Y-86379693D01*
X145060383Y-86379691D01*
X145060381Y-86379690D01*
X144845063Y-86321996D01*
X144845057Y-86321995D01*
X144845052Y-86321994D01*
X144624066Y-86292901D01*
X144624063Y-86292900D01*
X144624057Y-86292900D01*
X144401143Y-86292900D01*
X144401137Y-86292900D01*
X144401133Y-86292901D01*
X144180147Y-86321994D01*
X144180140Y-86321995D01*
X144180137Y-86321996D01*
X143964819Y-86379690D01*
X143964809Y-86379693D01*
X143758877Y-86464993D01*
X143758873Y-86464995D01*
X143565826Y-86576452D01*
X143565817Y-86576458D01*
X143388977Y-86712151D01*
X143388970Y-86712157D01*
X143231357Y-86869770D01*
X143231351Y-86869777D01*
X143095658Y-87046617D01*
X143095652Y-87046626D01*
X142984195Y-87239673D01*
X142984193Y-87239677D01*
X142898893Y-87445609D01*
X142898890Y-87445619D01*
X142853065Y-87616643D01*
X142841197Y-87660934D01*
X142841194Y-87660947D01*
X142812101Y-87881933D01*
X142812100Y-87881949D01*
X140953483Y-87881949D01*
X140953482Y-87881943D01*
X140916052Y-87693770D01*
X140916051Y-87693769D01*
X140916051Y-87693765D01*
X140909249Y-87677343D01*
X140840635Y-87511692D01*
X140840628Y-87511679D01*
X140731139Y-87347818D01*
X140731136Y-87347814D01*
X140591785Y-87208463D01*
X140591781Y-87208460D01*
X140427920Y-87098971D01*
X140427907Y-87098964D01*
X140245839Y-87023550D01*
X140245829Y-87023547D01*
X140052543Y-86985100D01*
X140052541Y-86985100D01*
X139855459Y-86985100D01*
X139855457Y-86985100D01*
X139662170Y-87023547D01*
X139662160Y-87023550D01*
X139480092Y-87098964D01*
X139480079Y-87098971D01*
X139316218Y-87208460D01*
X139316214Y-87208463D01*
X139176863Y-87347814D01*
X139176860Y-87347818D01*
X139067371Y-87511679D01*
X139067364Y-87511692D01*
X138991950Y-87693760D01*
X138991947Y-87693770D01*
X138953500Y-87887056D01*
X138953500Y-87887059D01*
X138953500Y-88084141D01*
X138953500Y-88084143D01*
X138953499Y-88084143D01*
X135175500Y-88084143D01*
X135175500Y-87987748D01*
X135161660Y-87900365D01*
X135159952Y-87889582D01*
X135150634Y-87871295D01*
X135099658Y-87771249D01*
X135099654Y-87771245D01*
X135099653Y-87771243D01*
X135005756Y-87677346D01*
X135005753Y-87677344D01*
X135005751Y-87677342D01*
X134887420Y-87617049D01*
X134887419Y-87617048D01*
X134887414Y-87617046D01*
X134886173Y-87616643D01*
X134884859Y-87615744D01*
X134878725Y-87612619D01*
X134879129Y-87611825D01*
X134828501Y-87577202D01*
X134801307Y-87512841D01*
X134800500Y-87498715D01*
X134800500Y-86987839D01*
X134780020Y-86911409D01*
X134780017Y-86911404D01*
X134740464Y-86842895D01*
X134740458Y-86842887D01*
X134067912Y-86170341D01*
X134067904Y-86170335D01*
X133999395Y-86130782D01*
X133999390Y-86130779D01*
X133968481Y-86122497D01*
X133922962Y-86110300D01*
X120483438Y-86110300D01*
X120455176Y-86117873D01*
X120407009Y-86130779D01*
X120407004Y-86130782D01*
X120338495Y-86170335D01*
X120338487Y-86170341D01*
X119215741Y-87293087D01*
X119215735Y-87293095D01*
X119176182Y-87361604D01*
X119176179Y-87361609D01*
X119155700Y-87438039D01*
X119155700Y-90451367D01*
X119147055Y-90480807D01*
X119140532Y-90510794D01*
X119136777Y-90515809D01*
X119136015Y-90518406D01*
X119119381Y-90539048D01*
X119088648Y-90569781D01*
X119027325Y-90603266D01*
X119000967Y-90606100D01*
X115936838Y-90606100D01*
X115898624Y-90616339D01*
X115860409Y-90626579D01*
X115860404Y-90626582D01*
X115791895Y-90666135D01*
X115791887Y-90666141D01*
X115253341Y-91204687D01*
X115253335Y-91204695D01*
X115213782Y-91273204D01*
X115213779Y-91273209D01*
X115206320Y-91301048D01*
X115193300Y-91349638D01*
X113987700Y-91349638D01*
X113987700Y-87997150D01*
X113987926Y-87989663D01*
X113988041Y-87987755D01*
X113994441Y-87881949D01*
X114812100Y-87881949D01*
X114812100Y-88104850D01*
X114812101Y-88104866D01*
X114841194Y-88325852D01*
X114841195Y-88325857D01*
X114841196Y-88325863D01*
X114898574Y-88540000D01*
X114898890Y-88541180D01*
X114898893Y-88541190D01*
X114981450Y-88740500D01*
X114984195Y-88747126D01*
X115095652Y-88940174D01*
X115095657Y-88940180D01*
X115095658Y-88940182D01*
X115231351Y-89117022D01*
X115231357Y-89117029D01*
X115388970Y-89274642D01*
X115388976Y-89274647D01*
X115565826Y-89410348D01*
X115758874Y-89521805D01*
X115964819Y-89607110D01*
X116180137Y-89664804D01*
X116401143Y-89693900D01*
X116401150Y-89693900D01*
X116624050Y-89693900D01*
X116624057Y-89693900D01*
X116845063Y-89664804D01*
X117060381Y-89607110D01*
X117266326Y-89521805D01*
X117459374Y-89410348D01*
X117636224Y-89274647D01*
X117793847Y-89117024D01*
X117929548Y-88940174D01*
X118041005Y-88747126D01*
X118126310Y-88541181D01*
X118184004Y-88325863D01*
X118213100Y-88104857D01*
X118213100Y-87881943D01*
X118184004Y-87660937D01*
X118126310Y-87445619D01*
X118041005Y-87239674D01*
X117929548Y-87046626D01*
X117882338Y-86985100D01*
X117793848Y-86869777D01*
X117793842Y-86869770D01*
X117636229Y-86712157D01*
X117636222Y-86712151D01*
X117459382Y-86576458D01*
X117459380Y-86576457D01*
X117459374Y-86576452D01*
X117266326Y-86464995D01*
X117266322Y-86464993D01*
X117060390Y-86379693D01*
X117060383Y-86379691D01*
X117060381Y-86379690D01*
X116845063Y-86321996D01*
X116845057Y-86321995D01*
X116845052Y-86321994D01*
X116624066Y-86292901D01*
X116624063Y-86292900D01*
X116624057Y-86292900D01*
X116401143Y-86292900D01*
X116401137Y-86292900D01*
X116401133Y-86292901D01*
X116180147Y-86321994D01*
X116180140Y-86321995D01*
X116180137Y-86321996D01*
X115964819Y-86379690D01*
X115964809Y-86379693D01*
X115758877Y-86464993D01*
X115758873Y-86464995D01*
X115565826Y-86576452D01*
X115565817Y-86576458D01*
X115388977Y-86712151D01*
X115388970Y-86712157D01*
X115231357Y-86869770D01*
X115231351Y-86869777D01*
X115095658Y-87046617D01*
X115095652Y-87046626D01*
X114984195Y-87239673D01*
X114984193Y-87239677D01*
X114898893Y-87445609D01*
X114898890Y-87445619D01*
X114853065Y-87616643D01*
X114841197Y-87660934D01*
X114841194Y-87660947D01*
X114812101Y-87881933D01*
X114812100Y-87881949D01*
X113994441Y-87881949D01*
X114005471Y-87699601D01*
X114007276Y-87684740D01*
X114019682Y-87617046D01*
X114058980Y-87402597D01*
X114062564Y-87388063D01*
X114070807Y-87361611D01*
X114147896Y-87114222D01*
X114153198Y-87100241D01*
X114270931Y-86838649D01*
X114277876Y-86825416D01*
X114426280Y-86579926D01*
X114434767Y-86567630D01*
X114611680Y-86341817D01*
X114621595Y-86330626D01*
X114824426Y-86127795D01*
X114835617Y-86117880D01*
X115061430Y-85940967D01*
X115073726Y-85932480D01*
X115319216Y-85784076D01*
X115332449Y-85777131D01*
X115594041Y-85659398D01*
X115608022Y-85654096D01*
X115881868Y-85568762D01*
X115896397Y-85565180D01*
X116178544Y-85513475D01*
X116193401Y-85511671D01*
X116483464Y-85494126D01*
X116490951Y-85493900D01*
X116553092Y-85493900D01*
X144421308Y-85493900D01*
X144483449Y-85493900D01*
X144490936Y-85494126D01*
G37*
%TD.AperFunction*%
%TD*%
%TA.AperFunction,Conductor*%
%TO.N,/Project Architecture/Sense/VIN+*%
G36*
X130245909Y-96361885D02*
G01*
X130291664Y-96414689D01*
X130302867Y-96465327D01*
X130326518Y-99823896D01*
X130307306Y-99891072D01*
X130254825Y-99937198D01*
X130202293Y-99948769D01*
X116658972Y-99923827D01*
X116591969Y-99904019D01*
X116546311Y-99851131D01*
X116535200Y-99799827D01*
X116535200Y-96466200D01*
X116554885Y-96399161D01*
X116607689Y-96353406D01*
X116659200Y-96342200D01*
X130178870Y-96342200D01*
X130245909Y-96361885D01*
G37*
%TD.AperFunction*%
%TD*%
M02*
