  0
SECTION
  2
HEADER
  9
$ANGBASE
  50
0.0
  9
$ANGDIR
  70
1
  9
$MEASUREMENT
  70
1
  0
ENDSEC
  0
SECTION
  2
TABLES
  0
TABLE
  2
LTYPE
  70
4
  0
LTYPE
  5
40F
  2
CONTINUOUS
  70
0
  3
Solid line
  72
65
  73
0
  40
0.0
  0
LTYPE
  5
410
  2
DASHDOT
 70
0
  3
Dash Dot ____ _ ____ _
 72
65
 73
4
 40
2.0
 49
1.25
 49
-0.25
 49
0.25
 49
-0.25
  0
LTYPE
  5
411
  2
DASHED
 70
0
  3
Dashed __ __ __ __ __
 72
65
 73
2
 40
0.75
 49
0.5
 49
-0.25
  0
LTYPE
  5
43B
  2
DOTTED
 70
0
  3
Dotted .  .  .  .
 72
65
 73
2
 40
0.2
 49
0.0
 49
-0.2
  0
ENDTAB
  0
TABLE
  2
STYLE
  70
4
  0
STYLE
  2
KICAD
  70
0
  40
0
  41
1
  42
1
  50
0
  71
0
  3
isocp.shx
  0
STYLE
  2
KICADB
  70
0
  40
0
  41
1
  42
1
  50
0
  71
0
  3
isocp.shx
  0
STYLE
  2
KICADI
  70
0
  40
0
  41
1
  42
1
  50
15
  71
0
  3
isocp.shx
  0
STYLE
  2
KICADBI
  70
0
  40
0
  41
1
  42
1
  50
15
  71
0
  3
isocp.shx
  0
ENDTAB
  0
TABLE
  2
LAYER
  70
1
  0
LAYER
  2
BLACK
  70
0
  62
7
  6
CONTINUOUS
  0
ENDTAB
  0
ENDSEC
  0
SECTION
  2
ENTITIES
0
LINE
8
BLACK
6
CONTINUOUS
10
147.4872000000000014
20
-87.9933999999999941
11
147.4872000000000014
21
-121.9933999999999941
0
ARC
8
BLACK
10
116.4872000000000014
20
-121.9933999999999941
40
3.
50
-180.00000000
51
-90.00000000
0
ARC
8
BLACK
10
144.4872000000000014
20
-121.9933999999999941
40
3.
50
-90.00000000
51
-0.00000000
0
ARC
8
BLACK
10
116.4872000000000014
20
-87.9933999999999941
40
3.
50
90.00000000
51
180.00000000
0
ARC
8
BLACK
10
144.4872000000000014
20
-87.9933999999999941
40
3.
50
0.00000000
51
90.00000000
0
LINE
8
BLACK
6
CONTINUOUS
10
116.4872000000000014
20
-84.9933999999999941
11
144.4872000000000014
21
-84.9933999999999941
0
LINE
8
BLACK
6
CONTINUOUS
10
113.4872000000000014
20
-121.9933999999999941
11
113.4872000000000014
21
-87.9933999999999941
0
LINE
8
BLACK
6
CONTINUOUS
10
144.4872000000000014
20
-124.9933999999999941
11
116.4872000000000014
21
-124.9933999999999941
0
LINE
8
BLACK
6
CONTINUOUS
10
122.5569999999999879
20
-111.787399999999991
11
122.8069999999999879
21
-112.037399999999991
0
LINE
8
BLACK
6
CONTINUOUS
10
122.8069999999999879
20
-111.787399999999991
11
122.5569999999999879
21
-112.037399999999991
0
LINE
8
BLACK
6
CONTINUOUS
10
123.6491999999999933
20
-88.1400000000000006
11
123.8991999999999933
21
-88.3900000000000006
0
LINE
8
BLACK
6
CONTINUOUS
10
123.8991999999999933
20
-88.1400000000000006
11
123.6491999999999933
21
-88.3900000000000006
0
LINE
8
BLACK
6
CONTINUOUS
10
125.6049999999999898
20
-101.4749999999999943
11
125.8549999999999898
21
-101.7249999999999943
0
LINE
8
BLACK
6
CONTINUOUS
10
125.8549999999999898
20
-101.4749999999999943
11
125.6049999999999898
21
-101.7249999999999943
0
LINE
8
BLACK
6
CONTINUOUS
10
126.4939999999999998
20
-109.5013999999999896
11
126.7439999999999998
21
-109.7513999999999896
0
LINE
8
BLACK
6
CONTINUOUS
10
126.7439999999999998
20
-109.5013999999999896
11
126.4939999999999998
21
-109.7513999999999896
0
LINE
8
BLACK
6
CONTINUOUS
10
130.7865999999999929
20
-111.3555999999999955
11
131.0365999999999929
21
-111.6055999999999955
0
LINE
8
BLACK
6
CONTINUOUS
10
131.0365999999999929
20
-111.3555999999999955
11
130.7865999999999929
21
-111.6055999999999955
0
LINE
8
BLACK
6
CONTINUOUS
10
132.9455999999999847
20
-93.7279999999999944
11
133.1955999999999847
21
-93.9779999999999944
0
LINE
8
BLACK
6
CONTINUOUS
10
133.1955999999999847
20
-93.7279999999999944
11
132.9455999999999847
21
-93.9779999999999944
0
LINE
8
BLACK
6
CONTINUOUS
10
135.0029999999999859
20
-101.4749999999999943
11
135.2529999999999859
21
-101.7249999999999943
0
LINE
8
BLACK
6
CONTINUOUS
10
135.2529999999999859
20
-101.4749999999999943
11
135.0029999999999859
21
-101.7249999999999943
0
LINE
8
BLACK
6
CONTINUOUS
10
139.5749999999999886
20
-110.7713999999999999
11
139.8249999999999886
21
-111.0213999999999999
0
LINE
8
BLACK
6
CONTINUOUS
10
139.8249999999999886
20
-110.7713999999999999
11
139.5749999999999886
21
-111.0213999999999999
0
CIRCLE
8
BLACK
10
116.522199999999998
20
-106.3806000000000012
40
0.5
0
CIRCLE
8
BLACK
10
116.522199999999998
20
-108.9205999999999932
40
0.5
0
CIRCLE
8
BLACK
10
116.522199999999998
20
-111.4605999999999995
40
0.5
0
CIRCLE
8
BLACK
10
116.522199999999998
20
-114.0005999999999915
40
0.5
0
CIRCLE
8
BLACK
10
122.8470999999999975
20
-117.2463999999999942
40
0.5
0
CIRCLE
8
BLACK
10
122.8470999999999975
20
-121.0231999999999886
40
0.5
0
CIRCLE
8
BLACK
10
125.3870999999999896
20
-117.2463999999999942
40
0.5
0
CIRCLE
8
BLACK
10
125.3870999999999896
20
-121.0231999999999886
40
0.5
0
CIRCLE
8
BLACK
10
127.9270999999999958
20
-117.2463999999999942
40
0.5
0
CIRCLE
8
BLACK
10
127.9270999999999958
20
-121.0231999999999886
40
0.5
0
CIRCLE
8
BLACK
10
134.3405999999999949
20
-117.2463999999999942
40
0.5
0
CIRCLE
8
BLACK
10
134.3405999999999949
20
-120.9251999999999896
40
0.5
0
CIRCLE
8
BLACK
10
134.8486000000000047
20
-93.3703999999999894
40
0.5
0
CIRCLE
8
BLACK
10
135.2041999999999859
20
-106.2736000000000018
40
0.5
0
CIRCLE
8
BLACK
10
136.8805999999999869
20
-117.2463999999999942
40
0.5
0
CIRCLE
8
BLACK
10
136.8805999999999869
20
-120.9251999999999896
40
0.5
0
CIRCLE
8
BLACK
10
138.3538000000000068
20
-102.9461999999999904
40
0.5
0
CIRCLE
8
BLACK
10
139.4206000000000074
20
-117.2463999999999942
40
0.5
0
CIRCLE
8
BLACK
10
139.4206000000000074
20
-120.9251999999999896
40
0.5
0
CIRCLE
8
BLACK
10
144.5005999999999915
20
-106.4005999999999972
40
0.5
0
CIRCLE
8
BLACK
10
144.5005999999999915
20
-108.9405999999999892
40
0.5
0
CIRCLE
8
BLACK
10
144.5005999999999915
20
-111.4805999999999955
40
0.5
0
CIRCLE
8
BLACK
10
144.5005999999999915
20
-114.0206000000000017
40
0.5
0
LINE
8
BLACK
6
CONTINUOUS
10
118.1099999999999994
20
-92.8119999999999976
11
118.1099999999999994
21
-94.2119999999999891
0
LINE
8
BLACK
6
CONTINUOUS
10
117.4099999999999966
20
-93.5120000000000005
11
118.8099999999999881
21
-93.5120000000000005
0
LINE
8
BLACK
6
CONTINUOUS
10
118.1099999999999994
20
-97.8119999999999976
11
118.1099999999999994
21
-99.2119999999999891
0
LINE
8
BLACK
6
CONTINUOUS
10
117.4099999999999966
20
-98.5120000000000005
11
118.8099999999999881
21
-98.5120000000000005
0
LINE
8
BLACK
6
CONTINUOUS
10
142.9765999999999906
20
-92.8374000000000024
11
142.9765999999999906
21
-94.2373999999999938
0
LINE
8
BLACK
6
CONTINUOUS
10
142.276600000000002
20
-93.537399999999991
11
143.6766000000000076
21
-93.537399999999991
0
LINE
8
BLACK
6
CONTINUOUS
10
142.9765999999999906
20
-97.8374000000000024
11
142.9765999999999906
21
-99.2373999999999938
0
LINE
8
BLACK
6
CONTINUOUS
10
142.276600000000002
20
-98.537399999999991
11
143.6766000000000076
21
-98.537399999999991
0
LINE
8
BLACK
6
CONTINUOUS
10
117.5732699999999937
20
-89.0540699999999958
11
117.5732699999999937
21
-86.9327299999999923
0
LINE
8
BLACK
6
CONTINUOUS
10
117.5732699999999937
20
-86.9327299999999923
11
115.4519299999999902
21
-86.9327299999999923
0
LINE
8
BLACK
6
CONTINUOUS
10
115.4519299999999902
20
-86.9327299999999923
11
115.4519299999999902
21
-89.0540699999999958
0
LINE
8
BLACK
6
CONTINUOUS
10
115.4519299999999902
20
-89.0540699999999958
11
117.5732699999999937
21
-89.0540699999999958
0
LINE
8
BLACK
6
CONTINUOUS
10
117.5732699999999937
20
-123.0540699999999958
11
117.5732699999999937
21
-120.9327299999999923
0
LINE
8
BLACK
6
CONTINUOUS
10
117.5732699999999937
20
-120.9327299999999923
11
115.4519299999999902
21
-120.9327299999999923
0
LINE
8
BLACK
6
CONTINUOUS
10
115.4519299999999902
20
-120.9327299999999923
11
115.4519299999999902
21
-123.0540699999999958
0
LINE
8
BLACK
6
CONTINUOUS
10
115.4519299999999902
20
-123.0540699999999958
11
117.5732699999999937
21
-123.0540699999999958
0
LINE
8
BLACK
6
CONTINUOUS
10
145.5732699999999795
20
-89.0540699999999958
11
145.5732699999999795
21
-86.9327299999999923
0
LINE
8
BLACK
6
CONTINUOUS
10
145.5732699999999795
20
-86.9327299999999923
11
143.4519300000000044
21
-86.9327299999999923
0
LINE
8
BLACK
6
CONTINUOUS
10
143.4519300000000044
20
-86.9327299999999923
11
143.4519300000000044
21
-89.0540699999999958
0
LINE
8
BLACK
6
CONTINUOUS
10
143.4519300000000044
20
-89.0540699999999958
11
145.5732699999999795
21
-89.0540699999999958
0
LINE
8
BLACK
6
CONTINUOUS
10
145.5732699999999795
20
-123.0540699999999958
11
145.5732699999999795
21
-120.9327299999999923
0
LINE
8
BLACK
6
CONTINUOUS
10
145.5732699999999795
20
-120.9327299999999923
11
143.4519300000000044
21
-120.9327299999999923
0
LINE
8
BLACK
6
CONTINUOUS
10
143.4519300000000044
20
-120.9327299999999923
11
143.4519300000000044
21
-123.0540699999999958
0
LINE
8
BLACK
6
CONTINUOUS
10
143.4519300000000044
20
-123.0540699999999958
11
145.5732699999999795
21
-123.0540699999999958
0
LINE
8
BLACK
6
CONTINUOUS
10
115.9949680000000001
20
-128.2082379999999944
11
115.9949680000000001
21
-126.2082379999999944
0
LINE
8
BLACK
6
CONTINUOUS
10
115.9949680000000001
20
-126.2082379999999944
11
116.4711579999999884
21
-126.2082379999999944
0
LINE
8
BLACK
6
CONTINUOUS
10
116.4711579999999884
20
-126.2082379999999944
11
116.7568729999999988
21
-126.3034759999999892
0
LINE
8
BLACK
6
CONTINUOUS
10
116.7568729999999988
20
-126.3034759999999892
11
116.9473489999999885
21
-126.4939519999999931
0
LINE
8
BLACK
6
CONTINUOUS
10
116.9473489999999885
20
-126.4939519999999931
11
117.0425869999999975
21
-126.6844279999999969
0
LINE
8
BLACK
6
CONTINUOUS
10
117.0425869999999975
20
-126.6844279999999969
11
117.1378249999999923
21
-127.0653799999999904
0
LINE
8
BLACK
6
CONTINUOUS
10
117.1378249999999923
20
-127.0653799999999904
11
117.1378249999999923
21
-127.3510950000000008
0
LINE
8
BLACK
6
CONTINUOUS
10
117.1378249999999923
20
-127.3510950000000008
11
117.0425869999999975
21
-127.7320469999999943
0
LINE
8
BLACK
6
CONTINUOUS
10
117.0425869999999975
20
-127.7320469999999943
11
116.9473489999999885
21
-127.9225229999999982
0
LINE
8
BLACK
6
CONTINUOUS
10
116.9473489999999885
20
-127.9225229999999982
11
116.7568729999999988
21
-128.1129999999999995
0
LINE
8
BLACK
6
CONTINUOUS
10
116.7568729999999988
20
-128.1129999999999995
11
116.4711579999999884
21
-128.2082379999999944
0
LINE
8
BLACK
6
CONTINUOUS
10
116.4711579999999884
20
-128.2082379999999944
11
115.9949680000000001
21
-128.2082379999999944
0
LINE
8
BLACK
6
CONTINUOUS
10
117.9949680000000001
20
-128.2082379999999944
11
117.9949680000000001
21
-126.8749040000000008
0
LINE
8
BLACK
6
CONTINUOUS
10
117.9949680000000001
20
-127.2558569999999918
11
118.0902059999999949
21
-127.0653799999999904
0
LINE
8
BLACK
6
CONTINUOUS
10
118.0902059999999949
20
-127.0653799999999904
11
118.1854439999999897
21
-126.9701419999999956
0
LINE
8
BLACK
6
CONTINUOUS
10
118.1854439999999897
20
-126.9701419999999956
11
118.3759199999999936
21
-126.8749040000000008
0
LINE
8
BLACK
6
CONTINUOUS
10
118.3759199999999936
20
-126.8749040000000008
11
118.5663969999999949
21
-126.8749040000000008
0
LINE
8
BLACK
6
CONTINUOUS
10
119.2330630000000014
20
-128.2082379999999944
11
119.2330630000000014
21
-126.8749040000000008
0
LINE
8
BLACK
6
CONTINUOUS
10
119.2330630000000014
20
-126.2082379999999944
11
119.1378249999999923
21
-126.3034759999999892
0
LINE
8
BLACK
6
CONTINUOUS
10
119.1378249999999923
20
-126.3034759999999892
11
119.2330630000000014
21
-126.3987139999999982
0
LINE
8
BLACK
6
CONTINUOUS
10
119.2330630000000014
20
-126.3987139999999982
11
119.3283009999999962
21
-126.3034759999999892
0
LINE
8
BLACK
6
CONTINUOUS
10
119.3283009999999962
20
-126.3034759999999892
11
119.2330630000000014
21
-126.2082379999999944
0
LINE
8
BLACK
6
CONTINUOUS
10
119.2330630000000014
20
-126.2082379999999944
11
119.2330630000000014
21
-126.3987139999999982
0
LINE
8
BLACK
6
CONTINUOUS
10
120.4711579999999884
20
-128.2082379999999944
11
120.2806819999999988
21
-128.1129999999999995
0
LINE
8
BLACK
6
CONTINUOUS
10
120.2806819999999988
20
-128.1129999999999995
11
120.1854439999999897
21
-127.9225229999999982
0
LINE
8
BLACK
6
CONTINUOUS
10
120.1854439999999897
20
-127.9225229999999982
11
120.1854439999999897
21
-126.2082379999999944
0
LINE
8
BLACK
6
CONTINUOUS
10
121.518777
20
-128.2082379999999944
11
121.3283009999999962
21
-128.1129999999999995
0
LINE
8
BLACK
6
CONTINUOUS
10
121.3283009999999962
20
-128.1129999999999995
11
121.2330630000000014
21
-127.9225229999999982
0
LINE
8
BLACK
6
CONTINUOUS
10
121.2330630000000014
20
-127.9225229999999982
11
121.2330630000000014
21
-126.2082379999999944
0
LINE
8
BLACK
6
CONTINUOUS
10
123.8044919999999962
20
-128.2082379999999944
11
123.8044919999999962
21
-126.2082379999999944
0
LINE
8
BLACK
6
CONTINUOUS
10
123.8044919999999962
20
-126.2082379999999944
11
124.4711590000000001
21
-127.6368089999999995
0
LINE
8
BLACK
6
CONTINUOUS
10
124.4711590000000001
20
-127.6368089999999995
11
125.1378249999999923
21
-126.2082379999999944
0
LINE
8
BLACK
6
CONTINUOUS
10
125.1378249999999923
20
-126.2082379999999944
11
125.1378249999999923
21
-128.2082379999999944
0
LINE
8
BLACK
6
CONTINUOUS
10
126.9473489999999885
20
-128.2082379999999944
11
126.9473489999999885
21
-127.160618999999997
0
LINE
8
BLACK
6
CONTINUOUS
10
126.9473489999999885
20
-127.160618999999997
11
126.8521109999999936
21
-126.9701419999999956
0
LINE
8
BLACK
6
CONTINUOUS
10
126.8521109999999936
20
-126.9701419999999956
11
126.6616349999999898
21
-126.8749040000000008
0
LINE
8
BLACK
6
CONTINUOUS
10
126.6616349999999898
20
-126.8749040000000008
11
126.2806819999999988
21
-126.8749040000000008
0
LINE
8
BLACK
6
CONTINUOUS
10
126.2806819999999988
20
-126.8749040000000008
11
126.0902059999999949
21
-126.9701419999999956
0
LINE
8
BLACK
6
CONTINUOUS
10
126.9473489999999885
20
-128.1129999999999995
11
126.7568729999999988
21
-128.2082379999999944
0
LINE
8
BLACK
6
CONTINUOUS
10
126.7568729999999988
20
-128.2082379999999944
11
126.2806819999999988
21
-128.2082379999999944
0
LINE
8
BLACK
6
CONTINUOUS
10
126.2806819999999988
20
-128.2082379999999944
11
126.0902059999999949
21
-128.1129999999999995
0
LINE
8
BLACK
6
CONTINUOUS
10
126.0902059999999949
20
-128.1129999999999995
11
125.9949680000000001
21
-127.9225229999999982
0
LINE
8
BLACK
6
CONTINUOUS
10
125.9949680000000001
20
-127.9225229999999982
11
125.9949680000000001
21
-127.7320469999999943
0
LINE
8
BLACK
6
CONTINUOUS
10
125.9949680000000001
20
-127.7320469999999943
11
126.0902059999999949
21
-127.5415709999999905
0
LINE
8
BLACK
6
CONTINUOUS
10
126.0902059999999949
20
-127.5415709999999905
11
126.2806819999999988
21
-127.4463329999999956
0
LINE
8
BLACK
6
CONTINUOUS
10
126.2806819999999988
20
-127.4463329999999956
11
126.7568729999999988
21
-127.4463329999999956
0
LINE
8
BLACK
6
CONTINUOUS
10
126.7568729999999988
20
-127.4463329999999956
11
126.9473489999999885
21
-127.3510950000000008
0
LINE
8
BLACK
6
CONTINUOUS
10
127.899729999999991
20
-126.8749040000000008
11
127.899729999999991
21
-128.8749039999999866
0
LINE
8
BLACK
6
CONTINUOUS
10
127.899729999999991
20
-126.9701419999999956
11
128.0902059999999949
21
-126.8749040000000008
0
LINE
8
BLACK
6
CONTINUOUS
10
128.0902059999999949
20
-126.8749040000000008
11
128.4711590000000001
21
-126.8749040000000008
0
LINE
8
BLACK
6
CONTINUOUS
10
128.4711590000000001
20
-126.8749040000000008
11
128.6616349999999898
21
-126.9701419999999956
0
LINE
8
BLACK
6
CONTINUOUS
10
128.6616349999999898
20
-126.9701419999999956
11
128.7568729999999846
21
-127.0653799999999904
0
LINE
8
BLACK
6
CONTINUOUS
10
128.7568729999999846
20
-127.0653799999999904
11
128.8521110000000078
21
-127.2558569999999918
0
LINE
8
BLACK
6
CONTINUOUS
10
128.8521110000000078
20
-127.2558569999999918
11
128.8521110000000078
21
-127.8272849999999892
0
LINE
8
BLACK
6
CONTINUOUS
10
128.8521110000000078
20
-127.8272849999999892
11
128.7568729999999846
21
-128.0177610000000072
0
LINE
8
BLACK
6
CONTINUOUS
10
128.7568729999999846
20
-128.0177610000000072
11
128.6616349999999898
21
-128.1129999999999995
0
LINE
8
BLACK
6
CONTINUOUS
10
128.6616349999999898
20
-128.1129999999999995
11
128.4711590000000001
21
-128.2082379999999944
0
LINE
8
BLACK
6
CONTINUOUS
10
128.4711590000000001
20
-128.2082379999999944
11
128.0902059999999949
21
-128.2082379999999944
0
LINE
8
BLACK
6
CONTINUOUS
10
128.0902059999999949
20
-128.2082379999999944
11
127.899729999999991
21
-128.1129999999999995
0
LINE
8
BLACK
6
CONTINUOUS
10
129.7092539999999872
20
-128.0177610000000072
11
129.804491999999982
21
-128.1129999999999995
0
LINE
8
BLACK
6
CONTINUOUS
10
129.804491999999982
20
-128.1129999999999995
11
129.7092539999999872
21
-128.2082379999999944
0
LINE
8
BLACK
6
CONTINUOUS
10
129.7092539999999872
20
-128.2082379999999944
11
129.6140159999999923
21
-128.1129999999999995
0
LINE
8
BLACK
6
CONTINUOUS
10
129.6140159999999923
20
-128.1129999999999995
11
129.7092539999999872
21
-128.0177610000000072
0
LINE
8
BLACK
6
CONTINUOUS
10
129.7092539999999872
20
-128.0177610000000072
11
129.7092539999999872
21
-128.2082379999999944
0
LINE
8
BLACK
6
CONTINUOUS
10
129.7092539999999872
20
-126.9701419999999956
11
129.804491999999982
21
-127.0653799999999904
0
LINE
8
BLACK
6
CONTINUOUS
10
129.804491999999982
20
-127.0653799999999904
11
129.7092539999999872
21
-127.160618999999997
0
LINE
8
BLACK
6
CONTINUOUS
10
129.7092539999999872
20
-127.160618999999997
11
129.6140159999999923
21
-127.0653799999999904
0
LINE
8
BLACK
6
CONTINUOUS
10
129.6140159999999923
20
-127.0653799999999904
11
129.7092539999999872
21
-126.9701419999999956
0
LINE
8
BLACK
6
CONTINUOUS
10
129.7092539999999872
20
-126.9701419999999956
11
129.7092539999999872
21
-127.160618999999997
0
LINE
8
BLACK
6
CONTINUOUS
10
113.1371999999999929
20
-131.3683999999999799
11
113.3871999999999929
21
-131.6183999999999799
0
LINE
8
BLACK
6
CONTINUOUS
10
113.3871999999999929
20
-131.3683999999999799
11
113.1371999999999929
21
-131.6183999999999799
0
LINE
8
BLACK
6
CONTINUOUS
10
116.3759199999999936
20
-130.408237999999983
11
116.5663969999999949
21
-130.408237999999983
0
LINE
8
BLACK
6
CONTINUOUS
10
116.5663969999999949
20
-130.408237999999983
11
116.7568729999999988
21
-130.5034760000000063
0
LINE
8
BLACK
6
CONTINUOUS
10
116.7568729999999988
20
-130.5034760000000063
11
116.8521109999999936
21
-130.5987140000000011
0
LINE
8
BLACK
6
CONTINUOUS
10
116.8521109999999936
20
-130.5987140000000011
11
116.9473489999999885
21
-130.7891899999999907
0
LINE
8
BLACK
6
CONTINUOUS
10
116.9473489999999885
20
-130.7891899999999907
11
117.0425869999999975
21
-131.1701419999999985
0
LINE
8
BLACK
6
CONTINUOUS
10
117.0425869999999975
20
-131.1701419999999985
11
117.0425869999999975
21
-131.6463329999999985
0
LINE
8
BLACK
6
CONTINUOUS
10
117.0425869999999975
20
-131.6463329999999985
11
116.9473489999999885
21
-132.0272850000000062
0
LINE
8
BLACK
6
CONTINUOUS
10
116.9473489999999885
20
-132.0272850000000062
11
116.8521109999999936
21
-132.2177609999999959
0
LINE
8
BLACK
6
CONTINUOUS
10
116.8521109999999936
20
-132.2177609999999959
11
116.7568729999999988
21
-132.3129999999999882
0
LINE
8
BLACK
6
CONTINUOUS
10
116.7568729999999988
20
-132.3129999999999882
11
116.5663969999999949
21
-132.408237999999983
0
LINE
8
BLACK
6
CONTINUOUS
10
116.5663969999999949
20
-132.408237999999983
11
116.3759199999999936
21
-132.408237999999983
0
LINE
8
BLACK
6
CONTINUOUS
10
116.3759199999999936
20
-132.408237999999983
11
116.1854439999999897
21
-132.3129999999999882
0
LINE
8
BLACK
6
CONTINUOUS
10
116.1854439999999897
20
-132.3129999999999882
11
116.0902059999999949
21
-132.2177609999999959
0
LINE
8
BLACK
6
CONTINUOUS
10
116.0902059999999949
20
-132.2177609999999959
11
115.9949680000000001
21
-132.0272850000000062
0
LINE
8
BLACK
6
CONTINUOUS
10
115.9949680000000001
20
-132.0272850000000062
11
115.899729999999991
21
-131.6463329999999985
0
LINE
8
BLACK
6
CONTINUOUS
10
115.899729999999991
20
-131.6463329999999985
11
115.899729999999991
21
-131.1701419999999985
0
LINE
8
BLACK
6
CONTINUOUS
10
115.899729999999991
20
-131.1701419999999985
11
115.9949680000000001
21
-130.7891899999999907
0
LINE
8
BLACK
6
CONTINUOUS
10
115.9949680000000001
20
-130.7891899999999907
11
116.0902059999999949
21
-130.5987140000000011
0
LINE
8
BLACK
6
CONTINUOUS
10
116.0902059999999949
20
-130.5987140000000011
11
116.1854439999999897
21
-130.5034760000000063
0
LINE
8
BLACK
6
CONTINUOUS
10
116.1854439999999897
20
-130.5034760000000063
11
116.3759199999999936
21
-130.408237999999983
0
LINE
8
BLACK
6
CONTINUOUS
10
117.899729999999991
20
-132.2177609999999959
11
117.9949680000000001
21
-132.3129999999999882
0
LINE
8
BLACK
6
CONTINUOUS
10
117.9949680000000001
20
-132.3129999999999882
11
117.899729999999991
21
-132.408237999999983
0
LINE
8
BLACK
6
CONTINUOUS
10
117.899729999999991
20
-132.408237999999983
11
117.8044919999999962
21
-132.3129999999999882
0
LINE
8
BLACK
6
CONTINUOUS
10
117.8044919999999962
20
-132.3129999999999882
11
117.899729999999991
21
-132.2177609999999959
0
LINE
8
BLACK
6
CONTINUOUS
10
117.899729999999991
20
-132.2177609999999959
11
117.899729999999991
21
-132.408237999999983
0
LINE
8
BLACK
6
CONTINUOUS
10
118.7568729999999988
20
-130.5987140000000011
11
118.8521109999999936
21
-130.5034760000000063
0
LINE
8
BLACK
6
CONTINUOUS
10
118.8521109999999936
20
-130.5034760000000063
11
119.0425869999999975
21
-130.408237999999983
0
LINE
8
BLACK
6
CONTINUOUS
10
119.0425869999999975
20
-130.408237999999983
11
119.5187779999999975
21
-130.408237999999983
0
LINE
8
BLACK
6
CONTINUOUS
10
119.5187779999999975
20
-130.408237999999983
11
119.7092540000000014
21
-130.5034760000000063
0
LINE
8
BLACK
6
CONTINUOUS
10
119.7092540000000014
20
-130.5034760000000063
11
119.8044919999999962
21
-130.5987140000000011
0
LINE
8
BLACK
6
CONTINUOUS
10
119.8044919999999962
20
-130.5987140000000011
11
119.899729999999991
21
-130.7891899999999907
0
LINE
8
BLACK
6
CONTINUOUS
10
119.899729999999991
20
-130.7891899999999907
11
119.899729999999991
21
-130.9796659999999804
0
LINE
8
BLACK
6
CONTINUOUS
10
119.899729999999991
20
-130.9796659999999804
11
119.8044919999999962
21
-131.2653799999999933
0
LINE
8
BLACK
6
CONTINUOUS
10
119.8044919999999962
20
-131.2653799999999933
11
118.6616349999999898
21
-132.408237999999983
0
LINE
8
BLACK
6
CONTINUOUS
10
118.6616349999999898
20
-132.408237999999983
11
119.899729999999991
21
-132.408237999999983
0
LINE
8
BLACK
6
CONTINUOUS
10
121.7092540000000014
20
-130.408237999999983
11
120.7568729999999988
21
-130.408237999999983
0
LINE
8
BLACK
6
CONTINUOUS
10
120.7568729999999988
20
-130.408237999999983
11
120.6616349999999898
21
-131.3606189999999856
0
LINE
8
BLACK
6
CONTINUOUS
10
120.6616349999999898
20
-131.3606189999999856
11
120.7568729999999988
21
-131.2653799999999933
0
LINE
8
BLACK
6
CONTINUOUS
10
120.7568729999999988
20
-131.2653799999999933
11
120.9473489999999885
21
-131.1701419999999985
0
LINE
8
BLACK
6
CONTINUOUS
10
120.9473489999999885
20
-131.1701419999999985
11
121.4235399999999885
21
-131.1701419999999985
0
LINE
8
BLACK
6
CONTINUOUS
10
121.4235399999999885
20
-131.1701419999999985
11
121.6140159999999923
21
-131.2653799999999933
0
LINE
8
BLACK
6
CONTINUOUS
10
121.6140159999999923
20
-131.2653799999999933
11
121.7092540000000014
21
-131.3606189999999856
0
LINE
8
BLACK
6
CONTINUOUS
10
121.7092540000000014
20
-131.3606189999999856
11
121.8044919999999962
21
-131.5510950000000037
0
LINE
8
BLACK
6
CONTINUOUS
10
121.8044919999999962
20
-131.5510950000000037
11
121.8044919999999962
21
-132.0272850000000062
0
LINE
8
BLACK
6
CONTINUOUS
10
121.8044919999999962
20
-132.0272850000000062
11
121.7092540000000014
21
-132.2177609999999959
0
LINE
8
BLACK
6
CONTINUOUS
10
121.7092540000000014
20
-132.2177609999999959
11
121.6140159999999923
21
-132.3129999999999882
0
LINE
8
BLACK
6
CONTINUOUS
10
121.6140159999999923
20
-132.3129999999999882
11
121.4235399999999885
21
-132.408237999999983
0
LINE
8
BLACK
6
CONTINUOUS
10
121.4235399999999885
20
-132.408237999999983
11
120.9473489999999885
21
-132.408237999999983
0
LINE
8
BLACK
6
CONTINUOUS
10
120.9473489999999885
20
-132.408237999999983
11
120.7568729999999988
21
-132.3129999999999882
0
LINE
8
BLACK
6
CONTINUOUS
10
120.7568729999999988
20
-132.3129999999999882
11
120.6616349999999898
21
-132.2177609999999959
0
LINE
8
BLACK
6
CONTINUOUS
10
123.0425869999999975
20
-130.408237999999983
11
123.2330639999999988
21
-130.408237999999983
0
LINE
8
BLACK
6
CONTINUOUS
10
123.2330639999999988
20
-130.408237999999983
11
123.4235399999999885
21
-130.5034760000000063
0
LINE
8
BLACK
6
CONTINUOUS
10
123.4235399999999885
20
-130.5034760000000063
11
123.5187779999999975
21
-130.5987140000000011
0
LINE
8
BLACK
6
CONTINUOUS
10
123.5187779999999975
20
-130.5987140000000011
11
123.6140159999999923
21
-130.7891899999999907
0
LINE
8
BLACK
6
CONTINUOUS
10
123.6140159999999923
20
-130.7891899999999907
11
123.7092540000000014
21
-131.1701419999999985
0
LINE
8
BLACK
6
CONTINUOUS
10
123.7092540000000014
20
-131.1701419999999985
11
123.7092540000000014
21
-131.6463329999999985
0
LINE
8
BLACK
6
CONTINUOUS
10
123.7092540000000014
20
-131.6463329999999985
11
123.6140159999999923
21
-132.0272850000000062
0
LINE
8
BLACK
6
CONTINUOUS
10
123.6140159999999923
20
-132.0272850000000062
11
123.5187779999999975
21
-132.2177609999999959
0
LINE
8
BLACK
6
CONTINUOUS
10
123.5187779999999975
20
-132.2177609999999959
11
123.4235399999999885
21
-132.3129999999999882
0
LINE
8
BLACK
6
CONTINUOUS
10
123.4235399999999885
20
-132.3129999999999882
11
123.2330639999999988
21
-132.408237999999983
0
LINE
8
BLACK
6
CONTINUOUS
10
123.2330639999999988
20
-132.408237999999983
11
123.0425869999999975
21
-132.408237999999983
0
LINE
8
BLACK
6
CONTINUOUS
10
123.0425869999999975
20
-132.408237999999983
11
122.8521109999999936
21
-132.3129999999999882
0
LINE
8
BLACK
6
CONTINUOUS
10
122.8521109999999936
20
-132.3129999999999882
11
122.7568729999999988
21
-132.2177609999999959
0
LINE
8
BLACK
6
CONTINUOUS
10
122.7568729999999988
20
-132.2177609999999959
11
122.6616349999999898
21
-132.0272850000000062
0
LINE
8
BLACK
6
CONTINUOUS
10
122.6616349999999898
20
-132.0272850000000062
11
122.5663969999999949
21
-131.6463329999999985
0
LINE
8
BLACK
6
CONTINUOUS
10
122.5663969999999949
20
-131.6463329999999985
11
122.5663969999999949
21
-131.1701419999999985
0
LINE
8
BLACK
6
CONTINUOUS
10
122.5663969999999949
20
-131.1701419999999985
11
122.6616349999999898
21
-130.7891899999999907
0
LINE
8
BLACK
6
CONTINUOUS
10
122.6616349999999898
20
-130.7891899999999907
11
122.7568729999999988
21
-130.5987140000000011
0
LINE
8
BLACK
6
CONTINUOUS
10
122.7568729999999988
20
-130.5987140000000011
11
122.8521109999999936
21
-130.5034760000000063
0
LINE
8
BLACK
6
CONTINUOUS
10
122.8521109999999936
20
-130.5034760000000063
11
123.0425869999999975
21
-130.408237999999983
0
LINE
8
BLACK
6
CONTINUOUS
10
124.5663969999999949
20
-132.408237999999983
11
124.5663969999999949
21
-131.0749040000000036
0
LINE
8
BLACK
6
CONTINUOUS
10
124.5663969999999949
20
-131.2653799999999933
11
124.6616349999999898
21
-131.1701419999999985
0
LINE
8
BLACK
6
CONTINUOUS
10
124.6616349999999898
20
-131.1701419999999985
11
124.8521109999999936
21
-131.0749040000000036
0
LINE
8
BLACK
6
CONTINUOUS
10
124.8521109999999936
20
-131.0749040000000036
11
125.1378259999999898
21
-131.0749040000000036
0
LINE
8
BLACK
6
CONTINUOUS
10
125.1378259999999898
20
-131.0749040000000036
11
125.3283019999999937
21
-131.1701419999999985
0
LINE
8
BLACK
6
CONTINUOUS
10
125.3283019999999937
20
-131.1701419999999985
11
125.4235399999999885
21
-131.3606189999999856
0
LINE
8
BLACK
6
CONTINUOUS
10
125.4235399999999885
20
-131.3606189999999856
11
125.4235399999999885
21
-132.408237999999983
0
LINE
8
BLACK
6
CONTINUOUS
10
125.4235399999999885
20
-131.3606189999999856
11
125.5187779999999975
21
-131.1701419999999985
0
LINE
8
BLACK
6
CONTINUOUS
10
125.5187779999999975
20
-131.1701419999999985
11
125.7092540000000014
21
-131.0749040000000036
0
LINE
8
BLACK
6
CONTINUOUS
10
125.7092540000000014
20
-131.0749040000000036
11
125.9949680000000001
21
-131.0749040000000036
0
LINE
8
BLACK
6
CONTINUOUS
10
125.9949680000000001
20
-131.0749040000000036
11
126.1854449999999872
21
-131.1701419999999985
0
LINE
8
BLACK
6
CONTINUOUS
10
126.1854449999999872
20
-131.1701419999999985
11
126.2806829999999962
21
-131.3606189999999856
0
LINE
8
BLACK
6
CONTINUOUS
10
126.2806829999999962
20
-131.3606189999999856
11
126.2806829999999962
21
-132.408237999999983
0
LINE
8
BLACK
6
CONTINUOUS
10
127.2330639999999988
20
-132.408237999999983
11
127.2330639999999988
21
-131.0749040000000036
0
LINE
8
BLACK
6
CONTINUOUS
10
127.2330639999999988
20
-131.2653799999999933
11
127.3283019999999937
21
-131.1701419999999985
0
LINE
8
BLACK
6
CONTINUOUS
10
127.3283019999999937
20
-131.1701419999999985
11
127.5187779999999975
21
-131.0749040000000036
0
LINE
8
BLACK
6
CONTINUOUS
10
127.5187779999999975
20
-131.0749040000000036
11
127.8044929999999937
21
-131.0749040000000036
0
LINE
8
BLACK
6
CONTINUOUS
10
127.8044929999999937
20
-131.0749040000000036
11
127.9949689999999975
21
-131.1701419999999985
0
LINE
8
BLACK
6
CONTINUOUS
10
127.9949689999999975
20
-131.1701419999999985
11
128.0902069999999924
21
-131.3606189999999856
0
LINE
8
BLACK
6
CONTINUOUS
10
128.0902069999999924
20
-131.3606189999999856
11
128.0902069999999924
21
-132.408237999999983
0
LINE
8
BLACK
6
CONTINUOUS
10
128.0902069999999924
20
-131.3606189999999856
11
128.1854449999999872
21
-131.1701419999999985
0
LINE
8
BLACK
6
CONTINUOUS
10
128.1854449999999872
20
-131.1701419999999985
11
128.3759210000000053
21
-131.0749040000000036
0
LINE
8
BLACK
6
CONTINUOUS
10
128.3759210000000053
20
-131.0749040000000036
11
128.6616349999999898
21
-131.0749040000000036
0
LINE
8
BLACK
6
CONTINUOUS
10
128.6616349999999898
20
-131.0749040000000036
11
128.8521120000000053
21
-131.1701419999999985
0
LINE
8
BLACK
6
CONTINUOUS
10
128.8521120000000053
20
-131.1701419999999985
11
128.9473500000000001
21
-131.3606189999999856
0
LINE
8
BLACK
6
CONTINUOUS
10
128.9473500000000001
20
-131.3606189999999856
11
128.9473500000000001
21
-132.408237999999983
0
LINE
8
BLACK
6
CONTINUOUS
10
132.8521120000000053
20
-130.3129999999999882
11
131.1378269999999873
21
-132.8844279999999856
0
LINE
8
BLACK
6
CONTINUOUS
10
135.4235410000000002
20
-130.408237999999983
11
135.6140179999999873
21
-130.408237999999983
0
LINE
8
BLACK
6
CONTINUOUS
10
135.6140179999999873
20
-130.408237999999983
11
135.8044940000000054
21
-130.5034760000000063
0
LINE
8
BLACK
6
CONTINUOUS
10
135.8044940000000054
20
-130.5034760000000063
11
135.8997320000000002
21
-130.5987140000000011
0
LINE
8
BLACK
6
CONTINUOUS
10
135.8997320000000002
20
-130.5987140000000011
11
135.994969999999995
21
-130.7891899999999907
0
LINE
8
BLACK
6
CONTINUOUS
10
135.994969999999995
20
-130.7891899999999907
11
136.0902079999999899
21
-131.1701419999999985
0
LINE
8
BLACK
6
CONTINUOUS
10
136.0902079999999899
20
-131.1701419999999985
11
136.0902079999999899
21
-131.6463329999999985
0
LINE
8
BLACK
6
CONTINUOUS
10
136.0902079999999899
20
-131.6463329999999985
11
135.994969999999995
21
-132.0272850000000062
0
LINE
8
BLACK
6
CONTINUOUS
10
135.994969999999995
20
-132.0272850000000062
11
135.8997320000000002
21
-132.2177609999999959
0
LINE
8
BLACK
6
CONTINUOUS
10
135.8997320000000002
20
-132.2177609999999959
11
135.8044940000000054
21
-132.3129999999999882
0
LINE
8
BLACK
6
CONTINUOUS
10
135.8044940000000054
20
-132.3129999999999882
11
135.6140179999999873
21
-132.408237999999983
0
LINE
8
BLACK
6
CONTINUOUS
10
135.6140179999999873
20
-132.408237999999983
11
135.4235410000000002
21
-132.408237999999983
0
LINE
8
BLACK
6
CONTINUOUS
10
135.4235410000000002
20
-132.408237999999983
11
135.2330649999999821
21
-132.3129999999999882
0
LINE
8
BLACK
6
CONTINUOUS
10
135.2330649999999821
20
-132.3129999999999882
11
135.1378269999999873
21
-132.2177609999999959
0
LINE
8
BLACK
6
CONTINUOUS
10
135.1378269999999873
20
-132.2177609999999959
11
135.0425889999999924
21
-132.0272850000000062
0
LINE
8
BLACK
6
CONTINUOUS
10
135.0425889999999924
20
-132.0272850000000062
11
134.9473509999999976
21
-131.6463329999999985
0
LINE
8
BLACK
6
CONTINUOUS
10
134.9473509999999976
20
-131.6463329999999985
11
134.9473509999999976
21
-131.1701419999999985
0
LINE
8
BLACK
6
CONTINUOUS
10
134.9473509999999976
20
-131.1701419999999985
11
135.0425889999999924
21
-130.7891899999999907
0
LINE
8
BLACK
6
CONTINUOUS
10
135.0425889999999924
20
-130.7891899999999907
11
135.1378269999999873
21
-130.5987140000000011
0
LINE
8
BLACK
6
CONTINUOUS
10
135.1378269999999873
20
-130.5987140000000011
11
135.2330649999999821
21
-130.5034760000000063
0
LINE
8
BLACK
6
CONTINUOUS
10
135.2330649999999821
20
-130.5034760000000063
11
135.4235410000000002
21
-130.408237999999983
0
LINE
8
BLACK
6
CONTINUOUS
10
136.9473509999999976
20
-132.2177609999999959
11
137.0425889999999924
21
-132.3129999999999882
0
LINE
8
BLACK
6
CONTINUOUS
10
137.0425889999999924
20
-132.3129999999999882
11
136.9473509999999976
21
-132.408237999999983
0
LINE
8
BLACK
6
CONTINUOUS
10
136.9473509999999976
20
-132.408237999999983
11
136.8521130000000028
21
-132.3129999999999882
0
LINE
8
BLACK
6
CONTINUOUS
10
136.8521130000000028
20
-132.3129999999999882
11
136.9473509999999976
21
-132.2177609999999959
0
LINE
8
BLACK
6
CONTINUOUS
10
136.9473509999999976
20
-132.2177609999999959
11
136.9473509999999976
21
-132.408237999999983
0
LINE
8
BLACK
6
CONTINUOUS
10
138.2806840000000079
20
-130.408237999999983
11
138.4711609999999951
21
-130.408237999999983
0
LINE
8
BLACK
6
CONTINUOUS
10
138.4711609999999951
20
-130.408237999999983
11
138.6616369999999847
21
-130.5034760000000063
0
LINE
8
BLACK
6
CONTINUOUS
10
138.6616369999999847
20
-130.5034760000000063
11
138.7568749999999795
21
-130.5987140000000011
0
LINE
8
BLACK
6
CONTINUOUS
10
138.7568749999999795
20
-130.5987140000000011
11
138.8521130000000028
21
-130.7891899999999907
0
LINE
8
BLACK
6
CONTINUOUS
10
138.8521130000000028
20
-130.7891899999999907
11
138.9473509999999976
21
-131.1701419999999985
0
LINE
8
BLACK
6
CONTINUOUS
10
138.9473509999999976
20
-131.1701419999999985
11
138.9473509999999976
21
-131.6463329999999985
0
LINE
8
BLACK
6
CONTINUOUS
10
138.9473509999999976
20
-131.6463329999999985
11
138.8521130000000028
21
-132.0272850000000062
0
LINE
8
BLACK
6
CONTINUOUS
10
138.8521130000000028
20
-132.0272850000000062
11
138.7568749999999795
21
-132.2177609999999959
0
LINE
8
BLACK
6
CONTINUOUS
10
138.7568749999999795
20
-132.2177609999999959
11
138.6616369999999847
21
-132.3129999999999882
0
LINE
8
BLACK
6
CONTINUOUS
10
138.6616369999999847
20
-132.3129999999999882
11
138.4711609999999951
21
-132.408237999999983
0
LINE
8
BLACK
6
CONTINUOUS
10
138.4711609999999951
20
-132.408237999999983
11
138.2806840000000079
21
-132.408237999999983
0
LINE
8
BLACK
6
CONTINUOUS
10
138.2806840000000079
20
-132.408237999999983
11
138.0902079999999899
21
-132.3129999999999882
0
LINE
8
BLACK
6
CONTINUOUS
10
138.0902079999999899
20
-132.3129999999999882
11
137.994969999999995
21
-132.2177609999999959
0
LINE
8
BLACK
6
CONTINUOUS
10
137.994969999999995
20
-132.2177609999999959
11
137.8997320000000002
21
-132.0272850000000062
0
LINE
8
BLACK
6
CONTINUOUS
10
137.8997320000000002
20
-132.0272850000000062
11
137.8044940000000054
21
-131.6463329999999985
0
LINE
8
BLACK
6
CONTINUOUS
10
137.8044940000000054
20
-131.6463329999999985
11
137.8044940000000054
21
-131.1701419999999985
0
LINE
8
BLACK
6
CONTINUOUS
10
137.8044940000000054
20
-131.1701419999999985
11
137.8997320000000002
21
-130.7891899999999907
0
LINE
8
BLACK
6
CONTINUOUS
10
137.8997320000000002
20
-130.7891899999999907
11
137.994969999999995
21
-130.5987140000000011
0
LINE
8
BLACK
6
CONTINUOUS
10
137.994969999999995
20
-130.5987140000000011
11
138.0902079999999899
21
-130.5034760000000063
0
LINE
8
BLACK
6
CONTINUOUS
10
138.0902079999999899
20
-130.5034760000000063
11
138.2806840000000079
21
-130.408237999999983
0
LINE
8
BLACK
6
CONTINUOUS
10
140.1854459999999847
20
-130.408237999999983
11
140.3759230000000002
21
-130.408237999999983
0
LINE
8
BLACK
6
CONTINUOUS
10
140.3759230000000002
20
-130.408237999999983
11
140.5663989999999899
21
-130.5034760000000063
0
LINE
8
BLACK
6
CONTINUOUS
10
140.5663989999999899
20
-130.5034760000000063
11
140.6616369999999847
21
-130.5987140000000011
0
LINE
8
BLACK
6
CONTINUOUS
10
140.6616369999999847
20
-130.5987140000000011
11
140.7568749999999795
21
-130.7891899999999907
0
LINE
8
BLACK
6
CONTINUOUS
10
140.7568749999999795
20
-130.7891899999999907
11
140.8521130000000028
21
-131.1701419999999985
0
LINE
8
BLACK
6
CONTINUOUS
10
140.8521130000000028
20
-131.1701419999999985
11
140.8521130000000028
21
-131.6463329999999985
0
LINE
8
BLACK
6
CONTINUOUS
10
140.8521130000000028
20
-131.6463329999999985
11
140.7568749999999795
21
-132.0272850000000062
0
LINE
8
BLACK
6
CONTINUOUS
10
140.7568749999999795
20
-132.0272850000000062
11
140.6616369999999847
21
-132.2177609999999959
0
LINE
8
BLACK
6
CONTINUOUS
10
140.6616369999999847
20
-132.2177609999999959
11
140.5663989999999899
21
-132.3129999999999882
0
LINE
8
BLACK
6
CONTINUOUS
10
140.5663989999999899
20
-132.3129999999999882
11
140.3759230000000002
21
-132.408237999999983
0
LINE
8
BLACK
6
CONTINUOUS
10
140.3759230000000002
20
-132.408237999999983
11
140.1854459999999847
21
-132.408237999999983
0
LINE
8
BLACK
6
CONTINUOUS
10
140.1854459999999847
20
-132.408237999999983
11
139.994969999999995
21
-132.3129999999999882
0
LINE
8
BLACK
6
CONTINUOUS
10
139.994969999999995
20
-132.3129999999999882
11
139.8997320000000002
21
-132.2177609999999959
0
LINE
8
BLACK
6
CONTINUOUS
10
139.8997320000000002
20
-132.2177609999999959
11
139.8044940000000054
21
-132.0272850000000062
0
LINE
8
BLACK
6
CONTINUOUS
10
139.8044940000000054
20
-132.0272850000000062
11
139.7092559999999821
21
-131.6463329999999985
0
LINE
8
BLACK
6
CONTINUOUS
10
139.7092559999999821
20
-131.6463329999999985
11
139.7092559999999821
21
-131.1701419999999985
0
LINE
8
BLACK
6
CONTINUOUS
10
139.7092559999999821
20
-131.1701419999999985
11
139.8044940000000054
21
-130.7891899999999907
0
LINE
8
BLACK
6
CONTINUOUS
10
139.8044940000000054
20
-130.7891899999999907
11
139.8997320000000002
21
-130.5987140000000011
0
LINE
8
BLACK
6
CONTINUOUS
10
139.8997320000000002
20
-130.5987140000000011
11
139.994969999999995
21
-130.5034760000000063
0
LINE
8
BLACK
6
CONTINUOUS
10
139.994969999999995
20
-130.5034760000000063
11
140.1854459999999847
21
-130.408237999999983
0
LINE
8
BLACK
6
CONTINUOUS
10
141.8044940000000054
20
-132.408237999999983
11
142.1854459999999847
21
-132.408237999999983
0
LINE
8
BLACK
6
CONTINUOUS
10
142.1854459999999847
20
-132.408237999999983
11
142.3759230000000002
21
-132.3129999999999882
0
LINE
8
BLACK
6
CONTINUOUS
10
142.3759230000000002
20
-132.3129999999999882
11
142.4711609999999951
21
-132.2177609999999959
0
LINE
8
BLACK
6
CONTINUOUS
10
142.4711609999999951
20
-132.2177609999999959
11
142.6616369999999847
21
-131.932046999999983
0
LINE
8
BLACK
6
CONTINUOUS
10
142.6616369999999847
20
-131.932046999999983
11
142.7568749999999795
21
-131.5510950000000037
0
LINE
8
BLACK
6
CONTINUOUS
10
142.7568749999999795
20
-131.5510950000000037
11
142.7568749999999795
21
-130.7891899999999907
0
LINE
8
BLACK
6
CONTINUOUS
10
142.7568749999999795
20
-130.7891899999999907
11
142.6616369999999847
21
-130.5987140000000011
0
LINE
8
BLACK
6
CONTINUOUS
10
142.6616369999999847
20
-130.5987140000000011
11
142.5663989999999899
21
-130.5034760000000063
0
LINE
8
BLACK
6
CONTINUOUS
10
142.5663989999999899
20
-130.5034760000000063
11
142.3759230000000002
21
-130.408237999999983
0
LINE
8
BLACK
6
CONTINUOUS
10
142.3759230000000002
20
-130.408237999999983
11
141.994969999999995
21
-130.408237999999983
0
LINE
8
BLACK
6
CONTINUOUS
10
141.994969999999995
20
-130.408237999999983
11
141.8044940000000054
21
-130.5034760000000063
0
LINE
8
BLACK
6
CONTINUOUS
10
141.8044940000000054
20
-130.5034760000000063
11
141.7092559999999821
21
-130.5987140000000011
0
LINE
8
BLACK
6
CONTINUOUS
10
141.7092559999999821
20
-130.5987140000000011
11
141.6140179999999873
21
-130.7891899999999907
0
LINE
8
BLACK
6
CONTINUOUS
10
141.6140179999999873
20
-130.7891899999999907
11
141.6140179999999873
21
-131.2653799999999933
0
LINE
8
BLACK
6
CONTINUOUS
10
141.6140179999999873
20
-131.2653799999999933
11
141.7092559999999821
21
-131.4558569999999804
0
LINE
8
BLACK
6
CONTINUOUS
10
141.7092559999999821
20
-131.4558569999999804
11
141.8044940000000054
21
-131.5510950000000037
0
LINE
8
BLACK
6
CONTINUOUS
10
141.8044940000000054
20
-131.5510950000000037
11
141.994969999999995
21
-131.6463329999999985
0
LINE
8
BLACK
6
CONTINUOUS
10
141.994969999999995
20
-131.6463329999999985
11
142.3759230000000002
21
-131.6463329999999985
0
LINE
8
BLACK
6
CONTINUOUS
10
142.3759230000000002
20
-131.6463329999999985
11
142.5663989999999899
21
-131.5510950000000037
0
LINE
8
BLACK
6
CONTINUOUS
10
142.5663989999999899
20
-131.5510950000000037
11
142.6616369999999847
21
-131.4558569999999804
0
LINE
8
BLACK
6
CONTINUOUS
10
142.6616369999999847
20
-131.4558569999999804
11
142.7568749999999795
21
-131.2653799999999933
0
LINE
8
BLACK
6
CONTINUOUS
10
143.8997320000000002
20
-131.2653799999999933
11
143.7092559999999821
21
-131.1701419999999985
0
LINE
8
BLACK
6
CONTINUOUS
10
143.7092559999999821
20
-131.1701419999999985
11
143.6140179999999873
21
-131.0749040000000036
0
LINE
8
BLACK
6
CONTINUOUS
10
143.6140179999999873
20
-131.0749040000000036
11
143.5187799999999925
21
-130.8844279999999856
0
LINE
8
BLACK
6
CONTINUOUS
10
143.5187799999999925
20
-130.8844279999999856
11
143.5187799999999925
21
-130.7891899999999907
0
LINE
8
BLACK
6
CONTINUOUS
10
143.5187799999999925
20
-130.7891899999999907
11
143.6140179999999873
21
-130.5987140000000011
0
LINE
8
BLACK
6
CONTINUOUS
10
143.6140179999999873
20
-130.5987140000000011
11
143.7092559999999821
21
-130.5034760000000063
0
LINE
8
BLACK
6
CONTINUOUS
10
143.7092559999999821
20
-130.5034760000000063
11
143.8997320000000002
21
-130.408237999999983
0
LINE
8
BLACK
6
CONTINUOUS
10
143.8997320000000002
20
-130.408237999999983
11
144.2806850000000054
21
-130.408237999999983
0
LINE
8
BLACK
6
CONTINUOUS
10
144.2806850000000054
20
-130.408237999999983
11
144.4711609999999951
21
-130.5034760000000063
0
LINE
8
BLACK
6
CONTINUOUS
10
144.4711609999999951
20
-130.5034760000000063
11
144.5663989999999899
21
-130.5987140000000011
0
LINE
8
BLACK
6
CONTINUOUS
10
144.5663989999999899
20
-130.5987140000000011
11
144.6616369999999847
21
-130.7891899999999907
0
LINE
8
BLACK
6
CONTINUOUS
10
144.6616369999999847
20
-130.7891899999999907
11
144.6616369999999847
21
-130.8844279999999856
0
LINE
8
BLACK
6
CONTINUOUS
10
144.6616369999999847
20
-130.8844279999999856
11
144.5663989999999899
21
-131.0749040000000036
0
LINE
8
BLACK
6
CONTINUOUS
10
144.5663989999999899
20
-131.0749040000000036
11
144.4711609999999951
21
-131.1701419999999985
0
LINE
8
BLACK
6
CONTINUOUS
10
144.4711609999999951
20
-131.1701419999999985
11
144.2806850000000054
21
-131.2653799999999933
0
LINE
8
BLACK
6
CONTINUOUS
10
144.2806850000000054
20
-131.2653799999999933
11
143.8997320000000002
21
-131.2653799999999933
0
LINE
8
BLACK
6
CONTINUOUS
10
143.8997320000000002
20
-131.2653799999999933
11
143.7092559999999821
21
-131.3606189999999856
0
LINE
8
BLACK
6
CONTINUOUS
10
143.7092559999999821
20
-131.3606189999999856
11
143.6140179999999873
21
-131.4558569999999804
0
LINE
8
BLACK
6
CONTINUOUS
10
143.6140179999999873
20
-131.4558569999999804
11
143.5187799999999925
21
-131.6463329999999985
0
LINE
8
BLACK
6
CONTINUOUS
10
143.5187799999999925
20
-131.6463329999999985
11
143.5187799999999925
21
-132.0272850000000062
0
LINE
8
BLACK
6
CONTINUOUS
10
143.5187799999999925
20
-132.0272850000000062
11
143.6140179999999873
21
-132.2177609999999959
0
LINE
8
BLACK
6
CONTINUOUS
10
143.6140179999999873
20
-132.2177609999999959
11
143.7092559999999821
21
-132.3129999999999882
0
LINE
8
BLACK
6
CONTINUOUS
10
143.7092559999999821
20
-132.3129999999999882
11
143.8997320000000002
21
-132.408237999999983
0
LINE
8
BLACK
6
CONTINUOUS
10
143.8997320000000002
20
-132.408237999999983
11
144.2806850000000054
21
-132.408237999999983
0
LINE
8
BLACK
6
CONTINUOUS
10
144.2806850000000054
20
-132.408237999999983
11
144.4711609999999951
21
-132.3129999999999882
0
LINE
8
BLACK
6
CONTINUOUS
10
144.4711609999999951
20
-132.3129999999999882
11
144.5663989999999899
21
-132.2177609999999959
0
LINE
8
BLACK
6
CONTINUOUS
10
144.5663989999999899
20
-132.2177609999999959
11
144.6616369999999847
21
-132.0272850000000062
0
LINE
8
BLACK
6
CONTINUOUS
10
144.6616369999999847
20
-132.0272850000000062
11
144.6616369999999847
21
-131.6463329999999985
0
LINE
8
BLACK
6
CONTINUOUS
10
144.6616369999999847
20
-131.6463329999999985
11
144.5663989999999899
21
-131.4558569999999804
0
LINE
8
BLACK
6
CONTINUOUS
10
144.5663989999999899
20
-131.4558569999999804
11
144.4711609999999951
21
-131.3606189999999856
0
LINE
8
BLACK
6
CONTINUOUS
10
144.4711609999999951
20
-131.3606189999999856
11
144.2806850000000054
21
-131.2653799999999933
0
LINE
8
BLACK
6
CONTINUOUS
10
145.4235419999999976
20
-130.408237999999983
11
145.4235419999999976
21
-130.7891899999999907
0
LINE
8
BLACK
6
CONTINUOUS
10
146.1854469999999822
20
-130.408237999999983
11
146.1854469999999822
21
-130.7891899999999907
0
LINE
8
BLACK
6
CONTINUOUS
10
149.1378289999999822
20
-133.1701419999999985
11
149.0425899999999899
21
-133.0749040000000036
0
LINE
8
BLACK
6
CONTINUOUS
10
149.0425899999999899
20
-133.0749040000000036
11
148.8521140000000003
21
-132.7891899999999907
0
LINE
8
BLACK
6
CONTINUOUS
10
148.8521140000000003
20
-132.7891899999999907
11
148.7568760000000054
21
-132.5987140000000011
0
LINE
8
BLACK
6
CONTINUOUS
10
148.7568760000000054
20
-132.5987140000000011
11
148.6616379999999822
21
-132.3129999999999882
0
LINE
8
BLACK
6
CONTINUOUS
10
148.6616379999999822
20
-132.3129999999999882
11
148.5663999999999874
21
-131.8368089999999881
0
LINE
8
BLACK
6
CONTINUOUS
10
148.5663999999999874
20
-131.8368089999999881
11
148.5663999999999874
21
-131.4558569999999804
0
LINE
8
BLACK
6
CONTINUOUS
10
148.5663999999999874
20
-131.4558569999999804
11
148.6616379999999822
21
-130.9796659999999804
0
LINE
8
BLACK
6
CONTINUOUS
10
148.6616379999999822
20
-130.9796659999999804
11
148.7568760000000054
21
-130.6939519999999959
0
LINE
8
BLACK
6
CONTINUOUS
10
148.7568760000000054
20
-130.6939519999999959
11
148.8521140000000003
21
-130.5034760000000063
0
LINE
8
BLACK
6
CONTINUOUS
10
148.8521140000000003
20
-130.5034760000000063
11
149.0425899999999899
21
-130.2177609999999959
0
LINE
8
BLACK
6
CONTINUOUS
10
149.0425899999999899
20
-130.2177609999999959
11
149.1378289999999822
21
-130.122523000000001
0
LINE
8
BLACK
6
CONTINUOUS
10
150.1854469999999822
20
-131.2653799999999933
11
149.9949709999999925
21
-131.1701419999999985
0
LINE
8
BLACK
6
CONTINUOUS
10
149.9949709999999925
20
-131.1701419999999985
11
149.8997329999999977
21
-131.0749040000000036
0
LINE
8
BLACK
6
CONTINUOUS
10
149.8997329999999977
20
-131.0749040000000036
11
149.8044950000000028
21
-130.8844279999999856
0
LINE
8
BLACK
6
CONTINUOUS
10
149.8044950000000028
20
-130.8844279999999856
11
149.8044950000000028
21
-130.7891899999999907
0
LINE
8
BLACK
6
CONTINUOUS
10
149.8044950000000028
20
-130.7891899999999907
11
149.8997329999999977
21
-130.5987140000000011
0
LINE
8
BLACK
6
CONTINUOUS
10
149.8997329999999977
20
-130.5987140000000011
11
149.9949709999999925
21
-130.5034760000000063
0
LINE
8
BLACK
6
CONTINUOUS
10
149.9949709999999925
20
-130.5034760000000063
11
150.1854469999999822
21
-130.408237999999983
0
LINE
8
BLACK
6
CONTINUOUS
10
150.1854469999999822
20
-130.408237999999983
11
150.5663999999999874
21
-130.408237999999983
0
LINE
8
BLACK
6
CONTINUOUS
10
150.5663999999999874
20
-130.408237999999983
11
150.7568760000000054
21
-130.5034760000000063
0
LINE
8
BLACK
6
CONTINUOUS
10
150.7568760000000054
20
-130.5034760000000063
11
150.8521140000000003
21
-130.5987140000000011
0
LINE
8
BLACK
6
CONTINUOUS
10
150.8521140000000003
20
-130.5987140000000011
11
150.9473519999999951
21
-130.7891899999999907
0
LINE
8
BLACK
6
CONTINUOUS
10
150.9473519999999951
20
-130.7891899999999907
11
150.9473519999999951
21
-130.8844279999999856
0
LINE
8
BLACK
6
CONTINUOUS
10
150.9473519999999951
20
-130.8844279999999856
11
150.8521140000000003
21
-131.0749040000000036
0
LINE
8
BLACK
6
CONTINUOUS
10
150.8521140000000003
20
-131.0749040000000036
11
150.7568760000000054
21
-131.1701419999999985
0
LINE
8
BLACK
6
CONTINUOUS
10
150.7568760000000054
20
-131.1701419999999985
11
150.5663999999999874
21
-131.2653799999999933
0
LINE
8
BLACK
6
CONTINUOUS
10
150.5663999999999874
20
-131.2653799999999933
11
150.1854469999999822
21
-131.2653799999999933
0
LINE
8
BLACK
6
CONTINUOUS
10
150.1854469999999822
20
-131.2653799999999933
11
149.9949709999999925
21
-131.3606189999999856
0
LINE
8
BLACK
6
CONTINUOUS
10
149.9949709999999925
20
-131.3606189999999856
11
149.8997329999999977
21
-131.4558569999999804
0
LINE
8
BLACK
6
CONTINUOUS
10
149.8997329999999977
20
-131.4558569999999804
11
149.8044950000000028
21
-131.6463329999999985
0
LINE
8
BLACK
6
CONTINUOUS
10
149.8044950000000028
20
-131.6463329999999985
11
149.8044950000000028
21
-132.0272850000000062
0
LINE
8
BLACK
6
CONTINUOUS
10
149.8044950000000028
20
-132.0272850000000062
11
149.8997329999999977
21
-132.2177609999999959
0
LINE
8
BLACK
6
CONTINUOUS
10
149.8997329999999977
20
-132.2177609999999959
11
149.9949709999999925
21
-132.3129999999999882
0
LINE
8
BLACK
6
CONTINUOUS
10
149.9949709999999925
20
-132.3129999999999882
11
150.1854469999999822
21
-132.408237999999983
0
LINE
8
BLACK
6
CONTINUOUS
10
150.1854469999999822
20
-132.408237999999983
11
150.5663999999999874
21
-132.408237999999983
0
LINE
8
BLACK
6
CONTINUOUS
10
150.5663999999999874
20
-132.408237999999983
11
150.7568760000000054
21
-132.3129999999999882
0
LINE
8
BLACK
6
CONTINUOUS
10
150.7568760000000054
20
-132.3129999999999882
11
150.8521140000000003
21
-132.2177609999999959
0
LINE
8
BLACK
6
CONTINUOUS
10
150.8521140000000003
20
-132.2177609999999959
11
150.9473519999999951
21
-132.0272850000000062
0
LINE
8
BLACK
6
CONTINUOUS
10
150.9473519999999951
20
-132.0272850000000062
11
150.9473519999999951
21
-131.6463329999999985
0
LINE
8
BLACK
6
CONTINUOUS
10
150.9473519999999951
20
-131.6463329999999985
11
150.8521140000000003
21
-131.4558569999999804
0
LINE
8
BLACK
6
CONTINUOUS
10
150.8521140000000003
20
-131.4558569999999804
11
150.7568760000000054
21
-131.3606189999999856
0
LINE
8
BLACK
6
CONTINUOUS
10
150.7568760000000054
20
-131.3606189999999856
11
150.5663999999999874
21
-131.2653799999999933
0
LINE
8
BLACK
6
CONTINUOUS
10
153.3283050000000003
20
-132.408237999999983
11
153.3283050000000003
21
-130.408237999999983
0
LINE
8
BLACK
6
CONTINUOUS
10
154.1854479999999796
20
-132.408237999999983
11
154.1854479999999796
21
-131.3606189999999856
0
LINE
8
BLACK
6
CONTINUOUS
10
154.1854479999999796
20
-131.3606189999999856
11
154.0902099999999848
21
-131.1701419999999985
0
LINE
8
BLACK
6
CONTINUOUS
10
154.0902099999999848
20
-131.1701419999999985
11
153.8997339999999951
21
-131.0749040000000036
0
LINE
8
BLACK
6
CONTINUOUS
10
153.8997339999999951
20
-131.0749040000000036
11
153.6140189999999848
21
-131.0749040000000036
0
LINE
8
BLACK
6
CONTINUOUS
10
153.6140189999999848
20
-131.0749040000000036
11
153.4235429999999951
21
-131.1701419999999985
0
LINE
8
BLACK
6
CONTINUOUS
10
153.4235429999999951
20
-131.1701419999999985
11
153.3283050000000003
21
-131.2653799999999933
0
LINE
8
BLACK
6
CONTINUOUS
10
155.4235429999999951
20
-132.408237999999983
11
155.2330670000000055
21
-132.3129999999999882
0
LINE
8
BLACK
6
CONTINUOUS
10
155.2330670000000055
20
-132.3129999999999882
11
155.1378289999999822
21
-132.2177609999999959
0
LINE
8
BLACK
6
CONTINUOUS
10
155.1378289999999822
20
-132.2177609999999959
11
155.0425909999999874
21
-132.0272850000000062
0
LINE
8
BLACK
6
CONTINUOUS
10
155.0425909999999874
20
-132.0272850000000062
11
155.0425909999999874
21
-131.4558569999999804
0
LINE
8
BLACK
6
CONTINUOUS
10
155.0425909999999874
20
-131.4558569999999804
11
155.1378289999999822
21
-131.2653799999999933
0
LINE
8
BLACK
6
CONTINUOUS
10
155.1378289999999822
20
-131.2653799999999933
11
155.2330670000000055
21
-131.1701419999999985
0
LINE
8
BLACK
6
CONTINUOUS
10
155.2330670000000055
20
-131.1701419999999985
11
155.4235429999999951
21
-131.0749040000000036
0
LINE
8
BLACK
6
CONTINUOUS
10
155.4235429999999951
20
-131.0749040000000036
11
155.7092580000000055
21
-131.0749040000000036
0
LINE
8
BLACK
6
CONTINUOUS
10
155.7092580000000055
20
-131.0749040000000036
11
155.8997339999999951
21
-131.1701419999999985
0
LINE
8
BLACK
6
CONTINUOUS
10
155.8997339999999951
20
-131.1701419999999985
11
155.99497199999999
21
-131.2653799999999933
0
LINE
8
BLACK
6
CONTINUOUS
10
155.99497199999999
20
-131.2653799999999933
11
156.0902099999999848
21
-131.4558569999999804
0
LINE
8
BLACK
6
CONTINUOUS
10
156.0902099999999848
20
-131.4558569999999804
11
156.0902099999999848
21
-132.0272850000000062
0
LINE
8
BLACK
6
CONTINUOUS
10
156.0902099999999848
20
-132.0272850000000062
11
155.99497199999999
21
-132.2177609999999959
0
LINE
8
BLACK
6
CONTINUOUS
10
155.99497199999999
20
-132.2177609999999959
11
155.8997339999999951
21
-132.3129999999999882
0
LINE
8
BLACK
6
CONTINUOUS
10
155.8997339999999951
20
-132.3129999999999882
11
155.7092580000000055
21
-132.408237999999983
0
LINE
8
BLACK
6
CONTINUOUS
10
155.7092580000000055
20
-132.408237999999983
11
155.4235429999999951
21
-132.408237999999983
0
LINE
8
BLACK
6
CONTINUOUS
10
157.2330670000000055
20
-132.408237999999983
11
157.0425909999999874
21
-132.3129999999999882
0
LINE
8
BLACK
6
CONTINUOUS
10
157.0425909999999874
20
-132.3129999999999882
11
156.9473529999999926
21
-132.122523000000001
0
LINE
8
BLACK
6
CONTINUOUS
10
156.9473529999999926
20
-132.122523000000001
11
156.9473529999999926
21
-130.408237999999983
0
LINE
8
BLACK
6
CONTINUOUS
10
158.7568770000000029
20
-132.3129999999999882
11
158.5664009999999848
21
-132.408237999999983
0
LINE
8
BLACK
6
CONTINUOUS
10
158.5664009999999848
20
-132.408237999999983
11
158.1854479999999796
21
-132.408237999999983
0
LINE
8
BLACK
6
CONTINUOUS
10
158.1854479999999796
20
-132.408237999999983
11
157.99497199999999
21
-132.3129999999999882
0
LINE
8
BLACK
6
CONTINUOUS
10
157.99497199999999
20
-132.3129999999999882
11
157.8997339999999951
21
-132.122523000000001
0
LINE
8
BLACK
6
CONTINUOUS
10
157.8997339999999951
20
-132.122523000000001
11
157.8997339999999951
21
-131.3606189999999856
0
LINE
8
BLACK
6
CONTINUOUS
10
157.8997339999999951
20
-131.3606189999999856
11
157.99497199999999
21
-131.1701419999999985
0
LINE
8
BLACK
6
CONTINUOUS
10
157.99497199999999
20
-131.1701419999999985
11
158.1854479999999796
21
-131.0749040000000036
0
LINE
8
BLACK
6
CONTINUOUS
10
158.1854479999999796
20
-131.0749040000000036
11
158.5664009999999848
21
-131.0749040000000036
0
LINE
8
BLACK
6
CONTINUOUS
10
158.5664009999999848
20
-131.0749040000000036
11
158.7568770000000029
21
-131.1701419999999985
0
LINE
8
BLACK
6
CONTINUOUS
10
158.7568770000000029
20
-131.1701419999999985
11
158.8521149999999977
21
-131.3606189999999856
0
LINE
8
BLACK
6
CONTINUOUS
10
158.8521149999999977
20
-131.3606189999999856
11
158.8521149999999977
21
-131.5510950000000037
0
LINE
8
BLACK
6
CONTINUOUS
10
158.8521149999999977
20
-131.5510950000000037
11
157.8997339999999951
21
-131.7415709999999933
0
LINE
8
BLACK
6
CONTINUOUS
10
159.6140199999999822
20
-132.3129999999999882
11
159.8044960000000003
21
-132.408237999999983
0
LINE
8
BLACK
6
CONTINUOUS
10
159.8044960000000003
20
-132.408237999999983
11
160.1854479999999796
21
-132.408237999999983
0
LINE
8
BLACK
6
CONTINUOUS
10
160.1854479999999796
20
-132.408237999999983
11
160.3759249999999952
21
-132.3129999999999882
0
LINE
8
BLACK
6
CONTINUOUS
10
160.3759249999999952
20
-132.3129999999999882
11
160.47116299999999
21
-132.122523000000001
0
LINE
8
BLACK
6
CONTINUOUS
10
160.47116299999999
20
-132.122523000000001
11
160.47116299999999
21
-132.0272850000000062
0
LINE
8
BLACK
6
CONTINUOUS
10
160.47116299999999
20
-132.0272850000000062
11
160.3759249999999952
21
-131.8368089999999881
0
LINE
8
BLACK
6
CONTINUOUS
10
160.3759249999999952
20
-131.8368089999999881
11
160.1854479999999796
21
-131.7415709999999933
0
LINE
8
BLACK
6
CONTINUOUS
10
160.1854479999999796
20
-131.7415709999999933
11
159.8997339999999951
21
-131.7415709999999933
0
LINE
8
BLACK
6
CONTINUOUS
10
159.8997339999999951
20
-131.7415709999999933
11
159.7092580000000055
21
-131.6463329999999985
0
LINE
8
BLACK
6
CONTINUOUS
10
159.7092580000000055
20
-131.6463329999999985
11
159.6140199999999822
21
-131.4558569999999804
0
LINE
8
BLACK
6
CONTINUOUS
10
159.6140199999999822
20
-131.4558569999999804
11
159.6140199999999822
21
-131.3606189999999856
0
LINE
8
BLACK
6
CONTINUOUS
10
159.6140199999999822
20
-131.3606189999999856
11
159.7092580000000055
21
-131.1701419999999985
0
LINE
8
BLACK
6
CONTINUOUS
10
159.7092580000000055
20
-131.1701419999999985
11
159.8997339999999951
21
-131.0749040000000036
0
LINE
8
BLACK
6
CONTINUOUS
10
159.8997339999999951
20
-131.0749040000000036
11
160.1854479999999796
21
-131.0749040000000036
0
LINE
8
BLACK
6
CONTINUOUS
10
160.1854479999999796
20
-131.0749040000000036
11
160.3759249999999952
21
-131.1701419999999985
0
LINE
8
BLACK
6
CONTINUOUS
10
161.1378299999999797
20
-133.1701419999999985
11
161.2330680000000029
21
-133.0749040000000036
0
LINE
8
BLACK
6
CONTINUOUS
10
161.2330680000000029
20
-133.0749040000000036
11
161.4235439999999926
21
-132.7891899999999907
0
LINE
8
BLACK
6
CONTINUOUS
10
161.4235439999999926
20
-132.7891899999999907
11
161.5187819999999874
21
-132.5987140000000011
0
LINE
8
BLACK
6
CONTINUOUS
10
161.5187819999999874
20
-132.5987140000000011
11
161.6140199999999822
21
-132.3129999999999882
0
LINE
8
BLACK
6
CONTINUOUS
10
161.6140199999999822
20
-132.3129999999999882
11
161.7092580000000055
21
-131.8368089999999881
0
LINE
8
BLACK
6
CONTINUOUS
10
161.7092580000000055
20
-131.8368089999999881
11
161.7092580000000055
21
-131.4558569999999804
0
LINE
8
BLACK
6
CONTINUOUS
10
161.7092580000000055
20
-131.4558569999999804
11
161.6140199999999822
21
-130.9796659999999804
0
LINE
8
BLACK
6
CONTINUOUS
10
161.6140199999999822
20
-130.9796659999999804
11
161.5187819999999874
21
-130.6939519999999959
0
LINE
8
BLACK
6
CONTINUOUS
10
161.5187819999999874
20
-130.6939519999999959
11
161.4235439999999926
21
-130.5034760000000063
0
LINE
8
BLACK
6
CONTINUOUS
10
161.4235439999999926
20
-130.5034760000000063
11
161.2330680000000029
21
-130.2177609999999959
0
LINE
8
BLACK
6
CONTINUOUS
10
161.2330680000000029
20
-130.2177609999999959
11
161.1378299999999797
21
-130.122523000000001
0
CIRCLE
8
BLACK
10
112.8871999999999929
20
-134.1333999999999946
40
0.5
0
LINE
8
BLACK
6
CONTINUOUS
10
117.0425869999999975
20
-135.0482379999999978
11
115.899729999999991
21
-135.0482379999999978
0
LINE
8
BLACK
6
CONTINUOUS
10
116.4711579999999884
20
-135.0482379999999978
11
116.4711579999999884
21
-133.0482379999999978
0
LINE
8
BLACK
6
CONTINUOUS
10
116.4711579999999884
20
-133.0482379999999978
11
116.2806819999999988
21
-133.3339519999999823
0
LINE
8
BLACK
6
CONTINUOUS
10
116.2806819999999988
20
-133.3339519999999823
11
116.0902059999999949
21
-133.5244280000000003
0
LINE
8
BLACK
6
CONTINUOUS
10
116.0902059999999949
20
-133.5244280000000003
11
115.899729999999991
21
-133.6196659999999952
0
LINE
8
BLACK
6
CONTINUOUS
10
117.899729999999991
20
-134.8577609999999822
11
117.9949680000000001
21
-134.953000000000003
0
LINE
8
BLACK
6
CONTINUOUS
10
117.9949680000000001
20
-134.953000000000003
11
117.899729999999991
21
-135.0482379999999978
0
LINE
8
BLACK
6
CONTINUOUS
10
117.899729999999991
20
-135.0482379999999978
11
117.8044919999999962
21
-134.953000000000003
0
LINE
8
BLACK
6
CONTINUOUS
10
117.8044919999999962
20
-134.953000000000003
11
117.899729999999991
21
-134.8577609999999822
0
LINE
8
BLACK
6
CONTINUOUS
10
117.899729999999991
20
-134.8577609999999822
11
117.899729999999991
21
-135.0482379999999978
0
LINE
8
BLACK
6
CONTINUOUS
10
119.2330630000000014
20
-133.0482379999999978
11
119.4235399999999885
21
-133.0482379999999978
0
LINE
8
BLACK
6
CONTINUOUS
10
119.4235399999999885
20
-133.0482379999999978
11
119.6140159999999923
21
-133.1434759999999926
0
LINE
8
BLACK
6
CONTINUOUS
10
119.6140159999999923
20
-133.1434759999999926
11
119.7092540000000014
21
-133.2387139999999874
0
LINE
8
BLACK
6
CONTINUOUS
10
119.7092540000000014
20
-133.2387139999999874
11
119.8044919999999962
21
-133.4291900000000055
0
LINE
8
BLACK
6
CONTINUOUS
10
119.8044919999999962
20
-133.4291900000000055
11
119.899729999999991
21
-133.8101419999999848
0
LINE
8
BLACK
6
CONTINUOUS
10
119.899729999999991
20
-133.8101419999999848
11
119.899729999999991
21
-134.2863329999999848
0
LINE
8
BLACK
6
CONTINUOUS
10
119.899729999999991
20
-134.2863329999999848
11
119.8044919999999962
21
-134.6672849999999926
0
LINE
8
BLACK
6
CONTINUOUS
10
119.8044919999999962
20
-134.6672849999999926
11
119.7092540000000014
21
-134.8577609999999822
0
LINE
8
BLACK
6
CONTINUOUS
10
119.7092540000000014
20
-134.8577609999999822
11
119.6140159999999923
21
-134.953000000000003
0
LINE
8
BLACK
6
CONTINUOUS
10
119.6140159999999923
20
-134.953000000000003
11
119.4235399999999885
21
-135.0482379999999978
0
LINE
8
BLACK
6
CONTINUOUS
10
119.4235399999999885
20
-135.0482379999999978
11
119.2330630000000014
21
-135.0482379999999978
0
LINE
8
BLACK
6
CONTINUOUS
10
119.2330630000000014
20
-135.0482379999999978
11
119.0425869999999975
21
-134.953000000000003
0
LINE
8
BLACK
6
CONTINUOUS
10
119.0425869999999975
20
-134.953000000000003
11
118.9473489999999885
21
-134.8577609999999822
0
LINE
8
BLACK
6
CONTINUOUS
10
118.9473489999999885
20
-134.8577609999999822
11
118.8521109999999936
21
-134.6672849999999926
0
LINE
8
BLACK
6
CONTINUOUS
10
118.8521109999999936
20
-134.6672849999999926
11
118.7568729999999988
21
-134.2863329999999848
0
LINE
8
BLACK
6
CONTINUOUS
10
118.7568729999999988
20
-134.2863329999999848
11
118.7568729999999988
21
-133.8101419999999848
0
LINE
8
BLACK
6
CONTINUOUS
10
118.7568729999999988
20
-133.8101419999999848
11
118.8521109999999936
21
-133.4291900000000055
0
LINE
8
BLACK
6
CONTINUOUS
10
118.8521109999999936
20
-133.4291900000000055
11
118.9473489999999885
21
-133.2387139999999874
0
LINE
8
BLACK
6
CONTINUOUS
10
118.9473489999999885
20
-133.2387139999999874
11
119.0425869999999975
21
-133.1434759999999926
0
LINE
8
BLACK
6
CONTINUOUS
10
119.0425869999999975
20
-133.1434759999999926
11
119.2330630000000014
21
-133.0482379999999978
0
LINE
8
BLACK
6
CONTINUOUS
10
121.1378249999999923
20
-133.0482379999999978
11
121.3283019999999937
21
-133.0482379999999978
0
LINE
8
BLACK
6
CONTINUOUS
10
121.3283019999999937
20
-133.0482379999999978
11
121.5187779999999975
21
-133.1434759999999926
0
LINE
8
BLACK
6
CONTINUOUS
10
121.5187779999999975
20
-133.1434759999999926
11
121.6140159999999923
21
-133.2387139999999874
0
LINE
8
BLACK
6
CONTINUOUS
10
121.6140159999999923
20
-133.2387139999999874
11
121.7092540000000014
21
-133.4291900000000055
0
LINE
8
BLACK
6
CONTINUOUS
10
121.7092540000000014
20
-133.4291900000000055
11
121.8044919999999962
21
-133.8101419999999848
0
LINE
8
BLACK
6
CONTINUOUS
10
121.8044919999999962
20
-133.8101419999999848
11
121.8044919999999962
21
-134.2863329999999848
0
LINE
8
BLACK
6
CONTINUOUS
10
121.8044919999999962
20
-134.2863329999999848
11
121.7092540000000014
21
-134.6672849999999926
0
LINE
8
BLACK
6
CONTINUOUS
10
121.7092540000000014
20
-134.6672849999999926
11
121.6140159999999923
21
-134.8577609999999822
0
LINE
8
BLACK
6
CONTINUOUS
10
121.6140159999999923
20
-134.8577609999999822
11
121.5187779999999975
21
-134.953000000000003
0
LINE
8
BLACK
6
CONTINUOUS
10
121.5187779999999975
20
-134.953000000000003
11
121.3283019999999937
21
-135.0482379999999978
0
LINE
8
BLACK
6
CONTINUOUS
10
121.3283019999999937
20
-135.0482379999999978
11
121.1378249999999923
21
-135.0482379999999978
0
LINE
8
BLACK
6
CONTINUOUS
10
121.1378249999999923
20
-135.0482379999999978
11
120.9473489999999885
21
-134.953000000000003
0
LINE
8
BLACK
6
CONTINUOUS
10
120.9473489999999885
20
-134.953000000000003
11
120.8521109999999936
21
-134.8577609999999822
0
LINE
8
BLACK
6
CONTINUOUS
10
120.8521109999999936
20
-134.8577609999999822
11
120.7568729999999988
21
-134.6672849999999926
0
LINE
8
BLACK
6
CONTINUOUS
10
120.7568729999999988
20
-134.6672849999999926
11
120.6616349999999898
21
-134.2863329999999848
0
LINE
8
BLACK
6
CONTINUOUS
10
120.6616349999999898
20
-134.2863329999999848
11
120.6616349999999898
21
-133.8101419999999848
0
LINE
8
BLACK
6
CONTINUOUS
10
120.6616349999999898
20
-133.8101419999999848
11
120.7568729999999988
21
-133.4291900000000055
0
LINE
8
BLACK
6
CONTINUOUS
10
120.7568729999999988
20
-133.4291900000000055
11
120.8521109999999936
21
-133.2387139999999874
0
LINE
8
BLACK
6
CONTINUOUS
10
120.8521109999999936
20
-133.2387139999999874
11
120.9473489999999885
21
-133.1434759999999926
0
LINE
8
BLACK
6
CONTINUOUS
10
120.9473489999999885
20
-133.1434759999999926
11
121.1378249999999923
21
-133.0482379999999978
0
LINE
8
BLACK
6
CONTINUOUS
10
123.0425869999999975
20
-133.0482379999999978
11
123.2330639999999988
21
-133.0482379999999978
0
LINE
8
BLACK
6
CONTINUOUS
10
123.2330639999999988
20
-133.0482379999999978
11
123.4235399999999885
21
-133.1434759999999926
0
LINE
8
BLACK
6
CONTINUOUS
10
123.4235399999999885
20
-133.1434759999999926
11
123.5187779999999975
21
-133.2387139999999874
0
LINE
8
BLACK
6
CONTINUOUS
10
123.5187779999999975
20
-133.2387139999999874
11
123.6140159999999923
21
-133.4291900000000055
0
LINE
8
BLACK
6
CONTINUOUS
10
123.6140159999999923
20
-133.4291900000000055
11
123.7092540000000014
21
-133.8101419999999848
0
LINE
8
BLACK
6
CONTINUOUS
10
123.7092540000000014
20
-133.8101419999999848
11
123.7092540000000014
21
-134.2863329999999848
0
LINE
8
BLACK
6
CONTINUOUS
10
123.7092540000000014
20
-134.2863329999999848
11
123.6140159999999923
21
-134.6672849999999926
0
LINE
8
BLACK
6
CONTINUOUS
10
123.6140159999999923
20
-134.6672849999999926
11
123.5187779999999975
21
-134.8577609999999822
0
LINE
8
BLACK
6
CONTINUOUS
10
123.5187779999999975
20
-134.8577609999999822
11
123.4235399999999885
21
-134.953000000000003
0
LINE
8
BLACK
6
CONTINUOUS
10
123.4235399999999885
20
-134.953000000000003
11
123.2330639999999988
21
-135.0482379999999978
0
LINE
8
BLACK
6
CONTINUOUS
10
123.2330639999999988
20
-135.0482379999999978
11
123.0425869999999975
21
-135.0482379999999978
0
LINE
8
BLACK
6
CONTINUOUS
10
123.0425869999999975
20
-135.0482379999999978
11
122.8521109999999936
21
-134.953000000000003
0
LINE
8
BLACK
6
CONTINUOUS
10
122.8521109999999936
20
-134.953000000000003
11
122.7568729999999988
21
-134.8577609999999822
0
LINE
8
BLACK
6
CONTINUOUS
10
122.7568729999999988
20
-134.8577609999999822
11
122.6616349999999898
21
-134.6672849999999926
0
LINE
8
BLACK
6
CONTINUOUS
10
122.6616349999999898
20
-134.6672849999999926
11
122.5663969999999949
21
-134.2863329999999848
0
LINE
8
BLACK
6
CONTINUOUS
10
122.5663969999999949
20
-134.2863329999999848
11
122.5663969999999949
21
-133.8101419999999848
0
LINE
8
BLACK
6
CONTINUOUS
10
122.5663969999999949
20
-133.8101419999999848
11
122.6616349999999898
21
-133.4291900000000055
0
LINE
8
BLACK
6
CONTINUOUS
10
122.6616349999999898
20
-133.4291900000000055
11
122.7568729999999988
21
-133.2387139999999874
0
LINE
8
BLACK
6
CONTINUOUS
10
122.7568729999999988
20
-133.2387139999999874
11
122.8521109999999936
21
-133.1434759999999926
0
LINE
8
BLACK
6
CONTINUOUS
10
122.8521109999999936
20
-133.1434759999999926
11
123.0425869999999975
21
-133.0482379999999978
0
LINE
8
BLACK
6
CONTINUOUS
10
124.5663969999999949
20
-135.0482379999999978
11
124.5663969999999949
21
-133.71490399999999
0
LINE
8
BLACK
6
CONTINUOUS
10
124.5663969999999949
20
-133.9053800000000081
11
124.6616349999999898
21
-133.8101419999999848
0
LINE
8
BLACK
6
CONTINUOUS
10
124.6616349999999898
20
-133.8101419999999848
11
124.8521109999999936
21
-133.71490399999999
0
LINE
8
BLACK
6
CONTINUOUS
10
124.8521109999999936
20
-133.71490399999999
11
125.1378259999999898
21
-133.71490399999999
0
LINE
8
BLACK
6
CONTINUOUS
10
125.1378259999999898
20
-133.71490399999999
11
125.3283019999999937
21
-133.8101419999999848
0
LINE
8
BLACK
6
CONTINUOUS
10
125.3283019999999937
20
-133.8101419999999848
11
125.4235399999999885
21
-134.0006190000000004
0
LINE
8
BLACK
6
CONTINUOUS
10
125.4235399999999885
20
-134.0006190000000004
11
125.4235399999999885
21
-135.0482379999999978
0
LINE
8
BLACK
6
CONTINUOUS
10
125.4235399999999885
20
-134.0006190000000004
11
125.5187779999999975
21
-133.8101419999999848
0
LINE
8
BLACK
6
CONTINUOUS
10
125.5187779999999975
20
-133.8101419999999848
11
125.7092540000000014
21
-133.71490399999999
0
LINE
8
BLACK
6
CONTINUOUS
10
125.7092540000000014
20
-133.71490399999999
11
125.9949680000000001
21
-133.71490399999999
0
LINE
8
BLACK
6
CONTINUOUS
10
125.9949680000000001
20
-133.71490399999999
11
126.1854449999999872
21
-133.8101419999999848
0
LINE
8
BLACK
6
CONTINUOUS
10
126.1854449999999872
20
-133.8101419999999848
11
126.2806829999999962
21
-134.0006190000000004
0
LINE
8
BLACK
6
CONTINUOUS
10
126.2806829999999962
20
-134.0006190000000004
11
126.2806829999999962
21
-135.0482379999999978
0
LINE
8
BLACK
6
CONTINUOUS
10
127.2330639999999988
20
-135.0482379999999978
11
127.2330639999999988
21
-133.71490399999999
0
LINE
8
BLACK
6
CONTINUOUS
10
127.2330639999999988
20
-133.9053800000000081
11
127.3283019999999937
21
-133.8101419999999848
0
LINE
8
BLACK
6
CONTINUOUS
10
127.3283019999999937
20
-133.8101419999999848
11
127.5187779999999975
21
-133.71490399999999
0
LINE
8
BLACK
6
CONTINUOUS
10
127.5187779999999975
20
-133.71490399999999
11
127.8044929999999937
21
-133.71490399999999
0
LINE
8
BLACK
6
CONTINUOUS
10
127.8044929999999937
20
-133.71490399999999
11
127.9949689999999975
21
-133.8101419999999848
0
LINE
8
BLACK
6
CONTINUOUS
10
127.9949689999999975
20
-133.8101419999999848
11
128.0902069999999924
21
-134.0006190000000004
0
LINE
8
BLACK
6
CONTINUOUS
10
128.0902069999999924
20
-134.0006190000000004
11
128.0902069999999924
21
-135.0482379999999978
0
LINE
8
BLACK
6
CONTINUOUS
10
128.0902069999999924
20
-134.0006190000000004
11
128.1854449999999872
21
-133.8101419999999848
0
LINE
8
BLACK
6
CONTINUOUS
10
128.1854449999999872
20
-133.8101419999999848
11
128.3759210000000053
21
-133.71490399999999
0
LINE
8
BLACK
6
CONTINUOUS
10
128.3759210000000053
20
-133.71490399999999
11
128.6616349999999898
21
-133.71490399999999
0
LINE
8
BLACK
6
CONTINUOUS
10
128.6616349999999898
20
-133.71490399999999
11
128.8521120000000053
21
-133.8101419999999848
0
LINE
8
BLACK
6
CONTINUOUS
10
128.8521120000000053
20
-133.8101419999999848
11
128.9473500000000001
21
-134.0006190000000004
0
LINE
8
BLACK
6
CONTINUOUS
10
128.9473500000000001
20
-134.0006190000000004
11
128.9473500000000001
21
-135.0482379999999978
0
LINE
8
BLACK
6
CONTINUOUS
10
132.8521120000000053
20
-132.953000000000003
11
131.1378269999999873
21
-135.5244280000000003
0
LINE
8
BLACK
6
CONTINUOUS
10
135.4235410000000002
20
-133.0482379999999978
11
135.6140179999999873
21
-133.0482379999999978
0
LINE
8
BLACK
6
CONTINUOUS
10
135.6140179999999873
20
-133.0482379999999978
11
135.8044940000000054
21
-133.1434759999999926
0
LINE
8
BLACK
6
CONTINUOUS
10
135.8044940000000054
20
-133.1434759999999926
11
135.8997320000000002
21
-133.2387139999999874
0
LINE
8
BLACK
6
CONTINUOUS
10
135.8997320000000002
20
-133.2387139999999874
11
135.994969999999995
21
-133.4291900000000055
0
LINE
8
BLACK
6
CONTINUOUS
10
135.994969999999995
20
-133.4291900000000055
11
136.0902079999999899
21
-133.8101419999999848
0
LINE
8
BLACK
6
CONTINUOUS
10
136.0902079999999899
20
-133.8101419999999848
11
136.0902079999999899
21
-134.2863329999999848
0
LINE
8
BLACK
6
CONTINUOUS
10
136.0902079999999899
20
-134.2863329999999848
11
135.994969999999995
21
-134.6672849999999926
0
LINE
8
BLACK
6
CONTINUOUS
10
135.994969999999995
20
-134.6672849999999926
11
135.8997320000000002
21
-134.8577609999999822
0
LINE
8
BLACK
6
CONTINUOUS
10
135.8997320000000002
20
-134.8577609999999822
11
135.8044940000000054
21
-134.953000000000003
0
LINE
8
BLACK
6
CONTINUOUS
10
135.8044940000000054
20
-134.953000000000003
11
135.6140179999999873
21
-135.0482379999999978
0
LINE
8
BLACK
6
CONTINUOUS
10
135.6140179999999873
20
-135.0482379999999978
11
135.4235410000000002
21
-135.0482379999999978
0
LINE
8
BLACK
6
CONTINUOUS
10
135.4235410000000002
20
-135.0482379999999978
11
135.2330649999999821
21
-134.953000000000003
0
LINE
8
BLACK
6
CONTINUOUS
10
135.2330649999999821
20
-134.953000000000003
11
135.1378269999999873
21
-134.8577609999999822
0
LINE
8
BLACK
6
CONTINUOUS
10
135.1378269999999873
20
-134.8577609999999822
11
135.0425889999999924
21
-134.6672849999999926
0
LINE
8
BLACK
6
CONTINUOUS
10
135.0425889999999924
20
-134.6672849999999926
11
134.9473509999999976
21
-134.2863329999999848
0
LINE
8
BLACK
6
CONTINUOUS
10
134.9473509999999976
20
-134.2863329999999848
11
134.9473509999999976
21
-133.8101419999999848
0
LINE
8
BLACK
6
CONTINUOUS
10
134.9473509999999976
20
-133.8101419999999848
11
135.0425889999999924
21
-133.4291900000000055
0
LINE
8
BLACK
6
CONTINUOUS
10
135.0425889999999924
20
-133.4291900000000055
11
135.1378269999999873
21
-133.2387139999999874
0
LINE
8
BLACK
6
CONTINUOUS
10
135.1378269999999873
20
-133.2387139999999874
11
135.2330649999999821
21
-133.1434759999999926
0
LINE
8
BLACK
6
CONTINUOUS
10
135.2330649999999821
20
-133.1434759999999926
11
135.4235410000000002
21
-133.0482379999999978
0
LINE
8
BLACK
6
CONTINUOUS
10
136.9473509999999976
20
-134.8577609999999822
11
137.0425889999999924
21
-134.953000000000003
0
LINE
8
BLACK
6
CONTINUOUS
10
137.0425889999999924
20
-134.953000000000003
11
136.9473509999999976
21
-135.0482379999999978
0
LINE
8
BLACK
6
CONTINUOUS
10
136.9473509999999976
20
-135.0482379999999978
11
136.8521130000000028
21
-134.953000000000003
0
LINE
8
BLACK
6
CONTINUOUS
10
136.8521130000000028
20
-134.953000000000003
11
136.9473509999999976
21
-134.8577609999999822
0
LINE
8
BLACK
6
CONTINUOUS
10
136.9473509999999976
20
-134.8577609999999822
11
136.9473509999999976
21
-135.0482379999999978
0
LINE
8
BLACK
6
CONTINUOUS
10
138.2806840000000079
20
-133.0482379999999978
11
138.4711609999999951
21
-133.0482379999999978
0
LINE
8
BLACK
6
CONTINUOUS
10
138.4711609999999951
20
-133.0482379999999978
11
138.6616369999999847
21
-133.1434759999999926
0
LINE
8
BLACK
6
CONTINUOUS
10
138.6616369999999847
20
-133.1434759999999926
11
138.7568749999999795
21
-133.2387139999999874
0
LINE
8
BLACK
6
CONTINUOUS
10
138.7568749999999795
20
-133.2387139999999874
11
138.8521130000000028
21
-133.4291900000000055
0
LINE
8
BLACK
6
CONTINUOUS
10
138.8521130000000028
20
-133.4291900000000055
11
138.9473509999999976
21
-133.8101419999999848
0
LINE
8
BLACK
6
CONTINUOUS
10
138.9473509999999976
20
-133.8101419999999848
11
138.9473509999999976
21
-134.2863329999999848
0
LINE
8
BLACK
6
CONTINUOUS
10
138.9473509999999976
20
-134.2863329999999848
11
138.8521130000000028
21
-134.6672849999999926
0
LINE
8
BLACK
6
CONTINUOUS
10
138.8521130000000028
20
-134.6672849999999926
11
138.7568749999999795
21
-134.8577609999999822
0
LINE
8
BLACK
6
CONTINUOUS
10
138.7568749999999795
20
-134.8577609999999822
11
138.6616369999999847
21
-134.953000000000003
0
LINE
8
BLACK
6
CONTINUOUS
10
138.6616369999999847
20
-134.953000000000003
11
138.4711609999999951
21
-135.0482379999999978
0
LINE
8
BLACK
6
CONTINUOUS
10
138.4711609999999951
20
-135.0482379999999978
11
138.2806840000000079
21
-135.0482379999999978
0
LINE
8
BLACK
6
CONTINUOUS
10
138.2806840000000079
20
-135.0482379999999978
11
138.0902079999999899
21
-134.953000000000003
0
LINE
8
BLACK
6
CONTINUOUS
10
138.0902079999999899
20
-134.953000000000003
11
137.994969999999995
21
-134.8577609999999822
0
LINE
8
BLACK
6
CONTINUOUS
10
137.994969999999995
20
-134.8577609999999822
11
137.8997320000000002
21
-134.6672849999999926
0
LINE
8
BLACK
6
CONTINUOUS
10
137.8997320000000002
20
-134.6672849999999926
11
137.8044940000000054
21
-134.2863329999999848
0
LINE
8
BLACK
6
CONTINUOUS
10
137.8044940000000054
20
-134.2863329999999848
11
137.8044940000000054
21
-133.8101419999999848
0
LINE
8
BLACK
6
CONTINUOUS
10
137.8044940000000054
20
-133.8101419999999848
11
137.8997320000000002
21
-133.4291900000000055
0
LINE
8
BLACK
6
CONTINUOUS
10
137.8997320000000002
20
-133.4291900000000055
11
137.994969999999995
21
-133.2387139999999874
0
LINE
8
BLACK
6
CONTINUOUS
10
137.994969999999995
20
-133.2387139999999874
11
138.0902079999999899
21
-133.1434759999999926
0
LINE
8
BLACK
6
CONTINUOUS
10
138.0902079999999899
20
-133.1434759999999926
11
138.2806840000000079
21
-133.0482379999999978
0
LINE
8
BLACK
6
CONTINUOUS
10
139.6140179999999873
20
-133.0482379999999978
11
140.8521130000000028
21
-133.0482379999999978
0
LINE
8
BLACK
6
CONTINUOUS
10
140.8521130000000028
20
-133.0482379999999978
11
140.1854459999999847
21
-133.8101419999999848
0
LINE
8
BLACK
6
CONTINUOUS
10
140.1854459999999847
20
-133.8101419999999848
11
140.4711609999999951
21
-133.8101419999999848
0
LINE
8
BLACK
6
CONTINUOUS
10
140.4711609999999951
20
-133.8101419999999848
11
140.6616369999999847
21
-133.9053800000000081
0
LINE
8
BLACK
6
CONTINUOUS
10
140.6616369999999847
20
-133.9053800000000081
11
140.7568749999999795
21
-134.0006190000000004
0
LINE
8
BLACK
6
CONTINUOUS
10
140.7568749999999795
20
-134.0006190000000004
11
140.8521130000000028
21
-134.19109499999999
0
LINE
8
BLACK
6
CONTINUOUS
10
140.8521130000000028
20
-134.19109499999999
11
140.8521130000000028
21
-134.6672849999999926
0
LINE
8
BLACK
6
CONTINUOUS
10
140.8521130000000028
20
-134.6672849999999926
11
140.7568749999999795
21
-134.8577609999999822
0
LINE
8
BLACK
6
CONTINUOUS
10
140.7568749999999795
20
-134.8577609999999822
11
140.6616369999999847
21
-134.953000000000003
0
LINE
8
BLACK
6
CONTINUOUS
10
140.6616369999999847
20
-134.953000000000003
11
140.4711609999999951
21
-135.0482379999999978
0
LINE
8
BLACK
6
CONTINUOUS
10
140.4711609999999951
20
-135.0482379999999978
11
139.8997320000000002
21
-135.0482379999999978
0
LINE
8
BLACK
6
CONTINUOUS
10
139.8997320000000002
20
-135.0482379999999978
11
139.7092559999999821
21
-134.953000000000003
0
LINE
8
BLACK
6
CONTINUOUS
10
139.7092559999999821
20
-134.953000000000003
11
139.6140179999999873
21
-134.8577609999999822
0
LINE
8
BLACK
6
CONTINUOUS
10
141.8044940000000054
20
-135.0482379999999978
11
142.1854459999999847
21
-135.0482379999999978
0
LINE
8
BLACK
6
CONTINUOUS
10
142.1854459999999847
20
-135.0482379999999978
11
142.3759230000000002
21
-134.953000000000003
0
LINE
8
BLACK
6
CONTINUOUS
10
142.3759230000000002
20
-134.953000000000003
11
142.4711609999999951
21
-134.8577609999999822
0
LINE
8
BLACK
6
CONTINUOUS
10
142.4711609999999951
20
-134.8577609999999822
11
142.6616369999999847
21
-134.5720469999999978
0
LINE
8
BLACK
6
CONTINUOUS
10
142.6616369999999847
20
-134.5720469999999978
11
142.7568749999999795
21
-134.19109499999999
0
LINE
8
BLACK
6
CONTINUOUS
10
142.7568749999999795
20
-134.19109499999999
11
142.7568749999999795
21
-133.4291900000000055
0
LINE
8
BLACK
6
CONTINUOUS
10
142.7568749999999795
20
-133.4291900000000055
11
142.6616369999999847
21
-133.2387139999999874
0
LINE
8
BLACK
6
CONTINUOUS
10
142.6616369999999847
20
-133.2387139999999874
11
142.5663989999999899
21
-133.1434759999999926
0
LINE
8
BLACK
6
CONTINUOUS
10
142.5663989999999899
20
-133.1434759999999926
11
142.3759230000000002
21
-133.0482379999999978
0
LINE
8
BLACK
6
CONTINUOUS
10
142.3759230000000002
20
-133.0482379999999978
11
141.994969999999995
21
-133.0482379999999978
0
LINE
8
BLACK
6
CONTINUOUS
10
141.994969999999995
20
-133.0482379999999978
11
141.8044940000000054
21
-133.1434759999999926
0
LINE
8
BLACK
6
CONTINUOUS
10
141.8044940000000054
20
-133.1434759999999926
11
141.7092559999999821
21
-133.2387139999999874
0
LINE
8
BLACK
6
CONTINUOUS
10
141.7092559999999821
20
-133.2387139999999874
11
141.6140179999999873
21
-133.4291900000000055
0
LINE
8
BLACK
6
CONTINUOUS
10
141.6140179999999873
20
-133.4291900000000055
11
141.6140179999999873
21
-133.9053800000000081
0
LINE
8
BLACK
6
CONTINUOUS
10
141.6140179999999873
20
-133.9053800000000081
11
141.7092559999999821
21
-134.0958569999999952
0
LINE
8
BLACK
6
CONTINUOUS
10
141.7092559999999821
20
-134.0958569999999952
11
141.8044940000000054
21
-134.19109499999999
0
LINE
8
BLACK
6
CONTINUOUS
10
141.8044940000000054
20
-134.19109499999999
11
141.994969999999995
21
-134.2863329999999848
0
LINE
8
BLACK
6
CONTINUOUS
10
141.994969999999995
20
-134.2863329999999848
11
142.3759230000000002
21
-134.2863329999999848
0
LINE
8
BLACK
6
CONTINUOUS
10
142.3759230000000002
20
-134.2863329999999848
11
142.5663989999999899
21
-134.19109499999999
0
LINE
8
BLACK
6
CONTINUOUS
10
142.5663989999999899
20
-134.19109499999999
11
142.6616369999999847
21
-134.0958569999999952
0
LINE
8
BLACK
6
CONTINUOUS
10
142.6616369999999847
20
-134.0958569999999952
11
142.7568749999999795
21
-133.9053800000000081
0
LINE
8
BLACK
6
CONTINUOUS
10
144.4711609999999951
20
-133.71490399999999
11
144.4711609999999951
21
-135.0482379999999978
0
LINE
8
BLACK
6
CONTINUOUS
10
143.994969999999995
20
-132.953000000000003
11
143.5187799999999925
21
-134.3815710000000081
0
LINE
8
BLACK
6
CONTINUOUS
10
143.5187799999999925
20
-134.3815710000000081
11
144.7568749999999795
21
-134.3815710000000081
0
LINE
8
BLACK
6
CONTINUOUS
10
145.4235419999999976
20
-133.0482379999999978
11
145.4235419999999976
21
-133.4291900000000055
0
LINE
8
BLACK
6
CONTINUOUS
10
146.1854469999999822
20
-133.0482379999999978
11
146.1854469999999822
21
-133.4291900000000055
0
LINE
8
BLACK
6
CONTINUOUS
10
149.1378289999999822
20
-135.8101419999999848
11
149.0425899999999899
21
-135.71490399999999
0
LINE
8
BLACK
6
CONTINUOUS
10
149.0425899999999899
20
-135.71490399999999
11
148.8521140000000003
21
-135.4291900000000055
0
LINE
8
BLACK
6
CONTINUOUS
10
148.8521140000000003
20
-135.4291900000000055
11
148.7568760000000054
21
-135.2387139999999874
0
LINE
8
BLACK
6
CONTINUOUS
10
148.7568760000000054
20
-135.2387139999999874
11
148.6616379999999822
21
-134.953000000000003
0
LINE
8
BLACK
6
CONTINUOUS
10
148.6616379999999822
20
-134.953000000000003
11
148.5663999999999874
21
-134.4768090000000029
0
LINE
8
BLACK
6
CONTINUOUS
10
148.5663999999999874
20
-134.4768090000000029
11
148.5663999999999874
21
-134.0958569999999952
0
LINE
8
BLACK
6
CONTINUOUS
10
148.5663999999999874
20
-134.0958569999999952
11
148.6616379999999822
21
-133.6196659999999952
0
LINE
8
BLACK
6
CONTINUOUS
10
148.6616379999999822
20
-133.6196659999999952
11
148.7568760000000054
21
-133.3339519999999823
0
LINE
8
BLACK
6
CONTINUOUS
10
148.7568760000000054
20
-133.3339519999999823
11
148.8521140000000003
21
-133.1434759999999926
0
LINE
8
BLACK
6
CONTINUOUS
10
148.8521140000000003
20
-133.1434759999999926
11
149.0425899999999899
21
-132.8577609999999822
0
LINE
8
BLACK
6
CONTINUOUS
10
149.0425899999999899
20
-132.8577609999999822
11
149.1378289999999822
21
-132.7625229999999874
0
LINE
8
BLACK
6
CONTINUOUS
10
149.8044950000000028
20
-133.2387139999999874
11
149.8997329999999977
21
-133.1434759999999926
0
LINE
8
BLACK
6
CONTINUOUS
10
149.8997329999999977
20
-133.1434759999999926
11
150.0902089999999873
21
-133.0482379999999978
0
LINE
8
BLACK
6
CONTINUOUS
10
150.0902089999999873
20
-133.0482379999999978
11
150.5663999999999874
21
-133.0482379999999978
0
LINE
8
BLACK
6
CONTINUOUS
10
150.5663999999999874
20
-133.0482379999999978
11
150.7568760000000054
21
-133.1434759999999926
0
LINE
8
BLACK
6
CONTINUOUS
10
150.7568760000000054
20
-133.1434759999999926
11
150.8521140000000003
21
-133.2387139999999874
0
LINE
8
BLACK
6
CONTINUOUS
10
150.8521140000000003
20
-133.2387139999999874
11
150.9473519999999951
21
-133.4291900000000055
0
LINE
8
BLACK
6
CONTINUOUS
10
150.9473519999999951
20
-133.4291900000000055
11
150.9473519999999951
21
-133.6196659999999952
0
LINE
8
BLACK
6
CONTINUOUS
10
150.9473519999999951
20
-133.6196659999999952
11
150.8521140000000003
21
-133.9053800000000081
0
LINE
8
BLACK
6
CONTINUOUS
10
150.8521140000000003
20
-133.9053800000000081
11
149.7092569999999796
21
-135.0482379999999978
0
LINE
8
BLACK
6
CONTINUOUS
10
149.7092569999999796
20
-135.0482379999999978
11
150.9473519999999951
21
-135.0482379999999978
0
LINE
8
BLACK
6
CONTINUOUS
10
151.6140189999999848
20
-133.0482379999999978
11
152.8521140000000003
21
-133.0482379999999978
0
LINE
8
BLACK
6
CONTINUOUS
10
152.8521140000000003
20
-133.0482379999999978
11
152.1854469999999822
21
-133.8101419999999848
0
LINE
8
BLACK
6
CONTINUOUS
10
152.1854469999999822
20
-133.8101419999999848
11
152.4711619999999925
21
-133.8101419999999848
0
LINE
8
BLACK
6
CONTINUOUS
10
152.4711619999999925
20
-133.8101419999999848
11
152.6616379999999822
21
-133.9053800000000081
0
LINE
8
BLACK
6
CONTINUOUS
10
152.6616379999999822
20
-133.9053800000000081
11
152.7568760000000054
21
-134.0006190000000004
0
LINE
8
BLACK
6
CONTINUOUS
10
152.7568760000000054
20
-134.0006190000000004
11
152.8521140000000003
21
-134.19109499999999
0
LINE
8
BLACK
6
CONTINUOUS
10
152.8521140000000003
20
-134.19109499999999
11
152.8521140000000003
21
-134.6672849999999926
0
LINE
8
BLACK
6
CONTINUOUS
10
152.8521140000000003
20
-134.6672849999999926
11
152.7568760000000054
21
-134.8577609999999822
0
LINE
8
BLACK
6
CONTINUOUS
10
152.7568760000000054
20
-134.8577609999999822
11
152.6616379999999822
21
-134.953000000000003
0
LINE
8
BLACK
6
CONTINUOUS
10
152.6616379999999822
20
-134.953000000000003
11
152.4711619999999925
21
-135.0482379999999978
0
LINE
8
BLACK
6
CONTINUOUS
10
152.4711619999999925
20
-135.0482379999999978
11
151.8997329999999977
21
-135.0482379999999978
0
LINE
8
BLACK
6
CONTINUOUS
10
151.8997329999999977
20
-135.0482379999999978
11
151.7092569999999796
21
-134.953000000000003
0
LINE
8
BLACK
6
CONTINUOUS
10
151.7092569999999796
20
-134.953000000000003
11
151.6140189999999848
21
-134.8577609999999822
0
LINE
8
BLACK
6
CONTINUOUS
10
155.2330670000000055
20
-135.0482379999999978
11
155.2330670000000055
21
-133.0482379999999978
0
LINE
8
BLACK
6
CONTINUOUS
10
156.0902099999999848
20
-135.0482379999999978
11
156.0902099999999848
21
-134.0006190000000004
0
LINE
8
BLACK
6
CONTINUOUS
10
156.0902099999999848
20
-134.0006190000000004
11
155.99497199999999
21
-133.8101419999999848
0
LINE
8
BLACK
6
CONTINUOUS
10
155.99497199999999
20
-133.8101419999999848
11
155.8044960000000003
21
-133.71490399999999
0
LINE
8
BLACK
6
CONTINUOUS
10
155.8044960000000003
20
-133.71490399999999
11
155.5187809999999899
21
-133.71490399999999
0
LINE
8
BLACK
6
CONTINUOUS
10
155.5187809999999899
20
-133.71490399999999
11
155.3283050000000003
21
-133.8101419999999848
0
LINE
8
BLACK
6
CONTINUOUS
10
155.3283050000000003
20
-133.8101419999999848
11
155.2330670000000055
21
-133.9053800000000081
0
LINE
8
BLACK
6
CONTINUOUS
10
157.3283050000000003
20
-135.0482379999999978
11
157.1378289999999822
21
-134.953000000000003
0
LINE
8
BLACK
6
CONTINUOUS
10
157.1378289999999822
20
-134.953000000000003
11
157.0425909999999874
21
-134.8577609999999822
0
LINE
8
BLACK
6
CONTINUOUS
10
157.0425909999999874
20
-134.8577609999999822
11
156.9473529999999926
21
-134.6672849999999926
0
LINE
8
BLACK
6
CONTINUOUS
10
156.9473529999999926
20
-134.6672849999999926
11
156.9473529999999926
21
-134.0958569999999952
0
LINE
8
BLACK
6
CONTINUOUS
10
156.9473529999999926
20
-134.0958569999999952
11
157.0425909999999874
21
-133.9053800000000081
0
LINE
8
BLACK
6
CONTINUOUS
10
157.0425909999999874
20
-133.9053800000000081
11
157.1378289999999822
21
-133.8101419999999848
0
LINE
8
BLACK
6
CONTINUOUS
10
157.1378289999999822
20
-133.8101419999999848
11
157.3283050000000003
21
-133.71490399999999
0
LINE
8
BLACK
6
CONTINUOUS
10
157.3283050000000003
20
-133.71490399999999
11
157.6140199999999822
21
-133.71490399999999
0
LINE
8
BLACK
6
CONTINUOUS
10
157.6140199999999822
20
-133.71490399999999
11
157.8044960000000003
21
-133.8101419999999848
0
LINE
8
BLACK
6
CONTINUOUS
10
157.8044960000000003
20
-133.8101419999999848
11
157.8997339999999951
21
-133.9053800000000081
0
LINE
8
BLACK
6
CONTINUOUS
10
157.8997339999999951
20
-133.9053800000000081
11
157.99497199999999
21
-134.0958569999999952
0
LINE
8
BLACK
6
CONTINUOUS
10
157.99497199999999
20
-134.0958569999999952
11
157.99497199999999
21
-134.6672849999999926
0
LINE
8
BLACK
6
CONTINUOUS
10
157.99497199999999
20
-134.6672849999999926
11
157.8997339999999951
21
-134.8577609999999822
0
LINE
8
BLACK
6
CONTINUOUS
10
157.8997339999999951
20
-134.8577609999999822
11
157.8044960000000003
21
-134.953000000000003
0
LINE
8
BLACK
6
CONTINUOUS
10
157.8044960000000003
20
-134.953000000000003
11
157.6140199999999822
21
-135.0482379999999978
0
LINE
8
BLACK
6
CONTINUOUS
10
157.6140199999999822
20
-135.0482379999999978
11
157.3283050000000003
21
-135.0482379999999978
0
LINE
8
BLACK
6
CONTINUOUS
10
159.1378289999999822
20
-135.0482379999999978
11
158.9473529999999926
21
-134.953000000000003
0
LINE
8
BLACK
6
CONTINUOUS
10
158.9473529999999926
20
-134.953000000000003
11
158.8521149999999977
21
-134.7625229999999874
0
LINE
8
BLACK
6
CONTINUOUS
10
158.8521149999999977
20
-134.7625229999999874
11
158.8521149999999977
21
-133.0482379999999978
0
LINE
8
BLACK
6
CONTINUOUS
10
160.6616389999999797
20
-134.953000000000003
11
160.47116299999999
21
-135.0482379999999978
0
LINE
8
BLACK
6
CONTINUOUS
10
160.47116299999999
20
-135.0482379999999978
11
160.0902099999999848
21
-135.0482379999999978
0
LINE
8
BLACK
6
CONTINUOUS
10
160.0902099999999848
20
-135.0482379999999978
11
159.8997339999999951
21
-134.953000000000003
0
LINE
8
BLACK
6
CONTINUOUS
10
159.8997339999999951
20
-134.953000000000003
11
159.8044960000000003
21
-134.7625229999999874
0
LINE
8
BLACK
6
CONTINUOUS
10
159.8044960000000003
20
-134.7625229999999874
11
159.8044960000000003
21
-134.0006190000000004
0
LINE
8
BLACK
6
CONTINUOUS
10
159.8044960000000003
20
-134.0006190000000004
11
159.8997339999999951
21
-133.8101419999999848
0
LINE
8
BLACK
6
CONTINUOUS
10
159.8997339999999951
20
-133.8101419999999848
11
160.0902099999999848
21
-133.71490399999999
0
LINE
8
BLACK
6
CONTINUOUS
10
160.0902099999999848
20
-133.71490399999999
11
160.47116299999999
21
-133.71490399999999
0
LINE
8
BLACK
6
CONTINUOUS
10
160.47116299999999
20
-133.71490399999999
11
160.6616389999999797
21
-133.8101419999999848
0
LINE
8
BLACK
6
CONTINUOUS
10
160.6616389999999797
20
-133.8101419999999848
11
160.7568770000000029
21
-134.0006190000000004
0
LINE
8
BLACK
6
CONTINUOUS
10
160.7568770000000029
20
-134.0006190000000004
11
160.7568770000000029
21
-134.19109499999999
0
LINE
8
BLACK
6
CONTINUOUS
10
160.7568770000000029
20
-134.19109499999999
11
159.8044960000000003
21
-134.3815710000000081
0
LINE
8
BLACK
6
CONTINUOUS
10
161.5187819999999874
20
-134.953000000000003
11
161.7092580000000055
21
-135.0482379999999978
0
LINE
8
BLACK
6
CONTINUOUS
10
161.7092580000000055
20
-135.0482379999999978
11
162.0902099999999848
21
-135.0482379999999978
0
LINE
8
BLACK
6
CONTINUOUS
10
162.0902099999999848
20
-135.0482379999999978
11
162.2806870000000004
21
-134.953000000000003
0
LINE
8
BLACK
6
CONTINUOUS
10
162.2806870000000004
20
-134.953000000000003
11
162.3759249999999952
21
-134.7625229999999874
0
LINE
8
BLACK
6
CONTINUOUS
10
162.3759249999999952
20
-134.7625229999999874
11
162.3759249999999952
21
-134.6672849999999926
0
LINE
8
BLACK
6
CONTINUOUS
10
162.3759249999999952
20
-134.6672849999999926
11
162.2806870000000004
21
-134.4768090000000029
0
LINE
8
BLACK
6
CONTINUOUS
10
162.2806870000000004
20
-134.4768090000000029
11
162.0902099999999848
21
-134.3815710000000081
0
LINE
8
BLACK
6
CONTINUOUS
10
162.0902099999999848
20
-134.3815710000000081
11
161.8044960000000003
21
-134.3815710000000081
0
LINE
8
BLACK
6
CONTINUOUS
10
161.8044960000000003
20
-134.3815710000000081
11
161.6140199999999822
21
-134.2863329999999848
0
LINE
8
BLACK
6
CONTINUOUS
10
161.6140199999999822
20
-134.2863329999999848
11
161.5187819999999874
21
-134.0958569999999952
0
LINE
8
BLACK
6
CONTINUOUS
10
161.5187819999999874
20
-134.0958569999999952
11
161.5187819999999874
21
-134.0006190000000004
0
LINE
8
BLACK
6
CONTINUOUS
10
161.5187819999999874
20
-134.0006190000000004
11
161.6140199999999822
21
-133.8101419999999848
0
LINE
8
BLACK
6
CONTINUOUS
10
161.6140199999999822
20
-133.8101419999999848
11
161.8044960000000003
21
-133.71490399999999
0
LINE
8
BLACK
6
CONTINUOUS
10
161.8044960000000003
20
-133.71490399999999
11
162.0902099999999848
21
-133.71490399999999
0
LINE
8
BLACK
6
CONTINUOUS
10
162.0902099999999848
20
-133.71490399999999
11
162.2806870000000004
21
-133.8101419999999848
0
LINE
8
BLACK
6
CONTINUOUS
10
163.0425919999999849
20
-135.8101419999999848
11
163.1378299999999797
21
-135.71490399999999
0
LINE
8
BLACK
6
CONTINUOUS
10
163.1378299999999797
20
-135.71490399999999
11
163.3283059999999978
21
-135.4291900000000055
0
LINE
8
BLACK
6
CONTINUOUS
10
163.3283059999999978
20
-135.4291900000000055
11
163.4235439999999926
21
-135.2387139999999874
0
LINE
8
BLACK
6
CONTINUOUS
10
163.4235439999999926
20
-135.2387139999999874
11
163.5187819999999874
21
-134.953000000000003
0
LINE
8
BLACK
6
CONTINUOUS
10
163.5187819999999874
20
-134.953000000000003
11
163.6140199999999822
21
-134.4768090000000029
0
LINE
8
BLACK
6
CONTINUOUS
10
163.6140199999999822
20
-134.4768090000000029
11
163.6140199999999822
21
-134.0958569999999952
0
LINE
8
BLACK
6
CONTINUOUS
10
163.6140199999999822
20
-134.0958569999999952
11
163.5187819999999874
21
-133.6196659999999952
0
LINE
8
BLACK
6
CONTINUOUS
10
163.5187819999999874
20
-133.6196659999999952
11
163.4235439999999926
21
-133.3339519999999823
0
LINE
8
BLACK
6
CONTINUOUS
10
163.4235439999999926
20
-133.3339519999999823
11
163.3283059999999978
21
-133.1434759999999926
0
LINE
8
BLACK
6
CONTINUOUS
10
163.3283059999999978
20
-133.1434759999999926
11
163.1378299999999797
21
-132.8577609999999822
0
LINE
8
BLACK
6
CONTINUOUS
10
163.1378299999999797
20
-132.8577609999999822
11
163.0425919999999849
21
-132.7625229999999874
0
LINE
8
BLACK
6
CONTINUOUS
10
112.68719999999999
20
-136.0733999999999924
11
112.68719999999999
21
-137.473399999999998
0
LINE
8
BLACK
6
CONTINUOUS
10
111.9872000000000014
20
-136.773399999999981
11
113.3871999999999929
21
-136.773399999999981
0
LINE
8
BLACK
6
CONTINUOUS
10
117.0425869999999975
20
-137.6882379999999841
11
115.899729999999991
21
-137.6882379999999841
0
LINE
8
BLACK
6
CONTINUOUS
10
116.4711579999999884
20
-137.6882379999999841
11
116.4711579999999884
21
-135.6882379999999841
0
LINE
8
BLACK
6
CONTINUOUS
10
116.4711579999999884
20
-135.6882379999999841
11
116.2806819999999988
21
-135.973951999999997
0
LINE
8
BLACK
6
CONTINUOUS
10
116.2806819999999988
20
-135.973951999999997
11
116.0902059999999949
21
-136.1644279999999867
0
LINE
8
BLACK
6
CONTINUOUS
10
116.0902059999999949
20
-136.1644279999999867
11
115.899729999999991
21
-136.2596659999999815
0
LINE
8
BLACK
6
CONTINUOUS
10
117.899729999999991
20
-137.497760999999997
11
117.9949680000000001
21
-137.5929999999999893
0
LINE
8
BLACK
6
CONTINUOUS
10
117.9949680000000001
20
-137.5929999999999893
11
117.899729999999991
21
-137.6882379999999841
0
LINE
8
BLACK
6
CONTINUOUS
10
117.899729999999991
20
-137.6882379999999841
11
117.8044919999999962
21
-137.5929999999999893
0
LINE
8
BLACK
6
CONTINUOUS
10
117.8044919999999962
20
-137.5929999999999893
11
117.899729999999991
21
-137.497760999999997
0
LINE
8
BLACK
6
CONTINUOUS
10
117.899729999999991
20
-137.497760999999997
11
117.899729999999991
21
-137.6882379999999841
0
LINE
8
BLACK
6
CONTINUOUS
10
119.7092540000000014
20
-136.3549040000000048
11
119.7092540000000014
21
-137.6882379999999841
0
LINE
8
BLACK
6
CONTINUOUS
10
119.2330630000000014
20
-135.5929999999999893
11
118.7568729999999988
21
-137.0215709999999945
0
LINE
8
BLACK
6
CONTINUOUS
10
118.7568729999999988
20
-137.0215709999999945
11
119.9949680000000001
21
-137.0215709999999945
0
LINE
8
BLACK
6
CONTINUOUS
10
121.1378249999999923
20
-135.6882379999999841
11
121.3283019999999937
21
-135.6882379999999841
0
LINE
8
BLACK
6
CONTINUOUS
10
121.3283019999999937
20
-135.6882379999999841
11
121.5187779999999975
21
-135.7834760000000074
0
LINE
8
BLACK
6
CONTINUOUS
10
121.5187779999999975
20
-135.7834760000000074
11
121.6140159999999923
21
-135.8787140000000022
0
LINE
8
BLACK
6
CONTINUOUS
10
121.6140159999999923
20
-135.8787140000000022
11
121.7092540000000014
21
-136.0691899999999919
0
LINE
8
BLACK
6
CONTINUOUS
10
121.7092540000000014
20
-136.0691899999999919
11
121.8044919999999962
21
-136.4501419999999996
0
LINE
8
BLACK
6
CONTINUOUS
10
121.8044919999999962
20
-136.4501419999999996
11
121.8044919999999962
21
-136.9263329999999996
0
LINE
8
BLACK
6
CONTINUOUS
10
121.8044919999999962
20
-136.9263329999999996
11
121.7092540000000014
21
-137.3072850000000074
0
LINE
8
BLACK
6
CONTINUOUS
10
121.7092540000000014
20
-137.3072850000000074
11
121.6140159999999923
21
-137.497760999999997
0
LINE
8
BLACK
6
CONTINUOUS
10
121.6140159999999923
20
-137.497760999999997
11
121.5187779999999975
21
-137.5929999999999893
0
LINE
8
BLACK
6
CONTINUOUS
10
121.5187779999999975
20
-137.5929999999999893
11
121.3283019999999937
21
-137.6882379999999841
0
LINE
8
BLACK
6
CONTINUOUS
10
121.3283019999999937
20
-137.6882379999999841
11
121.1378249999999923
21
-137.6882379999999841
0
LINE
8
BLACK
6
CONTINUOUS
10
121.1378249999999923
20
-137.6882379999999841
11
120.9473489999999885
21
-137.5929999999999893
0
LINE
8
BLACK
6
CONTINUOUS
10
120.9473489999999885
20
-137.5929999999999893
11
120.8521109999999936
21
-137.497760999999997
0
LINE
8
BLACK
6
CONTINUOUS
10
120.8521109999999936
20
-137.497760999999997
11
120.7568729999999988
21
-137.3072850000000074
0
LINE
8
BLACK
6
CONTINUOUS
10
120.7568729999999988
20
-137.3072850000000074
11
120.6616349999999898
21
-136.9263329999999996
0
LINE
8
BLACK
6
CONTINUOUS
10
120.6616349999999898
20
-136.9263329999999996
11
120.6616349999999898
21
-136.4501419999999996
0
LINE
8
BLACK
6
CONTINUOUS
10
120.6616349999999898
20
-136.4501419999999996
11
120.7568729999999988
21
-136.0691899999999919
0
LINE
8
BLACK
6
CONTINUOUS
10
120.7568729999999988
20
-136.0691899999999919
11
120.8521109999999936
21
-135.8787140000000022
0
LINE
8
BLACK
6
CONTINUOUS
10
120.8521109999999936
20
-135.8787140000000022
11
120.9473489999999885
21
-135.7834760000000074
0
LINE
8
BLACK
6
CONTINUOUS
10
120.9473489999999885
20
-135.7834760000000074
11
121.1378249999999923
21
-135.6882379999999841
0
LINE
8
BLACK
6
CONTINUOUS
10
123.0425869999999975
20
-135.6882379999999841
11
123.2330639999999988
21
-135.6882379999999841
0
LINE
8
BLACK
6
CONTINUOUS
10
123.2330639999999988
20
-135.6882379999999841
11
123.4235399999999885
21
-135.7834760000000074
0
LINE
8
BLACK
6
CONTINUOUS
10
123.4235399999999885
20
-135.7834760000000074
11
123.5187779999999975
21
-135.8787140000000022
0
LINE
8
BLACK
6
CONTINUOUS
10
123.5187779999999975
20
-135.8787140000000022
11
123.6140159999999923
21
-136.0691899999999919
0
LINE
8
BLACK
6
CONTINUOUS
10
123.6140159999999923
20
-136.0691899999999919
11
123.7092540000000014
21
-136.4501419999999996
0
LINE
8
BLACK
6
CONTINUOUS
10
123.7092540000000014
20
-136.4501419999999996
11
123.7092540000000014
21
-136.9263329999999996
0
LINE
8
BLACK
6
CONTINUOUS
10
123.7092540000000014
20
-136.9263329999999996
11
123.6140159999999923
21
-137.3072850000000074
0
LINE
8
BLACK
6
CONTINUOUS
10
123.6140159999999923
20
-137.3072850000000074
11
123.5187779999999975
21
-137.497760999999997
0
LINE
8
BLACK
6
CONTINUOUS
10
123.5187779999999975
20
-137.497760999999997
11
123.4235399999999885
21
-137.5929999999999893
0
LINE
8
BLACK
6
CONTINUOUS
10
123.4235399999999885
20
-137.5929999999999893
11
123.2330639999999988
21
-137.6882379999999841
0
LINE
8
BLACK
6
CONTINUOUS
10
123.2330639999999988
20
-137.6882379999999841
11
123.0425869999999975
21
-137.6882379999999841
0
LINE
8
BLACK
6
CONTINUOUS
10
123.0425869999999975
20
-137.6882379999999841
11
122.8521109999999936
21
-137.5929999999999893
0
LINE
8
BLACK
6
CONTINUOUS
10
122.8521109999999936
20
-137.5929999999999893
11
122.7568729999999988
21
-137.497760999999997
0
LINE
8
BLACK
6
CONTINUOUS
10
122.7568729999999988
20
-137.497760999999997
11
122.6616349999999898
21
-137.3072850000000074
0
LINE
8
BLACK
6
CONTINUOUS
10
122.6616349999999898
20
-137.3072850000000074
11
122.5663969999999949
21
-136.9263329999999996
0
LINE
8
BLACK
6
CONTINUOUS
10
122.5663969999999949
20
-136.9263329999999996
11
122.5663969999999949
21
-136.4501419999999996
0
LINE
8
BLACK
6
CONTINUOUS
10
122.5663969999999949
20
-136.4501419999999996
11
122.6616349999999898
21
-136.0691899999999919
0
LINE
8
BLACK
6
CONTINUOUS
10
122.6616349999999898
20
-136.0691899999999919
11
122.7568729999999988
21
-135.8787140000000022
0
LINE
8
BLACK
6
CONTINUOUS
10
122.7568729999999988
20
-135.8787140000000022
11
122.8521109999999936
21
-135.7834760000000074
0
LINE
8
BLACK
6
CONTINUOUS
10
122.8521109999999936
20
-135.7834760000000074
11
123.0425869999999975
21
-135.6882379999999841
0
LINE
8
BLACK
6
CONTINUOUS
10
124.5663969999999949
20
-137.6882379999999841
11
124.5663969999999949
21
-136.3549040000000048
0
LINE
8
BLACK
6
CONTINUOUS
10
124.5663969999999949
20
-136.5453799999999944
11
124.6616349999999898
21
-136.4501419999999996
0
LINE
8
BLACK
6
CONTINUOUS
10
124.6616349999999898
20
-136.4501419999999996
11
124.8521109999999936
21
-136.3549040000000048
0
LINE
8
BLACK
6
CONTINUOUS
10
124.8521109999999936
20
-136.3549040000000048
11
125.1378259999999898
21
-136.3549040000000048
0
LINE
8
BLACK
6
CONTINUOUS
10
125.1378259999999898
20
-136.3549040000000048
11
125.3283019999999937
21
-136.4501419999999996
0
LINE
8
BLACK
6
CONTINUOUS
10
125.3283019999999937
20
-136.4501419999999996
11
125.4235399999999885
21
-136.6406189999999867
0
LINE
8
BLACK
6
CONTINUOUS
10
125.4235399999999885
20
-136.6406189999999867
11
125.4235399999999885
21
-137.6882379999999841
0
LINE
8
BLACK
6
CONTINUOUS
10
125.4235399999999885
20
-136.6406189999999867
11
125.5187779999999975
21
-136.4501419999999996
0
LINE
8
BLACK
6
CONTINUOUS
10
125.5187779999999975
20
-136.4501419999999996
11
125.7092540000000014
21
-136.3549040000000048
0
LINE
8
BLACK
6
CONTINUOUS
10
125.7092540000000014
20
-136.3549040000000048
11
125.9949680000000001
21
-136.3549040000000048
0
LINE
8
BLACK
6
CONTINUOUS
10
125.9949680000000001
20
-136.3549040000000048
11
126.1854449999999872
21
-136.4501419999999996
0
LINE
8
BLACK
6
CONTINUOUS
10
126.1854449999999872
20
-136.4501419999999996
11
126.2806829999999962
21
-136.6406189999999867
0
LINE
8
BLACK
6
CONTINUOUS
10
126.2806829999999962
20
-136.6406189999999867
11
126.2806829999999962
21
-137.6882379999999841
0
LINE
8
BLACK
6
CONTINUOUS
10
127.2330639999999988
20
-137.6882379999999841
11
127.2330639999999988
21
-136.3549040000000048
0
LINE
8
BLACK
6
CONTINUOUS
10
127.2330639999999988
20
-136.5453799999999944
11
127.3283019999999937
21
-136.4501419999999996
0
LINE
8
BLACK
6
CONTINUOUS
10
127.3283019999999937
20
-136.4501419999999996
11
127.5187779999999975
21
-136.3549040000000048
0
LINE
8
BLACK
6
CONTINUOUS
10
127.5187779999999975
20
-136.3549040000000048
11
127.8044929999999937
21
-136.3549040000000048
0
LINE
8
BLACK
6
CONTINUOUS
10
127.8044929999999937
20
-136.3549040000000048
11
127.9949689999999975
21
-136.4501419999999996
0
LINE
8
BLACK
6
CONTINUOUS
10
127.9949689999999975
20
-136.4501419999999996
11
128.0902069999999924
21
-136.6406189999999867
0
LINE
8
BLACK
6
CONTINUOUS
10
128.0902069999999924
20
-136.6406189999999867
11
128.0902069999999924
21
-137.6882379999999841
0
LINE
8
BLACK
6
CONTINUOUS
10
128.0902069999999924
20
-136.6406189999999867
11
128.1854449999999872
21
-136.4501419999999996
0
LINE
8
BLACK
6
CONTINUOUS
10
128.1854449999999872
20
-136.4501419999999996
11
128.3759210000000053
21
-136.3549040000000048
0
LINE
8
BLACK
6
CONTINUOUS
10
128.3759210000000053
20
-136.3549040000000048
11
128.6616349999999898
21
-136.3549040000000048
0
LINE
8
BLACK
6
CONTINUOUS
10
128.6616349999999898
20
-136.3549040000000048
11
128.8521120000000053
21
-136.4501419999999996
0
LINE
8
BLACK
6
CONTINUOUS
10
128.8521120000000053
20
-136.4501419999999996
11
128.9473500000000001
21
-136.6406189999999867
0
LINE
8
BLACK
6
CONTINUOUS
10
128.9473500000000001
20
-136.6406189999999867
11
128.9473500000000001
21
-137.6882379999999841
0
LINE
8
BLACK
6
CONTINUOUS
10
132.8521120000000053
20
-135.5929999999999893
11
131.1378269999999873
21
-138.1644279999999867
0
LINE
8
BLACK
6
CONTINUOUS
10
135.4235410000000002
20
-135.6882379999999841
11
135.6140179999999873
21
-135.6882379999999841
0
LINE
8
BLACK
6
CONTINUOUS
10
135.6140179999999873
20
-135.6882379999999841
11
135.8044940000000054
21
-135.7834760000000074
0
LINE
8
BLACK
6
CONTINUOUS
10
135.8044940000000054
20
-135.7834760000000074
11
135.8997320000000002
21
-135.8787140000000022
0
LINE
8
BLACK
6
CONTINUOUS
10
135.8997320000000002
20
-135.8787140000000022
11
135.994969999999995
21
-136.0691899999999919
0
LINE
8
BLACK
6
CONTINUOUS
10
135.994969999999995
20
-136.0691899999999919
11
136.0902079999999899
21
-136.4501419999999996
0
LINE
8
BLACK
6
CONTINUOUS
10
136.0902079999999899
20
-136.4501419999999996
11
136.0902079999999899
21
-136.9263329999999996
0
LINE
8
BLACK
6
CONTINUOUS
10
136.0902079999999899
20
-136.9263329999999996
11
135.994969999999995
21
-137.3072850000000074
0
LINE
8
BLACK
6
CONTINUOUS
10
135.994969999999995
20
-137.3072850000000074
11
135.8997320000000002
21
-137.497760999999997
0
LINE
8
BLACK
6
CONTINUOUS
10
135.8997320000000002
20
-137.497760999999997
11
135.8044940000000054
21
-137.5929999999999893
0
LINE
8
BLACK
6
CONTINUOUS
10
135.8044940000000054
20
-137.5929999999999893
11
135.6140179999999873
21
-137.6882379999999841
0
LINE
8
BLACK
6
CONTINUOUS
10
135.6140179999999873
20
-137.6882379999999841
11
135.4235410000000002
21
-137.6882379999999841
0
LINE
8
BLACK
6
CONTINUOUS
10
135.4235410000000002
20
-137.6882379999999841
11
135.2330649999999821
21
-137.5929999999999893
0
LINE
8
BLACK
6
CONTINUOUS
10
135.2330649999999821
20
-137.5929999999999893
11
135.1378269999999873
21
-137.497760999999997
0
LINE
8
BLACK
6
CONTINUOUS
10
135.1378269999999873
20
-137.497760999999997
11
135.0425889999999924
21
-137.3072850000000074
0
LINE
8
BLACK
6
CONTINUOUS
10
135.0425889999999924
20
-137.3072850000000074
11
134.9473509999999976
21
-136.9263329999999996
0
LINE
8
BLACK
6
CONTINUOUS
10
134.9473509999999976
20
-136.9263329999999996
11
134.9473509999999976
21
-136.4501419999999996
0
LINE
8
BLACK
6
CONTINUOUS
10
134.9473509999999976
20
-136.4501419999999996
11
135.0425889999999924
21
-136.0691899999999919
0
LINE
8
BLACK
6
CONTINUOUS
10
135.0425889999999924
20
-136.0691899999999919
11
135.1378269999999873
21
-135.8787140000000022
0
LINE
8
BLACK
6
CONTINUOUS
10
135.1378269999999873
20
-135.8787140000000022
11
135.2330649999999821
21
-135.7834760000000074
0
LINE
8
BLACK
6
CONTINUOUS
10
135.2330649999999821
20
-135.7834760000000074
11
135.4235410000000002
21
-135.6882379999999841
0
LINE
8
BLACK
6
CONTINUOUS
10
136.9473509999999976
20
-137.497760999999997
11
137.0425889999999924
21
-137.5929999999999893
0
LINE
8
BLACK
6
CONTINUOUS
10
137.0425889999999924
20
-137.5929999999999893
11
136.9473509999999976
21
-137.6882379999999841
0
LINE
8
BLACK
6
CONTINUOUS
10
136.9473509999999976
20
-137.6882379999999841
11
136.8521130000000028
21
-137.5929999999999893
0
LINE
8
BLACK
6
CONTINUOUS
10
136.8521130000000028
20
-137.5929999999999893
11
136.9473509999999976
21
-137.497760999999997
0
LINE
8
BLACK
6
CONTINUOUS
10
136.9473509999999976
20
-137.497760999999997
11
136.9473509999999976
21
-137.6882379999999841
0
LINE
8
BLACK
6
CONTINUOUS
10
138.2806840000000079
20
-135.6882379999999841
11
138.4711609999999951
21
-135.6882379999999841
0
LINE
8
BLACK
6
CONTINUOUS
10
138.4711609999999951
20
-135.6882379999999841
11
138.6616369999999847
21
-135.7834760000000074
0
LINE
8
BLACK
6
CONTINUOUS
10
138.6616369999999847
20
-135.7834760000000074
11
138.7568749999999795
21
-135.8787140000000022
0
LINE
8
BLACK
6
CONTINUOUS
10
138.7568749999999795
20
-135.8787140000000022
11
138.8521130000000028
21
-136.0691899999999919
0
LINE
8
BLACK
6
CONTINUOUS
10
138.8521130000000028
20
-136.0691899999999919
11
138.9473509999999976
21
-136.4501419999999996
0
LINE
8
BLACK
6
CONTINUOUS
10
138.9473509999999976
20
-136.4501419999999996
11
138.9473509999999976
21
-136.9263329999999996
0
LINE
8
BLACK
6
CONTINUOUS
10
138.9473509999999976
20
-136.9263329999999996
11
138.8521130000000028
21
-137.3072850000000074
0
LINE
8
BLACK
6
CONTINUOUS
10
138.8521130000000028
20
-137.3072850000000074
11
138.7568749999999795
21
-137.497760999999997
0
LINE
8
BLACK
6
CONTINUOUS
10
138.7568749999999795
20
-137.497760999999997
11
138.6616369999999847
21
-137.5929999999999893
0
LINE
8
BLACK
6
CONTINUOUS
10
138.6616369999999847
20
-137.5929999999999893
11
138.4711609999999951
21
-137.6882379999999841
0
LINE
8
BLACK
6
CONTINUOUS
10
138.4711609999999951
20
-137.6882379999999841
11
138.2806840000000079
21
-137.6882379999999841
0
LINE
8
BLACK
6
CONTINUOUS
10
138.2806840000000079
20
-137.6882379999999841
11
138.0902079999999899
21
-137.5929999999999893
0
LINE
8
BLACK
6
CONTINUOUS
10
138.0902079999999899
20
-137.5929999999999893
11
137.994969999999995
21
-137.497760999999997
0
LINE
8
BLACK
6
CONTINUOUS
10
137.994969999999995
20
-137.497760999999997
11
137.8997320000000002
21
-137.3072850000000074
0
LINE
8
BLACK
6
CONTINUOUS
10
137.8997320000000002
20
-137.3072850000000074
11
137.8044940000000054
21
-136.9263329999999996
0
LINE
8
BLACK
6
CONTINUOUS
10
137.8044940000000054
20
-136.9263329999999996
11
137.8044940000000054
21
-136.4501419999999996
0
LINE
8
BLACK
6
CONTINUOUS
10
137.8044940000000054
20
-136.4501419999999996
11
137.8997320000000002
21
-136.0691899999999919
0
LINE
8
BLACK
6
CONTINUOUS
10
137.8997320000000002
20
-136.0691899999999919
11
137.994969999999995
21
-135.8787140000000022
0
LINE
8
BLACK
6
CONTINUOUS
10
137.994969999999995
20
-135.8787140000000022
11
138.0902079999999899
21
-135.7834760000000074
0
LINE
8
BLACK
6
CONTINUOUS
10
138.0902079999999899
20
-135.7834760000000074
11
138.2806840000000079
21
-135.6882379999999841
0
LINE
8
BLACK
6
CONTINUOUS
10
140.7568749999999795
20
-135.6882379999999841
11
139.8044940000000054
21
-135.6882379999999841
0
LINE
8
BLACK
6
CONTINUOUS
10
139.8044940000000054
20
-135.6882379999999841
11
139.7092559999999821
21
-136.6406189999999867
0
LINE
8
BLACK
6
CONTINUOUS
10
139.7092559999999821
20
-136.6406189999999867
11
139.8044940000000054
21
-136.5453799999999944
0
LINE
8
BLACK
6
CONTINUOUS
10
139.8044940000000054
20
-136.5453799999999944
11
139.994969999999995
21
-136.4501419999999996
0
LINE
8
BLACK
6
CONTINUOUS
10
139.994969999999995
20
-136.4501419999999996
11
140.4711609999999951
21
-136.4501419999999996
0
LINE
8
BLACK
6
CONTINUOUS
10
140.4711609999999951
20
-136.4501419999999996
11
140.6616369999999847
21
-136.5453799999999944
0
LINE
8
BLACK
6
CONTINUOUS
10
140.6616369999999847
20
-136.5453799999999944
11
140.7568749999999795
21
-136.6406189999999867
0
LINE
8
BLACK
6
CONTINUOUS
10
140.7568749999999795
20
-136.6406189999999867
11
140.8521130000000028
21
-136.8310950000000048
0
LINE
8
BLACK
6
CONTINUOUS
10
140.8521130000000028
20
-136.8310950000000048
11
140.8521130000000028
21
-137.3072850000000074
0
LINE
8
BLACK
6
CONTINUOUS
10
140.8521130000000028
20
-137.3072850000000074
11
140.7568749999999795
21
-137.497760999999997
0
LINE
8
BLACK
6
CONTINUOUS
10
140.7568749999999795
20
-137.497760999999997
11
140.6616369999999847
21
-137.5929999999999893
0
LINE
8
BLACK
6
CONTINUOUS
10
140.6616369999999847
20
-137.5929999999999893
11
140.4711609999999951
21
-137.6882379999999841
0
LINE
8
BLACK
6
CONTINUOUS
10
140.4711609999999951
20
-137.6882379999999841
11
139.994969999999995
21
-137.6882379999999841
0
LINE
8
BLACK
6
CONTINUOUS
10
139.994969999999995
20
-137.6882379999999841
11
139.8044940000000054
21
-137.5929999999999893
0
LINE
8
BLACK
6
CONTINUOUS
10
139.8044940000000054
20
-137.5929999999999893
11
139.7092559999999821
21
-137.497760999999997
0
LINE
8
BLACK
6
CONTINUOUS
10
142.6616369999999847
20
-135.6882379999999841
11
141.7092559999999821
21
-135.6882379999999841
0
LINE
8
BLACK
6
CONTINUOUS
10
141.7092559999999821
20
-135.6882379999999841
11
141.6140179999999873
21
-136.6406189999999867
0
LINE
8
BLACK
6
CONTINUOUS
10
141.6140179999999873
20
-136.6406189999999867
11
141.7092559999999821
21
-136.5453799999999944
0
LINE
8
BLACK
6
CONTINUOUS
10
141.7092559999999821
20
-136.5453799999999944
11
141.8997320000000002
21
-136.4501419999999996
0
LINE
8
BLACK
6
CONTINUOUS
10
141.8997320000000002
20
-136.4501419999999996
11
142.3759230000000002
21
-136.4501419999999996
0
LINE
8
BLACK
6
CONTINUOUS
10
142.3759230000000002
20
-136.4501419999999996
11
142.5663989999999899
21
-136.5453799999999944
0
LINE
8
BLACK
6
CONTINUOUS
10
142.5663989999999899
20
-136.5453799999999944
11
142.6616369999999847
21
-136.6406189999999867
0
LINE
8
BLACK
6
CONTINUOUS
10
142.6616369999999847
20
-136.6406189999999867
11
142.7568749999999795
21
-136.8310950000000048
0
LINE
8
BLACK
6
CONTINUOUS
10
142.7568749999999795
20
-136.8310950000000048
11
142.7568749999999795
21
-137.3072850000000074
0
LINE
8
BLACK
6
CONTINUOUS
10
142.7568749999999795
20
-137.3072850000000074
11
142.6616369999999847
21
-137.497760999999997
0
LINE
8
BLACK
6
CONTINUOUS
10
142.6616369999999847
20
-137.497760999999997
11
142.5663989999999899
21
-137.5929999999999893
0
LINE
8
BLACK
6
CONTINUOUS
10
142.5663989999999899
20
-137.5929999999999893
11
142.3759230000000002
21
-137.6882379999999841
0
LINE
8
BLACK
6
CONTINUOUS
10
142.3759230000000002
20
-137.6882379999999841
11
141.8997320000000002
21
-137.6882379999999841
0
LINE
8
BLACK
6
CONTINUOUS
10
141.8997320000000002
20
-137.6882379999999841
11
141.7092559999999821
21
-137.5929999999999893
0
LINE
8
BLACK
6
CONTINUOUS
10
141.7092559999999821
20
-137.5929999999999893
11
141.6140179999999873
21
-137.497760999999997
0
LINE
8
BLACK
6
CONTINUOUS
10
144.6616369999999847
20
-137.6882379999999841
11
143.5187799999999925
21
-137.6882379999999841
0
LINE
8
BLACK
6
CONTINUOUS
10
144.0902079999999899
20
-137.6882379999999841
11
144.0902079999999899
21
-135.6882379999999841
0
LINE
8
BLACK
6
CONTINUOUS
10
144.0902079999999899
20
-135.6882379999999841
11
143.8997320000000002
21
-135.973951999999997
0
LINE
8
BLACK
6
CONTINUOUS
10
143.8997320000000002
20
-135.973951999999997
11
143.7092559999999821
21
-136.1644279999999867
0
LINE
8
BLACK
6
CONTINUOUS
10
143.7092559999999821
20
-136.1644279999999867
11
143.5187799999999925
21
-136.2596659999999815
0
LINE
8
BLACK
6
CONTINUOUS
10
145.4235419999999976
20
-135.6882379999999841
11
145.4235419999999976
21
-136.0691899999999919
0
LINE
8
BLACK
6
CONTINUOUS
10
146.1854469999999822
20
-135.6882379999999841
11
146.1854469999999822
21
-136.0691899999999919
0
LINE
8
BLACK
6
CONTINUOUS
10
149.1378289999999822
20
-138.4501419999999996
11
149.0425899999999899
21
-138.3549040000000048
0
LINE
8
BLACK
6
CONTINUOUS
10
149.0425899999999899
20
-138.3549040000000048
11
148.8521140000000003
21
-138.0691899999999919
0
LINE
8
BLACK
6
CONTINUOUS
10
148.8521140000000003
20
-138.0691899999999919
11
148.7568760000000054
21
-137.8787140000000022
0
LINE
8
BLACK
6
CONTINUOUS
10
148.7568760000000054
20
-137.8787140000000022
11
148.6616379999999822
21
-137.5929999999999893
0
LINE
8
BLACK
6
CONTINUOUS
10
148.6616379999999822
20
-137.5929999999999893
11
148.5663999999999874
21
-137.1168089999999893
0
LINE
8
BLACK
6
CONTINUOUS
10
148.5663999999999874
20
-137.1168089999999893
11
148.5663999999999874
21
-136.7358569999999816
0
LINE
8
BLACK
6
CONTINUOUS
10
148.5663999999999874
20
-136.7358569999999816
11
148.6616379999999822
21
-136.2596659999999815
0
LINE
8
BLACK
6
CONTINUOUS
10
148.6616379999999822
20
-136.2596659999999815
11
148.7568760000000054
21
-135.973951999999997
0
LINE
8
BLACK
6
CONTINUOUS
10
148.7568760000000054
20
-135.973951999999997
11
148.8521140000000003
21
-135.7834760000000074
0
LINE
8
BLACK
6
CONTINUOUS
10
148.8521140000000003
20
-135.7834760000000074
11
149.0425899999999899
21
-135.497760999999997
0
LINE
8
BLACK
6
CONTINUOUS
10
149.0425899999999899
20
-135.497760999999997
11
149.1378289999999822
21
-135.4025230000000022
0
LINE
8
BLACK
6
CONTINUOUS
10
150.7568760000000054
20
-136.3549040000000048
11
150.7568760000000054
21
-137.6882379999999841
0
LINE
8
BLACK
6
CONTINUOUS
10
150.2806850000000054
20
-135.5929999999999893
11
149.8044950000000028
21
-137.0215709999999945
0
LINE
8
BLACK
6
CONTINUOUS
10
149.8044950000000028
20
-137.0215709999999945
11
151.0425899999999899
21
-137.0215709999999945
0
LINE
8
BLACK
6
CONTINUOUS
10
153.3283050000000003
20
-137.6882379999999841
11
153.3283050000000003
21
-135.6882379999999841
0
LINE
8
BLACK
6
CONTINUOUS
10
154.1854479999999796
20
-137.6882379999999841
11
154.1854479999999796
21
-136.6406189999999867
0
LINE
8
BLACK
6
CONTINUOUS
10
154.1854479999999796
20
-136.6406189999999867
11
154.0902099999999848
21
-136.4501419999999996
0
LINE
8
BLACK
6
CONTINUOUS
10
154.0902099999999848
20
-136.4501419999999996
11
153.8997339999999951
21
-136.3549040000000048
0
LINE
8
BLACK
6
CONTINUOUS
10
153.8997339999999951
20
-136.3549040000000048
11
153.6140189999999848
21
-136.3549040000000048
0
LINE
8
BLACK
6
CONTINUOUS
10
153.6140189999999848
20
-136.3549040000000048
11
153.4235429999999951
21
-136.4501419999999996
0
LINE
8
BLACK
6
CONTINUOUS
10
153.4235429999999951
20
-136.4501419999999996
11
153.3283050000000003
21
-136.5453799999999944
0
LINE
8
BLACK
6
CONTINUOUS
10
155.4235429999999951
20
-137.6882379999999841
11
155.2330670000000055
21
-137.5929999999999893
0
LINE
8
BLACK
6
CONTINUOUS
10
155.2330670000000055
20
-137.5929999999999893
11
155.1378289999999822
21
-137.497760999999997
0
LINE
8
BLACK
6
CONTINUOUS
10
155.1378289999999822
20
-137.497760999999997
11
155.0425909999999874
21
-137.3072850000000074
0
LINE
8
BLACK
6
CONTINUOUS
10
155.0425909999999874
20
-137.3072850000000074
11
155.0425909999999874
21
-136.7358569999999816
0
LINE
8
BLACK
6
CONTINUOUS
10
155.0425909999999874
20
-136.7358569999999816
11
155.1378289999999822
21
-136.5453799999999944
0
LINE
8
BLACK
6
CONTINUOUS
10
155.1378289999999822
20
-136.5453799999999944
11
155.2330670000000055
21
-136.4501419999999996
0
LINE
8
BLACK
6
CONTINUOUS
10
155.2330670000000055
20
-136.4501419999999996
11
155.4235429999999951
21
-136.3549040000000048
0
LINE
8
BLACK
6
CONTINUOUS
10
155.4235429999999951
20
-136.3549040000000048
11
155.7092580000000055
21
-136.3549040000000048
0
LINE
8
BLACK
6
CONTINUOUS
10
155.7092580000000055
20
-136.3549040000000048
11
155.8997339999999951
21
-136.4501419999999996
0
LINE
8
BLACK
6
CONTINUOUS
10
155.8997339999999951
20
-136.4501419999999996
11
155.99497199999999
21
-136.5453799999999944
0
LINE
8
BLACK
6
CONTINUOUS
10
155.99497199999999
20
-136.5453799999999944
11
156.0902099999999848
21
-136.7358569999999816
0
LINE
8
BLACK
6
CONTINUOUS
10
156.0902099999999848
20
-136.7358569999999816
11
156.0902099999999848
21
-137.3072850000000074
0
LINE
8
BLACK
6
CONTINUOUS
10
156.0902099999999848
20
-137.3072850000000074
11
155.99497199999999
21
-137.497760999999997
0
LINE
8
BLACK
6
CONTINUOUS
10
155.99497199999999
20
-137.497760999999997
11
155.8997339999999951
21
-137.5929999999999893
0
LINE
8
BLACK
6
CONTINUOUS
10
155.8997339999999951
20
-137.5929999999999893
11
155.7092580000000055
21
-137.6882379999999841
0
LINE
8
BLACK
6
CONTINUOUS
10
155.7092580000000055
20
-137.6882379999999841
11
155.4235429999999951
21
-137.6882379999999841
0
LINE
8
BLACK
6
CONTINUOUS
10
157.2330670000000055
20
-137.6882379999999841
11
157.0425909999999874
21
-137.5929999999999893
0
LINE
8
BLACK
6
CONTINUOUS
10
157.0425909999999874
20
-137.5929999999999893
11
156.9473529999999926
21
-137.4025230000000022
0
LINE
8
BLACK
6
CONTINUOUS
10
156.9473529999999926
20
-137.4025230000000022
11
156.9473529999999926
21
-135.6882379999999841
0
LINE
8
BLACK
6
CONTINUOUS
10
158.7568770000000029
20
-137.5929999999999893
11
158.5664009999999848
21
-137.6882379999999841
0
LINE
8
BLACK
6
CONTINUOUS
10
158.5664009999999848
20
-137.6882379999999841
11
158.1854479999999796
21
-137.6882379999999841
0
LINE
8
BLACK
6
CONTINUOUS
10
158.1854479999999796
20
-137.6882379999999841
11
157.99497199999999
21
-137.5929999999999893
0
LINE
8
BLACK
6
CONTINUOUS
10
157.99497199999999
20
-137.5929999999999893
11
157.8997339999999951
21
-137.4025230000000022
0
LINE
8
BLACK
6
CONTINUOUS
10
157.8997339999999951
20
-137.4025230000000022
11
157.8997339999999951
21
-136.6406189999999867
0
LINE
8
BLACK
6
CONTINUOUS
10
157.8997339999999951
20
-136.6406189999999867
11
157.99497199999999
21
-136.4501419999999996
0
LINE
8
BLACK
6
CONTINUOUS
10
157.99497199999999
20
-136.4501419999999996
11
158.1854479999999796
21
-136.3549040000000048
0
LINE
8
BLACK
6
CONTINUOUS
10
158.1854479999999796
20
-136.3549040000000048
11
158.5664009999999848
21
-136.3549040000000048
0
LINE
8
BLACK
6
CONTINUOUS
10
158.5664009999999848
20
-136.3549040000000048
11
158.7568770000000029
21
-136.4501419999999996
0
LINE
8
BLACK
6
CONTINUOUS
10
158.7568770000000029
20
-136.4501419999999996
11
158.8521149999999977
21
-136.6406189999999867
0
LINE
8
BLACK
6
CONTINUOUS
10
158.8521149999999977
20
-136.6406189999999867
11
158.8521149999999977
21
-136.8310950000000048
0
LINE
8
BLACK
6
CONTINUOUS
10
158.8521149999999977
20
-136.8310950000000048
11
157.8997339999999951
21
-137.0215709999999945
0
LINE
8
BLACK
6
CONTINUOUS
10
159.6140199999999822
20
-137.5929999999999893
11
159.8044960000000003
21
-137.6882379999999841
0
LINE
8
BLACK
6
CONTINUOUS
10
159.8044960000000003
20
-137.6882379999999841
11
160.1854479999999796
21
-137.6882379999999841
0
LINE
8
BLACK
6
CONTINUOUS
10
160.1854479999999796
20
-137.6882379999999841
11
160.3759249999999952
21
-137.5929999999999893
0
LINE
8
BLACK
6
CONTINUOUS
10
160.3759249999999952
20
-137.5929999999999893
11
160.47116299999999
21
-137.4025230000000022
0
LINE
8
BLACK
6
CONTINUOUS
10
160.47116299999999
20
-137.4025230000000022
11
160.47116299999999
21
-137.3072850000000074
0
LINE
8
BLACK
6
CONTINUOUS
10
160.47116299999999
20
-137.3072850000000074
11
160.3759249999999952
21
-137.1168089999999893
0
LINE
8
BLACK
6
CONTINUOUS
10
160.3759249999999952
20
-137.1168089999999893
11
160.1854479999999796
21
-137.0215709999999945
0
LINE
8
BLACK
6
CONTINUOUS
10
160.1854479999999796
20
-137.0215709999999945
11
159.8997339999999951
21
-137.0215709999999945
0
LINE
8
BLACK
6
CONTINUOUS
10
159.8997339999999951
20
-137.0215709999999945
11
159.7092580000000055
21
-136.9263329999999996
0
LINE
8
BLACK
6
CONTINUOUS
10
159.7092580000000055
20
-136.9263329999999996
11
159.6140199999999822
21
-136.7358569999999816
0
LINE
8
BLACK
6
CONTINUOUS
10
159.6140199999999822
20
-136.7358569999999816
11
159.6140199999999822
21
-136.6406189999999867
0
LINE
8
BLACK
6
CONTINUOUS
10
159.6140199999999822
20
-136.6406189999999867
11
159.7092580000000055
21
-136.4501419999999996
0
LINE
8
BLACK
6
CONTINUOUS
10
159.7092580000000055
20
-136.4501419999999996
11
159.8997339999999951
21
-136.3549040000000048
0
LINE
8
BLACK
6
CONTINUOUS
10
159.8997339999999951
20
-136.3549040000000048
11
160.1854479999999796
21
-136.3549040000000048
0
LINE
8
BLACK
6
CONTINUOUS
10
160.1854479999999796
20
-136.3549040000000048
11
160.3759249999999952
21
-136.4501419999999996
0
LINE
8
BLACK
6
CONTINUOUS
10
161.1378299999999797
20
-138.4501419999999996
11
161.2330680000000029
21
-138.3549040000000048
0
LINE
8
BLACK
6
CONTINUOUS
10
161.2330680000000029
20
-138.3549040000000048
11
161.4235439999999926
21
-138.0691899999999919
0
LINE
8
BLACK
6
CONTINUOUS
10
161.4235439999999926
20
-138.0691899999999919
11
161.5187819999999874
21
-137.8787140000000022
0
LINE
8
BLACK
6
CONTINUOUS
10
161.5187819999999874
20
-137.8787140000000022
11
161.6140199999999822
21
-137.5929999999999893
0
LINE
8
BLACK
6
CONTINUOUS
10
161.6140199999999822
20
-137.5929999999999893
11
161.7092580000000055
21
-137.1168089999999893
0
LINE
8
BLACK
6
CONTINUOUS
10
161.7092580000000055
20
-137.1168089999999893
11
161.7092580000000055
21
-136.7358569999999816
0
LINE
8
BLACK
6
CONTINUOUS
10
161.7092580000000055
20
-136.7358569999999816
11
161.6140199999999822
21
-136.2596659999999815
0
LINE
8
BLACK
6
CONTINUOUS
10
161.6140199999999822
20
-136.2596659999999815
11
161.5187819999999874
21
-135.973951999999997
0
LINE
8
BLACK
6
CONTINUOUS
10
161.5187819999999874
20
-135.973951999999997
11
161.4235439999999926
21
-135.7834760000000074
0
LINE
8
BLACK
6
CONTINUOUS
10
161.4235439999999926
20
-135.7834760000000074
11
161.2330680000000029
21
-135.497760999999997
0
LINE
8
BLACK
6
CONTINUOUS
10
161.2330680000000029
20
-135.497760999999997
11
161.1378299999999797
21
-135.4025230000000022
0
LINE
8
BLACK
6
CONTINUOUS
10
113.0943139999999971
20
-140.1205139999999858
11
113.0943139999999971
21
-138.7062860000000057
0
LINE
8
BLACK
6
CONTINUOUS
10
113.0943139999999971
20
-138.7062860000000057
11
111.6800859999999886
21
-138.7062860000000057
0
LINE
8
BLACK
6
CONTINUOUS
10
111.6800859999999886
20
-138.7062860000000057
11
111.6800859999999886
21
-140.1205139999999858
0
LINE
8
BLACK
6
CONTINUOUS
10
111.6800859999999886
20
-140.1205139999999858
11
113.0943139999999971
21
-140.1205139999999858
0
LINE
8
BLACK
6
CONTINUOUS
10
115.8044919999999962
20
-138.3282379999999989
11
117.0425869999999975
21
-138.3282379999999989
0
LINE
8
BLACK
6
CONTINUOUS
10
117.0425869999999975
20
-138.3282379999999989
11
116.3759199999999936
21
-139.090141999999986
0
LINE
8
BLACK
6
CONTINUOUS
10
116.3759199999999936
20
-139.090141999999986
11
116.6616349999999898
21
-139.090141999999986
0
LINE
8
BLACK
6
CONTINUOUS
10
116.6616349999999898
20
-139.090141999999986
11
116.8521109999999936
21
-139.1853799999999808
0
LINE
8
BLACK
6
CONTINUOUS
10
116.8521109999999936
20
-139.1853799999999808
11
116.9473489999999885
21
-139.2806190000000015
0
LINE
8
BLACK
6
CONTINUOUS
10
116.9473489999999885
20
-139.2806190000000015
11
117.0425869999999975
21
-139.4710949999999912
0
LINE
8
BLACK
6
CONTINUOUS
10
117.0425869999999975
20
-139.4710949999999912
11
117.0425869999999975
21
-139.9472849999999937
0
LINE
8
BLACK
6
CONTINUOUS
10
117.0425869999999975
20
-139.9472849999999937
11
116.9473489999999885
21
-140.1377609999999834
0
LINE
8
BLACK
6
CONTINUOUS
10
116.9473489999999885
20
-140.1377609999999834
11
116.8521109999999936
21
-140.2330000000000041
0
LINE
8
BLACK
6
CONTINUOUS
10
116.8521109999999936
20
-140.2330000000000041
11
116.6616349999999898
21
-140.3282379999999989
0
LINE
8
BLACK
6
CONTINUOUS
10
116.6616349999999898
20
-140.3282379999999989
11
116.0902059999999949
21
-140.3282379999999989
0
LINE
8
BLACK
6
CONTINUOUS
10
116.0902059999999949
20
-140.3282379999999989
11
115.899729999999991
21
-140.2330000000000041
0
LINE
8
BLACK
6
CONTINUOUS
10
115.899729999999991
20
-140.2330000000000041
11
115.8044919999999962
21
-140.1377609999999834
0
LINE
8
BLACK
6
CONTINUOUS
10
117.899729999999991
20
-140.1377609999999834
11
117.9949680000000001
21
-140.2330000000000041
0
LINE
8
BLACK
6
CONTINUOUS
10
117.9949680000000001
20
-140.2330000000000041
11
117.899729999999991
21
-140.3282379999999989
0
LINE
8
BLACK
6
CONTINUOUS
10
117.899729999999991
20
-140.3282379999999989
11
117.8044919999999962
21
-140.2330000000000041
0
LINE
8
BLACK
6
CONTINUOUS
10
117.8044919999999962
20
-140.2330000000000041
11
117.899729999999991
21
-140.1377609999999834
0
LINE
8
BLACK
6
CONTINUOUS
10
117.899729999999991
20
-140.1377609999999834
11
117.899729999999991
21
-140.3282379999999989
0
LINE
8
BLACK
6
CONTINUOUS
10
119.2330630000000014
20
-138.3282379999999989
11
119.4235399999999885
21
-138.3282379999999989
0
LINE
8
BLACK
6
CONTINUOUS
10
119.4235399999999885
20
-138.3282379999999989
11
119.6140159999999923
21
-138.4234759999999937
0
LINE
8
BLACK
6
CONTINUOUS
10
119.6140159999999923
20
-138.4234759999999937
11
119.7092540000000014
21
-138.5187139999999886
0
LINE
8
BLACK
6
CONTINUOUS
10
119.7092540000000014
20
-138.5187139999999886
11
119.8044919999999962
21
-138.7091900000000066
0
LINE
8
BLACK
6
CONTINUOUS
10
119.8044919999999962
20
-138.7091900000000066
11
119.899729999999991
21
-139.090141999999986
0
LINE
8
BLACK
6
CONTINUOUS
10
119.899729999999991
20
-139.090141999999986
11
119.899729999999991
21
-139.566332999999986
0
LINE
8
BLACK
6
CONTINUOUS
10
119.899729999999991
20
-139.566332999999986
11
119.8044919999999962
21
-139.9472849999999937
0
LINE
8
BLACK
6
CONTINUOUS
10
119.8044919999999962
20
-139.9472849999999937
11
119.7092540000000014
21
-140.1377609999999834
0
LINE
8
BLACK
6
CONTINUOUS
10
119.7092540000000014
20
-140.1377609999999834
11
119.6140159999999923
21
-140.2330000000000041
0
LINE
8
BLACK
6
CONTINUOUS
10
119.6140159999999923
20
-140.2330000000000041
11
119.4235399999999885
21
-140.3282379999999989
0
LINE
8
BLACK
6
CONTINUOUS
10
119.4235399999999885
20
-140.3282379999999989
11
119.2330630000000014
21
-140.3282379999999989
0
LINE
8
BLACK
6
CONTINUOUS
10
119.2330630000000014
20
-140.3282379999999989
11
119.0425869999999975
21
-140.2330000000000041
0
LINE
8
BLACK
6
CONTINUOUS
10
119.0425869999999975
20
-140.2330000000000041
11
118.9473489999999885
21
-140.1377609999999834
0
LINE
8
BLACK
6
CONTINUOUS
10
118.9473489999999885
20
-140.1377609999999834
11
118.8521109999999936
21
-139.9472849999999937
0
LINE
8
BLACK
6
CONTINUOUS
10
118.8521109999999936
20
-139.9472849999999937
11
118.7568729999999988
21
-139.566332999999986
0
LINE
8
BLACK
6
CONTINUOUS
10
118.7568729999999988
20
-139.566332999999986
11
118.7568729999999988
21
-139.090141999999986
0
LINE
8
BLACK
6
CONTINUOUS
10
118.7568729999999988
20
-139.090141999999986
11
118.8521109999999936
21
-138.7091900000000066
0
LINE
8
BLACK
6
CONTINUOUS
10
118.8521109999999936
20
-138.7091900000000066
11
118.9473489999999885
21
-138.5187139999999886
0
LINE
8
BLACK
6
CONTINUOUS
10
118.9473489999999885
20
-138.5187139999999886
11
119.0425869999999975
21
-138.4234759999999937
0
LINE
8
BLACK
6
CONTINUOUS
10
119.0425869999999975
20
-138.4234759999999937
11
119.2330630000000014
21
-138.3282379999999989
0
LINE
8
BLACK
6
CONTINUOUS
10
121.1378249999999923
20
-138.3282379999999989
11
121.3283019999999937
21
-138.3282379999999989
0
LINE
8
BLACK
6
CONTINUOUS
10
121.3283019999999937
20
-138.3282379999999989
11
121.5187779999999975
21
-138.4234759999999937
0
LINE
8
BLACK
6
CONTINUOUS
10
121.5187779999999975
20
-138.4234759999999937
11
121.6140159999999923
21
-138.5187139999999886
0
LINE
8
BLACK
6
CONTINUOUS
10
121.6140159999999923
20
-138.5187139999999886
11
121.7092540000000014
21
-138.7091900000000066
0
LINE
8
BLACK
6
CONTINUOUS
10
121.7092540000000014
20
-138.7091900000000066
11
121.8044919999999962
21
-139.090141999999986
0
LINE
8
BLACK
6
CONTINUOUS
10
121.8044919999999962
20
-139.090141999999986
11
121.8044919999999962
21
-139.566332999999986
0
LINE
8
BLACK
6
CONTINUOUS
10
121.8044919999999962
20
-139.566332999999986
11
121.7092540000000014
21
-139.9472849999999937
0
LINE
8
BLACK
6
CONTINUOUS
10
121.7092540000000014
20
-139.9472849999999937
11
121.6140159999999923
21
-140.1377609999999834
0
LINE
8
BLACK
6
CONTINUOUS
10
121.6140159999999923
20
-140.1377609999999834
11
121.5187779999999975
21
-140.2330000000000041
0
LINE
8
BLACK
6
CONTINUOUS
10
121.5187779999999975
20
-140.2330000000000041
11
121.3283019999999937
21
-140.3282379999999989
0
LINE
8
BLACK
6
CONTINUOUS
10
121.3283019999999937
20
-140.3282379999999989
11
121.1378249999999923
21
-140.3282379999999989
0
LINE
8
BLACK
6
CONTINUOUS
10
121.1378249999999923
20
-140.3282379999999989
11
120.9473489999999885
21
-140.2330000000000041
0
LINE
8
BLACK
6
CONTINUOUS
10
120.9473489999999885
20
-140.2330000000000041
11
120.8521109999999936
21
-140.1377609999999834
0
LINE
8
BLACK
6
CONTINUOUS
10
120.8521109999999936
20
-140.1377609999999834
11
120.7568729999999988
21
-139.9472849999999937
0
LINE
8
BLACK
6
CONTINUOUS
10
120.7568729999999988
20
-139.9472849999999937
11
120.6616349999999898
21
-139.566332999999986
0
LINE
8
BLACK
6
CONTINUOUS
10
120.6616349999999898
20
-139.566332999999986
11
120.6616349999999898
21
-139.090141999999986
0
LINE
8
BLACK
6
CONTINUOUS
10
120.6616349999999898
20
-139.090141999999986
11
120.7568729999999988
21
-138.7091900000000066
0
LINE
8
BLACK
6
CONTINUOUS
10
120.7568729999999988
20
-138.7091900000000066
11
120.8521109999999936
21
-138.5187139999999886
0
LINE
8
BLACK
6
CONTINUOUS
10
120.8521109999999936
20
-138.5187139999999886
11
120.9473489999999885
21
-138.4234759999999937
0
LINE
8
BLACK
6
CONTINUOUS
10
120.9473489999999885
20
-138.4234759999999937
11
121.1378249999999923
21
-138.3282379999999989
0
LINE
8
BLACK
6
CONTINUOUS
10
123.0425869999999975
20
-138.3282379999999989
11
123.2330639999999988
21
-138.3282379999999989
0
LINE
8
BLACK
6
CONTINUOUS
10
123.2330639999999988
20
-138.3282379999999989
11
123.4235399999999885
21
-138.4234759999999937
0
LINE
8
BLACK
6
CONTINUOUS
10
123.4235399999999885
20
-138.4234759999999937
11
123.5187779999999975
21
-138.5187139999999886
0
LINE
8
BLACK
6
CONTINUOUS
10
123.5187779999999975
20
-138.5187139999999886
11
123.6140159999999923
21
-138.7091900000000066
0
LINE
8
BLACK
6
CONTINUOUS
10
123.6140159999999923
20
-138.7091900000000066
11
123.7092540000000014
21
-139.090141999999986
0
LINE
8
BLACK
6
CONTINUOUS
10
123.7092540000000014
20
-139.090141999999986
11
123.7092540000000014
21
-139.566332999999986
0
LINE
8
BLACK
6
CONTINUOUS
10
123.7092540000000014
20
-139.566332999999986
11
123.6140159999999923
21
-139.9472849999999937
0
LINE
8
BLACK
6
CONTINUOUS
10
123.6140159999999923
20
-139.9472849999999937
11
123.5187779999999975
21
-140.1377609999999834
0
LINE
8
BLACK
6
CONTINUOUS
10
123.5187779999999975
20
-140.1377609999999834
11
123.4235399999999885
21
-140.2330000000000041
0
LINE
8
BLACK
6
CONTINUOUS
10
123.4235399999999885
20
-140.2330000000000041
11
123.2330639999999988
21
-140.3282379999999989
0
LINE
8
BLACK
6
CONTINUOUS
10
123.2330639999999988
20
-140.3282379999999989
11
123.0425869999999975
21
-140.3282379999999989
0
LINE
8
BLACK
6
CONTINUOUS
10
123.0425869999999975
20
-140.3282379999999989
11
122.8521109999999936
21
-140.2330000000000041
0
LINE
8
BLACK
6
CONTINUOUS
10
122.8521109999999936
20
-140.2330000000000041
11
122.7568729999999988
21
-140.1377609999999834
0
LINE
8
BLACK
6
CONTINUOUS
10
122.7568729999999988
20
-140.1377609999999834
11
122.6616349999999898
21
-139.9472849999999937
0
LINE
8
BLACK
6
CONTINUOUS
10
122.6616349999999898
20
-139.9472849999999937
11
122.5663969999999949
21
-139.566332999999986
0
LINE
8
BLACK
6
CONTINUOUS
10
122.5663969999999949
20
-139.566332999999986
11
122.5663969999999949
21
-139.090141999999986
0
LINE
8
BLACK
6
CONTINUOUS
10
122.5663969999999949
20
-139.090141999999986
11
122.6616349999999898
21
-138.7091900000000066
0
LINE
8
BLACK
6
CONTINUOUS
10
122.6616349999999898
20
-138.7091900000000066
11
122.7568729999999988
21
-138.5187139999999886
0
LINE
8
BLACK
6
CONTINUOUS
10
122.7568729999999988
20
-138.5187139999999886
11
122.8521109999999936
21
-138.4234759999999937
0
LINE
8
BLACK
6
CONTINUOUS
10
122.8521109999999936
20
-138.4234759999999937
11
123.0425869999999975
21
-138.3282379999999989
0
LINE
8
BLACK
6
CONTINUOUS
10
124.5663969999999949
20
-140.3282379999999989
11
124.5663969999999949
21
-138.9949039999999911
0
LINE
8
BLACK
6
CONTINUOUS
10
124.5663969999999949
20
-139.1853799999999808
11
124.6616349999999898
21
-139.090141999999986
0
LINE
8
BLACK
6
CONTINUOUS
10
124.6616349999999898
20
-139.090141999999986
11
124.8521109999999936
21
-138.9949039999999911
0
LINE
8
BLACK
6
CONTINUOUS
10
124.8521109999999936
20
-138.9949039999999911
11
125.1378259999999898
21
-138.9949039999999911
0
LINE
8
BLACK
6
CONTINUOUS
10
125.1378259999999898
20
-138.9949039999999911
11
125.3283019999999937
21
-139.090141999999986
0
LINE
8
BLACK
6
CONTINUOUS
10
125.3283019999999937
20
-139.090141999999986
11
125.4235399999999885
21
-139.2806190000000015
0
LINE
8
BLACK
6
CONTINUOUS
10
125.4235399999999885
20
-139.2806190000000015
11
125.4235399999999885
21
-140.3282379999999989
0
LINE
8
BLACK
6
CONTINUOUS
10
125.4235399999999885
20
-139.2806190000000015
11
125.5187779999999975
21
-139.090141999999986
0
LINE
8
BLACK
6
CONTINUOUS
10
125.5187779999999975
20
-139.090141999999986
11
125.7092540000000014
21
-138.9949039999999911
0
LINE
8
BLACK
6
CONTINUOUS
10
125.7092540000000014
20
-138.9949039999999911
11
125.9949680000000001
21
-138.9949039999999911
0
LINE
8
BLACK
6
CONTINUOUS
10
125.9949680000000001
20
-138.9949039999999911
11
126.1854449999999872
21
-139.090141999999986
0
LINE
8
BLACK
6
CONTINUOUS
10
126.1854449999999872
20
-139.090141999999986
11
126.2806829999999962
21
-139.2806190000000015
0
LINE
8
BLACK
6
CONTINUOUS
10
126.2806829999999962
20
-139.2806190000000015
11
126.2806829999999962
21
-140.3282379999999989
0
LINE
8
BLACK
6
CONTINUOUS
10
127.2330639999999988
20
-140.3282379999999989
11
127.2330639999999988
21
-138.9949039999999911
0
LINE
8
BLACK
6
CONTINUOUS
10
127.2330639999999988
20
-139.1853799999999808
11
127.3283019999999937
21
-139.090141999999986
0
LINE
8
BLACK
6
CONTINUOUS
10
127.3283019999999937
20
-139.090141999999986
11
127.5187779999999975
21
-138.9949039999999911
0
LINE
8
BLACK
6
CONTINUOUS
10
127.5187779999999975
20
-138.9949039999999911
11
127.8044929999999937
21
-138.9949039999999911
0
LINE
8
BLACK
6
CONTINUOUS
10
127.8044929999999937
20
-138.9949039999999911
11
127.9949689999999975
21
-139.090141999999986
0
LINE
8
BLACK
6
CONTINUOUS
10
127.9949689999999975
20
-139.090141999999986
11
128.0902069999999924
21
-139.2806190000000015
0
LINE
8
BLACK
6
CONTINUOUS
10
128.0902069999999924
20
-139.2806190000000015
11
128.0902069999999924
21
-140.3282379999999989
0
LINE
8
BLACK
6
CONTINUOUS
10
128.0902069999999924
20
-139.2806190000000015
11
128.1854449999999872
21
-139.090141999999986
0
LINE
8
BLACK
6
CONTINUOUS
10
128.1854449999999872
20
-139.090141999999986
11
128.3759210000000053
21
-138.9949039999999911
0
LINE
8
BLACK
6
CONTINUOUS
10
128.3759210000000053
20
-138.9949039999999911
11
128.6616349999999898
21
-138.9949039999999911
0
LINE
8
BLACK
6
CONTINUOUS
10
128.6616349999999898
20
-138.9949039999999911
11
128.8521120000000053
21
-139.090141999999986
0
LINE
8
BLACK
6
CONTINUOUS
10
128.8521120000000053
20
-139.090141999999986
11
128.9473500000000001
21
-139.2806190000000015
0
LINE
8
BLACK
6
CONTINUOUS
10
128.9473500000000001
20
-139.2806190000000015
11
128.9473500000000001
21
-140.3282379999999989
0
LINE
8
BLACK
6
CONTINUOUS
10
132.8521120000000053
20
-138.2330000000000041
11
131.1378269999999873
21
-140.8044280000000015
0
LINE
8
BLACK
6
CONTINUOUS
10
135.4235410000000002
20
-138.3282379999999989
11
135.6140179999999873
21
-138.3282379999999989
0
LINE
8
BLACK
6
CONTINUOUS
10
135.6140179999999873
20
-138.3282379999999989
11
135.8044940000000054
21
-138.4234759999999937
0
LINE
8
BLACK
6
CONTINUOUS
10
135.8044940000000054
20
-138.4234759999999937
11
135.8997320000000002
21
-138.5187139999999886
0
LINE
8
BLACK
6
CONTINUOUS
10
135.8997320000000002
20
-138.5187139999999886
11
135.994969999999995
21
-138.7091900000000066
0
LINE
8
BLACK
6
CONTINUOUS
10
135.994969999999995
20
-138.7091900000000066
11
136.0902079999999899
21
-139.090141999999986
0
LINE
8
BLACK
6
CONTINUOUS
10
136.0902079999999899
20
-139.090141999999986
11
136.0902079999999899
21
-139.566332999999986
0
LINE
8
BLACK
6
CONTINUOUS
10
136.0902079999999899
20
-139.566332999999986
11
135.994969999999995
21
-139.9472849999999937
0
LINE
8
BLACK
6
CONTINUOUS
10
135.994969999999995
20
-139.9472849999999937
11
135.8997320000000002
21
-140.1377609999999834
0
LINE
8
BLACK
6
CONTINUOUS
10
135.8997320000000002
20
-140.1377609999999834
11
135.8044940000000054
21
-140.2330000000000041
0
LINE
8
BLACK
6
CONTINUOUS
10
135.8044940000000054
20
-140.2330000000000041
11
135.6140179999999873
21
-140.3282379999999989
0
LINE
8
BLACK
6
CONTINUOUS
10
135.6140179999999873
20
-140.3282379999999989
11
135.4235410000000002
21
-140.3282379999999989
0
LINE
8
BLACK
6
CONTINUOUS
10
135.4235410000000002
20
-140.3282379999999989
11
135.2330649999999821
21
-140.2330000000000041
0
LINE
8
BLACK
6
CONTINUOUS
10
135.2330649999999821
20
-140.2330000000000041
11
135.1378269999999873
21
-140.1377609999999834
0
LINE
8
BLACK
6
CONTINUOUS
10
135.1378269999999873
20
-140.1377609999999834
11
135.0425889999999924
21
-139.9472849999999937
0
LINE
8
BLACK
6
CONTINUOUS
10
135.0425889999999924
20
-139.9472849999999937
11
134.9473509999999976
21
-139.566332999999986
0
LINE
8
BLACK
6
CONTINUOUS
10
134.9473509999999976
20
-139.566332999999986
11
134.9473509999999976
21
-139.090141999999986
0
LINE
8
BLACK
6
CONTINUOUS
10
134.9473509999999976
20
-139.090141999999986
11
135.0425889999999924
21
-138.7091900000000066
0
LINE
8
BLACK
6
CONTINUOUS
10
135.0425889999999924
20
-138.7091900000000066
11
135.1378269999999873
21
-138.5187139999999886
0
LINE
8
BLACK
6
CONTINUOUS
10
135.1378269999999873
20
-138.5187139999999886
11
135.2330649999999821
21
-138.4234759999999937
0
LINE
8
BLACK
6
CONTINUOUS
10
135.2330649999999821
20
-138.4234759999999937
11
135.4235410000000002
21
-138.3282379999999989
0
LINE
8
BLACK
6
CONTINUOUS
10
136.9473509999999976
20
-140.1377609999999834
11
137.0425889999999924
21
-140.2330000000000041
0
LINE
8
BLACK
6
CONTINUOUS
10
137.0425889999999924
20
-140.2330000000000041
11
136.9473509999999976
21
-140.3282379999999989
0
LINE
8
BLACK
6
CONTINUOUS
10
136.9473509999999976
20
-140.3282379999999989
11
136.8521130000000028
21
-140.2330000000000041
0
LINE
8
BLACK
6
CONTINUOUS
10
136.8521130000000028
20
-140.2330000000000041
11
136.9473509999999976
21
-140.1377609999999834
0
LINE
8
BLACK
6
CONTINUOUS
10
136.9473509999999976
20
-140.1377609999999834
11
136.9473509999999976
21
-140.3282379999999989
0
LINE
8
BLACK
6
CONTINUOUS
10
138.9473509999999976
20
-140.3282379999999989
11
137.8044940000000054
21
-140.3282379999999989
0
LINE
8
BLACK
6
CONTINUOUS
10
138.3759220000000028
20
-140.3282379999999989
11
138.3759220000000028
21
-138.3282379999999989
0
LINE
8
BLACK
6
CONTINUOUS
10
138.3759220000000028
20
-138.3282379999999989
11
138.1854459999999847
21
-138.6139519999999834
0
LINE
8
BLACK
6
CONTINUOUS
10
138.1854459999999847
20
-138.6139519999999834
11
137.994969999999995
21
-138.8044280000000015
0
LINE
8
BLACK
6
CONTINUOUS
10
137.994969999999995
20
-138.8044280000000015
11
137.8044940000000054
21
-138.8996659999999963
0
LINE
8
BLACK
6
CONTINUOUS
10
140.8521130000000028
20
-140.3282379999999989
11
139.7092559999999821
21
-140.3282379999999989
0
LINE
8
BLACK
6
CONTINUOUS
10
140.2806839999999795
20
-140.3282379999999989
11
140.2806839999999795
21
-138.3282379999999989
0
LINE
8
BLACK
6
CONTINUOUS
10
140.2806839999999795
20
-138.3282379999999989
11
140.0902079999999899
21
-138.6139519999999834
0
LINE
8
BLACK
6
CONTINUOUS
10
140.0902079999999899
20
-138.6139519999999834
11
139.8997320000000002
21
-138.8044280000000015
0
LINE
8
BLACK
6
CONTINUOUS
10
139.8997320000000002
20
-138.8044280000000015
11
139.7092559999999821
21
-138.8996659999999963
0
LINE
8
BLACK
6
CONTINUOUS
10
141.994969999999995
20
-139.1853799999999808
11
141.8044940000000054
21
-139.090141999999986
0
LINE
8
BLACK
6
CONTINUOUS
10
141.8044940000000054
20
-139.090141999999986
11
141.7092559999999821
21
-138.9949039999999911
0
LINE
8
BLACK
6
CONTINUOUS
10
141.7092559999999821
20
-138.9949039999999911
11
141.6140179999999873
21
-138.8044280000000015
0
LINE
8
BLACK
6
CONTINUOUS
10
141.6140179999999873
20
-138.8044280000000015
11
141.6140179999999873
21
-138.7091900000000066
0
LINE
8
BLACK
6
CONTINUOUS
10
141.6140179999999873
20
-138.7091900000000066
11
141.7092559999999821
21
-138.5187139999999886
0
LINE
8
BLACK
6
CONTINUOUS
10
141.7092559999999821
20
-138.5187139999999886
11
141.8044940000000054
21
-138.4234759999999937
0
LINE
8
BLACK
6
CONTINUOUS
10
141.8044940000000054
20
-138.4234759999999937
11
141.994969999999995
21
-138.3282379999999989
0
LINE
8
BLACK
6
CONTINUOUS
10
141.994969999999995
20
-138.3282379999999989
11
142.3759230000000002
21
-138.3282379999999989
0
LINE
8
BLACK
6
CONTINUOUS
10
142.3759230000000002
20
-138.3282379999999989
11
142.5663989999999899
21
-138.4234759999999937
0
LINE
8
BLACK
6
CONTINUOUS
10
142.5663989999999899
20
-138.4234759999999937
11
142.6616369999999847
21
-138.5187139999999886
0
LINE
8
BLACK
6
CONTINUOUS
10
142.6616369999999847
20
-138.5187139999999886
11
142.7568749999999795
21
-138.7091900000000066
0
LINE
8
BLACK
6
CONTINUOUS
10
142.7568749999999795
20
-138.7091900000000066
11
142.7568749999999795
21
-138.8044280000000015
0
LINE
8
BLACK
6
CONTINUOUS
10
142.7568749999999795
20
-138.8044280000000015
11
142.6616369999999847
21
-138.9949039999999911
0
LINE
8
BLACK
6
CONTINUOUS
10
142.6616369999999847
20
-138.9949039999999911
11
142.5663989999999899
21
-139.090141999999986
0
LINE
8
BLACK
6
CONTINUOUS
10
142.5663989999999899
20
-139.090141999999986
11
142.3759230000000002
21
-139.1853799999999808
0
LINE
8
BLACK
6
CONTINUOUS
10
142.3759230000000002
20
-139.1853799999999808
11
141.994969999999995
21
-139.1853799999999808
0
LINE
8
BLACK
6
CONTINUOUS
10
141.994969999999995
20
-139.1853799999999808
11
141.8044940000000054
21
-139.2806190000000015
0
LINE
8
BLACK
6
CONTINUOUS
10
141.8044940000000054
20
-139.2806190000000015
11
141.7092559999999821
21
-139.3758569999999963
0
LINE
8
BLACK
6
CONTINUOUS
10
141.7092559999999821
20
-139.3758569999999963
11
141.6140179999999873
21
-139.566332999999986
0
LINE
8
BLACK
6
CONTINUOUS
10
141.6140179999999873
20
-139.566332999999986
11
141.6140179999999873
21
-139.9472849999999937
0
LINE
8
BLACK
6
CONTINUOUS
10
141.6140179999999873
20
-139.9472849999999937
11
141.7092559999999821
21
-140.1377609999999834
0
LINE
8
BLACK
6
CONTINUOUS
10
141.7092559999999821
20
-140.1377609999999834
11
141.8044940000000054
21
-140.2330000000000041
0
LINE
8
BLACK
6
CONTINUOUS
10
141.8044940000000054
20
-140.2330000000000041
11
141.994969999999995
21
-140.3282379999999989
0
LINE
8
BLACK
6
CONTINUOUS
10
141.994969999999995
20
-140.3282379999999989
11
142.3759230000000002
21
-140.3282379999999989
0
LINE
8
BLACK
6
CONTINUOUS
10
142.3759230000000002
20
-140.3282379999999989
11
142.5663989999999899
21
-140.2330000000000041
0
LINE
8
BLACK
6
CONTINUOUS
10
142.5663989999999899
20
-140.2330000000000041
11
142.6616369999999847
21
-140.1377609999999834
0
LINE
8
BLACK
6
CONTINUOUS
10
142.6616369999999847
20
-140.1377609999999834
11
142.7568749999999795
21
-139.9472849999999937
0
LINE
8
BLACK
6
CONTINUOUS
10
142.7568749999999795
20
-139.9472849999999937
11
142.7568749999999795
21
-139.566332999999986
0
LINE
8
BLACK
6
CONTINUOUS
10
142.7568749999999795
20
-139.566332999999986
11
142.6616369999999847
21
-139.3758569999999963
0
LINE
8
BLACK
6
CONTINUOUS
10
142.6616369999999847
20
-139.3758569999999963
11
142.5663989999999899
21
-139.2806190000000015
0
LINE
8
BLACK
6
CONTINUOUS
10
142.5663989999999899
20
-139.2806190000000015
11
142.3759230000000002
21
-139.1853799999999808
0
LINE
8
BLACK
6
CONTINUOUS
10
144.6616369999999847
20
-140.3282379999999989
11
143.5187799999999925
21
-140.3282379999999989
0
LINE
8
BLACK
6
CONTINUOUS
10
144.0902079999999899
20
-140.3282379999999989
11
144.0902079999999899
21
-138.3282379999999989
0
LINE
8
BLACK
6
CONTINUOUS
10
144.0902079999999899
20
-138.3282379999999989
11
143.8997320000000002
21
-138.6139519999999834
0
LINE
8
BLACK
6
CONTINUOUS
10
143.8997320000000002
20
-138.6139519999999834
11
143.7092559999999821
21
-138.8044280000000015
0
LINE
8
BLACK
6
CONTINUOUS
10
143.7092559999999821
20
-138.8044280000000015
11
143.5187799999999925
21
-138.8996659999999963
0
LINE
8
BLACK
6
CONTINUOUS
10
145.4235419999999976
20
-138.3282379999999989
11
145.4235419999999976
21
-138.7091900000000066
0
LINE
8
BLACK
6
CONTINUOUS
10
146.1854469999999822
20
-138.3282379999999989
11
146.1854469999999822
21
-138.7091900000000066
0
LINE
8
BLACK
6
CONTINUOUS
10
149.1378289999999822
20
-141.090141999999986
11
149.0425899999999899
21
-140.9949039999999911
0
LINE
8
BLACK
6
CONTINUOUS
10
149.0425899999999899
20
-140.9949039999999911
11
148.8521140000000003
21
-140.7091900000000066
0
LINE
8
BLACK
6
CONTINUOUS
10
148.8521140000000003
20
-140.7091900000000066
11
148.7568760000000054
21
-140.5187139999999886
0
LINE
8
BLACK
6
CONTINUOUS
10
148.7568760000000054
20
-140.5187139999999886
11
148.6616379999999822
21
-140.2330000000000041
0
LINE
8
BLACK
6
CONTINUOUS
10
148.6616379999999822
20
-140.2330000000000041
11
148.5663999999999874
21
-139.7568090000000041
0
LINE
8
BLACK
6
CONTINUOUS
10
148.5663999999999874
20
-139.7568090000000041
11
148.5663999999999874
21
-139.3758569999999963
0
LINE
8
BLACK
6
CONTINUOUS
10
148.5663999999999874
20
-139.3758569999999963
11
148.6616379999999822
21
-138.8996659999999963
0
LINE
8
BLACK
6
CONTINUOUS
10
148.6616379999999822
20
-138.8996659999999963
11
148.7568760000000054
21
-138.6139519999999834
0
LINE
8
BLACK
6
CONTINUOUS
10
148.7568760000000054
20
-138.6139519999999834
11
148.8521140000000003
21
-138.4234759999999937
0
LINE
8
BLACK
6
CONTINUOUS
10
148.8521140000000003
20
-138.4234759999999937
11
149.0425899999999899
21
-138.1377609999999834
0
LINE
8
BLACK
6
CONTINUOUS
10
149.0425899999999899
20
-138.1377609999999834
11
149.1378289999999822
21
-138.0425229999999885
0
LINE
8
BLACK
6
CONTINUOUS
10
150.7568760000000054
20
-138.9949039999999911
11
150.7568760000000054
21
-140.3282379999999989
0
LINE
8
BLACK
6
CONTINUOUS
10
150.2806850000000054
20
-138.2330000000000041
11
149.8044950000000028
21
-139.6615709999999808
0
LINE
8
BLACK
6
CONTINUOUS
10
149.8044950000000028
20
-139.6615709999999808
11
151.0425899999999899
21
-139.6615709999999808
0
LINE
8
BLACK
6
CONTINUOUS
10
153.3283050000000003
20
-140.3282379999999989
11
153.3283050000000003
21
-138.3282379999999989
0
LINE
8
BLACK
6
CONTINUOUS
10
154.1854479999999796
20
-140.3282379999999989
11
154.1854479999999796
21
-139.2806190000000015
0
LINE
8
BLACK
6
CONTINUOUS
10
154.1854479999999796
20
-139.2806190000000015
11
154.0902099999999848
21
-139.090141999999986
0
LINE
8
BLACK
6
CONTINUOUS
10
154.0902099999999848
20
-139.090141999999986
11
153.8997339999999951
21
-138.9949039999999911
0
LINE
8
BLACK
6
CONTINUOUS
10
153.8997339999999951
20
-138.9949039999999911
11
153.6140189999999848
21
-138.9949039999999911
0
LINE
8
BLACK
6
CONTINUOUS
10
153.6140189999999848
20
-138.9949039999999911
11
153.4235429999999951
21
-139.090141999999986
0
LINE
8
BLACK
6
CONTINUOUS
10
153.4235429999999951
20
-139.090141999999986
11
153.3283050000000003
21
-139.1853799999999808
0
LINE
8
BLACK
6
CONTINUOUS
10
155.4235429999999951
20
-140.3282379999999989
11
155.2330670000000055
21
-140.2330000000000041
0
LINE
8
BLACK
6
CONTINUOUS
10
155.2330670000000055
20
-140.2330000000000041
11
155.1378289999999822
21
-140.1377609999999834
0
LINE
8
BLACK
6
CONTINUOUS
10
155.1378289999999822
20
-140.1377609999999834
11
155.0425909999999874
21
-139.9472849999999937
0
LINE
8
BLACK
6
CONTINUOUS
10
155.0425909999999874
20
-139.9472849999999937
11
155.0425909999999874
21
-139.3758569999999963
0
LINE
8
BLACK
6
CONTINUOUS
10
155.0425909999999874
20
-139.3758569999999963
11
155.1378289999999822
21
-139.1853799999999808
0
LINE
8
BLACK
6
CONTINUOUS
10
155.1378289999999822
20
-139.1853799999999808
11
155.2330670000000055
21
-139.090141999999986
0
LINE
8
BLACK
6
CONTINUOUS
10
155.2330670000000055
20
-139.090141999999986
11
155.4235429999999951
21
-138.9949039999999911
0
LINE
8
BLACK
6
CONTINUOUS
10
155.4235429999999951
20
-138.9949039999999911
11
155.7092580000000055
21
-138.9949039999999911
0
LINE
8
BLACK
6
CONTINUOUS
10
155.7092580000000055
20
-138.9949039999999911
11
155.8997339999999951
21
-139.090141999999986
0
LINE
8
BLACK
6
CONTINUOUS
10
155.8997339999999951
20
-139.090141999999986
11
155.99497199999999
21
-139.1853799999999808
0
LINE
8
BLACK
6
CONTINUOUS
10
155.99497199999999
20
-139.1853799999999808
11
156.0902099999999848
21
-139.3758569999999963
0
LINE
8
BLACK
6
CONTINUOUS
10
156.0902099999999848
20
-139.3758569999999963
11
156.0902099999999848
21
-139.9472849999999937
0
LINE
8
BLACK
6
CONTINUOUS
10
156.0902099999999848
20
-139.9472849999999937
11
155.99497199999999
21
-140.1377609999999834
0
LINE
8
BLACK
6
CONTINUOUS
10
155.99497199999999
20
-140.1377609999999834
11
155.8997339999999951
21
-140.2330000000000041
0
LINE
8
BLACK
6
CONTINUOUS
10
155.8997339999999951
20
-140.2330000000000041
11
155.7092580000000055
21
-140.3282379999999989
0
LINE
8
BLACK
6
CONTINUOUS
10
155.7092580000000055
20
-140.3282379999999989
11
155.4235429999999951
21
-140.3282379999999989
0
LINE
8
BLACK
6
CONTINUOUS
10
157.2330670000000055
20
-140.3282379999999989
11
157.0425909999999874
21
-140.2330000000000041
0
LINE
8
BLACK
6
CONTINUOUS
10
157.0425909999999874
20
-140.2330000000000041
11
156.9473529999999926
21
-140.0425229999999885
0
LINE
8
BLACK
6
CONTINUOUS
10
156.9473529999999926
20
-140.0425229999999885
11
156.9473529999999926
21
-138.3282379999999989
0
LINE
8
BLACK
6
CONTINUOUS
10
158.7568770000000029
20
-140.2330000000000041
11
158.5664009999999848
21
-140.3282379999999989
0
LINE
8
BLACK
6
CONTINUOUS
10
158.5664009999999848
20
-140.3282379999999989
11
158.1854479999999796
21
-140.3282379999999989
0
LINE
8
BLACK
6
CONTINUOUS
10
158.1854479999999796
20
-140.3282379999999989
11
157.99497199999999
21
-140.2330000000000041
0
LINE
8
BLACK
6
CONTINUOUS
10
157.99497199999999
20
-140.2330000000000041
11
157.8997339999999951
21
-140.0425229999999885
0
LINE
8
BLACK
6
CONTINUOUS
10
157.8997339999999951
20
-140.0425229999999885
11
157.8997339999999951
21
-139.2806190000000015
0
LINE
8
BLACK
6
CONTINUOUS
10
157.8997339999999951
20
-139.2806190000000015
11
157.99497199999999
21
-139.090141999999986
0
LINE
8
BLACK
6
CONTINUOUS
10
157.99497199999999
20
-139.090141999999986
11
158.1854479999999796
21
-138.9949039999999911
0
LINE
8
BLACK
6
CONTINUOUS
10
158.1854479999999796
20
-138.9949039999999911
11
158.5664009999999848
21
-138.9949039999999911
0
LINE
8
BLACK
6
CONTINUOUS
10
158.5664009999999848
20
-138.9949039999999911
11
158.7568770000000029
21
-139.090141999999986
0
LINE
8
BLACK
6
CONTINUOUS
10
158.7568770000000029
20
-139.090141999999986
11
158.8521149999999977
21
-139.2806190000000015
0
LINE
8
BLACK
6
CONTINUOUS
10
158.8521149999999977
20
-139.2806190000000015
11
158.8521149999999977
21
-139.4710949999999912
0
LINE
8
BLACK
6
CONTINUOUS
10
158.8521149999999977
20
-139.4710949999999912
11
157.8997339999999951
21
-139.6615709999999808
0
LINE
8
BLACK
6
CONTINUOUS
10
159.6140199999999822
20
-140.2330000000000041
11
159.8044960000000003
21
-140.3282379999999989
0
LINE
8
BLACK
6
CONTINUOUS
10
159.8044960000000003
20
-140.3282379999999989
11
160.1854479999999796
21
-140.3282379999999989
0
LINE
8
BLACK
6
CONTINUOUS
10
160.1854479999999796
20
-140.3282379999999989
11
160.3759249999999952
21
-140.2330000000000041
0
LINE
8
BLACK
6
CONTINUOUS
10
160.3759249999999952
20
-140.2330000000000041
11
160.47116299999999
21
-140.0425229999999885
0
LINE
8
BLACK
6
CONTINUOUS
10
160.47116299999999
20
-140.0425229999999885
11
160.47116299999999
21
-139.9472849999999937
0
LINE
8
BLACK
6
CONTINUOUS
10
160.47116299999999
20
-139.9472849999999937
11
160.3759249999999952
21
-139.7568090000000041
0
LINE
8
BLACK
6
CONTINUOUS
10
160.3759249999999952
20
-139.7568090000000041
11
160.1854479999999796
21
-139.6615709999999808
0
LINE
8
BLACK
6
CONTINUOUS
10
160.1854479999999796
20
-139.6615709999999808
11
159.8997339999999951
21
-139.6615709999999808
0
LINE
8
BLACK
6
CONTINUOUS
10
159.8997339999999951
20
-139.6615709999999808
11
159.7092580000000055
21
-139.566332999999986
0
LINE
8
BLACK
6
CONTINUOUS
10
159.7092580000000055
20
-139.566332999999986
11
159.6140199999999822
21
-139.3758569999999963
0
LINE
8
BLACK
6
CONTINUOUS
10
159.6140199999999822
20
-139.3758569999999963
11
159.6140199999999822
21
-139.2806190000000015
0
LINE
8
BLACK
6
CONTINUOUS
10
159.6140199999999822
20
-139.2806190000000015
11
159.7092580000000055
21
-139.090141999999986
0
LINE
8
BLACK
6
CONTINUOUS
10
159.7092580000000055
20
-139.090141999999986
11
159.8997339999999951
21
-138.9949039999999911
0
LINE
8
BLACK
6
CONTINUOUS
10
159.8997339999999951
20
-138.9949039999999911
11
160.1854479999999796
21
-138.9949039999999911
0
LINE
8
BLACK
6
CONTINUOUS
10
160.1854479999999796
20
-138.9949039999999911
11
160.3759249999999952
21
-139.090141999999986
0
LINE
8
BLACK
6
CONTINUOUS
10
161.1378299999999797
20
-141.090141999999986
11
161.2330680000000029
21
-140.9949039999999911
0
LINE
8
BLACK
6
CONTINUOUS
10
161.2330680000000029
20
-140.9949039999999911
11
161.4235439999999926
21
-140.7091900000000066
0
LINE
8
BLACK
6
CONTINUOUS
10
161.4235439999999926
20
-140.7091900000000066
11
161.5187819999999874
21
-140.5187139999999886
0
LINE
8
BLACK
6
CONTINUOUS
10
161.5187819999999874
20
-140.5187139999999886
11
161.6140199999999822
21
-140.2330000000000041
0
LINE
8
BLACK
6
CONTINUOUS
10
161.6140199999999822
20
-140.2330000000000041
11
161.7092580000000055
21
-139.7568090000000041
0
LINE
8
BLACK
6
CONTINUOUS
10
161.7092580000000055
20
-139.7568090000000041
11
161.7092580000000055
21
-139.3758569999999963
0
LINE
8
BLACK
6
CONTINUOUS
10
161.7092580000000055
20
-139.3758569999999963
11
161.6140199999999822
21
-138.8996659999999963
0
LINE
8
BLACK
6
CONTINUOUS
10
161.6140199999999822
20
-138.8996659999999963
11
161.5187819999999874
21
-138.6139519999999834
0
LINE
8
BLACK
6
CONTINUOUS
10
161.5187819999999874
20
-138.6139519999999834
11
161.4235439999999926
21
-138.4234759999999937
0
LINE
8
BLACK
6
CONTINUOUS
10
161.4235439999999926
20
-138.4234759999999937
11
161.2330680000000029
21
-138.1377609999999834
0
LINE
8
BLACK
6
CONTINUOUS
10
161.2330680000000029
20
-138.1377609999999834
11
161.1378299999999797
21
-138.0425229999999885
0
LINE
8
BLACK
6
CONTINUOUS
10
164.7568780000000004
20
-141.090141999999986
11
164.6616389999999797
21
-140.9949039999999911
0
LINE
8
BLACK
6
CONTINUOUS
10
164.6616389999999797
20
-140.9949039999999911
11
164.47116299999999
21
-140.7091900000000066
0
LINE
8
BLACK
6
CONTINUOUS
10
164.47116299999999
20
-140.7091900000000066
11
164.3759249999999952
21
-140.5187139999999886
0
LINE
8
BLACK
6
CONTINUOUS
10
164.3759249999999952
20
-140.5187139999999886
11
164.2806870000000004
21
-140.2330000000000041
0
LINE
8
BLACK
6
CONTINUOUS
10
164.2806870000000004
20
-140.2330000000000041
11
164.1854490000000055
21
-139.7568090000000041
0
LINE
8
BLACK
6
CONTINUOUS
10
164.1854490000000055
20
-139.7568090000000041
11
164.1854490000000055
21
-139.3758569999999963
0
LINE
8
BLACK
6
CONTINUOUS
10
164.1854490000000055
20
-139.3758569999999963
11
164.2806870000000004
21
-138.8996659999999963
0
LINE
8
BLACK
6
CONTINUOUS
10
164.2806870000000004
20
-138.8996659999999963
11
164.3759249999999952
21
-138.6139519999999834
0
LINE
8
BLACK
6
CONTINUOUS
10
164.3759249999999952
20
-138.6139519999999834
11
164.47116299999999
21
-138.4234759999999937
0
LINE
8
BLACK
6
CONTINUOUS
10
164.47116299999999
20
-138.4234759999999937
11
164.6616389999999797
21
-138.1377609999999834
0
LINE
8
BLACK
6
CONTINUOUS
10
164.6616389999999797
20
-138.1377609999999834
11
164.7568780000000004
21
-138.0425229999999885
0
LINE
8
BLACK
6
CONTINUOUS
10
165.5187819999999874
20
-138.9949039999999911
11
165.5187819999999874
21
-140.3282379999999989
0
LINE
8
BLACK
6
CONTINUOUS
10
165.5187819999999874
20
-139.1853799999999808
11
165.6140199999999822
21
-139.090141999999986
0
LINE
8
BLACK
6
CONTINUOUS
10
165.6140199999999822
20
-139.090141999999986
11
165.8044960000000003
21
-138.9949039999999911
0
LINE
8
BLACK
6
CONTINUOUS
10
165.8044960000000003
20
-138.9949039999999911
11
166.0902109999999823
21
-138.9949039999999911
0
LINE
8
BLACK
6
CONTINUOUS
10
166.0902109999999823
20
-138.9949039999999911
11
166.2806870000000004
21
-139.090141999999986
0
LINE
8
BLACK
6
CONTINUOUS
10
166.2806870000000004
20
-139.090141999999986
11
166.3759249999999952
21
-139.2806190000000015
0
LINE
8
BLACK
6
CONTINUOUS
10
166.3759249999999952
20
-139.2806190000000015
11
166.3759249999999952
21
-140.3282379999999989
0
LINE
8
BLACK
6
CONTINUOUS
10
167.6140199999999822
20
-140.3282379999999989
11
167.4235439999999926
21
-140.2330000000000041
0
LINE
8
BLACK
6
CONTINUOUS
10
167.4235439999999926
20
-140.2330000000000041
11
167.3283059999999978
21
-140.1377609999999834
0
LINE
8
BLACK
6
CONTINUOUS
10
167.3283059999999978
20
-140.1377609999999834
11
167.2330680000000029
21
-139.9472849999999937
0
LINE
8
BLACK
6
CONTINUOUS
10
167.2330680000000029
20
-139.9472849999999937
11
167.2330680000000029
21
-139.3758569999999963
0
LINE
8
BLACK
6
CONTINUOUS
10
167.2330680000000029
20
-139.3758569999999963
11
167.3283059999999978
21
-139.1853799999999808
0
LINE
8
BLACK
6
CONTINUOUS
10
167.3283059999999978
20
-139.1853799999999808
11
167.4235439999999926
21
-139.090141999999986
0
LINE
8
BLACK
6
CONTINUOUS
10
167.4235439999999926
20
-139.090141999999986
11
167.6140199999999822
21
-138.9949039999999911
0
LINE
8
BLACK
6
CONTINUOUS
10
167.6140199999999822
20
-138.9949039999999911
11
167.8997349999999926
21
-138.9949039999999911
0
LINE
8
BLACK
6
CONTINUOUS
10
167.8997349999999926
20
-138.9949039999999911
11
168.0902109999999823
21
-139.090141999999986
0
LINE
8
BLACK
6
CONTINUOUS
10
168.0902109999999823
20
-139.090141999999986
11
168.1854490000000055
21
-139.1853799999999808
0
LINE
8
BLACK
6
CONTINUOUS
10
168.1854490000000055
20
-139.1853799999999808
11
168.2806870000000004
21
-139.3758569999999963
0
LINE
8
BLACK
6
CONTINUOUS
10
168.2806870000000004
20
-139.3758569999999963
11
168.2806870000000004
21
-139.9472849999999937
0
LINE
8
BLACK
6
CONTINUOUS
10
168.2806870000000004
20
-139.9472849999999937
11
168.1854490000000055
21
-140.1377609999999834
0
LINE
8
BLACK
6
CONTINUOUS
10
168.1854490000000055
20
-140.1377609999999834
11
168.0902109999999823
21
-140.2330000000000041
0
LINE
8
BLACK
6
CONTINUOUS
10
168.0902109999999823
20
-140.2330000000000041
11
167.8997349999999926
21
-140.3282379999999989
0
LINE
8
BLACK
6
CONTINUOUS
10
167.8997349999999926
20
-140.3282379999999989
11
167.6140199999999822
21
-140.3282379999999989
0
LINE
8
BLACK
6
CONTINUOUS
10
168.8521159999999952
20
-138.9949039999999911
11
169.6140199999999822
21
-138.9949039999999911
0
LINE
8
BLACK
6
CONTINUOUS
10
169.1378299999999797
20
-138.3282379999999989
11
169.1378299999999797
21
-140.0425229999999885
0
LINE
8
BLACK
6
CONTINUOUS
10
169.1378299999999797
20
-140.0425229999999885
11
169.2330680000000029
21
-140.2330000000000041
0
LINE
8
BLACK
6
CONTINUOUS
10
169.2330680000000029
20
-140.2330000000000041
11
169.4235439999999926
21
-140.3282379999999989
0
LINE
8
BLACK
6
CONTINUOUS
10
169.4235439999999926
20
-140.3282379999999989
11
169.6140199999999822
21
-140.3282379999999989
0
LINE
8
BLACK
6
CONTINUOUS
10
171.8044969999999978
20
-138.9949039999999911
11
171.8044969999999978
21
-140.9949039999999911
0
LINE
8
BLACK
6
CONTINUOUS
10
171.8044969999999978
20
-139.090141999999986
11
171.9949729999999875
21
-138.9949039999999911
0
LINE
8
BLACK
6
CONTINUOUS
10
171.9949729999999875
20
-138.9949039999999911
11
172.3759259999999927
21
-138.9949039999999911
0
LINE
8
BLACK
6
CONTINUOUS
10
172.3759259999999927
20
-138.9949039999999911
11
172.5664019999999823
21
-139.090141999999986
0
LINE
8
BLACK
6
CONTINUOUS
10
172.5664019999999823
20
-139.090141999999986
11
172.6616400000000056
21
-139.1853799999999808
0
LINE
8
BLACK
6
CONTINUOUS
10
172.6616400000000056
20
-139.1853799999999808
11
172.7568780000000004
21
-139.3758569999999963
0
LINE
8
BLACK
6
CONTINUOUS
10
172.7568780000000004
20
-139.3758569999999963
11
172.7568780000000004
21
-139.9472849999999937
0
LINE
8
BLACK
6
CONTINUOUS
10
172.7568780000000004
20
-139.9472849999999937
11
172.6616400000000056
21
-140.1377609999999834
0
LINE
8
BLACK
6
CONTINUOUS
10
172.6616400000000056
20
-140.1377609999999834
11
172.5664019999999823
21
-140.2330000000000041
0
LINE
8
BLACK
6
CONTINUOUS
10
172.5664019999999823
20
-140.2330000000000041
11
172.3759259999999927
21
-140.3282379999999989
0
LINE
8
BLACK
6
CONTINUOUS
10
172.3759259999999927
20
-140.3282379999999989
11
171.9949729999999875
21
-140.3282379999999989
0
LINE
8
BLACK
6
CONTINUOUS
10
171.9949729999999875
20
-140.3282379999999989
11
171.8044969999999978
21
-140.2330000000000041
0
LINE
8
BLACK
6
CONTINUOUS
10
173.8997349999999926
20
-140.3282379999999989
11
173.709259000000003
21
-140.2330000000000041
0
LINE
8
BLACK
6
CONTINUOUS
10
173.709259000000003
20
-140.2330000000000041
11
173.6140209999999797
21
-140.0425229999999885
0
LINE
8
BLACK
6
CONTINUOUS
10
173.6140209999999797
20
-140.0425229999999885
11
173.6140209999999797
21
-138.3282379999999989
0
LINE
8
BLACK
6
CONTINUOUS
10
175.5187829999999849
20
-140.3282379999999989
11
175.5187829999999849
21
-139.2806190000000015
0
LINE
8
BLACK
6
CONTINUOUS
10
175.5187829999999849
20
-139.2806190000000015
11
175.4235449999999901
21
-139.090141999999986
0
LINE
8
BLACK
6
CONTINUOUS
10
175.4235449999999901
20
-139.090141999999986
11
175.2330690000000004
21
-138.9949039999999911
0
LINE
8
BLACK
6
CONTINUOUS
10
175.2330690000000004
20
-138.9949039999999911
11
174.8521159999999952
21
-138.9949039999999911
0
LINE
8
BLACK
6
CONTINUOUS
10
174.8521159999999952
20
-138.9949039999999911
11
174.6616400000000056
21
-139.090141999999986
0
LINE
8
BLACK
6
CONTINUOUS
10
175.5187829999999849
20
-140.2330000000000041
11
175.3283069999999952
21
-140.3282379999999989
0
LINE
8
BLACK
6
CONTINUOUS
10
175.3283069999999952
20
-140.3282379999999989
11
174.8521159999999952
21
-140.3282379999999989
0
LINE
8
BLACK
6
CONTINUOUS
10
174.8521159999999952
20
-140.3282379999999989
11
174.6616400000000056
21
-140.2330000000000041
0
LINE
8
BLACK
6
CONTINUOUS
10
174.6616400000000056
20
-140.2330000000000041
11
174.5664019999999823
21
-140.0425229999999885
0
LINE
8
BLACK
6
CONTINUOUS
10
174.5664019999999823
20
-140.0425229999999885
11
174.5664019999999823
21
-139.8520469999999989
0
LINE
8
BLACK
6
CONTINUOUS
10
174.5664019999999823
20
-139.8520469999999989
11
174.6616400000000056
21
-139.6615709999999808
0
LINE
8
BLACK
6
CONTINUOUS
10
174.6616400000000056
20
-139.6615709999999808
11
174.8521159999999952
21
-139.566332999999986
0
LINE
8
BLACK
6
CONTINUOUS
10
174.8521159999999952
20
-139.566332999999986
11
175.3283069999999952
21
-139.566332999999986
0
LINE
8
BLACK
6
CONTINUOUS
10
175.3283069999999952
20
-139.566332999999986
11
175.5187829999999849
21
-139.4710949999999912
0
LINE
8
BLACK
6
CONTINUOUS
10
176.185450000000003
20
-138.9949039999999911
11
176.94735399999999
21
-138.9949039999999911
0
LINE
8
BLACK
6
CONTINUOUS
10
176.4711639999999875
20
-138.3282379999999989
11
176.4711639999999875
21
-140.0425229999999885
0
LINE
8
BLACK
6
CONTINUOUS
10
176.4711639999999875
20
-140.0425229999999885
11
176.5664019999999823
21
-140.2330000000000041
0
LINE
8
BLACK
6
CONTINUOUS
10
176.5664019999999823
20
-140.2330000000000041
11
176.7568780000000004
21
-140.3282379999999989
0
LINE
8
BLACK
6
CONTINUOUS
10
176.7568780000000004
20
-140.3282379999999989
11
176.94735399999999
21
-140.3282379999999989
0
LINE
8
BLACK
6
CONTINUOUS
10
178.3759259999999927
20
-140.2330000000000041
11
178.185450000000003
21
-140.3282379999999989
0
LINE
8
BLACK
6
CONTINUOUS
10
178.185450000000003
20
-140.3282379999999989
11
177.8044969999999978
21
-140.3282379999999989
0
LINE
8
BLACK
6
CONTINUOUS
10
177.8044969999999978
20
-140.3282379999999989
11
177.6140209999999797
21
-140.2330000000000041
0
LINE
8
BLACK
6
CONTINUOUS
10
177.6140209999999797
20
-140.2330000000000041
11
177.5187829999999849
21
-140.0425229999999885
0
LINE
8
BLACK
6
CONTINUOUS
10
177.5187829999999849
20
-140.0425229999999885
11
177.5187829999999849
21
-139.2806190000000015
0
LINE
8
BLACK
6
CONTINUOUS
10
177.5187829999999849
20
-139.2806190000000015
11
177.6140209999999797
21
-139.090141999999986
0
LINE
8
BLACK
6
CONTINUOUS
10
177.6140209999999797
20
-139.090141999999986
11
177.8044969999999978
21
-138.9949039999999911
0
LINE
8
BLACK
6
CONTINUOUS
10
177.8044969999999978
20
-138.9949039999999911
11
178.185450000000003
21
-138.9949039999999911
0
LINE
8
BLACK
6
CONTINUOUS
10
178.185450000000003
20
-138.9949039999999911
11
178.3759259999999927
21
-139.090141999999986
0
LINE
8
BLACK
6
CONTINUOUS
10
178.3759259999999927
20
-139.090141999999986
11
178.4711639999999875
21
-139.2806190000000015
0
LINE
8
BLACK
6
CONTINUOUS
10
178.4711639999999875
20
-139.2806190000000015
11
178.4711639999999875
21
-139.4710949999999912
0
LINE
8
BLACK
6
CONTINUOUS
10
178.4711639999999875
20
-139.4710949999999912
11
177.5187829999999849
21
-139.6615709999999808
0
LINE
8
BLACK
6
CONTINUOUS
10
180.185450000000003
20
-140.3282379999999989
11
180.185450000000003
21
-138.3282379999999989
0
LINE
8
BLACK
6
CONTINUOUS
10
180.185450000000003
20
-140.2330000000000041
11
179.9949739999999849
21
-140.3282379999999989
0
LINE
8
BLACK
6
CONTINUOUS
10
179.9949739999999849
20
-140.3282379999999989
11
179.6140209999999797
21
-140.3282379999999989
0
LINE
8
BLACK
6
CONTINUOUS
10
179.6140209999999797
20
-140.3282379999999989
11
179.4235449999999901
21
-140.2330000000000041
0
LINE
8
BLACK
6
CONTINUOUS
10
179.4235449999999901
20
-140.2330000000000041
11
179.3283069999999952
21
-140.1377609999999834
0
LINE
8
BLACK
6
CONTINUOUS
10
179.3283069999999952
20
-140.1377609999999834
11
179.2330690000000004
21
-139.9472849999999937
0
LINE
8
BLACK
6
CONTINUOUS
10
179.2330690000000004
20
-139.9472849999999937
11
179.2330690000000004
21
-139.3758569999999963
0
LINE
8
BLACK
6
CONTINUOUS
10
179.2330690000000004
20
-139.3758569999999963
11
179.3283069999999952
21
-139.1853799999999808
0
LINE
8
BLACK
6
CONTINUOUS
10
179.3283069999999952
20
-139.1853799999999808
11
179.4235449999999901
21
-139.090141999999986
0
LINE
8
BLACK
6
CONTINUOUS
10
179.4235449999999901
20
-139.090141999999986
11
179.6140209999999797
21
-138.9949039999999911
0
LINE
8
BLACK
6
CONTINUOUS
10
179.6140209999999797
20
-138.9949039999999911
11
179.9949739999999849
21
-138.9949039999999911
0
LINE
8
BLACK
6
CONTINUOUS
10
179.9949739999999849
20
-138.9949039999999911
11
180.185450000000003
21
-139.090141999999986
0
LINE
8
BLACK
6
CONTINUOUS
10
180.9473549999999875
20
-141.090141999999986
11
181.0425929999999823
21
-140.9949039999999911
0
LINE
8
BLACK
6
CONTINUOUS
10
181.0425929999999823
20
-140.9949039999999911
11
181.2330690000000004
21
-140.7091900000000066
0
LINE
8
BLACK
6
CONTINUOUS
10
181.2330690000000004
20
-140.7091900000000066
11
181.3283069999999952
21
-140.5187139999999886
0
LINE
8
BLACK
6
CONTINUOUS
10
181.3283069999999952
20
-140.5187139999999886
11
181.4235449999999901
21
-140.2330000000000041
0
LINE
8
BLACK
6
CONTINUOUS
10
181.4235449999999901
20
-140.2330000000000041
11
181.5187829999999849
21
-139.7568090000000041
0
LINE
8
BLACK
6
CONTINUOUS
10
181.5187829999999849
20
-139.7568090000000041
11
181.5187829999999849
21
-139.3758569999999963
0
LINE
8
BLACK
6
CONTINUOUS
10
181.5187829999999849
20
-139.3758569999999963
11
181.4235449999999901
21
-138.8996659999999963
0
LINE
8
BLACK
6
CONTINUOUS
10
181.4235449999999901
20
-138.8996659999999963
11
181.3283069999999952
21
-138.6139519999999834
0
LINE
8
BLACK
6
CONTINUOUS
10
181.3283069999999952
20
-138.6139519999999834
11
181.2330690000000004
21
-138.4234759999999937
0
LINE
8
BLACK
6
CONTINUOUS
10
181.2330690000000004
20
-138.4234759999999937
11
181.0425929999999823
21
-138.1377609999999834
0
LINE
8
BLACK
6
CONTINUOUS
10
181.0425929999999823
20
-138.1377609999999834
11
180.9473549999999875
21
-138.0425229999999885
  0
ENDSEC
  0
EOF
