M48
; DRILL file {KiCad 9.0.0} date 2025-04-07T13:38:39-0300
; FORMAT={-:-/ absolute / metric / decimal}
; #@! TF.CreationDate,2025-04-07T13:38:39-03:00
; #@! TF.GenerationSoftware,Kicad,Pcbnew,9.0.0
; #@! TF.FileFunction,MixedPlating,1,2
FMAT,2
METRIC
; #@! TA.AperFunction,Plated,PTH,ViaDrill
T1C0.250
; #@! TA.AperFunction,Plated,PTH,ComponentDrill
T2C1.000
; #@! TA.AperFunction,Plated,PTH,ComponentDrill
T3C1.400
; #@! TA.AperFunction,NonPlated,NPTH,ComponentDrill
T4C3.000
%
G90
G05
T1
X122.682Y-111.912
X123.774Y-88.265
X125.73Y-101.6
X126.619Y-109.626
X130.912Y-111.481
X133.071Y-93.853
X135.128Y-101.6
X139.7Y-110.896
T2
X116.522Y-106.381
X116.522Y-108.921
X116.522Y-111.461
X116.522Y-114.001
X122.96Y-117.246
X122.96Y-121.023
X125.5Y-117.246
X125.5Y-121.023
X128.04Y-117.246
X128.04Y-121.023
X133.0Y-117.246
X133.0Y-120.925
X134.849Y-93.37
X135.204Y-106.274
X135.54Y-117.246
X135.54Y-120.925
X138.08Y-117.246
X138.08Y-120.925
X138.354Y-103.5
X144.501Y-106.401
X144.501Y-108.941
X144.501Y-111.481
X144.501Y-114.021
T3
X118.11Y-94.5
X118.11Y-99.5
X143.0Y-94.5
X143.0Y-99.5
T4
X116.513Y-87.993
X116.513Y-121.993
X144.513Y-87.993
X144.513Y-121.993
M30
