%TF.GenerationSoftware,KiCad,Pcbnew,9.0.0*%
%TF.CreationDate,2025-04-07T13:38:34-03:00*%
%TF.ProjectId,KDT_Hierarchical,4b44545f-4869-4657-9261-726368696361,1.1*%
%TF.SameCoordinates,Original*%
%TF.FileFunction,Legend,Bot*%
%TF.FilePolarity,Positive*%
%FSLAX46Y46*%
G04 Gerber Fmt 4.6, Leading zero omitted, Abs format (unit mm)*
G04 Created by KiCad (PCBNEW 9.0.0) date 2025-04-07 13:38:34*
%MOMM*%
%LPD*%
G01*
G04 APERTURE LIST*
G04 Aperture macros list*
%AMRoundRect*
0 Rectangle with rounded corners*
0 $1 Rounding radius*
0 $2 $3 $4 $5 $6 $7 $8 $9 X,Y pos of 4 corners*
0 Add a 4 corners polygon primitive as box body*
4,1,4,$2,$3,$4,$5,$6,$7,$8,$9,$2,$3,0*
0 Add four circle primitives for the rounded corners*
1,1,$1+$1,$2,$3*
1,1,$1+$1,$4,$5*
1,1,$1+$1,$6,$7*
1,1,$1+$1,$8,$9*
0 Add four rect primitives between the rounded corners*
20,1,$1+$1,$2,$3,$4,$5,0*
20,1,$1+$1,$4,$5,$6,$7,0*
20,1,$1+$1,$6,$7,$8,$9,0*
20,1,$1+$1,$8,$9,$2,$3,0*%
G04 Aperture macros list end*
%ADD10C,0.150000*%
%ADD11C,0.400000*%
%ADD12RoundRect,0.050000X0.850000X-0.850000X0.850000X0.850000X-0.850000X0.850000X-0.850000X-0.850000X0*%
%ADD13O,1.800000X1.800000*%
%ADD14C,3.100000*%
%ADD15RoundRect,0.050000X0.850000X0.850000X-0.850000X0.850000X-0.850000X-0.850000X0.850000X-0.850000X0*%
%ADD16C,2.300000*%
%ADD17RoundRect,0.050000X-0.850000X-0.850000X0.850000X-0.850000X0.850000X0.850000X-0.850000X0.850000X0*%
%ADD18C,2.100000*%
G04 APERTURE END LIST*
D10*
X113868200Y-87985600D02*
G75*
G02*
X116535200Y-85318600I2667000J0D01*
G01*
X118735200Y-121996200D02*
G75*
G02*
X114335200Y-121996200I-2200000J0D01*
G01*
X114335200Y-121996200D02*
G75*
G02*
X118735200Y-121996200I2200000J0D01*
G01*
X147167600Y-121996200D02*
G75*
G02*
X144500600Y-124663200I-2667000J0D01*
G01*
X139852400Y-98475800D02*
X140868400Y-98475800D01*
X120167400Y-93522800D02*
X121183400Y-93522800D01*
X113868200Y-87985600D02*
X113868200Y-121996200D01*
X139852400Y-93522800D02*
X140868400Y-93522800D01*
X118735200Y-87985600D02*
G75*
G02*
X114335200Y-87985600I-2200000J0D01*
G01*
X114335200Y-87985600D02*
G75*
G02*
X118735200Y-87985600I2200000J0D01*
G01*
X116535200Y-124663200D02*
X144500600Y-124663200D01*
X120167400Y-98501200D02*
X121183400Y-98501200D01*
X146700600Y-87985600D02*
G75*
G02*
X142300600Y-87985600I-2200000J0D01*
G01*
X142300600Y-87985600D02*
G75*
G02*
X146700600Y-87985600I2200000J0D01*
G01*
X146710400Y-121996200D02*
G75*
G02*
X142310400Y-121996200I-2200000J0D01*
G01*
X142310400Y-121996200D02*
G75*
G02*
X146710400Y-121996200I2200000J0D01*
G01*
X120675400Y-97993200D02*
X120675400Y-99009200D01*
X116535200Y-124663200D02*
G75*
G02*
X113868200Y-121996200I0J2667000D01*
G01*
X144500600Y-85318600D02*
G75*
G02*
X147167600Y-87985600I0J-2667000D01*
G01*
X144500600Y-85318600D02*
X116535200Y-85318600D01*
X147167600Y-121996200D02*
X147167600Y-87985600D01*
X140360400Y-97967800D02*
X140360400Y-98983800D01*
D11*
X131084438Y-103984033D02*
X133084438Y-104650699D01*
X133084438Y-104650699D02*
X131084438Y-105317366D01*
X133084438Y-107031652D02*
X133084438Y-105888795D01*
X133084438Y-106460223D02*
X131084438Y-106460223D01*
X131084438Y-106460223D02*
X131370152Y-106269747D01*
X131370152Y-106269747D02*
X131560628Y-106079271D01*
X131560628Y-106079271D02*
X131655866Y-105888795D01*
D10*
X142916039Y-109397800D02*
X142773182Y-109445419D01*
X142773182Y-109445419D02*
X142535087Y-109445419D01*
X142535087Y-109445419D02*
X142439849Y-109397800D01*
X142439849Y-109397800D02*
X142392230Y-109350180D01*
X142392230Y-109350180D02*
X142344611Y-109254942D01*
X142344611Y-109254942D02*
X142344611Y-109159704D01*
X142344611Y-109159704D02*
X142392230Y-109064466D01*
X142392230Y-109064466D02*
X142439849Y-109016847D01*
X142439849Y-109016847D02*
X142535087Y-108969228D01*
X142535087Y-108969228D02*
X142725563Y-108921609D01*
X142725563Y-108921609D02*
X142820801Y-108873990D01*
X142820801Y-108873990D02*
X142868420Y-108826371D01*
X142868420Y-108826371D02*
X142916039Y-108731133D01*
X142916039Y-108731133D02*
X142916039Y-108635895D01*
X142916039Y-108635895D02*
X142868420Y-108540657D01*
X142868420Y-108540657D02*
X142820801Y-108493038D01*
X142820801Y-108493038D02*
X142725563Y-108445419D01*
X142725563Y-108445419D02*
X142487468Y-108445419D01*
X142487468Y-108445419D02*
X142344611Y-108493038D01*
X141916039Y-109445419D02*
X141916039Y-108445419D01*
X141916039Y-108445419D02*
X141677944Y-108445419D01*
X141677944Y-108445419D02*
X141535087Y-108493038D01*
X141535087Y-108493038D02*
X141439849Y-108588276D01*
X141439849Y-108588276D02*
X141392230Y-108683514D01*
X141392230Y-108683514D02*
X141344611Y-108873990D01*
X141344611Y-108873990D02*
X141344611Y-109016847D01*
X141344611Y-109016847D02*
X141392230Y-109207323D01*
X141392230Y-109207323D02*
X141439849Y-109302561D01*
X141439849Y-109302561D02*
X141535087Y-109397800D01*
X141535087Y-109397800D02*
X141677944Y-109445419D01*
X141677944Y-109445419D02*
X141916039Y-109445419D01*
X140963658Y-109159704D02*
X140487468Y-109159704D01*
X141058896Y-109445419D02*
X140725563Y-108445419D01*
X140725563Y-108445419D02*
X140392230Y-109445419D01*
X142833477Y-105956219D02*
X142500144Y-106956219D01*
X142500144Y-106956219D02*
X142166811Y-105956219D01*
X141262049Y-106860980D02*
X141309668Y-106908600D01*
X141309668Y-106908600D02*
X141452525Y-106956219D01*
X141452525Y-106956219D02*
X141547763Y-106956219D01*
X141547763Y-106956219D02*
X141690620Y-106908600D01*
X141690620Y-106908600D02*
X141785858Y-106813361D01*
X141785858Y-106813361D02*
X141833477Y-106718123D01*
X141833477Y-106718123D02*
X141881096Y-106527647D01*
X141881096Y-106527647D02*
X141881096Y-106384790D01*
X141881096Y-106384790D02*
X141833477Y-106194314D01*
X141833477Y-106194314D02*
X141785858Y-106099076D01*
X141785858Y-106099076D02*
X141690620Y-106003838D01*
X141690620Y-106003838D02*
X141547763Y-105956219D01*
X141547763Y-105956219D02*
X141452525Y-105956219D01*
X141452525Y-105956219D02*
X141309668Y-106003838D01*
X141309668Y-106003838D02*
X141262049Y-106051457D01*
X140262049Y-106860980D02*
X140309668Y-106908600D01*
X140309668Y-106908600D02*
X140452525Y-106956219D01*
X140452525Y-106956219D02*
X140547763Y-106956219D01*
X140547763Y-106956219D02*
X140690620Y-106908600D01*
X140690620Y-106908600D02*
X140785858Y-106813361D01*
X140785858Y-106813361D02*
X140833477Y-106718123D01*
X140833477Y-106718123D02*
X140881096Y-106527647D01*
X140881096Y-106527647D02*
X140881096Y-106384790D01*
X140881096Y-106384790D02*
X140833477Y-106194314D01*
X140833477Y-106194314D02*
X140785858Y-106099076D01*
X140785858Y-106099076D02*
X140690620Y-106003838D01*
X140690620Y-106003838D02*
X140547763Y-105956219D01*
X140547763Y-105956219D02*
X140452525Y-105956219D01*
X140452525Y-105956219D02*
X140309668Y-106003838D01*
X140309668Y-106003838D02*
X140262049Y-106051457D01*
X120145011Y-113573038D02*
X120240249Y-113525419D01*
X120240249Y-113525419D02*
X120383106Y-113525419D01*
X120383106Y-113525419D02*
X120525963Y-113573038D01*
X120525963Y-113573038D02*
X120621201Y-113668276D01*
X120621201Y-113668276D02*
X120668820Y-113763514D01*
X120668820Y-113763514D02*
X120716439Y-113953990D01*
X120716439Y-113953990D02*
X120716439Y-114096847D01*
X120716439Y-114096847D02*
X120668820Y-114287323D01*
X120668820Y-114287323D02*
X120621201Y-114382561D01*
X120621201Y-114382561D02*
X120525963Y-114477800D01*
X120525963Y-114477800D02*
X120383106Y-114525419D01*
X120383106Y-114525419D02*
X120287868Y-114525419D01*
X120287868Y-114525419D02*
X120145011Y-114477800D01*
X120145011Y-114477800D02*
X120097392Y-114430180D01*
X120097392Y-114430180D02*
X120097392Y-114096847D01*
X120097392Y-114096847D02*
X120287868Y-114096847D01*
X119668820Y-114525419D02*
X119668820Y-113525419D01*
X119668820Y-113525419D02*
X119097392Y-114525419D01*
X119097392Y-114525419D02*
X119097392Y-113525419D01*
X118621201Y-114525419D02*
X118621201Y-113525419D01*
X118621201Y-113525419D02*
X118383106Y-113525419D01*
X118383106Y-113525419D02*
X118240249Y-113573038D01*
X118240249Y-113573038D02*
X118145011Y-113668276D01*
X118145011Y-113668276D02*
X118097392Y-113763514D01*
X118097392Y-113763514D02*
X118049773Y-113953990D01*
X118049773Y-113953990D02*
X118049773Y-114096847D01*
X118049773Y-114096847D02*
X118097392Y-114287323D01*
X118097392Y-114287323D02*
X118145011Y-114382561D01*
X118145011Y-114382561D02*
X118240249Y-114477800D01*
X118240249Y-114477800D02*
X118383106Y-114525419D01*
X118383106Y-114525419D02*
X118621201Y-114525419D01*
X120760877Y-105829219D02*
X120427544Y-106829219D01*
X120427544Y-106829219D02*
X120094211Y-105829219D01*
X119189449Y-106733980D02*
X119237068Y-106781600D01*
X119237068Y-106781600D02*
X119379925Y-106829219D01*
X119379925Y-106829219D02*
X119475163Y-106829219D01*
X119475163Y-106829219D02*
X119618020Y-106781600D01*
X119618020Y-106781600D02*
X119713258Y-106686361D01*
X119713258Y-106686361D02*
X119760877Y-106591123D01*
X119760877Y-106591123D02*
X119808496Y-106400647D01*
X119808496Y-106400647D02*
X119808496Y-106257790D01*
X119808496Y-106257790D02*
X119760877Y-106067314D01*
X119760877Y-106067314D02*
X119713258Y-105972076D01*
X119713258Y-105972076D02*
X119618020Y-105876838D01*
X119618020Y-105876838D02*
X119475163Y-105829219D01*
X119475163Y-105829219D02*
X119379925Y-105829219D01*
X119379925Y-105829219D02*
X119237068Y-105876838D01*
X119237068Y-105876838D02*
X119189449Y-105924457D01*
X118189449Y-106733980D02*
X118237068Y-106781600D01*
X118237068Y-106781600D02*
X118379925Y-106829219D01*
X118379925Y-106829219D02*
X118475163Y-106829219D01*
X118475163Y-106829219D02*
X118618020Y-106781600D01*
X118618020Y-106781600D02*
X118713258Y-106686361D01*
X118713258Y-106686361D02*
X118760877Y-106591123D01*
X118760877Y-106591123D02*
X118808496Y-106400647D01*
X118808496Y-106400647D02*
X118808496Y-106257790D01*
X118808496Y-106257790D02*
X118760877Y-106067314D01*
X118760877Y-106067314D02*
X118713258Y-105972076D01*
X118713258Y-105972076D02*
X118618020Y-105876838D01*
X118618020Y-105876838D02*
X118475163Y-105829219D01*
X118475163Y-105829219D02*
X118379925Y-105829219D01*
X118379925Y-105829219D02*
X118237068Y-105876838D01*
X118237068Y-105876838D02*
X118189449Y-105924457D01*
X120487839Y-111861600D02*
X120344982Y-111909219D01*
X120344982Y-111909219D02*
X120106887Y-111909219D01*
X120106887Y-111909219D02*
X120011649Y-111861600D01*
X120011649Y-111861600D02*
X119964030Y-111813980D01*
X119964030Y-111813980D02*
X119916411Y-111718742D01*
X119916411Y-111718742D02*
X119916411Y-111623504D01*
X119916411Y-111623504D02*
X119964030Y-111528266D01*
X119964030Y-111528266D02*
X120011649Y-111480647D01*
X120011649Y-111480647D02*
X120106887Y-111433028D01*
X120106887Y-111433028D02*
X120297363Y-111385409D01*
X120297363Y-111385409D02*
X120392601Y-111337790D01*
X120392601Y-111337790D02*
X120440220Y-111290171D01*
X120440220Y-111290171D02*
X120487839Y-111194933D01*
X120487839Y-111194933D02*
X120487839Y-111099695D01*
X120487839Y-111099695D02*
X120440220Y-111004457D01*
X120440220Y-111004457D02*
X120392601Y-110956838D01*
X120392601Y-110956838D02*
X120297363Y-110909219D01*
X120297363Y-110909219D02*
X120059268Y-110909219D01*
X120059268Y-110909219D02*
X119916411Y-110956838D01*
X118916411Y-111813980D02*
X118964030Y-111861600D01*
X118964030Y-111861600D02*
X119106887Y-111909219D01*
X119106887Y-111909219D02*
X119202125Y-111909219D01*
X119202125Y-111909219D02*
X119344982Y-111861600D01*
X119344982Y-111861600D02*
X119440220Y-111766361D01*
X119440220Y-111766361D02*
X119487839Y-111671123D01*
X119487839Y-111671123D02*
X119535458Y-111480647D01*
X119535458Y-111480647D02*
X119535458Y-111337790D01*
X119535458Y-111337790D02*
X119487839Y-111147314D01*
X119487839Y-111147314D02*
X119440220Y-111052076D01*
X119440220Y-111052076D02*
X119344982Y-110956838D01*
X119344982Y-110956838D02*
X119202125Y-110909219D01*
X119202125Y-110909219D02*
X119106887Y-110909219D01*
X119106887Y-110909219D02*
X118964030Y-110956838D01*
X118964030Y-110956838D02*
X118916411Y-111004457D01*
X118011649Y-111909219D02*
X118487839Y-111909219D01*
X118487839Y-111909219D02*
X118487839Y-110909219D01*
X120538639Y-109321600D02*
X120395782Y-109369219D01*
X120395782Y-109369219D02*
X120157687Y-109369219D01*
X120157687Y-109369219D02*
X120062449Y-109321600D01*
X120062449Y-109321600D02*
X120014830Y-109273980D01*
X120014830Y-109273980D02*
X119967211Y-109178742D01*
X119967211Y-109178742D02*
X119967211Y-109083504D01*
X119967211Y-109083504D02*
X120014830Y-108988266D01*
X120014830Y-108988266D02*
X120062449Y-108940647D01*
X120062449Y-108940647D02*
X120157687Y-108893028D01*
X120157687Y-108893028D02*
X120348163Y-108845409D01*
X120348163Y-108845409D02*
X120443401Y-108797790D01*
X120443401Y-108797790D02*
X120491020Y-108750171D01*
X120491020Y-108750171D02*
X120538639Y-108654933D01*
X120538639Y-108654933D02*
X120538639Y-108559695D01*
X120538639Y-108559695D02*
X120491020Y-108464457D01*
X120491020Y-108464457D02*
X120443401Y-108416838D01*
X120443401Y-108416838D02*
X120348163Y-108369219D01*
X120348163Y-108369219D02*
X120110068Y-108369219D01*
X120110068Y-108369219D02*
X119967211Y-108416838D01*
X119538639Y-109369219D02*
X119538639Y-108369219D01*
X119538639Y-108369219D02*
X119300544Y-108369219D01*
X119300544Y-108369219D02*
X119157687Y-108416838D01*
X119157687Y-108416838D02*
X119062449Y-108512076D01*
X119062449Y-108512076D02*
X119014830Y-108607314D01*
X119014830Y-108607314D02*
X118967211Y-108797790D01*
X118967211Y-108797790D02*
X118967211Y-108940647D01*
X118967211Y-108940647D02*
X119014830Y-109131123D01*
X119014830Y-109131123D02*
X119062449Y-109226361D01*
X119062449Y-109226361D02*
X119157687Y-109321600D01*
X119157687Y-109321600D02*
X119300544Y-109369219D01*
X119300544Y-109369219D02*
X119538639Y-109369219D01*
X118586258Y-109083504D02*
X118110068Y-109083504D01*
X118681496Y-109369219D02*
X118348163Y-108369219D01*
X118348163Y-108369219D02*
X118014830Y-109369219D01*
X124510694Y-90344788D02*
X124463075Y-90249550D01*
X124463075Y-90249550D02*
X124463075Y-90106693D01*
X124463075Y-90106693D02*
X124510694Y-89963836D01*
X124510694Y-89963836D02*
X124605932Y-89868598D01*
X124605932Y-89868598D02*
X124701170Y-89820979D01*
X124701170Y-89820979D02*
X124891646Y-89773360D01*
X124891646Y-89773360D02*
X125034503Y-89773360D01*
X125034503Y-89773360D02*
X125224979Y-89820979D01*
X125224979Y-89820979D02*
X125320217Y-89868598D01*
X125320217Y-89868598D02*
X125415456Y-89963836D01*
X125415456Y-89963836D02*
X125463075Y-90106693D01*
X125463075Y-90106693D02*
X125463075Y-90201931D01*
X125463075Y-90201931D02*
X125415456Y-90344788D01*
X125415456Y-90344788D02*
X125367836Y-90392407D01*
X125367836Y-90392407D02*
X125034503Y-90392407D01*
X125034503Y-90392407D02*
X125034503Y-90201931D01*
X125463075Y-90820979D02*
X124796408Y-90820979D01*
X124463075Y-90820979D02*
X124510694Y-90773360D01*
X124510694Y-90773360D02*
X124558313Y-90820979D01*
X124558313Y-90820979D02*
X124510694Y-90868598D01*
X124510694Y-90868598D02*
X124463075Y-90820979D01*
X124463075Y-90820979D02*
X124558313Y-90820979D01*
X124796408Y-91154312D02*
X124796408Y-91535264D01*
X124463075Y-91297169D02*
X125320217Y-91297169D01*
X125320217Y-91297169D02*
X125415456Y-91344788D01*
X125415456Y-91344788D02*
X125463075Y-91440026D01*
X125463075Y-91440026D02*
X125463075Y-91535264D01*
X125463075Y-91868598D02*
X124463075Y-91868598D01*
X125463075Y-92297169D02*
X124939265Y-92297169D01*
X124939265Y-92297169D02*
X124844027Y-92249550D01*
X124844027Y-92249550D02*
X124796408Y-92154312D01*
X124796408Y-92154312D02*
X124796408Y-92011455D01*
X124796408Y-92011455D02*
X124844027Y-91916217D01*
X124844027Y-91916217D02*
X124891646Y-91868598D01*
X124796408Y-93201931D02*
X125463075Y-93201931D01*
X124796408Y-92773360D02*
X125320217Y-92773360D01*
X125320217Y-92773360D02*
X125415456Y-92820979D01*
X125415456Y-92820979D02*
X125463075Y-92916217D01*
X125463075Y-92916217D02*
X125463075Y-93059074D01*
X125463075Y-93059074D02*
X125415456Y-93154312D01*
X125415456Y-93154312D02*
X125367836Y-93201931D01*
X125463075Y-93678122D02*
X124463075Y-93678122D01*
X124844027Y-93678122D02*
X124796408Y-93773360D01*
X124796408Y-93773360D02*
X124796408Y-93963836D01*
X124796408Y-93963836D02*
X124844027Y-94059074D01*
X124844027Y-94059074D02*
X124891646Y-94106693D01*
X124891646Y-94106693D02*
X124986884Y-94154312D01*
X124986884Y-94154312D02*
X125272598Y-94154312D01*
X125272598Y-94154312D02*
X125367836Y-94106693D01*
X125367836Y-94106693D02*
X125415456Y-94059074D01*
X125415456Y-94059074D02*
X125463075Y-93963836D01*
X125463075Y-93963836D02*
X125463075Y-93773360D01*
X125463075Y-93773360D02*
X125415456Y-93678122D01*
X125367836Y-94582884D02*
X125415456Y-94630503D01*
X125415456Y-94630503D02*
X125463075Y-94582884D01*
X125463075Y-94582884D02*
X125415456Y-94535265D01*
X125415456Y-94535265D02*
X125367836Y-94582884D01*
X125367836Y-94582884D02*
X125463075Y-94582884D01*
X124844027Y-94582884D02*
X124891646Y-94630503D01*
X124891646Y-94630503D02*
X124939265Y-94582884D01*
X124939265Y-94582884D02*
X124891646Y-94535265D01*
X124891646Y-94535265D02*
X124844027Y-94582884D01*
X124844027Y-94582884D02*
X124939265Y-94582884D01*
X126073019Y-89678122D02*
X126073019Y-90249550D01*
X127073019Y-89963836D02*
X126073019Y-89963836D01*
X127073019Y-90582884D02*
X126073019Y-90582884D01*
X127073019Y-91011455D02*
X126549209Y-91011455D01*
X126549209Y-91011455D02*
X126453971Y-90963836D01*
X126453971Y-90963836D02*
X126406352Y-90868598D01*
X126406352Y-90868598D02*
X126406352Y-90725741D01*
X126406352Y-90725741D02*
X126453971Y-90630503D01*
X126453971Y-90630503D02*
X126501590Y-90582884D01*
X127073019Y-91487646D02*
X126406352Y-91487646D01*
X126073019Y-91487646D02*
X126120638Y-91440027D01*
X126120638Y-91440027D02*
X126168257Y-91487646D01*
X126168257Y-91487646D02*
X126120638Y-91535265D01*
X126120638Y-91535265D02*
X126073019Y-91487646D01*
X126073019Y-91487646D02*
X126168257Y-91487646D01*
X127073019Y-92392407D02*
X126549209Y-92392407D01*
X126549209Y-92392407D02*
X126453971Y-92344788D01*
X126453971Y-92344788D02*
X126406352Y-92249550D01*
X126406352Y-92249550D02*
X126406352Y-92059074D01*
X126406352Y-92059074D02*
X126453971Y-91963836D01*
X127025400Y-92392407D02*
X127073019Y-92297169D01*
X127073019Y-92297169D02*
X127073019Y-92059074D01*
X127073019Y-92059074D02*
X127025400Y-91963836D01*
X127025400Y-91963836D02*
X126930161Y-91916217D01*
X126930161Y-91916217D02*
X126834923Y-91916217D01*
X126834923Y-91916217D02*
X126739685Y-91963836D01*
X126739685Y-91963836D02*
X126692066Y-92059074D01*
X126692066Y-92059074D02*
X126692066Y-92297169D01*
X126692066Y-92297169D02*
X126644447Y-92392407D01*
X126406352Y-92868598D02*
X127406352Y-92868598D01*
X126453971Y-92868598D02*
X126406352Y-92963836D01*
X126406352Y-92963836D02*
X126406352Y-93154312D01*
X126406352Y-93154312D02*
X126453971Y-93249550D01*
X126453971Y-93249550D02*
X126501590Y-93297169D01*
X126501590Y-93297169D02*
X126596828Y-93344788D01*
X126596828Y-93344788D02*
X126882542Y-93344788D01*
X126882542Y-93344788D02*
X126977780Y-93297169D01*
X126977780Y-93297169D02*
X127025400Y-93249550D01*
X127025400Y-93249550D02*
X127073019Y-93154312D01*
X127073019Y-93154312D02*
X127073019Y-92963836D01*
X127073019Y-92963836D02*
X127025400Y-92868598D01*
X127073019Y-94201931D02*
X126549209Y-94201931D01*
X126549209Y-94201931D02*
X126453971Y-94154312D01*
X126453971Y-94154312D02*
X126406352Y-94059074D01*
X126406352Y-94059074D02*
X126406352Y-93868598D01*
X126406352Y-93868598D02*
X126453971Y-93773360D01*
X127025400Y-94201931D02*
X127073019Y-94106693D01*
X127073019Y-94106693D02*
X127073019Y-93868598D01*
X127073019Y-93868598D02*
X127025400Y-93773360D01*
X127025400Y-93773360D02*
X126930161Y-93725741D01*
X126930161Y-93725741D02*
X126834923Y-93725741D01*
X126834923Y-93725741D02*
X126739685Y-93773360D01*
X126739685Y-93773360D02*
X126692066Y-93868598D01*
X126692066Y-93868598D02*
X126692066Y-94106693D01*
X126692066Y-94106693D02*
X126644447Y-94201931D01*
X127073019Y-94820979D02*
X127025400Y-94725741D01*
X127025400Y-94725741D02*
X126930161Y-94678122D01*
X126930161Y-94678122D02*
X126073019Y-94678122D01*
X127073019Y-95201932D02*
X126406352Y-95201932D01*
X126501590Y-95201932D02*
X126453971Y-95249551D01*
X126453971Y-95249551D02*
X126406352Y-95344789D01*
X126406352Y-95344789D02*
X126406352Y-95487646D01*
X126406352Y-95487646D02*
X126453971Y-95582884D01*
X126453971Y-95582884D02*
X126549209Y-95630503D01*
X126549209Y-95630503D02*
X127073019Y-95630503D01*
X126549209Y-95630503D02*
X126453971Y-95678122D01*
X126453971Y-95678122D02*
X126406352Y-95773360D01*
X126406352Y-95773360D02*
X126406352Y-95916217D01*
X126406352Y-95916217D02*
X126453971Y-96011456D01*
X126453971Y-96011456D02*
X126549209Y-96059075D01*
X126549209Y-96059075D02*
X127073019Y-96059075D01*
X142865239Y-111937800D02*
X142722382Y-111985419D01*
X142722382Y-111985419D02*
X142484287Y-111985419D01*
X142484287Y-111985419D02*
X142389049Y-111937800D01*
X142389049Y-111937800D02*
X142341430Y-111890180D01*
X142341430Y-111890180D02*
X142293811Y-111794942D01*
X142293811Y-111794942D02*
X142293811Y-111699704D01*
X142293811Y-111699704D02*
X142341430Y-111604466D01*
X142341430Y-111604466D02*
X142389049Y-111556847D01*
X142389049Y-111556847D02*
X142484287Y-111509228D01*
X142484287Y-111509228D02*
X142674763Y-111461609D01*
X142674763Y-111461609D02*
X142770001Y-111413990D01*
X142770001Y-111413990D02*
X142817620Y-111366371D01*
X142817620Y-111366371D02*
X142865239Y-111271133D01*
X142865239Y-111271133D02*
X142865239Y-111175895D01*
X142865239Y-111175895D02*
X142817620Y-111080657D01*
X142817620Y-111080657D02*
X142770001Y-111033038D01*
X142770001Y-111033038D02*
X142674763Y-110985419D01*
X142674763Y-110985419D02*
X142436668Y-110985419D01*
X142436668Y-110985419D02*
X142293811Y-111033038D01*
X141293811Y-111890180D02*
X141341430Y-111937800D01*
X141341430Y-111937800D02*
X141484287Y-111985419D01*
X141484287Y-111985419D02*
X141579525Y-111985419D01*
X141579525Y-111985419D02*
X141722382Y-111937800D01*
X141722382Y-111937800D02*
X141817620Y-111842561D01*
X141817620Y-111842561D02*
X141865239Y-111747323D01*
X141865239Y-111747323D02*
X141912858Y-111556847D01*
X141912858Y-111556847D02*
X141912858Y-111413990D01*
X141912858Y-111413990D02*
X141865239Y-111223514D01*
X141865239Y-111223514D02*
X141817620Y-111128276D01*
X141817620Y-111128276D02*
X141722382Y-111033038D01*
X141722382Y-111033038D02*
X141579525Y-110985419D01*
X141579525Y-110985419D02*
X141484287Y-110985419D01*
X141484287Y-110985419D02*
X141341430Y-111033038D01*
X141341430Y-111033038D02*
X141293811Y-111080657D01*
X140389049Y-111985419D02*
X140865239Y-111985419D01*
X140865239Y-111985419D02*
X140865239Y-110985419D01*
X142370011Y-113674638D02*
X142465249Y-113627019D01*
X142465249Y-113627019D02*
X142608106Y-113627019D01*
X142608106Y-113627019D02*
X142750963Y-113674638D01*
X142750963Y-113674638D02*
X142846201Y-113769876D01*
X142846201Y-113769876D02*
X142893820Y-113865114D01*
X142893820Y-113865114D02*
X142941439Y-114055590D01*
X142941439Y-114055590D02*
X142941439Y-114198447D01*
X142941439Y-114198447D02*
X142893820Y-114388923D01*
X142893820Y-114388923D02*
X142846201Y-114484161D01*
X142846201Y-114484161D02*
X142750963Y-114579400D01*
X142750963Y-114579400D02*
X142608106Y-114627019D01*
X142608106Y-114627019D02*
X142512868Y-114627019D01*
X142512868Y-114627019D02*
X142370011Y-114579400D01*
X142370011Y-114579400D02*
X142322392Y-114531780D01*
X142322392Y-114531780D02*
X142322392Y-114198447D01*
X142322392Y-114198447D02*
X142512868Y-114198447D01*
X141893820Y-114627019D02*
X141893820Y-113627019D01*
X141893820Y-113627019D02*
X141322392Y-114627019D01*
X141322392Y-114627019D02*
X141322392Y-113627019D01*
X140846201Y-114627019D02*
X140846201Y-113627019D01*
X140846201Y-113627019D02*
X140608106Y-113627019D01*
X140608106Y-113627019D02*
X140465249Y-113674638D01*
X140465249Y-113674638D02*
X140370011Y-113769876D01*
X140370011Y-113769876D02*
X140322392Y-113865114D01*
X140322392Y-113865114D02*
X140274773Y-114055590D01*
X140274773Y-114055590D02*
X140274773Y-114198447D01*
X140274773Y-114198447D02*
X140322392Y-114388923D01*
X140322392Y-114388923D02*
X140370011Y-114484161D01*
X140370011Y-114484161D02*
X140465249Y-114579400D01*
X140465249Y-114579400D02*
X140608106Y-114627019D01*
X140608106Y-114627019D02*
X140846201Y-114627019D01*
D11*
X129655438Y-100586747D02*
X127655438Y-100586747D01*
X127655438Y-100586747D02*
X127655438Y-101348652D01*
X127655438Y-101348652D02*
X127750676Y-101539128D01*
X127750676Y-101539128D02*
X127845914Y-101634366D01*
X127845914Y-101634366D02*
X128036390Y-101729604D01*
X128036390Y-101729604D02*
X128322104Y-101729604D01*
X128322104Y-101729604D02*
X128512580Y-101634366D01*
X128512580Y-101634366D02*
X128607819Y-101539128D01*
X128607819Y-101539128D02*
X128703057Y-101348652D01*
X128703057Y-101348652D02*
X128703057Y-100586747D01*
X129655438Y-102872461D02*
X129560200Y-102681985D01*
X129560200Y-102681985D02*
X129464961Y-102586747D01*
X129464961Y-102586747D02*
X129274485Y-102491509D01*
X129274485Y-102491509D02*
X128703057Y-102491509D01*
X128703057Y-102491509D02*
X128512580Y-102586747D01*
X128512580Y-102586747D02*
X128417342Y-102681985D01*
X128417342Y-102681985D02*
X128322104Y-102872461D01*
X128322104Y-102872461D02*
X128322104Y-103158176D01*
X128322104Y-103158176D02*
X128417342Y-103348652D01*
X128417342Y-103348652D02*
X128512580Y-103443890D01*
X128512580Y-103443890D02*
X128703057Y-103539128D01*
X128703057Y-103539128D02*
X129274485Y-103539128D01*
X129274485Y-103539128D02*
X129464961Y-103443890D01*
X129464961Y-103443890D02*
X129560200Y-103348652D01*
X129560200Y-103348652D02*
X129655438Y-103158176D01*
X129655438Y-103158176D02*
X129655438Y-102872461D01*
X128322104Y-104205795D02*
X129655438Y-104586747D01*
X129655438Y-104586747D02*
X128703057Y-104967700D01*
X128703057Y-104967700D02*
X129655438Y-105348652D01*
X129655438Y-105348652D02*
X128322104Y-105729604D01*
X129655438Y-106491509D02*
X127655438Y-106491509D01*
X127655438Y-106491509D02*
X129084009Y-107158176D01*
X129084009Y-107158176D02*
X127655438Y-107824842D01*
X127655438Y-107824842D02*
X129655438Y-107824842D01*
X129655438Y-109062937D02*
X129560200Y-108872461D01*
X129560200Y-108872461D02*
X129464961Y-108777223D01*
X129464961Y-108777223D02*
X129274485Y-108681985D01*
X129274485Y-108681985D02*
X128703057Y-108681985D01*
X128703057Y-108681985D02*
X128512580Y-108777223D01*
X128512580Y-108777223D02*
X128417342Y-108872461D01*
X128417342Y-108872461D02*
X128322104Y-109062937D01*
X128322104Y-109062937D02*
X128322104Y-109348652D01*
X128322104Y-109348652D02*
X128417342Y-109539128D01*
X128417342Y-109539128D02*
X128512580Y-109634366D01*
X128512580Y-109634366D02*
X128703057Y-109729604D01*
X128703057Y-109729604D02*
X129274485Y-109729604D01*
X129274485Y-109729604D02*
X129464961Y-109634366D01*
X129464961Y-109634366D02*
X129560200Y-109539128D01*
X129560200Y-109539128D02*
X129655438Y-109348652D01*
X129655438Y-109348652D02*
X129655438Y-109062937D01*
X128322104Y-110586747D02*
X129655438Y-110586747D01*
X128512580Y-110586747D02*
X128417342Y-110681985D01*
X128417342Y-110681985D02*
X128322104Y-110872461D01*
X128322104Y-110872461D02*
X128322104Y-111158176D01*
X128322104Y-111158176D02*
X128417342Y-111348652D01*
X128417342Y-111348652D02*
X128607819Y-111443890D01*
X128607819Y-111443890D02*
X129655438Y-111443890D01*
D10*
X136110504Y-90844019D02*
X135539076Y-90844019D01*
X135824790Y-91844019D02*
X135824790Y-90844019D01*
X135205742Y-91844019D02*
X135205742Y-90844019D01*
X135205742Y-90844019D02*
X134824790Y-90844019D01*
X134824790Y-90844019D02*
X134729552Y-90891638D01*
X134729552Y-90891638D02*
X134681933Y-90939257D01*
X134681933Y-90939257D02*
X134634314Y-91034495D01*
X134634314Y-91034495D02*
X134634314Y-91177352D01*
X134634314Y-91177352D02*
X134681933Y-91272590D01*
X134681933Y-91272590D02*
X134729552Y-91320209D01*
X134729552Y-91320209D02*
X134824790Y-91367828D01*
X134824790Y-91367828D02*
X135205742Y-91367828D01*
X134300980Y-90844019D02*
X133681933Y-90844019D01*
X133681933Y-90844019D02*
X134015266Y-91224971D01*
X134015266Y-91224971D02*
X133872409Y-91224971D01*
X133872409Y-91224971D02*
X133777171Y-91272590D01*
X133777171Y-91272590D02*
X133729552Y-91320209D01*
X133729552Y-91320209D02*
X133681933Y-91415447D01*
X133681933Y-91415447D02*
X133681933Y-91653542D01*
X133681933Y-91653542D02*
X133729552Y-91748780D01*
X133729552Y-91748780D02*
X133777171Y-91796400D01*
X133777171Y-91796400D02*
X133872409Y-91844019D01*
X133872409Y-91844019D02*
X134158123Y-91844019D01*
X134158123Y-91844019D02*
X134253361Y-91796400D01*
X134253361Y-91796400D02*
X134300980Y-91748780D01*
X142308104Y-102040419D02*
X141736676Y-102040419D01*
X142022390Y-103040419D02*
X142022390Y-102040419D01*
X141403342Y-103040419D02*
X141403342Y-102040419D01*
X141403342Y-102040419D02*
X141022390Y-102040419D01*
X141022390Y-102040419D02*
X140927152Y-102088038D01*
X140927152Y-102088038D02*
X140879533Y-102135657D01*
X140879533Y-102135657D02*
X140831914Y-102230895D01*
X140831914Y-102230895D02*
X140831914Y-102373752D01*
X140831914Y-102373752D02*
X140879533Y-102468990D01*
X140879533Y-102468990D02*
X140927152Y-102516609D01*
X140927152Y-102516609D02*
X141022390Y-102564228D01*
X141022390Y-102564228D02*
X141403342Y-102564228D01*
X140450961Y-102135657D02*
X140403342Y-102088038D01*
X140403342Y-102088038D02*
X140308104Y-102040419D01*
X140308104Y-102040419D02*
X140070009Y-102040419D01*
X140070009Y-102040419D02*
X139974771Y-102088038D01*
X139974771Y-102088038D02*
X139927152Y-102135657D01*
X139927152Y-102135657D02*
X139879533Y-102230895D01*
X139879533Y-102230895D02*
X139879533Y-102326133D01*
X139879533Y-102326133D02*
X139927152Y-102468990D01*
X139927152Y-102468990D02*
X140498580Y-103040419D01*
X140498580Y-103040419D02*
X139879533Y-103040419D01*
X136516904Y-107760419D02*
X135945476Y-107760419D01*
X136231190Y-108760419D02*
X136231190Y-107760419D01*
X135612142Y-108760419D02*
X135612142Y-107760419D01*
X135612142Y-107760419D02*
X135231190Y-107760419D01*
X135231190Y-107760419D02*
X135135952Y-107808038D01*
X135135952Y-107808038D02*
X135088333Y-107855657D01*
X135088333Y-107855657D02*
X135040714Y-107950895D01*
X135040714Y-107950895D02*
X135040714Y-108093752D01*
X135040714Y-108093752D02*
X135088333Y-108188990D01*
X135088333Y-108188990D02*
X135135952Y-108236609D01*
X135135952Y-108236609D02*
X135231190Y-108284228D01*
X135231190Y-108284228D02*
X135612142Y-108284228D01*
X134088333Y-108760419D02*
X134659761Y-108760419D01*
X134374047Y-108760419D02*
X134374047Y-107760419D01*
X134374047Y-107760419D02*
X134469285Y-107903276D01*
X134469285Y-107903276D02*
X134564523Y-107998514D01*
X134564523Y-107998514D02*
X134659761Y-108046133D01*
%LPC*%
D12*
%TO.C,J5*%
X122960000Y-117246400D03*
D13*
X125500000Y-117246400D03*
X128040000Y-117246400D03*
%TD*%
D14*
%TO.C,H3*%
X116512600Y-87993400D03*
%TD*%
D15*
%TO.C,J6*%
X116522200Y-114000600D03*
D13*
X116522200Y-111460600D03*
X116522200Y-108920600D03*
X116522200Y-106380600D03*
%TD*%
D16*
%TO.C,P2*%
X118110000Y-94500000D03*
X118110000Y-99500000D03*
%TD*%
D14*
%TO.C,H2*%
X144512600Y-121993400D03*
%TD*%
%TO.C,H1*%
X144512600Y-87993400D03*
%TD*%
D16*
%TO.C,P1*%
X143000000Y-99500000D03*
X143000000Y-94500000D03*
%TD*%
D14*
%TO.C,H4*%
X116512600Y-121993400D03*
%TD*%
D12*
%TO.C,J4*%
X122960000Y-121023200D03*
D13*
X125500000Y-121023200D03*
X128040000Y-121023200D03*
%TD*%
D12*
%TO.C,J3*%
X133000000Y-117246400D03*
D13*
X135540000Y-117246400D03*
X138080000Y-117246400D03*
%TD*%
D12*
%TO.C,J2*%
X133000000Y-120925200D03*
D13*
X135540000Y-120925200D03*
X138080000Y-120925200D03*
%TD*%
D17*
%TO.C,J7*%
X144500600Y-106400600D03*
D13*
X144500600Y-108940600D03*
X144500600Y-111480600D03*
X144500600Y-114020600D03*
%TD*%
D18*
%TO.C,TP3*%
X134848600Y-93370400D03*
%TD*%
%TO.C,TP2*%
X138353800Y-103500000D03*
%TD*%
%TO.C,TP1*%
X135204200Y-106273600D03*
%TD*%
%LPD*%
M02*
