%TF.GenerationSoftware,KiCad,Pcbnew,9.0.0*%
%TF.CreationDate,2025-04-01T13:34:09-03:00*%
%TF.ProjectId,KDT_Hierarchical,4b44545f-4869-4657-9261-726368696361,1.1*%
%TF.SameCoordinates,Original*%
%TF.FileFunction,Copper,L2,Bot*%
%TF.FilePolarity,Positive*%
%FSLAX46Y46*%
G04 Gerber Fmt 4.6, Leading zero omitted, Abs format (unit mm)*
G04 Created by KiCad (PCBNEW 9.0.0) date 2025-04-01 13:34:09*
%MOMM*%
%LPD*%
G01*
G04 APERTURE LIST*
%TA.AperFunction,ComponentPad*%
%ADD10C,2.000000*%
%TD*%
%TA.AperFunction,ComponentPad*%
%ADD11R,1.700000X1.700000*%
%TD*%
%TA.AperFunction,ComponentPad*%
%ADD12O,1.700000X1.700000*%
%TD*%
%TA.AperFunction,ComponentPad*%
%ADD13C,2.200000*%
%TD*%
%TA.AperFunction,ViaPad*%
%ADD14C,0.550000*%
%TD*%
%TA.AperFunction,Conductor*%
%ADD15C,0.200000*%
%TD*%
G04 APERTURE END LIST*
D10*
%TO.P,TP3,1,1*%
%TO.N,GND*%
X134848600Y-93370400D03*
%TD*%
%TO.P,TP2,1,1*%
%TO.N,VCC*%
X138353800Y-102946200D03*
%TD*%
%TO.P,TP1,1,1*%
%TO.N,VBUS*%
X135204200Y-106273600D03*
%TD*%
D11*
%TO.P,J7,1,Pin_1*%
%TO.N,VCC*%
X144500600Y-106400600D03*
D12*
%TO.P,J7,2,Pin_2*%
%TO.N,/Project Architecture/Sense/SDA*%
X144500600Y-108940600D03*
%TO.P,J7,3,Pin_3*%
%TO.N,/Project Architecture/Sense/SCL*%
X144500600Y-111480600D03*
%TO.P,J7,4,Pin_4*%
%TO.N,GND*%
X144500600Y-114020600D03*
%TD*%
D11*
%TO.P,J6,1,Pin_1*%
%TO.N,GND*%
X116522200Y-114000600D03*
D12*
%TO.P,J6,2,Pin_2*%
%TO.N,/Project Architecture/Sense/SCL*%
X116522200Y-111460600D03*
%TO.P,J6,3,Pin_3*%
%TO.N,/Project Architecture/Sense/SDA*%
X116522200Y-108920600D03*
%TO.P,J6,4,Pin_4*%
%TO.N,VCC*%
X116522200Y-106380600D03*
%TD*%
D11*
%TO.P,J5,1,Pin_1*%
%TO.N,/Project Architecture/Sense/SDA*%
X122847100Y-117246400D03*
D12*
%TO.P,J5,2,Pin_2*%
%TO.N,/Project Architecture/Sense/A1*%
X125387100Y-117246400D03*
%TO.P,J5,3,Pin_3*%
%TO.N,/Project Architecture/Sense/SCL*%
X127927100Y-117246400D03*
%TD*%
D13*
%TO.P,P2,1,1*%
%TO.N,GND*%
X118110000Y-93512000D03*
%TO.P,P2,2,2*%
%TO.N,/Project Architecture/Sense/VIN+*%
X118110000Y-98512000D03*
%TD*%
%TO.P,P1,1,1*%
%TO.N,/Project Architecture/Sense/VIN-*%
X142976600Y-98537400D03*
%TO.P,P1,2,2*%
%TO.N,GND*%
X142976600Y-93537400D03*
%TD*%
D11*
%TO.P,J4,1,Pin_1*%
%TO.N,VCC*%
X122847100Y-121023200D03*
D12*
%TO.P,J4,2,Pin_2*%
%TO.N,/Project Architecture/Sense/A1*%
X125387100Y-121023200D03*
%TO.P,J4,3,Pin_3*%
%TO.N,GND*%
X127927100Y-121023200D03*
%TD*%
D11*
%TO.P,J3,1,Pin_1*%
%TO.N,/Project Architecture/Sense/SDA*%
X134340600Y-117246400D03*
D12*
%TO.P,J3,2,Pin_2*%
%TO.N,/Project Architecture/Sense/A0*%
X136880600Y-117246400D03*
%TO.P,J3,3,Pin_3*%
%TO.N,/Project Architecture/Sense/SCL*%
X139420600Y-117246400D03*
%TD*%
D11*
%TO.P,J2,1,Pin_1*%
%TO.N,VCC*%
X134340600Y-120925200D03*
D12*
%TO.P,J2,2,Pin_2*%
%TO.N,/Project Architecture/Sense/A0*%
X136880600Y-120925200D03*
%TO.P,J2,3,Pin_3*%
%TO.N,GND*%
X139420600Y-120925200D03*
%TD*%
D14*
%TO.N,/Project Architecture/Sense/SCL*%
X122682000Y-111912400D03*
%TO.N,GND*%
X133070600Y-93853000D03*
X125730000Y-101600000D03*
X130911600Y-111480600D03*
X123774200Y-88265000D03*
X139700000Y-110896400D03*
X135128000Y-101600000D03*
%TO.N,/Project Architecture/Sense/A1*%
X126619000Y-109626400D03*
%TD*%
D15*
%TO.N,/Project Architecture/Sense/SCL*%
X118694200Y-111912400D02*
X122682000Y-111912400D01*
X118242400Y-111460600D02*
X118694200Y-111912400D01*
X116522200Y-111460600D02*
X118242400Y-111460600D01*
%TO.N,/Project Architecture/Sense/SDA*%
X141198600Y-119126000D02*
X136220200Y-119126000D01*
X142697200Y-117627400D02*
X141198600Y-119126000D01*
X136220200Y-119126000D02*
X134340600Y-117246400D01*
X142697200Y-109778800D02*
X142697200Y-117627400D01*
X143535400Y-108940600D02*
X142697200Y-109778800D01*
X144500600Y-108940600D02*
X143535400Y-108940600D01*
X132486400Y-119049800D02*
X124650500Y-119049800D01*
X134340600Y-117246400D02*
X132486400Y-119100600D01*
X124650500Y-119049800D02*
X122847100Y-117246400D01*
%TO.N,/Project Architecture/Sense/SCL*%
X130187700Y-114985800D02*
X137210800Y-114985800D01*
X127927100Y-117246400D02*
X130187700Y-114985800D01*
X137210800Y-115036600D02*
X139420600Y-117246400D01*
%TO.N,/Project Architecture/Sense/A1*%
X126619000Y-116014500D02*
X125387100Y-117246400D01*
X126619000Y-109626400D02*
X126619000Y-116014500D01*
%TD*%
%TA.AperFunction,Conductor*%
%TO.N,GND*%
G36*
X144490936Y-85494126D02*
G01*
X144780996Y-85511671D01*
X144795859Y-85513476D01*
X145077998Y-85565180D01*
X145092535Y-85568763D01*
X145366372Y-85654095D01*
X145380363Y-85659400D01*
X145641943Y-85777127D01*
X145655189Y-85784080D01*
X145900665Y-85932475D01*
X145912976Y-85940973D01*
X146138773Y-86117873D01*
X146149981Y-86127803D01*
X146352796Y-86330618D01*
X146362726Y-86341826D01*
X146482681Y-86494938D01*
X146539622Y-86567617D01*
X146548128Y-86579940D01*
X146696516Y-86825404D01*
X146703475Y-86838663D01*
X146821197Y-87100231D01*
X146826506Y-87114232D01*
X146911835Y-87388063D01*
X146915419Y-87402601D01*
X146967123Y-87684740D01*
X146968928Y-87699605D01*
X146986474Y-87989663D01*
X146986700Y-87997150D01*
X146986700Y-121989649D01*
X146986474Y-121997136D01*
X146968928Y-122287194D01*
X146967123Y-122302059D01*
X146915419Y-122584198D01*
X146911835Y-122598736D01*
X146826506Y-122872567D01*
X146821197Y-122886568D01*
X146703475Y-123148136D01*
X146696516Y-123161395D01*
X146548128Y-123406859D01*
X146539622Y-123419182D01*
X146362726Y-123644973D01*
X146352796Y-123656181D01*
X146149981Y-123858996D01*
X146138773Y-123868926D01*
X145912982Y-124045822D01*
X145900659Y-124054328D01*
X145655195Y-124202716D01*
X145641936Y-124209675D01*
X145380368Y-124327397D01*
X145366367Y-124332706D01*
X145092536Y-124418035D01*
X145077998Y-124421619D01*
X144795859Y-124473323D01*
X144780994Y-124475128D01*
X144490936Y-124492674D01*
X144483449Y-124492900D01*
X116490951Y-124492900D01*
X116483464Y-124492674D01*
X116193405Y-124475128D01*
X116178540Y-124473323D01*
X115896401Y-124421619D01*
X115881863Y-124418035D01*
X115608032Y-124332706D01*
X115594031Y-124327397D01*
X115332463Y-124209675D01*
X115319204Y-124202716D01*
X115073740Y-124054328D01*
X115061417Y-124045822D01*
X114835626Y-123868926D01*
X114824418Y-123858996D01*
X114621603Y-123656181D01*
X114611673Y-123644973D01*
X114582009Y-123607110D01*
X114434773Y-123419176D01*
X114426275Y-123406865D01*
X114277880Y-123161389D01*
X114270927Y-123148143D01*
X114153200Y-122886563D01*
X114147893Y-122872567D01*
X114062564Y-122598736D01*
X114058980Y-122584198D01*
X114007275Y-122302057D01*
X114005471Y-122287194D01*
X113987926Y-121997136D01*
X113987700Y-121989649D01*
X113987700Y-121881949D01*
X114812100Y-121881949D01*
X114812100Y-122104850D01*
X114812101Y-122104866D01*
X114841194Y-122325852D01*
X114841195Y-122325857D01*
X114841196Y-122325863D01*
X114898890Y-122541180D01*
X114898893Y-122541190D01*
X114984193Y-122747122D01*
X114984195Y-122747126D01*
X115095652Y-122940174D01*
X115095657Y-122940180D01*
X115095658Y-122940182D01*
X115231351Y-123117022D01*
X115231357Y-123117029D01*
X115388970Y-123274642D01*
X115388976Y-123274647D01*
X115565826Y-123410348D01*
X115758874Y-123521805D01*
X115964819Y-123607110D01*
X116180137Y-123664804D01*
X116401143Y-123693900D01*
X116401150Y-123693900D01*
X116624050Y-123693900D01*
X116624057Y-123693900D01*
X116845063Y-123664804D01*
X117060381Y-123607110D01*
X117266326Y-123521805D01*
X117459374Y-123410348D01*
X117636224Y-123274647D01*
X117793847Y-123117024D01*
X117929548Y-122940174D01*
X118041005Y-122747126D01*
X118126310Y-122541181D01*
X118184004Y-122325863D01*
X118213100Y-122104857D01*
X118213100Y-121881943D01*
X118184004Y-121660937D01*
X118126310Y-121445619D01*
X118125397Y-121443416D01*
X118066692Y-121301688D01*
X118041005Y-121239674D01*
X117929548Y-121046626D01*
X117793847Y-120869776D01*
X117793842Y-120869770D01*
X117636229Y-120712157D01*
X117636222Y-120712151D01*
X117459382Y-120576458D01*
X117459380Y-120576457D01*
X117459374Y-120576452D01*
X117266326Y-120464995D01*
X117266322Y-120464993D01*
X117060390Y-120379693D01*
X117060383Y-120379691D01*
X117060381Y-120379690D01*
X116845063Y-120321996D01*
X116845057Y-120321995D01*
X116845052Y-120321994D01*
X116624066Y-120292901D01*
X116624063Y-120292900D01*
X116624057Y-120292900D01*
X116401143Y-120292900D01*
X116401137Y-120292900D01*
X116401133Y-120292901D01*
X116180147Y-120321994D01*
X116180140Y-120321995D01*
X116180137Y-120321996D01*
X116062405Y-120353542D01*
X115964819Y-120379690D01*
X115964809Y-120379693D01*
X115758877Y-120464993D01*
X115758873Y-120464995D01*
X115565826Y-120576452D01*
X115565817Y-120576458D01*
X115388977Y-120712151D01*
X115388970Y-120712157D01*
X115231357Y-120869770D01*
X115231351Y-120869777D01*
X115095658Y-121046617D01*
X115095652Y-121046626D01*
X114984195Y-121239673D01*
X114984193Y-121239677D01*
X114898893Y-121445609D01*
X114898890Y-121445619D01*
X114878747Y-121520796D01*
X114841197Y-121660934D01*
X114841194Y-121660947D01*
X114812101Y-121881933D01*
X114812100Y-121881949D01*
X113987700Y-121881949D01*
X113987700Y-120153447D01*
X121796600Y-120153447D01*
X121796600Y-121892952D01*
X121808231Y-121951429D01*
X121808232Y-121951430D01*
X121852547Y-122017752D01*
X121918869Y-122062067D01*
X121918870Y-122062068D01*
X121977347Y-122073699D01*
X121977350Y-122073700D01*
X121977352Y-122073700D01*
X123716850Y-122073700D01*
X123716851Y-122073699D01*
X123731668Y-122070752D01*
X123775329Y-122062068D01*
X123775329Y-122062067D01*
X123775331Y-122062067D01*
X123841652Y-122017752D01*
X123885967Y-121951431D01*
X123885967Y-121951429D01*
X123885968Y-121951429D01*
X123897599Y-121892952D01*
X123897600Y-121892950D01*
X123897600Y-120919730D01*
X124336600Y-120919730D01*
X124336600Y-121126669D01*
X124376968Y-121329612D01*
X124376970Y-121329620D01*
X124443039Y-121489125D01*
X124456159Y-121520798D01*
X124469936Y-121541417D01*
X124571124Y-121692857D01*
X124717442Y-121839175D01*
X124717445Y-121839177D01*
X124889502Y-121954141D01*
X125080680Y-122033330D01*
X125225152Y-122062067D01*
X125283630Y-122073699D01*
X125283634Y-122073700D01*
X125283635Y-122073700D01*
X125490566Y-122073700D01*
X125490567Y-122073699D01*
X125693520Y-122033330D01*
X125884698Y-121954141D01*
X126056755Y-121839177D01*
X126203077Y-121692855D01*
X126318041Y-121520798D01*
X126386265Y-121356089D01*
X126430104Y-121301688D01*
X126496398Y-121279623D01*
X126564098Y-121296902D01*
X126611709Y-121348039D01*
X126618756Y-121365226D01*
X126676004Y-121541416D01*
X126772479Y-121730757D01*
X126897372Y-121902659D01*
X126897376Y-121902664D01*
X127047635Y-122052923D01*
X127047640Y-122052927D01*
X127219542Y-122177820D01*
X127408882Y-122274295D01*
X127610971Y-122339957D01*
X127677100Y-122350431D01*
X127677100Y-121456212D01*
X127734107Y-121489125D01*
X127861274Y-121523200D01*
X127992926Y-121523200D01*
X128120093Y-121489125D01*
X128177100Y-121456212D01*
X128177100Y-122350430D01*
X128243226Y-122339957D01*
X128243229Y-122339957D01*
X128445317Y-122274295D01*
X128634657Y-122177820D01*
X128806559Y-122052927D01*
X128806564Y-122052923D01*
X128956823Y-121902664D01*
X128956827Y-121902659D01*
X129081720Y-121730757D01*
X129178195Y-121541417D01*
X129243857Y-121339329D01*
X129243857Y-121339326D01*
X129254331Y-121273200D01*
X128360112Y-121273200D01*
X128393025Y-121216193D01*
X128427100Y-121089026D01*
X128427100Y-120957374D01*
X128393025Y-120830207D01*
X128360112Y-120773200D01*
X129254331Y-120773200D01*
X129243857Y-120707073D01*
X129243857Y-120707070D01*
X129178195Y-120504982D01*
X129081720Y-120315642D01*
X128956827Y-120143740D01*
X128956823Y-120143735D01*
X128868535Y-120055447D01*
X133290100Y-120055447D01*
X133290100Y-121794952D01*
X133301731Y-121853429D01*
X133301732Y-121853430D01*
X133346047Y-121919752D01*
X133412369Y-121964067D01*
X133412370Y-121964068D01*
X133470847Y-121975699D01*
X133470850Y-121975700D01*
X133470852Y-121975700D01*
X135210350Y-121975700D01*
X135210351Y-121975699D01*
X135225168Y-121972752D01*
X135268829Y-121964068D01*
X135268829Y-121964067D01*
X135268831Y-121964067D01*
X135335152Y-121919752D01*
X135379467Y-121853431D01*
X135379467Y-121853429D01*
X135379468Y-121853429D01*
X135391099Y-121794952D01*
X135391100Y-121794950D01*
X135391100Y-120055449D01*
X135391099Y-120055447D01*
X135379468Y-119996970D01*
X135379467Y-119996969D01*
X135335152Y-119930647D01*
X135268830Y-119886332D01*
X135268829Y-119886331D01*
X135210352Y-119874700D01*
X135210348Y-119874700D01*
X133470852Y-119874700D01*
X133470847Y-119874700D01*
X133412370Y-119886331D01*
X133412369Y-119886332D01*
X133346047Y-119930647D01*
X133301732Y-119996969D01*
X133301731Y-119996970D01*
X133290100Y-120055447D01*
X128868535Y-120055447D01*
X128806564Y-119993476D01*
X128806559Y-119993472D01*
X128634657Y-119868579D01*
X128445315Y-119772103D01*
X128243224Y-119706441D01*
X128177100Y-119695968D01*
X128177100Y-120590188D01*
X128120093Y-120557275D01*
X127992926Y-120523200D01*
X127861274Y-120523200D01*
X127734107Y-120557275D01*
X127677100Y-120590188D01*
X127677100Y-119695968D01*
X127677099Y-119695968D01*
X127610975Y-119706441D01*
X127408884Y-119772103D01*
X127219542Y-119868579D01*
X127047640Y-119993472D01*
X127047635Y-119993476D01*
X126897376Y-120143735D01*
X126897372Y-120143740D01*
X126772479Y-120315642D01*
X126676005Y-120504981D01*
X126618756Y-120681174D01*
X126579318Y-120738849D01*
X126514959Y-120766047D01*
X126446113Y-120754132D01*
X126394637Y-120706888D01*
X126386264Y-120690307D01*
X126384648Y-120686406D01*
X126352615Y-120609070D01*
X126318043Y-120525605D01*
X126203075Y-120353542D01*
X126056757Y-120207224D01*
X125910088Y-120109224D01*
X125884698Y-120092259D01*
X125795831Y-120055449D01*
X125693520Y-120013070D01*
X125693512Y-120013068D01*
X125490569Y-119972700D01*
X125490565Y-119972700D01*
X125283635Y-119972700D01*
X125283630Y-119972700D01*
X125080687Y-120013068D01*
X125080679Y-120013070D01*
X124889503Y-120092258D01*
X124717442Y-120207224D01*
X124571124Y-120353542D01*
X124456158Y-120525603D01*
X124376970Y-120716779D01*
X124376968Y-120716787D01*
X124336600Y-120919730D01*
X123897600Y-120919730D01*
X123897600Y-120153449D01*
X123897599Y-120153447D01*
X123885968Y-120094970D01*
X123885967Y-120094969D01*
X123841652Y-120028647D01*
X123775330Y-119984332D01*
X123775329Y-119984331D01*
X123716852Y-119972700D01*
X123716848Y-119972700D01*
X121977352Y-119972700D01*
X121977347Y-119972700D01*
X121918870Y-119984331D01*
X121918869Y-119984332D01*
X121852547Y-120028647D01*
X121808232Y-120094969D01*
X121808231Y-120094970D01*
X121796600Y-120153447D01*
X113987700Y-120153447D01*
X113987700Y-116376647D01*
X121796600Y-116376647D01*
X121796600Y-118116152D01*
X121808231Y-118174629D01*
X121808232Y-118174630D01*
X121852547Y-118240952D01*
X121918869Y-118285267D01*
X121918870Y-118285268D01*
X121977347Y-118296899D01*
X121977350Y-118296900D01*
X121977352Y-118296900D01*
X123421267Y-118296900D01*
X123488306Y-118316585D01*
X123508948Y-118333219D01*
X124465989Y-119290260D01*
X124534512Y-119329822D01*
X124610938Y-119350300D01*
X124690062Y-119350300D01*
X132284668Y-119350300D01*
X132346666Y-119366912D01*
X132364854Y-119377412D01*
X132370412Y-119380621D01*
X132446838Y-119401100D01*
X132446841Y-119401100D01*
X132525960Y-119401100D01*
X132525962Y-119401100D01*
X132602388Y-119380621D01*
X132670911Y-119341060D01*
X133678752Y-118333219D01*
X133740075Y-118299734D01*
X133766433Y-118296900D01*
X134914767Y-118296900D01*
X134981806Y-118316585D01*
X135002448Y-118333219D01*
X135979740Y-119310511D01*
X136035689Y-119366460D01*
X136035691Y-119366461D01*
X136035695Y-119366464D01*
X136104204Y-119406017D01*
X136104211Y-119406021D01*
X136180638Y-119426500D01*
X136180640Y-119426500D01*
X138881526Y-119426500D01*
X138948565Y-119446185D01*
X138994320Y-119498989D01*
X139004264Y-119568147D01*
X138975239Y-119631703D01*
X138919844Y-119668431D01*
X138902382Y-119674104D01*
X138713042Y-119770579D01*
X138541140Y-119895472D01*
X138541135Y-119895476D01*
X138390876Y-120045735D01*
X138390872Y-120045740D01*
X138265979Y-120217642D01*
X138169505Y-120406981D01*
X138112256Y-120583174D01*
X138072818Y-120640849D01*
X138008459Y-120668047D01*
X137939613Y-120656132D01*
X137888137Y-120608888D01*
X137879764Y-120592307D01*
X137873199Y-120576458D01*
X137827029Y-120464993D01*
X137811543Y-120427605D01*
X137696575Y-120255542D01*
X137550257Y-120109224D01*
X137429665Y-120028648D01*
X137378198Y-119994259D01*
X137354232Y-119984332D01*
X137187020Y-119915070D01*
X137187012Y-119915068D01*
X136984069Y-119874700D01*
X136984065Y-119874700D01*
X136777135Y-119874700D01*
X136777130Y-119874700D01*
X136574187Y-119915068D01*
X136574179Y-119915070D01*
X136383003Y-119994258D01*
X136210942Y-120109224D01*
X136064624Y-120255542D01*
X135949658Y-120427603D01*
X135870470Y-120618779D01*
X135870468Y-120618787D01*
X135830100Y-120821730D01*
X135830100Y-121028669D01*
X135870468Y-121231612D01*
X135870470Y-121231620D01*
X135936539Y-121391125D01*
X135949659Y-121422798D01*
X135993977Y-121489125D01*
X136064624Y-121594857D01*
X136210942Y-121741175D01*
X136210945Y-121741177D01*
X136383002Y-121856141D01*
X136574180Y-121935330D01*
X136718652Y-121964067D01*
X136777130Y-121975699D01*
X136777134Y-121975700D01*
X136777135Y-121975700D01*
X136984066Y-121975700D01*
X136984067Y-121975699D01*
X137187020Y-121935330D01*
X137378198Y-121856141D01*
X137550255Y-121741177D01*
X137696577Y-121594855D01*
X137811541Y-121422798D01*
X137879765Y-121258089D01*
X137923604Y-121203688D01*
X137989898Y-121181623D01*
X138057598Y-121198902D01*
X138105209Y-121250039D01*
X138112256Y-121267226D01*
X138169504Y-121443416D01*
X138265979Y-121632757D01*
X138390872Y-121804659D01*
X138390876Y-121804664D01*
X138541135Y-121954923D01*
X138541140Y-121954927D01*
X138713042Y-122079820D01*
X138902382Y-122176295D01*
X139104471Y-122241957D01*
X139170600Y-122252431D01*
X139170600Y-121358212D01*
X139227607Y-121391125D01*
X139354774Y-121425200D01*
X139486426Y-121425200D01*
X139613593Y-121391125D01*
X139670600Y-121358212D01*
X139670600Y-122252430D01*
X139736726Y-122241957D01*
X139736729Y-122241957D01*
X139938817Y-122176295D01*
X140128157Y-122079820D01*
X140300059Y-121954927D01*
X140300064Y-121954923D01*
X140373038Y-121881949D01*
X142812100Y-121881949D01*
X142812100Y-122104850D01*
X142812101Y-122104866D01*
X142841194Y-122325852D01*
X142841195Y-122325857D01*
X142841196Y-122325863D01*
X142898890Y-122541180D01*
X142898893Y-122541190D01*
X142984193Y-122747122D01*
X142984195Y-122747126D01*
X143095652Y-122940174D01*
X143095657Y-122940180D01*
X143095658Y-122940182D01*
X143231351Y-123117022D01*
X143231357Y-123117029D01*
X143388970Y-123274642D01*
X143388976Y-123274647D01*
X143565826Y-123410348D01*
X143758874Y-123521805D01*
X143964819Y-123607110D01*
X144180137Y-123664804D01*
X144401143Y-123693900D01*
X144401150Y-123693900D01*
X144624050Y-123693900D01*
X144624057Y-123693900D01*
X144845063Y-123664804D01*
X145060381Y-123607110D01*
X145266326Y-123521805D01*
X145459374Y-123410348D01*
X145636224Y-123274647D01*
X145793847Y-123117024D01*
X145929548Y-122940174D01*
X146041005Y-122747126D01*
X146126310Y-122541181D01*
X146184004Y-122325863D01*
X146213100Y-122104857D01*
X146213100Y-121881943D01*
X146184004Y-121660937D01*
X146126310Y-121445619D01*
X146125397Y-121443416D01*
X146066692Y-121301688D01*
X146041005Y-121239674D01*
X145929548Y-121046626D01*
X145793847Y-120869776D01*
X145793842Y-120869770D01*
X145636229Y-120712157D01*
X145636222Y-120712151D01*
X145459382Y-120576458D01*
X145459380Y-120576457D01*
X145459374Y-120576452D01*
X145266326Y-120464995D01*
X145266322Y-120464993D01*
X145060390Y-120379693D01*
X145060383Y-120379691D01*
X145060381Y-120379690D01*
X144845063Y-120321996D01*
X144845057Y-120321995D01*
X144845052Y-120321994D01*
X144624066Y-120292901D01*
X144624063Y-120292900D01*
X144624057Y-120292900D01*
X144401143Y-120292900D01*
X144401137Y-120292900D01*
X144401133Y-120292901D01*
X144180147Y-120321994D01*
X144180140Y-120321995D01*
X144180137Y-120321996D01*
X144062405Y-120353542D01*
X143964819Y-120379690D01*
X143964809Y-120379693D01*
X143758877Y-120464993D01*
X143758873Y-120464995D01*
X143565826Y-120576452D01*
X143565817Y-120576458D01*
X143388977Y-120712151D01*
X143388970Y-120712157D01*
X143231357Y-120869770D01*
X143231351Y-120869777D01*
X143095658Y-121046617D01*
X143095652Y-121046626D01*
X142984195Y-121239673D01*
X142984193Y-121239677D01*
X142898893Y-121445609D01*
X142898890Y-121445619D01*
X142878747Y-121520796D01*
X142841197Y-121660934D01*
X142841194Y-121660947D01*
X142812101Y-121881933D01*
X142812100Y-121881949D01*
X140373038Y-121881949D01*
X140450323Y-121804664D01*
X140450326Y-121804660D01*
X140575220Y-121632757D01*
X140671695Y-121443417D01*
X140737357Y-121241329D01*
X140737357Y-121241326D01*
X140747831Y-121175200D01*
X139853612Y-121175200D01*
X139886525Y-121118193D01*
X139920600Y-120991026D01*
X139920600Y-120859374D01*
X139886525Y-120732207D01*
X139853612Y-120675200D01*
X140747831Y-120675200D01*
X140737357Y-120609073D01*
X140737357Y-120609070D01*
X140671695Y-120406982D01*
X140575220Y-120217642D01*
X140450327Y-120045740D01*
X140450323Y-120045735D01*
X140300064Y-119895476D01*
X140300059Y-119895472D01*
X140128157Y-119770579D01*
X139938817Y-119674104D01*
X139921356Y-119668431D01*
X139863681Y-119628994D01*
X139836482Y-119564635D01*
X139848396Y-119495789D01*
X139895640Y-119444313D01*
X139959674Y-119426500D01*
X141238160Y-119426500D01*
X141238162Y-119426500D01*
X141314589Y-119406021D01*
X141383111Y-119366460D01*
X141439060Y-119310511D01*
X142937660Y-117811911D01*
X142939222Y-117809205D01*
X142976870Y-117743998D01*
X142976874Y-117744000D01*
X142976906Y-117743932D01*
X142977221Y-117743389D01*
X142997700Y-117666962D01*
X142997700Y-114546747D01*
X143017385Y-114479708D01*
X143070189Y-114433953D01*
X143139347Y-114424009D01*
X143202903Y-114453034D01*
X143239631Y-114508430D01*
X143249503Y-114538815D01*
X143345979Y-114728157D01*
X143470872Y-114900059D01*
X143470876Y-114900064D01*
X143621135Y-115050323D01*
X143621140Y-115050327D01*
X143793042Y-115175220D01*
X143982382Y-115271695D01*
X144184471Y-115337357D01*
X144250600Y-115347831D01*
X144250600Y-114453612D01*
X144307607Y-114486525D01*
X144434774Y-114520600D01*
X144566426Y-114520600D01*
X144693593Y-114486525D01*
X144750600Y-114453612D01*
X144750600Y-115347830D01*
X144816726Y-115337357D01*
X144816729Y-115337357D01*
X145018817Y-115271695D01*
X145208157Y-115175220D01*
X145380059Y-115050327D01*
X145380064Y-115050323D01*
X145530323Y-114900064D01*
X145530327Y-114900059D01*
X145655220Y-114728157D01*
X145751695Y-114538817D01*
X145817357Y-114336729D01*
X145817357Y-114336726D01*
X145827831Y-114270600D01*
X144933612Y-114270600D01*
X144966525Y-114213593D01*
X145000600Y-114086426D01*
X145000600Y-113954774D01*
X144966525Y-113827607D01*
X144933612Y-113770600D01*
X145827831Y-113770600D01*
X145817357Y-113704473D01*
X145817357Y-113704470D01*
X145751695Y-113502382D01*
X145655220Y-113313042D01*
X145530327Y-113141140D01*
X145530323Y-113141135D01*
X145380064Y-112990876D01*
X145380059Y-112990872D01*
X145208157Y-112865979D01*
X145018816Y-112769504D01*
X144842626Y-112712256D01*
X144784950Y-112672818D01*
X144757752Y-112608460D01*
X144769667Y-112539613D01*
X144816911Y-112488138D01*
X144833482Y-112479768D01*
X144998198Y-112411541D01*
X145170255Y-112296577D01*
X145316577Y-112150255D01*
X145431541Y-111978198D01*
X145510730Y-111787020D01*
X145551100Y-111584065D01*
X145551100Y-111377135D01*
X145510730Y-111174180D01*
X145431541Y-110983002D01*
X145316577Y-110810945D01*
X145316575Y-110810942D01*
X145170257Y-110664624D01*
X145084226Y-110607141D01*
X144998198Y-110549659D01*
X144807020Y-110470470D01*
X144807012Y-110470468D01*
X144604069Y-110430100D01*
X144604065Y-110430100D01*
X144397135Y-110430100D01*
X144397130Y-110430100D01*
X144194187Y-110470468D01*
X144194179Y-110470470D01*
X144003003Y-110549658D01*
X143830942Y-110664624D01*
X143684624Y-110810942D01*
X143569658Y-110983003D01*
X143490470Y-111174179D01*
X143490468Y-111174187D01*
X143450100Y-111377130D01*
X143450100Y-111584069D01*
X143490468Y-111787012D01*
X143490470Y-111787020D01*
X143569658Y-111978196D01*
X143684624Y-112150257D01*
X143830942Y-112296575D01*
X144003005Y-112411543D01*
X144084737Y-112445397D01*
X144167708Y-112479764D01*
X144222111Y-112523605D01*
X144244176Y-112589899D01*
X144226897Y-112657598D01*
X144175760Y-112705209D01*
X144158574Y-112712256D01*
X143982381Y-112769505D01*
X143793042Y-112865979D01*
X143621140Y-112990872D01*
X143621135Y-112990876D01*
X143470876Y-113141135D01*
X143470872Y-113141140D01*
X143345979Y-113313042D01*
X143249504Y-113502382D01*
X143239631Y-113532770D01*
X143200194Y-113590446D01*
X143135835Y-113617644D01*
X143066989Y-113605729D01*
X143015513Y-113558485D01*
X142997700Y-113494452D01*
X142997700Y-109954632D01*
X143017385Y-109887593D01*
X143034015Y-109866955D01*
X143420007Y-109480962D01*
X143481328Y-109447479D01*
X143551019Y-109452463D01*
X143606953Y-109494334D01*
X143610788Y-109499754D01*
X143684622Y-109610254D01*
X143684625Y-109610258D01*
X143830942Y-109756575D01*
X143830945Y-109756577D01*
X144003002Y-109871541D01*
X144194180Y-109950730D01*
X144354815Y-109982682D01*
X144397130Y-109991099D01*
X144397134Y-109991100D01*
X144397135Y-109991100D01*
X144604066Y-109991100D01*
X144604067Y-109991099D01*
X144807020Y-109950730D01*
X144998198Y-109871541D01*
X145170255Y-109756577D01*
X145316577Y-109610255D01*
X145431541Y-109438198D01*
X145510730Y-109247020D01*
X145551100Y-109044065D01*
X145551100Y-108837135D01*
X145510730Y-108634180D01*
X145431541Y-108443002D01*
X145316577Y-108270945D01*
X145316575Y-108270942D01*
X145170257Y-108124624D01*
X145084226Y-108067141D01*
X144998198Y-108009659D01*
X144807020Y-107930470D01*
X144807012Y-107930468D01*
X144604069Y-107890100D01*
X144604065Y-107890100D01*
X144397135Y-107890100D01*
X144397130Y-107890100D01*
X144194187Y-107930468D01*
X144194179Y-107930470D01*
X144003003Y-108009658D01*
X143830942Y-108124624D01*
X143684624Y-108270942D01*
X143569657Y-108443004D01*
X143510442Y-108585962D01*
X143466601Y-108640366D01*
X143427979Y-108658283D01*
X143419410Y-108660579D01*
X143419407Y-108660580D01*
X143350892Y-108700137D01*
X143350887Y-108700141D01*
X142456741Y-109594287D01*
X142456735Y-109594295D01*
X142417182Y-109662804D01*
X142417179Y-109662809D01*
X142396700Y-109739239D01*
X142396700Y-117451567D01*
X142377015Y-117518606D01*
X142360381Y-117539248D01*
X141110448Y-118789181D01*
X141049125Y-118822666D01*
X141022767Y-118825500D01*
X136396033Y-118825500D01*
X136328994Y-118805815D01*
X136308352Y-118789181D01*
X135427419Y-117908248D01*
X135393934Y-117846925D01*
X135391100Y-117820567D01*
X135391100Y-117142930D01*
X135830100Y-117142930D01*
X135830100Y-117349869D01*
X135860546Y-117502929D01*
X135870470Y-117552820D01*
X135949659Y-117743998D01*
X135995032Y-117811904D01*
X136064624Y-117916057D01*
X136210942Y-118062375D01*
X136210945Y-118062377D01*
X136383002Y-118177341D01*
X136574180Y-118256530D01*
X136718652Y-118285267D01*
X136777130Y-118296899D01*
X136777134Y-118296900D01*
X136777135Y-118296900D01*
X136984066Y-118296900D01*
X136984067Y-118296899D01*
X137187020Y-118256530D01*
X137378198Y-118177341D01*
X137550255Y-118062377D01*
X137696577Y-117916055D01*
X137811541Y-117743998D01*
X137890730Y-117552820D01*
X137931100Y-117349865D01*
X137931100Y-117142935D01*
X137890730Y-116939980D01*
X137811541Y-116748802D01*
X137696577Y-116576745D01*
X137696575Y-116576742D01*
X137550257Y-116430424D01*
X137382255Y-116318170D01*
X137378198Y-116315459D01*
X137325602Y-116293673D01*
X137187020Y-116236270D01*
X137187012Y-116236268D01*
X136984069Y-116195900D01*
X136984065Y-116195900D01*
X136777135Y-116195900D01*
X136777130Y-116195900D01*
X136574187Y-116236268D01*
X136574179Y-116236270D01*
X136383003Y-116315458D01*
X136210942Y-116430424D01*
X136064624Y-116576742D01*
X135949658Y-116748803D01*
X135870470Y-116939979D01*
X135870468Y-116939987D01*
X135830100Y-117142930D01*
X135391100Y-117142930D01*
X135391100Y-116376649D01*
X135391099Y-116376647D01*
X135379468Y-116318170D01*
X135379467Y-116318169D01*
X135335152Y-116251847D01*
X135268830Y-116207532D01*
X135268829Y-116207531D01*
X135210352Y-116195900D01*
X135210348Y-116195900D01*
X133470852Y-116195900D01*
X133470847Y-116195900D01*
X133412370Y-116207531D01*
X133412369Y-116207532D01*
X133346047Y-116251847D01*
X133301732Y-116318169D01*
X133301731Y-116318170D01*
X133290100Y-116376647D01*
X133290100Y-117820567D01*
X133270415Y-117887606D01*
X133253781Y-117908248D01*
X132449048Y-118712981D01*
X132387725Y-118746466D01*
X132361367Y-118749300D01*
X124826333Y-118749300D01*
X124759294Y-118729615D01*
X124738652Y-118712981D01*
X123933919Y-117908248D01*
X123900434Y-117846925D01*
X123897600Y-117820567D01*
X123897600Y-117142930D01*
X124336600Y-117142930D01*
X124336600Y-117349869D01*
X124367046Y-117502929D01*
X124376970Y-117552820D01*
X124456159Y-117743998D01*
X124501532Y-117811904D01*
X124571124Y-117916057D01*
X124717442Y-118062375D01*
X124717445Y-118062377D01*
X124889502Y-118177341D01*
X125080680Y-118256530D01*
X125225152Y-118285267D01*
X125283630Y-118296899D01*
X125283634Y-118296900D01*
X125283635Y-118296900D01*
X125490566Y-118296900D01*
X125490567Y-118296899D01*
X125693520Y-118256530D01*
X125884698Y-118177341D01*
X126056755Y-118062377D01*
X126203077Y-117916055D01*
X126318041Y-117743998D01*
X126397230Y-117552820D01*
X126437600Y-117349865D01*
X126437600Y-117142935D01*
X126437599Y-117142930D01*
X126876600Y-117142930D01*
X126876600Y-117349869D01*
X126907046Y-117502929D01*
X126916970Y-117552820D01*
X126996159Y-117743998D01*
X127041532Y-117811904D01*
X127111124Y-117916057D01*
X127257442Y-118062375D01*
X127257445Y-118062377D01*
X127429502Y-118177341D01*
X127620680Y-118256530D01*
X127765152Y-118285267D01*
X127823630Y-118296899D01*
X127823634Y-118296900D01*
X127823635Y-118296900D01*
X128030566Y-118296900D01*
X128030567Y-118296899D01*
X128233520Y-118256530D01*
X128424698Y-118177341D01*
X128596755Y-118062377D01*
X128743077Y-117916055D01*
X128858041Y-117743998D01*
X128937230Y-117552820D01*
X128977600Y-117349865D01*
X128977600Y-117142935D01*
X128937230Y-116939980D01*
X128887294Y-116819426D01*
X128879826Y-116749959D01*
X128911101Y-116687480D01*
X128914146Y-116684323D01*
X130275852Y-115322619D01*
X130337175Y-115289134D01*
X130363533Y-115286300D01*
X136984167Y-115286300D01*
X137051206Y-115305985D01*
X137071848Y-115322619D01*
X138433524Y-116684295D01*
X138467009Y-116745618D01*
X138462025Y-116815310D01*
X138460404Y-116819429D01*
X138410470Y-116939979D01*
X138410468Y-116939987D01*
X138370100Y-117142930D01*
X138370100Y-117349869D01*
X138400546Y-117502929D01*
X138410470Y-117552820D01*
X138489659Y-117743998D01*
X138535032Y-117811904D01*
X138604624Y-117916057D01*
X138750942Y-118062375D01*
X138750945Y-118062377D01*
X138923002Y-118177341D01*
X139114180Y-118256530D01*
X139258652Y-118285267D01*
X139317130Y-118296899D01*
X139317134Y-118296900D01*
X139317135Y-118296900D01*
X139524066Y-118296900D01*
X139524067Y-118296899D01*
X139727020Y-118256530D01*
X139918198Y-118177341D01*
X140090255Y-118062377D01*
X140236577Y-117916055D01*
X140351541Y-117743998D01*
X140430730Y-117552820D01*
X140471100Y-117349865D01*
X140471100Y-117142935D01*
X140430730Y-116939980D01*
X140351541Y-116748802D01*
X140236577Y-116576745D01*
X140236575Y-116576742D01*
X140090257Y-116430424D01*
X139922255Y-116318170D01*
X139918198Y-116315459D01*
X139865602Y-116293673D01*
X139727020Y-116236270D01*
X139727012Y-116236268D01*
X139524069Y-116195900D01*
X139524065Y-116195900D01*
X139317135Y-116195900D01*
X139317130Y-116195900D01*
X139114187Y-116236268D01*
X139114179Y-116236270D01*
X138993629Y-116286204D01*
X138924159Y-116293673D01*
X138861680Y-116262398D01*
X138858495Y-116259324D01*
X137522309Y-114923138D01*
X137495488Y-114876678D01*
X137493933Y-114877323D01*
X137490820Y-114869808D01*
X137451264Y-114801295D01*
X137451258Y-114801287D01*
X137395312Y-114745341D01*
X137395304Y-114745335D01*
X137326795Y-114705782D01*
X137326790Y-114705779D01*
X137301313Y-114698952D01*
X137250362Y-114685300D01*
X130148138Y-114685300D01*
X130109924Y-114695539D01*
X130071709Y-114705779D01*
X130071708Y-114705780D01*
X130019193Y-114736100D01*
X130003192Y-114745338D01*
X130003186Y-114745342D01*
X128489204Y-116259323D01*
X128427881Y-116292808D01*
X128358189Y-116287824D01*
X128354071Y-116286203D01*
X128233524Y-116236271D01*
X128233512Y-116236268D01*
X128030569Y-116195900D01*
X128030565Y-116195900D01*
X127823635Y-116195900D01*
X127823630Y-116195900D01*
X127620687Y-116236268D01*
X127620679Y-116236270D01*
X127429503Y-116315458D01*
X127257442Y-116430424D01*
X127111124Y-116576742D01*
X126996158Y-116748803D01*
X126916970Y-116939979D01*
X126916968Y-116939987D01*
X126876600Y-117142930D01*
X126437599Y-117142930D01*
X126397230Y-116939980D01*
X126347294Y-116819426D01*
X126339826Y-116749959D01*
X126371101Y-116687480D01*
X126374144Y-116684325D01*
X126859460Y-116199011D01*
X126899022Y-116130488D01*
X126919500Y-116054062D01*
X126919500Y-115974938D01*
X126919500Y-110049721D01*
X126939185Y-109982682D01*
X126955819Y-109962040D01*
X126967130Y-109950729D01*
X126999495Y-109918364D01*
X127062095Y-109809936D01*
X127094500Y-109689001D01*
X127094500Y-109563799D01*
X127062095Y-109442864D01*
X126999495Y-109334436D01*
X126910964Y-109245905D01*
X126802536Y-109183305D01*
X126802537Y-109183305D01*
X126762224Y-109172503D01*
X126681601Y-109150900D01*
X126556399Y-109150900D01*
X126475775Y-109172503D01*
X126435463Y-109183305D01*
X126327037Y-109245904D01*
X126327034Y-109245906D01*
X126238506Y-109334434D01*
X126238504Y-109334437D01*
X126175905Y-109442863D01*
X126175905Y-109442864D01*
X126143500Y-109563799D01*
X126143500Y-109689001D01*
X126161607Y-109756575D01*
X126175905Y-109809936D01*
X126238504Y-109918362D01*
X126238506Y-109918365D01*
X126282181Y-109962040D01*
X126315666Y-110023363D01*
X126318500Y-110049721D01*
X126318500Y-115838666D01*
X126298815Y-115905705D01*
X126282181Y-115926347D01*
X125949204Y-116259323D01*
X125887881Y-116292808D01*
X125818189Y-116287824D01*
X125814071Y-116286203D01*
X125693524Y-116236271D01*
X125693512Y-116236268D01*
X125490569Y-116195900D01*
X125490565Y-116195900D01*
X125283635Y-116195900D01*
X125283630Y-116195900D01*
X125080687Y-116236268D01*
X125080679Y-116236270D01*
X124889503Y-116315458D01*
X124717442Y-116430424D01*
X124571124Y-116576742D01*
X124456158Y-116748803D01*
X124376970Y-116939979D01*
X124376968Y-116939987D01*
X124336600Y-117142930D01*
X123897600Y-117142930D01*
X123897600Y-116376649D01*
X123897599Y-116376647D01*
X123885968Y-116318170D01*
X123885967Y-116318169D01*
X123841652Y-116251847D01*
X123775330Y-116207532D01*
X123775329Y-116207531D01*
X123716852Y-116195900D01*
X123716848Y-116195900D01*
X121977352Y-116195900D01*
X121977347Y-116195900D01*
X121918870Y-116207531D01*
X121918869Y-116207532D01*
X121852547Y-116251847D01*
X121808232Y-116318169D01*
X121808231Y-116318170D01*
X121796600Y-116376647D01*
X113987700Y-116376647D01*
X113987700Y-113102755D01*
X115172200Y-113102755D01*
X115172200Y-113750600D01*
X116089188Y-113750600D01*
X116056275Y-113807607D01*
X116022200Y-113934774D01*
X116022200Y-114066426D01*
X116056275Y-114193593D01*
X116089188Y-114250600D01*
X115172200Y-114250600D01*
X115172200Y-114898444D01*
X115178601Y-114957972D01*
X115178603Y-114957979D01*
X115228845Y-115092686D01*
X115228849Y-115092693D01*
X115315009Y-115207787D01*
X115315012Y-115207790D01*
X115430106Y-115293950D01*
X115430113Y-115293954D01*
X115564820Y-115344196D01*
X115564827Y-115344198D01*
X115624355Y-115350599D01*
X115624372Y-115350600D01*
X116272200Y-115350600D01*
X116272200Y-114433612D01*
X116329207Y-114466525D01*
X116456374Y-114500600D01*
X116588026Y-114500600D01*
X116715193Y-114466525D01*
X116772200Y-114433612D01*
X116772200Y-115350600D01*
X117420028Y-115350600D01*
X117420044Y-115350599D01*
X117479572Y-115344198D01*
X117479579Y-115344196D01*
X117614286Y-115293954D01*
X117614293Y-115293950D01*
X117729387Y-115207790D01*
X117729390Y-115207787D01*
X117815550Y-115092693D01*
X117815554Y-115092686D01*
X117865796Y-114957979D01*
X117865798Y-114957972D01*
X117872199Y-114898444D01*
X117872200Y-114898427D01*
X117872200Y-114250600D01*
X116955212Y-114250600D01*
X116988125Y-114193593D01*
X117022200Y-114066426D01*
X117022200Y-113934774D01*
X116988125Y-113807607D01*
X116955212Y-113750600D01*
X117872200Y-113750600D01*
X117872200Y-113102772D01*
X117872199Y-113102755D01*
X117865798Y-113043227D01*
X117865796Y-113043220D01*
X117815554Y-112908513D01*
X117815550Y-112908506D01*
X117729390Y-112793412D01*
X117729387Y-112793409D01*
X117614293Y-112707249D01*
X117614286Y-112707245D01*
X117479579Y-112657003D01*
X117479572Y-112657001D01*
X117420044Y-112650600D01*
X117017765Y-112650600D01*
X116950726Y-112630915D01*
X116904971Y-112578111D01*
X116895027Y-112508953D01*
X116924052Y-112445397D01*
X116970312Y-112412039D01*
X116975808Y-112409762D01*
X117019798Y-112391541D01*
X117191855Y-112276577D01*
X117338177Y-112130255D01*
X117453141Y-111958198D01*
X117503075Y-111837646D01*
X117546916Y-111783244D01*
X117613210Y-111761179D01*
X117617636Y-111761100D01*
X118066567Y-111761100D01*
X118133606Y-111780785D01*
X118154248Y-111797419D01*
X118509689Y-112152860D01*
X118578212Y-112192422D01*
X118654638Y-112212900D01*
X118733762Y-112212900D01*
X122258679Y-112212900D01*
X122325718Y-112232585D01*
X122346360Y-112249219D01*
X122390036Y-112292895D01*
X122498464Y-112355495D01*
X122619399Y-112387900D01*
X122619401Y-112387900D01*
X122744599Y-112387900D01*
X122744601Y-112387900D01*
X122865536Y-112355495D01*
X122973964Y-112292895D01*
X123062495Y-112204364D01*
X123125095Y-112095936D01*
X123157500Y-111975001D01*
X123157500Y-111849799D01*
X123125095Y-111728864D01*
X123062495Y-111620436D01*
X122973964Y-111531905D01*
X122865536Y-111469305D01*
X122865537Y-111469305D01*
X122825224Y-111458503D01*
X122744601Y-111436900D01*
X122619399Y-111436900D01*
X122538775Y-111458503D01*
X122498463Y-111469305D01*
X122390037Y-111531904D01*
X122390034Y-111531906D01*
X122346360Y-111575581D01*
X122285037Y-111609066D01*
X122258679Y-111611900D01*
X118870033Y-111611900D01*
X118802994Y-111592215D01*
X118782352Y-111575581D01*
X118426912Y-111220141D01*
X118426904Y-111220135D01*
X118358395Y-111180582D01*
X118358390Y-111180579D01*
X118332913Y-111173752D01*
X118281962Y-111160100D01*
X118281960Y-111160100D01*
X117617636Y-111160100D01*
X117550597Y-111140415D01*
X117504842Y-111087611D01*
X117503075Y-111083553D01*
X117453141Y-110963002D01*
X117338177Y-110790945D01*
X117338175Y-110790942D01*
X117191857Y-110644624D01*
X117049729Y-110549658D01*
X117019798Y-110529659D01*
X116828620Y-110450470D01*
X116828612Y-110450468D01*
X116625669Y-110410100D01*
X116625665Y-110410100D01*
X116418735Y-110410100D01*
X116418730Y-110410100D01*
X116215787Y-110450468D01*
X116215779Y-110450470D01*
X116024603Y-110529658D01*
X115852542Y-110644624D01*
X115706224Y-110790942D01*
X115591258Y-110963003D01*
X115512070Y-111154179D01*
X115512068Y-111154187D01*
X115471700Y-111357130D01*
X115471700Y-111564069D01*
X115504480Y-111728863D01*
X115512070Y-111767020D01*
X115591259Y-111958198D01*
X115648741Y-112044226D01*
X115706224Y-112130257D01*
X115852542Y-112276575D01*
X115852545Y-112276577D01*
X116024602Y-112391541D01*
X116064193Y-112407940D01*
X116074088Y-112412039D01*
X116128491Y-112455880D01*
X116150556Y-112522174D01*
X116133277Y-112589874D01*
X116082139Y-112637484D01*
X116026635Y-112650600D01*
X115624355Y-112650600D01*
X115564827Y-112657001D01*
X115564820Y-112657003D01*
X115430113Y-112707245D01*
X115430106Y-112707249D01*
X115315012Y-112793409D01*
X115315009Y-112793412D01*
X115228849Y-112908506D01*
X115228845Y-112908513D01*
X115178603Y-113043220D01*
X115178601Y-113043227D01*
X115172200Y-113102755D01*
X113987700Y-113102755D01*
X113987700Y-108817130D01*
X115471700Y-108817130D01*
X115471700Y-109024069D01*
X115512068Y-109227012D01*
X115512070Y-109227020D01*
X115591259Y-109418198D01*
X115607740Y-109442863D01*
X115706224Y-109590257D01*
X115852542Y-109736575D01*
X115852545Y-109736577D01*
X116024602Y-109851541D01*
X116215780Y-109930730D01*
X116373187Y-109962040D01*
X116418730Y-109971099D01*
X116418734Y-109971100D01*
X116418735Y-109971100D01*
X116625666Y-109971100D01*
X116625667Y-109971099D01*
X116828620Y-109930730D01*
X117019798Y-109851541D01*
X117191855Y-109736577D01*
X117338177Y-109590255D01*
X117453141Y-109418198D01*
X117532330Y-109227020D01*
X117572700Y-109024065D01*
X117572700Y-108817135D01*
X117532330Y-108614180D01*
X117453141Y-108423002D01*
X117338177Y-108250945D01*
X117338175Y-108250942D01*
X117191857Y-108104624D01*
X117049729Y-108009658D01*
X117019798Y-107989659D01*
X116828620Y-107910470D01*
X116828612Y-107910468D01*
X116625669Y-107870100D01*
X116625665Y-107870100D01*
X116418735Y-107870100D01*
X116418730Y-107870100D01*
X116215787Y-107910468D01*
X116215779Y-107910470D01*
X116024603Y-107989658D01*
X115852542Y-108104624D01*
X115706224Y-108250942D01*
X115591258Y-108423003D01*
X115512070Y-108614179D01*
X115512068Y-108614187D01*
X115471700Y-108817130D01*
X113987700Y-108817130D01*
X113987700Y-106277130D01*
X115471700Y-106277130D01*
X115471700Y-106484069D01*
X115512068Y-106687012D01*
X115512070Y-106687020D01*
X115591258Y-106878196D01*
X115706224Y-107050257D01*
X115852542Y-107196575D01*
X115852545Y-107196577D01*
X116024602Y-107311541D01*
X116215780Y-107390730D01*
X116418730Y-107431099D01*
X116418734Y-107431100D01*
X116418735Y-107431100D01*
X116625666Y-107431100D01*
X116625667Y-107431099D01*
X116828620Y-107390730D01*
X117019798Y-107311541D01*
X117191855Y-107196577D01*
X117338177Y-107050255D01*
X117453141Y-106878198D01*
X117532330Y-106687020D01*
X117572700Y-106484065D01*
X117572700Y-106277135D01*
X117572579Y-106276527D01*
X117557047Y-106198438D01*
X117553203Y-106179113D01*
X134003700Y-106179113D01*
X134003700Y-106368086D01*
X134033259Y-106554718D01*
X134091654Y-106734436D01*
X134164904Y-106878196D01*
X134177440Y-106902799D01*
X134288510Y-107055673D01*
X134422127Y-107189290D01*
X134575001Y-107300360D01*
X134630875Y-107328829D01*
X134743363Y-107386145D01*
X134743365Y-107386145D01*
X134743368Y-107386147D01*
X134839697Y-107417446D01*
X134923081Y-107444540D01*
X135109714Y-107474100D01*
X135109719Y-107474100D01*
X135298686Y-107474100D01*
X135485318Y-107444540D01*
X135500931Y-107439467D01*
X135665032Y-107386147D01*
X135833399Y-107300360D01*
X135986273Y-107189290D01*
X136119890Y-107055673D01*
X136230960Y-106902799D01*
X136316747Y-106734432D01*
X136375140Y-106554718D01*
X136386330Y-106484065D01*
X136404700Y-106368086D01*
X136404700Y-106179113D01*
X136375140Y-105992481D01*
X136339568Y-105883003D01*
X136316747Y-105812768D01*
X136316745Y-105812765D01*
X136316745Y-105812763D01*
X136230959Y-105644400D01*
X136196990Y-105597646D01*
X136172998Y-105564624D01*
X136148458Y-105530847D01*
X143450100Y-105530847D01*
X143450100Y-107270352D01*
X143461731Y-107328829D01*
X143461732Y-107328830D01*
X143506047Y-107395152D01*
X143572369Y-107439467D01*
X143572370Y-107439468D01*
X143630847Y-107451099D01*
X143630850Y-107451100D01*
X143630852Y-107451100D01*
X145370350Y-107451100D01*
X145370351Y-107451099D01*
X145385168Y-107448152D01*
X145428829Y-107439468D01*
X145428829Y-107439467D01*
X145428831Y-107439467D01*
X145495152Y-107395152D01*
X145539467Y-107328831D01*
X145539467Y-107328829D01*
X145539468Y-107328829D01*
X145551099Y-107270352D01*
X145551100Y-107270350D01*
X145551100Y-105530849D01*
X145551099Y-105530847D01*
X145539468Y-105472370D01*
X145539467Y-105472369D01*
X145495152Y-105406047D01*
X145428830Y-105361732D01*
X145428829Y-105361731D01*
X145370352Y-105350100D01*
X145370348Y-105350100D01*
X143630852Y-105350100D01*
X143630847Y-105350100D01*
X143572370Y-105361731D01*
X143572369Y-105361732D01*
X143506047Y-105406047D01*
X143461732Y-105472369D01*
X143461731Y-105472370D01*
X143450100Y-105530847D01*
X136148458Y-105530847D01*
X136119890Y-105491527D01*
X135986273Y-105357910D01*
X135833399Y-105246840D01*
X135665036Y-105161054D01*
X135485318Y-105102659D01*
X135298686Y-105073100D01*
X135298681Y-105073100D01*
X135109719Y-105073100D01*
X135109714Y-105073100D01*
X134923081Y-105102659D01*
X134743363Y-105161054D01*
X134575000Y-105246840D01*
X134487779Y-105310210D01*
X134422127Y-105357910D01*
X134422125Y-105357912D01*
X134422124Y-105357912D01*
X134288512Y-105491524D01*
X134288512Y-105491525D01*
X134288510Y-105491527D01*
X134259942Y-105530847D01*
X134177440Y-105644400D01*
X134091654Y-105812763D01*
X134033259Y-105992481D01*
X134003700Y-106179113D01*
X117553203Y-106179113D01*
X117532331Y-106074187D01*
X117532330Y-106074180D01*
X117453141Y-105883002D01*
X117338177Y-105710945D01*
X117338175Y-105710942D01*
X117191857Y-105564624D01*
X117082454Y-105491524D01*
X117019798Y-105449659D01*
X116914512Y-105406048D01*
X116828620Y-105370470D01*
X116828612Y-105370468D01*
X116625669Y-105330100D01*
X116625665Y-105330100D01*
X116418735Y-105330100D01*
X116418730Y-105330100D01*
X116215787Y-105370468D01*
X116215779Y-105370470D01*
X116024603Y-105449658D01*
X115852542Y-105564624D01*
X115706224Y-105710942D01*
X115591258Y-105883003D01*
X115512070Y-106074179D01*
X115512068Y-106074187D01*
X115471700Y-106277130D01*
X113987700Y-106277130D01*
X113987700Y-102851713D01*
X137153300Y-102851713D01*
X137153300Y-103040686D01*
X137182859Y-103227318D01*
X137241254Y-103407036D01*
X137327040Y-103575399D01*
X137438110Y-103728273D01*
X137571727Y-103861890D01*
X137724601Y-103972960D01*
X137804147Y-104013490D01*
X137892963Y-104058745D01*
X137892965Y-104058745D01*
X137892968Y-104058747D01*
X137989297Y-104090046D01*
X138072681Y-104117140D01*
X138259314Y-104146700D01*
X138259319Y-104146700D01*
X138448286Y-104146700D01*
X138634918Y-104117140D01*
X138814632Y-104058747D01*
X138982999Y-103972960D01*
X139135873Y-103861890D01*
X139269490Y-103728273D01*
X139380560Y-103575399D01*
X139466347Y-103407032D01*
X139524740Y-103227318D01*
X139554300Y-103040686D01*
X139554300Y-102851713D01*
X139524740Y-102665081D01*
X139466345Y-102485363D01*
X139380559Y-102317000D01*
X139269490Y-102164127D01*
X139135873Y-102030510D01*
X138982999Y-101919440D01*
X138814636Y-101833654D01*
X138634918Y-101775259D01*
X138448286Y-101745700D01*
X138448281Y-101745700D01*
X138259319Y-101745700D01*
X138259314Y-101745700D01*
X138072681Y-101775259D01*
X137892963Y-101833654D01*
X137724600Y-101919440D01*
X137637379Y-101982810D01*
X137571727Y-102030510D01*
X137571725Y-102030512D01*
X137571724Y-102030512D01*
X137438112Y-102164124D01*
X137438112Y-102164125D01*
X137438110Y-102164127D01*
X137390410Y-102229779D01*
X137327040Y-102317000D01*
X137241254Y-102485363D01*
X137182859Y-102665081D01*
X137153300Y-102851713D01*
X113987700Y-102851713D01*
X113987700Y-98409648D01*
X116809500Y-98409648D01*
X116809500Y-98614351D01*
X116841522Y-98816534D01*
X116904781Y-99011223D01*
X116997715Y-99193613D01*
X117118028Y-99359213D01*
X117262786Y-99503971D01*
X117417749Y-99616556D01*
X117428390Y-99624287D01*
X117544607Y-99683503D01*
X117610776Y-99717218D01*
X117610778Y-99717218D01*
X117610781Y-99717220D01*
X117688948Y-99742618D01*
X117805465Y-99780477D01*
X117906557Y-99796488D01*
X118007648Y-99812500D01*
X118007649Y-99812500D01*
X118212351Y-99812500D01*
X118212352Y-99812500D01*
X118414534Y-99780477D01*
X118609219Y-99717220D01*
X118791610Y-99624287D01*
X118922259Y-99529366D01*
X118957213Y-99503971D01*
X118957215Y-99503968D01*
X118957219Y-99503966D01*
X119101966Y-99359219D01*
X119101968Y-99359215D01*
X119101971Y-99359213D01*
X119154732Y-99286590D01*
X119222287Y-99193610D01*
X119315220Y-99011219D01*
X119378477Y-98816534D01*
X119410500Y-98614352D01*
X119410500Y-98435048D01*
X141676100Y-98435048D01*
X141676100Y-98639751D01*
X141708122Y-98841934D01*
X141771381Y-99036623D01*
X141864315Y-99219013D01*
X141984628Y-99384613D01*
X142129386Y-99529371D01*
X142284349Y-99641956D01*
X142294990Y-99649687D01*
X142411207Y-99708903D01*
X142477376Y-99742618D01*
X142477378Y-99742618D01*
X142477381Y-99742620D01*
X142581737Y-99776527D01*
X142672065Y-99805877D01*
X142713881Y-99812500D01*
X142874248Y-99837900D01*
X142874249Y-99837900D01*
X143078951Y-99837900D01*
X143078952Y-99837900D01*
X143281134Y-99805877D01*
X143475819Y-99742620D01*
X143658210Y-99649687D01*
X143751190Y-99582132D01*
X143823813Y-99529371D01*
X143823815Y-99529368D01*
X143823819Y-99529366D01*
X143968566Y-99384619D01*
X143968568Y-99384615D01*
X143968571Y-99384613D01*
X144021332Y-99311990D01*
X144088887Y-99219010D01*
X144181820Y-99036619D01*
X144245077Y-98841934D01*
X144277100Y-98639752D01*
X144277100Y-98435048D01*
X144245077Y-98232866D01*
X144181820Y-98038181D01*
X144181818Y-98038178D01*
X144181818Y-98038176D01*
X144148103Y-97972007D01*
X144088887Y-97855790D01*
X144070430Y-97830386D01*
X143968571Y-97690186D01*
X143823813Y-97545428D01*
X143658213Y-97425115D01*
X143658212Y-97425114D01*
X143658210Y-97425113D01*
X143601253Y-97396091D01*
X143475823Y-97332181D01*
X143281134Y-97268922D01*
X143106595Y-97241278D01*
X143078952Y-97236900D01*
X142874248Y-97236900D01*
X142849929Y-97240751D01*
X142672065Y-97268922D01*
X142477376Y-97332181D01*
X142294986Y-97425115D01*
X142129386Y-97545428D01*
X141984628Y-97690186D01*
X141864315Y-97855786D01*
X141771381Y-98038176D01*
X141708122Y-98232865D01*
X141676100Y-98435048D01*
X119410500Y-98435048D01*
X119410500Y-98409648D01*
X119378477Y-98207466D01*
X119315220Y-98012781D01*
X119315218Y-98012778D01*
X119315218Y-98012776D01*
X119281503Y-97946607D01*
X119222287Y-97830390D01*
X119214556Y-97819749D01*
X119101971Y-97664786D01*
X118957213Y-97520028D01*
X118791613Y-97399715D01*
X118791612Y-97399714D01*
X118791610Y-97399713D01*
X118734653Y-97370691D01*
X118609223Y-97306781D01*
X118414534Y-97243522D01*
X118239995Y-97215878D01*
X118212352Y-97211500D01*
X118007648Y-97211500D01*
X117983329Y-97215351D01*
X117805465Y-97243522D01*
X117610776Y-97306781D01*
X117428386Y-97399715D01*
X117262786Y-97520028D01*
X117118028Y-97664786D01*
X116997715Y-97830386D01*
X116904781Y-98012776D01*
X116841522Y-98207465D01*
X116809500Y-98409648D01*
X113987700Y-98409648D01*
X113987700Y-93386071D01*
X116510000Y-93386071D01*
X116510000Y-93637928D01*
X116549397Y-93886669D01*
X116627219Y-94126184D01*
X116741557Y-94350583D01*
X116815748Y-94452697D01*
X116815748Y-94452698D01*
X117470690Y-93797756D01*
X117489668Y-93843574D01*
X117566274Y-93958224D01*
X117663776Y-94055726D01*
X117778426Y-94132332D01*
X117824242Y-94151309D01*
X117169300Y-94806250D01*
X117271416Y-94880442D01*
X117495815Y-94994780D01*
X117735330Y-95072602D01*
X117984072Y-95112000D01*
X118235928Y-95112000D01*
X118484669Y-95072602D01*
X118724184Y-94994780D01*
X118948575Y-94880446D01*
X118948581Y-94880442D01*
X119050697Y-94806250D01*
X119050698Y-94806250D01*
X118395757Y-94151309D01*
X118441574Y-94132332D01*
X118556224Y-94055726D01*
X118653726Y-93958224D01*
X118730332Y-93843574D01*
X118749309Y-93797757D01*
X119404250Y-94452698D01*
X119478442Y-94350581D01*
X119478446Y-94350575D01*
X119592780Y-94126184D01*
X119670602Y-93886669D01*
X119710000Y-93637928D01*
X119710000Y-93386071D01*
X119691121Y-93266873D01*
X119688820Y-93252347D01*
X133348600Y-93252347D01*
X133348600Y-93488452D01*
X133385534Y-93721647D01*
X133458497Y-93946202D01*
X133565687Y-94156574D01*
X133625938Y-94239504D01*
X133625940Y-94239505D01*
X134365637Y-93499808D01*
X134382675Y-93563393D01*
X134448501Y-93677407D01*
X134541593Y-93770499D01*
X134655607Y-93836325D01*
X134719190Y-93853362D01*
X133979493Y-94593058D01*
X134062428Y-94653314D01*
X134272797Y-94760502D01*
X134497352Y-94833465D01*
X134497351Y-94833465D01*
X134730548Y-94870400D01*
X134966652Y-94870400D01*
X135199847Y-94833465D01*
X135424402Y-94760502D01*
X135594359Y-94673906D01*
X135634763Y-94653318D01*
X135634769Y-94653314D01*
X135717704Y-94593058D01*
X135717705Y-94593058D01*
X134978008Y-93853362D01*
X135041593Y-93836325D01*
X135155607Y-93770499D01*
X135248699Y-93677407D01*
X135314525Y-93563393D01*
X135331562Y-93499809D01*
X136071258Y-94239505D01*
X136071258Y-94239504D01*
X136131514Y-94156569D01*
X136131518Y-94156563D01*
X136238702Y-93946202D01*
X136311665Y-93721647D01*
X136348600Y-93488452D01*
X136348600Y-93411471D01*
X141376600Y-93411471D01*
X141376600Y-93663328D01*
X141415997Y-93912069D01*
X141493819Y-94151584D01*
X141608157Y-94375983D01*
X141682348Y-94478097D01*
X141682348Y-94478098D01*
X142337290Y-93823156D01*
X142356268Y-93868974D01*
X142432874Y-93983624D01*
X142530376Y-94081126D01*
X142645026Y-94157732D01*
X142690842Y-94176709D01*
X142035900Y-94831650D01*
X142138016Y-94905842D01*
X142362415Y-95020180D01*
X142601930Y-95098002D01*
X142850672Y-95137400D01*
X143102528Y-95137400D01*
X143351269Y-95098002D01*
X143590784Y-95020180D01*
X143815175Y-94905846D01*
X143815181Y-94905842D01*
X143917297Y-94831650D01*
X143917298Y-94831650D01*
X143262357Y-94176709D01*
X143308174Y-94157732D01*
X143422824Y-94081126D01*
X143520326Y-93983624D01*
X143596932Y-93868974D01*
X143615909Y-93823157D01*
X144270850Y-94478098D01*
X144270850Y-94478097D01*
X144345042Y-94375981D01*
X144345046Y-94375975D01*
X144459380Y-94151584D01*
X144537202Y-93912069D01*
X144576600Y-93663328D01*
X144576600Y-93411471D01*
X144537202Y-93162730D01*
X144459380Y-92923215D01*
X144345042Y-92698816D01*
X144270850Y-92596701D01*
X144270850Y-92596700D01*
X143615909Y-93251641D01*
X143596932Y-93205826D01*
X143520326Y-93091176D01*
X143422824Y-92993674D01*
X143308174Y-92917068D01*
X143262355Y-92898089D01*
X143917298Y-92243148D01*
X143815183Y-92168957D01*
X143590784Y-92054619D01*
X143351269Y-91976797D01*
X143102528Y-91937400D01*
X142850672Y-91937400D01*
X142601930Y-91976797D01*
X142362415Y-92054619D01*
X142138013Y-92168959D01*
X142035901Y-92243147D01*
X142035900Y-92243148D01*
X142690842Y-92898090D01*
X142645026Y-92917068D01*
X142530376Y-92993674D01*
X142432874Y-93091176D01*
X142356268Y-93205826D01*
X142337290Y-93251642D01*
X141682348Y-92596700D01*
X141682347Y-92596701D01*
X141608159Y-92698813D01*
X141493819Y-92923215D01*
X141415997Y-93162730D01*
X141376600Y-93411471D01*
X136348600Y-93411471D01*
X136348600Y-93252347D01*
X136311665Y-93019152D01*
X136238702Y-92794597D01*
X136131514Y-92584228D01*
X136071258Y-92501294D01*
X136071258Y-92501293D01*
X135331562Y-93240990D01*
X135314525Y-93177407D01*
X135248699Y-93063393D01*
X135155607Y-92970301D01*
X135041593Y-92904475D01*
X134978009Y-92887437D01*
X135662719Y-92202727D01*
X135717705Y-92147740D01*
X135717704Y-92147738D01*
X135634774Y-92087487D01*
X135424402Y-91980297D01*
X135199847Y-91907334D01*
X135199848Y-91907334D01*
X134966652Y-91870400D01*
X134730548Y-91870400D01*
X134497352Y-91907334D01*
X134272797Y-91980297D01*
X134062430Y-92087484D01*
X133979494Y-92147740D01*
X134719191Y-92887437D01*
X134655607Y-92904475D01*
X134541593Y-92970301D01*
X134448501Y-93063393D01*
X134382675Y-93177407D01*
X134365637Y-93240991D01*
X133625940Y-92501294D01*
X133565684Y-92584230D01*
X133458497Y-92794597D01*
X133385534Y-93019152D01*
X133348600Y-93252347D01*
X119688820Y-93252347D01*
X119670603Y-93137330D01*
X119592780Y-92897815D01*
X119478442Y-92673416D01*
X119404250Y-92571301D01*
X119404250Y-92571300D01*
X118749309Y-93226241D01*
X118730332Y-93180426D01*
X118653726Y-93065776D01*
X118556224Y-92968274D01*
X118441574Y-92891668D01*
X118395755Y-92872689D01*
X119050697Y-92217749D01*
X119050697Y-92217748D01*
X118948583Y-92143557D01*
X118724184Y-92029219D01*
X118484669Y-91951397D01*
X118235928Y-91912000D01*
X117984072Y-91912000D01*
X117735330Y-91951397D01*
X117495815Y-92029219D01*
X117271413Y-92143559D01*
X117169301Y-92217747D01*
X117169300Y-92217748D01*
X117824242Y-92872690D01*
X117778426Y-92891668D01*
X117663776Y-92968274D01*
X117566274Y-93065776D01*
X117489668Y-93180426D01*
X117470690Y-93226242D01*
X116815748Y-92571300D01*
X116815747Y-92571301D01*
X116741559Y-92673413D01*
X116627219Y-92897815D01*
X116549397Y-93137330D01*
X116510000Y-93386071D01*
X113987700Y-93386071D01*
X113987700Y-87997150D01*
X113987926Y-87989663D01*
X113994441Y-87881949D01*
X114812100Y-87881949D01*
X114812100Y-88104850D01*
X114812101Y-88104866D01*
X114841194Y-88325852D01*
X114841195Y-88325857D01*
X114841196Y-88325863D01*
X114841197Y-88325865D01*
X114898890Y-88541180D01*
X114898893Y-88541190D01*
X114984193Y-88747122D01*
X114984195Y-88747126D01*
X115095652Y-88940174D01*
X115095657Y-88940180D01*
X115095658Y-88940182D01*
X115231351Y-89117022D01*
X115231357Y-89117029D01*
X115388970Y-89274642D01*
X115388976Y-89274647D01*
X115565826Y-89410348D01*
X115758874Y-89521805D01*
X115964819Y-89607110D01*
X116180137Y-89664804D01*
X116401143Y-89693900D01*
X116401150Y-89693900D01*
X116624050Y-89693900D01*
X116624057Y-89693900D01*
X116845063Y-89664804D01*
X117060381Y-89607110D01*
X117266326Y-89521805D01*
X117459374Y-89410348D01*
X117636224Y-89274647D01*
X117793847Y-89117024D01*
X117929548Y-88940174D01*
X118041005Y-88747126D01*
X118126310Y-88541181D01*
X118184004Y-88325863D01*
X118213100Y-88104857D01*
X118213100Y-87881949D01*
X142812100Y-87881949D01*
X142812100Y-88104850D01*
X142812101Y-88104866D01*
X142841194Y-88325852D01*
X142841195Y-88325857D01*
X142841196Y-88325863D01*
X142841197Y-88325865D01*
X142898890Y-88541180D01*
X142898893Y-88541190D01*
X142984193Y-88747122D01*
X142984195Y-88747126D01*
X143095652Y-88940174D01*
X143095657Y-88940180D01*
X143095658Y-88940182D01*
X143231351Y-89117022D01*
X143231357Y-89117029D01*
X143388970Y-89274642D01*
X143388976Y-89274647D01*
X143565826Y-89410348D01*
X143758874Y-89521805D01*
X143964819Y-89607110D01*
X144180137Y-89664804D01*
X144401143Y-89693900D01*
X144401150Y-89693900D01*
X144624050Y-89693900D01*
X144624057Y-89693900D01*
X144845063Y-89664804D01*
X145060381Y-89607110D01*
X145266326Y-89521805D01*
X145459374Y-89410348D01*
X145636224Y-89274647D01*
X145793847Y-89117024D01*
X145929548Y-88940174D01*
X146041005Y-88747126D01*
X146126310Y-88541181D01*
X146184004Y-88325863D01*
X146213100Y-88104857D01*
X146213100Y-87881943D01*
X146184004Y-87660937D01*
X146126310Y-87445619D01*
X146041005Y-87239674D01*
X145929548Y-87046626D01*
X145793847Y-86869776D01*
X145793842Y-86869770D01*
X145636229Y-86712157D01*
X145636222Y-86712151D01*
X145459382Y-86576458D01*
X145459380Y-86576457D01*
X145459374Y-86576452D01*
X145266326Y-86464995D01*
X145266322Y-86464993D01*
X145060390Y-86379693D01*
X145060383Y-86379691D01*
X145060381Y-86379690D01*
X144845063Y-86321996D01*
X144845057Y-86321995D01*
X144845052Y-86321994D01*
X144624066Y-86292901D01*
X144624063Y-86292900D01*
X144624057Y-86292900D01*
X144401143Y-86292900D01*
X144401137Y-86292900D01*
X144401133Y-86292901D01*
X144180147Y-86321994D01*
X144180140Y-86321995D01*
X144180137Y-86321996D01*
X143964819Y-86379690D01*
X143964809Y-86379693D01*
X143758877Y-86464993D01*
X143758873Y-86464995D01*
X143565826Y-86576452D01*
X143565817Y-86576458D01*
X143388977Y-86712151D01*
X143388970Y-86712157D01*
X143231357Y-86869770D01*
X143231351Y-86869777D01*
X143095658Y-87046617D01*
X143095652Y-87046626D01*
X142984195Y-87239673D01*
X142984193Y-87239677D01*
X142898893Y-87445609D01*
X142898890Y-87445619D01*
X142841197Y-87660934D01*
X142841194Y-87660947D01*
X142812101Y-87881933D01*
X142812100Y-87881949D01*
X118213100Y-87881949D01*
X118213100Y-87881943D01*
X118184004Y-87660937D01*
X118126310Y-87445619D01*
X118041005Y-87239674D01*
X117929548Y-87046626D01*
X117793847Y-86869776D01*
X117793842Y-86869770D01*
X117636229Y-86712157D01*
X117636222Y-86712151D01*
X117459382Y-86576458D01*
X117459380Y-86576457D01*
X117459374Y-86576452D01*
X117266326Y-86464995D01*
X117266322Y-86464993D01*
X117060390Y-86379693D01*
X117060383Y-86379691D01*
X117060381Y-86379690D01*
X116845063Y-86321996D01*
X116845057Y-86321995D01*
X116845052Y-86321994D01*
X116624066Y-86292901D01*
X116624063Y-86292900D01*
X116624057Y-86292900D01*
X116401143Y-86292900D01*
X116401137Y-86292900D01*
X116401133Y-86292901D01*
X116180147Y-86321994D01*
X116180140Y-86321995D01*
X116180137Y-86321996D01*
X115964819Y-86379690D01*
X115964809Y-86379693D01*
X115758877Y-86464993D01*
X115758873Y-86464995D01*
X115565826Y-86576452D01*
X115565817Y-86576458D01*
X115388977Y-86712151D01*
X115388970Y-86712157D01*
X115231357Y-86869770D01*
X115231351Y-86869777D01*
X115095658Y-87046617D01*
X115095652Y-87046626D01*
X114984195Y-87239673D01*
X114984193Y-87239677D01*
X114898893Y-87445609D01*
X114898890Y-87445619D01*
X114841197Y-87660934D01*
X114841194Y-87660947D01*
X114812101Y-87881933D01*
X114812100Y-87881949D01*
X113994441Y-87881949D01*
X113995140Y-87870397D01*
X114005471Y-87699605D01*
X114007276Y-87684740D01*
X114051099Y-87445609D01*
X114058980Y-87402597D01*
X114062564Y-87388063D01*
X114108804Y-87239674D01*
X114147896Y-87114222D01*
X114153198Y-87100241D01*
X114270931Y-86838649D01*
X114277876Y-86825416D01*
X114426280Y-86579926D01*
X114434767Y-86567630D01*
X114611680Y-86341817D01*
X114621595Y-86330626D01*
X114824426Y-86127795D01*
X114835617Y-86117880D01*
X115061430Y-85940967D01*
X115073726Y-85932480D01*
X115319216Y-85784076D01*
X115332449Y-85777131D01*
X115594041Y-85659398D01*
X115608022Y-85654096D01*
X115881868Y-85568762D01*
X115896397Y-85565180D01*
X116178544Y-85513475D01*
X116193401Y-85511671D01*
X116483464Y-85494126D01*
X116490951Y-85493900D01*
X116553092Y-85493900D01*
X144421308Y-85493900D01*
X144483449Y-85493900D01*
X144490936Y-85494126D01*
G37*
%TD.AperFunction*%
%TD*%
M02*
