%TF.GenerationSoftware,KiCad,Pcbnew,9.0.0*%
%TF.CreationDate,2025-04-07T13:38:34-03:00*%
%TF.ProjectId,KDT_Hierarchical,4b44545f-4869-4657-9261-726368696361,1.1*%
%TF.SameCoordinates,Original*%
%TF.FileFunction,Copper,L2,Bot*%
%TF.FilePolarity,Positive*%
%FSLAX46Y46*%
G04 Gerber Fmt 4.6, Leading zero omitted, Abs format (unit mm)*
G04 Created by KiCad (PCBNEW 9.0.0) date 2025-04-07 13:38:34*
%MOMM*%
%LPD*%
G01*
G04 APERTURE LIST*
%TA.AperFunction,ComponentPad*%
%ADD10R,1.700000X1.700000*%
%TD*%
%TA.AperFunction,ComponentPad*%
%ADD11O,1.700000X1.700000*%
%TD*%
%TA.AperFunction,ComponentPad*%
%ADD12C,2.200000*%
%TD*%
%TA.AperFunction,ComponentPad*%
%ADD13C,2.000000*%
%TD*%
%TA.AperFunction,ViaPad*%
%ADD14C,0.550000*%
%TD*%
%TA.AperFunction,Conductor*%
%ADD15C,0.200000*%
%TD*%
G04 APERTURE END LIST*
D10*
%TO.P,J5,1,Pin_1*%
%TO.N,/Project Architecture/Sense/SDA*%
X122960000Y-117246400D03*
D11*
%TO.P,J5,2,Pin_2*%
%TO.N,/Project Architecture/Sense/A1*%
X125500000Y-117246400D03*
%TO.P,J5,3,Pin_3*%
%TO.N,/Project Architecture/Sense/SCL*%
X128040000Y-117246400D03*
%TD*%
D10*
%TO.P,J6,1,Pin_1*%
%TO.N,GND*%
X116522200Y-114000600D03*
D11*
%TO.P,J6,2,Pin_2*%
%TO.N,/Project Architecture/Sense/SCL*%
X116522200Y-111460600D03*
%TO.P,J6,3,Pin_3*%
%TO.N,/Project Architecture/Sense/SDA*%
X116522200Y-108920600D03*
%TO.P,J6,4,Pin_4*%
%TO.N,VCC*%
X116522200Y-106380600D03*
%TD*%
D12*
%TO.P,P2,1,1*%
%TO.N,GND*%
X118110000Y-94500000D03*
%TO.P,P2,2,2*%
%TO.N,/Project Architecture/Sense/VIN+*%
X118110000Y-99500000D03*
%TD*%
%TO.P,P1,1,1*%
%TO.N,/Project Architecture/Sense/VIN-*%
X143000000Y-99500000D03*
%TO.P,P1,2,2*%
%TO.N,GND*%
X143000000Y-94500000D03*
%TD*%
D10*
%TO.P,J4,1,Pin_1*%
%TO.N,VCC*%
X122960000Y-121023200D03*
D11*
%TO.P,J4,2,Pin_2*%
%TO.N,/Project Architecture/Sense/A1*%
X125500000Y-121023200D03*
%TO.P,J4,3,Pin_3*%
%TO.N,GND*%
X128040000Y-121023200D03*
%TD*%
D10*
%TO.P,J3,1,Pin_1*%
%TO.N,/Project Architecture/Sense/SDA*%
X133000000Y-117246400D03*
D11*
%TO.P,J3,2,Pin_2*%
%TO.N,/Project Architecture/Sense/A0*%
X135540000Y-117246400D03*
%TO.P,J3,3,Pin_3*%
%TO.N,/Project Architecture/Sense/SCL*%
X138080000Y-117246400D03*
%TD*%
D10*
%TO.P,J2,1,Pin_1*%
%TO.N,VCC*%
X133000000Y-120925200D03*
D11*
%TO.P,J2,2,Pin_2*%
%TO.N,/Project Architecture/Sense/A0*%
X135540000Y-120925200D03*
%TO.P,J2,3,Pin_3*%
%TO.N,GND*%
X138080000Y-120925200D03*
%TD*%
D10*
%TO.P,J7,1,Pin_1*%
%TO.N,VCC*%
X144500600Y-106400600D03*
D11*
%TO.P,J7,2,Pin_2*%
%TO.N,/Project Architecture/Sense/SDA*%
X144500600Y-108940600D03*
%TO.P,J7,3,Pin_3*%
%TO.N,/Project Architecture/Sense/SCL*%
X144500600Y-111480600D03*
%TO.P,J7,4,Pin_4*%
%TO.N,GND*%
X144500600Y-114020600D03*
%TD*%
D13*
%TO.P,TP3,1,1*%
%TO.N,GND*%
X134848600Y-93370400D03*
%TD*%
%TO.P,TP2,1,1*%
%TO.N,VCC*%
X138353800Y-103500000D03*
%TD*%
%TO.P,TP1,1,1*%
%TO.N,VBUS*%
X135204200Y-106273600D03*
%TD*%
D14*
%TO.N,GND*%
X133070600Y-93853000D03*
X125730000Y-101600000D03*
X130911600Y-111480600D03*
X123774200Y-88265000D03*
X139700000Y-110896400D03*
X135128000Y-101600000D03*
%TO.N,/Project Architecture/Sense/SCL*%
X122682000Y-111912400D03*
%TO.N,/Project Architecture/Sense/A1*%
X126619000Y-109626400D03*
%TD*%
D15*
%TO.N,/Project Architecture/Sense/SDA*%
X134879600Y-119126000D02*
X136500000Y-119126000D01*
X133000000Y-117246400D02*
X134879600Y-119126000D01*
X133000000Y-117549800D02*
X131500000Y-119049800D01*
X133000000Y-117246400D02*
X133000000Y-117549800D01*
X131500000Y-119049800D02*
X124650500Y-119049800D01*
%TO.N,/Project Architecture/Sense/SCL*%
X135819400Y-114985800D02*
X134000000Y-114985800D01*
X138080000Y-117246400D02*
X135819400Y-114985800D01*
%TO.N,/Project Architecture/Sense/SDA*%
X143535400Y-108940600D02*
X142697200Y-109778800D01*
X142697200Y-117627400D02*
X141198600Y-119126000D01*
X142697200Y-109778800D02*
X142697200Y-117627400D01*
X144500600Y-108940600D02*
X143535400Y-108940600D01*
X141198600Y-119126000D02*
X136500000Y-119126000D01*
X124650500Y-119049800D02*
X122847100Y-117246400D01*
%TO.N,/Project Architecture/Sense/SCL*%
X130187700Y-114985800D02*
X134000000Y-114985800D01*
X116522200Y-111460600D02*
X118242400Y-111460600D01*
X118694200Y-111912400D02*
X122682000Y-111912400D01*
X127927100Y-117246400D02*
X130187700Y-114985800D01*
X118242400Y-111460600D02*
X118694200Y-111912400D01*
%TO.N,/Project Architecture/Sense/A1*%
X126619000Y-116014500D02*
X125387100Y-117246400D01*
X126619000Y-109626400D02*
X126619000Y-116014500D01*
%TD*%
%TA.AperFunction,Conductor*%
%TO.N,GND*%
G36*
X144490936Y-85494126D02*
G01*
X144780996Y-85511671D01*
X144795859Y-85513476D01*
X145077998Y-85565180D01*
X145092535Y-85568763D01*
X145366372Y-85654095D01*
X145380363Y-85659400D01*
X145641943Y-85777127D01*
X145655189Y-85784080D01*
X145900665Y-85932475D01*
X145912976Y-85940973D01*
X146138773Y-86117873D01*
X146149981Y-86127803D01*
X146352796Y-86330618D01*
X146362726Y-86341826D01*
X146482681Y-86494938D01*
X146539622Y-86567617D01*
X146548128Y-86579940D01*
X146696516Y-86825404D01*
X146703475Y-86838663D01*
X146821197Y-87100231D01*
X146826506Y-87114232D01*
X146911835Y-87388063D01*
X146915419Y-87402601D01*
X146967123Y-87684740D01*
X146968928Y-87699605D01*
X146986474Y-87989663D01*
X146986700Y-87997150D01*
X146986700Y-121989649D01*
X146986474Y-121997136D01*
X146968928Y-122287194D01*
X146967123Y-122302059D01*
X146915419Y-122584198D01*
X146911835Y-122598736D01*
X146826506Y-122872567D01*
X146821197Y-122886568D01*
X146703475Y-123148136D01*
X146696516Y-123161395D01*
X146548128Y-123406859D01*
X146539622Y-123419182D01*
X146362726Y-123644973D01*
X146352796Y-123656181D01*
X146149981Y-123858996D01*
X146138773Y-123868926D01*
X145912982Y-124045822D01*
X145900659Y-124054328D01*
X145655195Y-124202716D01*
X145641936Y-124209675D01*
X145380368Y-124327397D01*
X145366367Y-124332706D01*
X145092536Y-124418035D01*
X145077998Y-124421619D01*
X144795859Y-124473323D01*
X144780994Y-124475128D01*
X144490936Y-124492674D01*
X144483449Y-124492900D01*
X116490951Y-124492900D01*
X116483464Y-124492674D01*
X116193405Y-124475128D01*
X116178540Y-124473323D01*
X115896401Y-124421619D01*
X115881863Y-124418035D01*
X115608032Y-124332706D01*
X115594031Y-124327397D01*
X115332463Y-124209675D01*
X115319204Y-124202716D01*
X115073740Y-124054328D01*
X115061417Y-124045822D01*
X114835626Y-123868926D01*
X114824418Y-123858996D01*
X114621603Y-123656181D01*
X114611673Y-123644973D01*
X114582009Y-123607110D01*
X114434773Y-123419176D01*
X114426275Y-123406865D01*
X114277880Y-123161389D01*
X114270927Y-123148143D01*
X114153200Y-122886563D01*
X114147893Y-122872567D01*
X114062564Y-122598736D01*
X114058980Y-122584198D01*
X114007275Y-122302057D01*
X114005471Y-122287194D01*
X113987926Y-121997136D01*
X113987700Y-121989649D01*
X113987700Y-121881949D01*
X114812100Y-121881949D01*
X114812100Y-122104850D01*
X114812101Y-122104866D01*
X114841194Y-122325852D01*
X114841195Y-122325857D01*
X114841196Y-122325863D01*
X114898890Y-122541180D01*
X114898893Y-122541190D01*
X114984193Y-122747122D01*
X114984195Y-122747126D01*
X115095652Y-122940174D01*
X115095657Y-122940180D01*
X115095658Y-122940182D01*
X115231351Y-123117022D01*
X115231357Y-123117029D01*
X115388970Y-123274642D01*
X115388976Y-123274647D01*
X115565826Y-123410348D01*
X115758874Y-123521805D01*
X115964819Y-123607110D01*
X116180137Y-123664804D01*
X116401143Y-123693900D01*
X116401150Y-123693900D01*
X116624050Y-123693900D01*
X116624057Y-123693900D01*
X116845063Y-123664804D01*
X117060381Y-123607110D01*
X117266326Y-123521805D01*
X117459374Y-123410348D01*
X117636224Y-123274647D01*
X117793847Y-123117024D01*
X117929548Y-122940174D01*
X118041005Y-122747126D01*
X118126310Y-122541181D01*
X118184004Y-122325863D01*
X118213100Y-122104857D01*
X118213100Y-121881943D01*
X118184004Y-121660937D01*
X118126310Y-121445619D01*
X118125397Y-121443416D01*
X118066692Y-121301688D01*
X118041005Y-121239674D01*
X117929548Y-121046626D01*
X117793847Y-120869776D01*
X117793842Y-120869770D01*
X117636229Y-120712157D01*
X117636222Y-120712151D01*
X117459382Y-120576458D01*
X117459380Y-120576457D01*
X117459374Y-120576452D01*
X117266326Y-120464995D01*
X117266322Y-120464993D01*
X117060390Y-120379693D01*
X117060383Y-120379691D01*
X117060381Y-120379690D01*
X116845063Y-120321996D01*
X116845057Y-120321995D01*
X116845052Y-120321994D01*
X116624066Y-120292901D01*
X116624063Y-120292900D01*
X116624057Y-120292900D01*
X116401143Y-120292900D01*
X116401137Y-120292900D01*
X116401133Y-120292901D01*
X116180147Y-120321994D01*
X116180140Y-120321995D01*
X116180137Y-120321996D01*
X116062405Y-120353542D01*
X115964819Y-120379690D01*
X115964809Y-120379693D01*
X115758877Y-120464993D01*
X115758873Y-120464995D01*
X115565826Y-120576452D01*
X115565817Y-120576458D01*
X115388977Y-120712151D01*
X115388970Y-120712157D01*
X115231357Y-120869770D01*
X115231351Y-120869777D01*
X115095658Y-121046617D01*
X115095652Y-121046626D01*
X114984195Y-121239673D01*
X114984193Y-121239677D01*
X114898893Y-121445609D01*
X114898890Y-121445619D01*
X114878747Y-121520796D01*
X114841197Y-121660934D01*
X114841194Y-121660947D01*
X114812101Y-121881933D01*
X114812100Y-121881949D01*
X113987700Y-121881949D01*
X113987700Y-120153447D01*
X121909500Y-120153447D01*
X121909500Y-121892952D01*
X121921131Y-121951429D01*
X121921132Y-121951430D01*
X121965447Y-122017752D01*
X122031769Y-122062067D01*
X122031770Y-122062068D01*
X122090247Y-122073699D01*
X122090250Y-122073700D01*
X122090252Y-122073700D01*
X123829750Y-122073700D01*
X123829751Y-122073699D01*
X123844568Y-122070752D01*
X123888229Y-122062068D01*
X123888229Y-122062067D01*
X123888231Y-122062067D01*
X123954552Y-122017752D01*
X123998867Y-121951431D01*
X123998867Y-121951429D01*
X123998868Y-121951429D01*
X124010499Y-121892952D01*
X124010500Y-121892950D01*
X124010500Y-120919730D01*
X124449500Y-120919730D01*
X124449500Y-121126669D01*
X124489868Y-121329612D01*
X124489870Y-121329620D01*
X124555939Y-121489125D01*
X124569059Y-121520798D01*
X124582836Y-121541417D01*
X124684024Y-121692857D01*
X124830342Y-121839175D01*
X124830345Y-121839177D01*
X125002402Y-121954141D01*
X125193580Y-122033330D01*
X125338052Y-122062067D01*
X125396530Y-122073699D01*
X125396534Y-122073700D01*
X125396535Y-122073700D01*
X125603466Y-122073700D01*
X125603467Y-122073699D01*
X125806420Y-122033330D01*
X125997598Y-121954141D01*
X126169655Y-121839177D01*
X126315977Y-121692855D01*
X126430941Y-121520798D01*
X126499165Y-121356089D01*
X126543004Y-121301688D01*
X126609298Y-121279623D01*
X126676998Y-121296902D01*
X126724609Y-121348039D01*
X126731656Y-121365226D01*
X126788904Y-121541416D01*
X126885379Y-121730757D01*
X127010272Y-121902659D01*
X127010276Y-121902664D01*
X127160535Y-122052923D01*
X127160540Y-122052927D01*
X127332442Y-122177820D01*
X127521782Y-122274295D01*
X127723871Y-122339957D01*
X127790000Y-122350431D01*
X127790000Y-121456212D01*
X127847007Y-121489125D01*
X127974174Y-121523200D01*
X128105826Y-121523200D01*
X128232993Y-121489125D01*
X128290000Y-121456212D01*
X128290000Y-122350430D01*
X128356126Y-122339957D01*
X128356129Y-122339957D01*
X128558217Y-122274295D01*
X128747557Y-122177820D01*
X128919459Y-122052927D01*
X128919464Y-122052923D01*
X129069723Y-121902664D01*
X129069727Y-121902659D01*
X129194620Y-121730757D01*
X129291095Y-121541417D01*
X129356757Y-121339329D01*
X129356757Y-121339326D01*
X129367231Y-121273200D01*
X128473012Y-121273200D01*
X128505925Y-121216193D01*
X128540000Y-121089026D01*
X128540000Y-120957374D01*
X128505925Y-120830207D01*
X128473012Y-120773200D01*
X129367231Y-120773200D01*
X129356757Y-120707073D01*
X129356757Y-120707070D01*
X129291095Y-120504982D01*
X129194620Y-120315642D01*
X129069727Y-120143740D01*
X129069723Y-120143735D01*
X128981435Y-120055447D01*
X131949500Y-120055447D01*
X131949500Y-121794952D01*
X131961131Y-121853429D01*
X131961132Y-121853430D01*
X132005447Y-121919752D01*
X132071769Y-121964067D01*
X132071770Y-121964068D01*
X132130247Y-121975699D01*
X132130250Y-121975700D01*
X132130252Y-121975700D01*
X133869750Y-121975700D01*
X133869751Y-121975699D01*
X133884568Y-121972752D01*
X133928229Y-121964068D01*
X133928229Y-121964067D01*
X133928231Y-121964067D01*
X133994552Y-121919752D01*
X134038867Y-121853431D01*
X134038867Y-121853429D01*
X134038868Y-121853429D01*
X134050499Y-121794952D01*
X134050500Y-121794950D01*
X134050500Y-120055449D01*
X134050499Y-120055447D01*
X134038868Y-119996970D01*
X134038867Y-119996969D01*
X133994552Y-119930647D01*
X133928230Y-119886332D01*
X133928229Y-119886331D01*
X133869752Y-119874700D01*
X133869748Y-119874700D01*
X132130252Y-119874700D01*
X132130247Y-119874700D01*
X132071770Y-119886331D01*
X132071769Y-119886332D01*
X132005447Y-119930647D01*
X131961132Y-119996969D01*
X131961131Y-119996970D01*
X131949500Y-120055447D01*
X128981435Y-120055447D01*
X128919464Y-119993476D01*
X128919459Y-119993472D01*
X128747557Y-119868579D01*
X128558215Y-119772103D01*
X128356124Y-119706441D01*
X128290000Y-119695968D01*
X128290000Y-120590188D01*
X128232993Y-120557275D01*
X128105826Y-120523200D01*
X127974174Y-120523200D01*
X127847007Y-120557275D01*
X127790000Y-120590188D01*
X127790000Y-119695968D01*
X127789999Y-119695968D01*
X127723875Y-119706441D01*
X127521784Y-119772103D01*
X127332442Y-119868579D01*
X127160540Y-119993472D01*
X127160535Y-119993476D01*
X127010276Y-120143735D01*
X127010272Y-120143740D01*
X126885379Y-120315642D01*
X126788905Y-120504981D01*
X126731656Y-120681174D01*
X126692218Y-120738849D01*
X126627859Y-120766047D01*
X126559013Y-120754132D01*
X126507537Y-120706888D01*
X126499164Y-120690307D01*
X126497548Y-120686406D01*
X126465515Y-120609070D01*
X126430943Y-120525605D01*
X126315975Y-120353542D01*
X126169657Y-120207224D01*
X126022988Y-120109224D01*
X125997598Y-120092259D01*
X125908731Y-120055449D01*
X125806420Y-120013070D01*
X125806412Y-120013068D01*
X125603469Y-119972700D01*
X125603465Y-119972700D01*
X125396535Y-119972700D01*
X125396530Y-119972700D01*
X125193587Y-120013068D01*
X125193579Y-120013070D01*
X125002403Y-120092258D01*
X124830342Y-120207224D01*
X124684024Y-120353542D01*
X124569058Y-120525603D01*
X124489870Y-120716779D01*
X124489868Y-120716787D01*
X124449500Y-120919730D01*
X124010500Y-120919730D01*
X124010500Y-120153449D01*
X124010499Y-120153447D01*
X123998868Y-120094970D01*
X123998867Y-120094969D01*
X123954552Y-120028647D01*
X123888230Y-119984332D01*
X123888229Y-119984331D01*
X123829752Y-119972700D01*
X123829748Y-119972700D01*
X122090252Y-119972700D01*
X122090247Y-119972700D01*
X122031770Y-119984331D01*
X122031769Y-119984332D01*
X121965447Y-120028647D01*
X121921132Y-120094969D01*
X121921131Y-120094970D01*
X121909500Y-120153447D01*
X113987700Y-120153447D01*
X113987700Y-116376647D01*
X121909500Y-116376647D01*
X121909500Y-118116152D01*
X121921131Y-118174629D01*
X121921132Y-118174630D01*
X121965447Y-118240952D01*
X122031769Y-118285267D01*
X122031770Y-118285268D01*
X122090247Y-118296899D01*
X122090250Y-118296900D01*
X122090252Y-118296900D01*
X123421267Y-118296900D01*
X123488306Y-118316585D01*
X123508948Y-118333219D01*
X124465989Y-119290260D01*
X124501065Y-119310511D01*
X124534508Y-119329820D01*
X124534512Y-119329822D01*
X124610938Y-119350300D01*
X124610940Y-119350300D01*
X131539560Y-119350300D01*
X131539562Y-119350300D01*
X131615989Y-119329821D01*
X131684511Y-119290260D01*
X131740460Y-119234311D01*
X132641552Y-118333219D01*
X132702875Y-118299734D01*
X132729233Y-118296900D01*
X133574167Y-118296900D01*
X133641206Y-118316585D01*
X133661848Y-118333219D01*
X134639140Y-119310511D01*
X134695089Y-119366460D01*
X134695091Y-119366461D01*
X134695095Y-119366464D01*
X134763604Y-119406017D01*
X134763611Y-119406021D01*
X134840038Y-119426500D01*
X134840040Y-119426500D01*
X137540926Y-119426500D01*
X137607965Y-119446185D01*
X137653720Y-119498989D01*
X137663664Y-119568147D01*
X137634639Y-119631703D01*
X137579244Y-119668431D01*
X137561782Y-119674104D01*
X137372442Y-119770579D01*
X137200540Y-119895472D01*
X137200535Y-119895476D01*
X137050276Y-120045735D01*
X137050272Y-120045740D01*
X136925379Y-120217642D01*
X136828905Y-120406981D01*
X136771656Y-120583174D01*
X136732218Y-120640849D01*
X136667859Y-120668047D01*
X136599013Y-120656132D01*
X136547537Y-120608888D01*
X136539164Y-120592307D01*
X136532599Y-120576458D01*
X136486429Y-120464993D01*
X136470943Y-120427605D01*
X136355975Y-120255542D01*
X136209657Y-120109224D01*
X136089065Y-120028648D01*
X136037598Y-119994259D01*
X136013632Y-119984332D01*
X135846420Y-119915070D01*
X135846412Y-119915068D01*
X135643469Y-119874700D01*
X135643465Y-119874700D01*
X135436535Y-119874700D01*
X135436530Y-119874700D01*
X135233587Y-119915068D01*
X135233579Y-119915070D01*
X135042403Y-119994258D01*
X134870342Y-120109224D01*
X134724024Y-120255542D01*
X134609058Y-120427603D01*
X134529870Y-120618779D01*
X134529868Y-120618787D01*
X134489500Y-120821730D01*
X134489500Y-121028669D01*
X134529868Y-121231612D01*
X134529870Y-121231620D01*
X134595939Y-121391125D01*
X134609059Y-121422798D01*
X134653377Y-121489125D01*
X134724024Y-121594857D01*
X134870342Y-121741175D01*
X134870345Y-121741177D01*
X135042402Y-121856141D01*
X135233580Y-121935330D01*
X135378052Y-121964067D01*
X135436530Y-121975699D01*
X135436534Y-121975700D01*
X135436535Y-121975700D01*
X135643466Y-121975700D01*
X135643467Y-121975699D01*
X135846420Y-121935330D01*
X136037598Y-121856141D01*
X136209655Y-121741177D01*
X136355977Y-121594855D01*
X136470941Y-121422798D01*
X136539165Y-121258089D01*
X136583004Y-121203688D01*
X136649298Y-121181623D01*
X136716998Y-121198902D01*
X136764609Y-121250039D01*
X136771656Y-121267226D01*
X136828904Y-121443416D01*
X136925379Y-121632757D01*
X137050272Y-121804659D01*
X137050276Y-121804664D01*
X137200535Y-121954923D01*
X137200540Y-121954927D01*
X137372442Y-122079820D01*
X137561782Y-122176295D01*
X137763871Y-122241957D01*
X137830000Y-122252431D01*
X137830000Y-121358212D01*
X137887007Y-121391125D01*
X138014174Y-121425200D01*
X138145826Y-121425200D01*
X138272993Y-121391125D01*
X138330000Y-121358212D01*
X138330000Y-122252430D01*
X138396126Y-122241957D01*
X138396129Y-122241957D01*
X138598217Y-122176295D01*
X138787557Y-122079820D01*
X138959459Y-121954927D01*
X138959464Y-121954923D01*
X139032438Y-121881949D01*
X142812100Y-121881949D01*
X142812100Y-122104850D01*
X142812101Y-122104866D01*
X142841194Y-122325852D01*
X142841195Y-122325857D01*
X142841196Y-122325863D01*
X142898890Y-122541180D01*
X142898893Y-122541190D01*
X142984193Y-122747122D01*
X142984195Y-122747126D01*
X143095652Y-122940174D01*
X143095657Y-122940180D01*
X143095658Y-122940182D01*
X143231351Y-123117022D01*
X143231357Y-123117029D01*
X143388970Y-123274642D01*
X143388976Y-123274647D01*
X143565826Y-123410348D01*
X143758874Y-123521805D01*
X143964819Y-123607110D01*
X144180137Y-123664804D01*
X144401143Y-123693900D01*
X144401150Y-123693900D01*
X144624050Y-123693900D01*
X144624057Y-123693900D01*
X144845063Y-123664804D01*
X145060381Y-123607110D01*
X145266326Y-123521805D01*
X145459374Y-123410348D01*
X145636224Y-123274647D01*
X145793847Y-123117024D01*
X145929548Y-122940174D01*
X146041005Y-122747126D01*
X146126310Y-122541181D01*
X146184004Y-122325863D01*
X146213100Y-122104857D01*
X146213100Y-121881943D01*
X146184004Y-121660937D01*
X146126310Y-121445619D01*
X146125397Y-121443416D01*
X146066692Y-121301688D01*
X146041005Y-121239674D01*
X145929548Y-121046626D01*
X145793847Y-120869776D01*
X145793842Y-120869770D01*
X145636229Y-120712157D01*
X145636222Y-120712151D01*
X145459382Y-120576458D01*
X145459380Y-120576457D01*
X145459374Y-120576452D01*
X145266326Y-120464995D01*
X145266322Y-120464993D01*
X145060390Y-120379693D01*
X145060383Y-120379691D01*
X145060381Y-120379690D01*
X144845063Y-120321996D01*
X144845057Y-120321995D01*
X144845052Y-120321994D01*
X144624066Y-120292901D01*
X144624063Y-120292900D01*
X144624057Y-120292900D01*
X144401143Y-120292900D01*
X144401137Y-120292900D01*
X144401133Y-120292901D01*
X144180147Y-120321994D01*
X144180140Y-120321995D01*
X144180137Y-120321996D01*
X144062405Y-120353542D01*
X143964819Y-120379690D01*
X143964809Y-120379693D01*
X143758877Y-120464993D01*
X143758873Y-120464995D01*
X143565826Y-120576452D01*
X143565817Y-120576458D01*
X143388977Y-120712151D01*
X143388970Y-120712157D01*
X143231357Y-120869770D01*
X143231351Y-120869777D01*
X143095658Y-121046617D01*
X143095652Y-121046626D01*
X142984195Y-121239673D01*
X142984193Y-121239677D01*
X142898893Y-121445609D01*
X142898890Y-121445619D01*
X142878747Y-121520796D01*
X142841197Y-121660934D01*
X142841194Y-121660947D01*
X142812101Y-121881933D01*
X142812100Y-121881949D01*
X139032438Y-121881949D01*
X139109723Y-121804664D01*
X139109726Y-121804660D01*
X139234620Y-121632757D01*
X139331095Y-121443417D01*
X139396757Y-121241329D01*
X139396757Y-121241326D01*
X139407231Y-121175200D01*
X138513012Y-121175200D01*
X138545925Y-121118193D01*
X138580000Y-120991026D01*
X138580000Y-120859374D01*
X138545925Y-120732207D01*
X138513012Y-120675200D01*
X139407231Y-120675200D01*
X139396757Y-120609073D01*
X139396757Y-120609070D01*
X139331095Y-120406982D01*
X139234620Y-120217642D01*
X139109727Y-120045740D01*
X139109723Y-120045735D01*
X138959464Y-119895476D01*
X138959459Y-119895472D01*
X138787557Y-119770579D01*
X138598217Y-119674104D01*
X138580756Y-119668431D01*
X138523081Y-119628994D01*
X138495882Y-119564635D01*
X138507796Y-119495789D01*
X138555040Y-119444313D01*
X138619074Y-119426500D01*
X141238160Y-119426500D01*
X141238162Y-119426500D01*
X141314589Y-119406021D01*
X141383111Y-119366460D01*
X141439060Y-119310511D01*
X142937660Y-117811911D01*
X142939222Y-117809205D01*
X142976870Y-117743998D01*
X142976874Y-117744000D01*
X142976906Y-117743932D01*
X142977221Y-117743389D01*
X142997700Y-117666962D01*
X142997700Y-114546747D01*
X143017385Y-114479708D01*
X143070189Y-114433953D01*
X143139347Y-114424009D01*
X143202903Y-114453034D01*
X143239631Y-114508430D01*
X143249503Y-114538815D01*
X143345979Y-114728157D01*
X143470872Y-114900059D01*
X143470876Y-114900064D01*
X143621135Y-115050323D01*
X143621140Y-115050327D01*
X143793042Y-115175220D01*
X143982382Y-115271695D01*
X144184471Y-115337357D01*
X144250600Y-115347831D01*
X144250600Y-114453612D01*
X144307607Y-114486525D01*
X144434774Y-114520600D01*
X144566426Y-114520600D01*
X144693593Y-114486525D01*
X144750600Y-114453612D01*
X144750600Y-115347830D01*
X144816726Y-115337357D01*
X144816729Y-115337357D01*
X145018817Y-115271695D01*
X145208157Y-115175220D01*
X145380059Y-115050327D01*
X145380064Y-115050323D01*
X145530323Y-114900064D01*
X145530327Y-114900059D01*
X145655220Y-114728157D01*
X145751695Y-114538817D01*
X145817357Y-114336729D01*
X145817357Y-114336726D01*
X145827831Y-114270600D01*
X144933612Y-114270600D01*
X144966525Y-114213593D01*
X145000600Y-114086426D01*
X145000600Y-113954774D01*
X144966525Y-113827607D01*
X144933612Y-113770600D01*
X145827831Y-113770600D01*
X145817357Y-113704473D01*
X145817357Y-113704470D01*
X145751695Y-113502382D01*
X145655220Y-113313042D01*
X145530327Y-113141140D01*
X145530323Y-113141135D01*
X145380064Y-112990876D01*
X145380059Y-112990872D01*
X145208157Y-112865979D01*
X145018816Y-112769504D01*
X144842626Y-112712256D01*
X144784950Y-112672818D01*
X144757752Y-112608460D01*
X144769667Y-112539613D01*
X144816911Y-112488138D01*
X144833482Y-112479768D01*
X144998198Y-112411541D01*
X145170255Y-112296577D01*
X145316577Y-112150255D01*
X145431541Y-111978198D01*
X145510730Y-111787020D01*
X145551100Y-111584065D01*
X145551100Y-111377135D01*
X145510730Y-111174180D01*
X145431541Y-110983002D01*
X145316577Y-110810945D01*
X145316575Y-110810942D01*
X145170257Y-110664624D01*
X145084226Y-110607141D01*
X144998198Y-110549659D01*
X144807020Y-110470470D01*
X144807012Y-110470468D01*
X144604069Y-110430100D01*
X144604065Y-110430100D01*
X144397135Y-110430100D01*
X144397130Y-110430100D01*
X144194187Y-110470468D01*
X144194179Y-110470470D01*
X144003003Y-110549658D01*
X143830942Y-110664624D01*
X143684624Y-110810942D01*
X143569658Y-110983003D01*
X143490470Y-111174179D01*
X143490468Y-111174187D01*
X143450100Y-111377130D01*
X143450100Y-111584069D01*
X143490468Y-111787012D01*
X143490470Y-111787020D01*
X143569658Y-111978196D01*
X143684624Y-112150257D01*
X143830942Y-112296575D01*
X144003005Y-112411543D01*
X144084737Y-112445397D01*
X144167708Y-112479764D01*
X144222111Y-112523605D01*
X144244176Y-112589899D01*
X144226897Y-112657598D01*
X144175760Y-112705209D01*
X144158574Y-112712256D01*
X143982381Y-112769505D01*
X143793042Y-112865979D01*
X143621140Y-112990872D01*
X143621135Y-112990876D01*
X143470876Y-113141135D01*
X143470872Y-113141140D01*
X143345979Y-113313042D01*
X143249504Y-113502382D01*
X143239631Y-113532770D01*
X143200194Y-113590446D01*
X143135835Y-113617644D01*
X143066989Y-113605729D01*
X143015513Y-113558485D01*
X142997700Y-113494452D01*
X142997700Y-109954632D01*
X143017385Y-109887593D01*
X143034015Y-109866955D01*
X143420007Y-109480962D01*
X143481328Y-109447479D01*
X143551019Y-109452463D01*
X143606953Y-109494334D01*
X143610788Y-109499754D01*
X143684622Y-109610254D01*
X143684625Y-109610258D01*
X143830942Y-109756575D01*
X143830945Y-109756577D01*
X144003002Y-109871541D01*
X144194180Y-109950730D01*
X144354815Y-109982682D01*
X144397130Y-109991099D01*
X144397134Y-109991100D01*
X144397135Y-109991100D01*
X144604066Y-109991100D01*
X144604067Y-109991099D01*
X144807020Y-109950730D01*
X144998198Y-109871541D01*
X145170255Y-109756577D01*
X145316577Y-109610255D01*
X145431541Y-109438198D01*
X145510730Y-109247020D01*
X145551100Y-109044065D01*
X145551100Y-108837135D01*
X145510730Y-108634180D01*
X145431541Y-108443002D01*
X145316577Y-108270945D01*
X145316575Y-108270942D01*
X145170257Y-108124624D01*
X145084226Y-108067141D01*
X144998198Y-108009659D01*
X144807020Y-107930470D01*
X144807012Y-107930468D01*
X144604069Y-107890100D01*
X144604065Y-107890100D01*
X144397135Y-107890100D01*
X144397130Y-107890100D01*
X144194187Y-107930468D01*
X144194179Y-107930470D01*
X144003003Y-108009658D01*
X143830942Y-108124624D01*
X143684624Y-108270942D01*
X143569657Y-108443004D01*
X143510442Y-108585962D01*
X143466601Y-108640366D01*
X143427979Y-108658283D01*
X143419410Y-108660579D01*
X143419407Y-108660580D01*
X143350892Y-108700137D01*
X143350887Y-108700141D01*
X142456741Y-109594287D01*
X142456735Y-109594295D01*
X142417182Y-109662804D01*
X142417179Y-109662809D01*
X142396700Y-109739239D01*
X142396700Y-117451567D01*
X142377015Y-117518606D01*
X142360381Y-117539248D01*
X141110448Y-118789181D01*
X141049125Y-118822666D01*
X141022767Y-118825500D01*
X135055433Y-118825500D01*
X134988394Y-118805815D01*
X134967752Y-118789181D01*
X134086819Y-117908248D01*
X134053334Y-117846925D01*
X134050500Y-117820567D01*
X134050500Y-117142930D01*
X134489500Y-117142930D01*
X134489500Y-117349869D01*
X134519946Y-117502929D01*
X134529870Y-117552820D01*
X134609059Y-117743998D01*
X134654432Y-117811904D01*
X134724024Y-117916057D01*
X134870342Y-118062375D01*
X134870345Y-118062377D01*
X135042402Y-118177341D01*
X135233580Y-118256530D01*
X135378052Y-118285267D01*
X135436530Y-118296899D01*
X135436534Y-118296900D01*
X135436535Y-118296900D01*
X135643466Y-118296900D01*
X135643467Y-118296899D01*
X135846420Y-118256530D01*
X136037598Y-118177341D01*
X136209655Y-118062377D01*
X136355977Y-117916055D01*
X136470941Y-117743998D01*
X136550130Y-117552820D01*
X136590500Y-117349865D01*
X136590500Y-117142935D01*
X136550130Y-116939980D01*
X136470941Y-116748802D01*
X136355977Y-116576745D01*
X136355975Y-116576742D01*
X136209657Y-116430424D01*
X136041655Y-116318170D01*
X136037598Y-116315459D01*
X135985002Y-116293673D01*
X135846420Y-116236270D01*
X135846412Y-116236268D01*
X135643469Y-116195900D01*
X135643465Y-116195900D01*
X135436535Y-116195900D01*
X135436530Y-116195900D01*
X135233587Y-116236268D01*
X135233579Y-116236270D01*
X135042403Y-116315458D01*
X134870342Y-116430424D01*
X134724024Y-116576742D01*
X134609058Y-116748803D01*
X134529870Y-116939979D01*
X134529868Y-116939987D01*
X134489500Y-117142930D01*
X134050500Y-117142930D01*
X134050500Y-116376649D01*
X134050499Y-116376647D01*
X134038868Y-116318170D01*
X134038867Y-116318169D01*
X133994552Y-116251847D01*
X133928230Y-116207532D01*
X133928229Y-116207531D01*
X133869752Y-116195900D01*
X133869748Y-116195900D01*
X132130252Y-116195900D01*
X132130247Y-116195900D01*
X132071770Y-116207531D01*
X132071769Y-116207532D01*
X132005447Y-116251847D01*
X131961132Y-116318169D01*
X131961131Y-116318170D01*
X131949500Y-116376647D01*
X131949500Y-118122239D01*
X131947063Y-118122239D01*
X131936009Y-118180361D01*
X131913335Y-118211492D01*
X131411848Y-118712981D01*
X131350525Y-118746466D01*
X131324167Y-118749300D01*
X124826333Y-118749300D01*
X124759294Y-118729615D01*
X124738652Y-118712981D01*
X124046819Y-118021148D01*
X124013334Y-117959825D01*
X124010500Y-117933467D01*
X124010500Y-117142930D01*
X124449500Y-117142930D01*
X124449500Y-117349869D01*
X124479946Y-117502929D01*
X124489870Y-117552820D01*
X124569059Y-117743998D01*
X124614432Y-117811904D01*
X124684024Y-117916057D01*
X124830342Y-118062375D01*
X124830345Y-118062377D01*
X125002402Y-118177341D01*
X125193580Y-118256530D01*
X125338052Y-118285267D01*
X125396530Y-118296899D01*
X125396534Y-118296900D01*
X125396535Y-118296900D01*
X125603466Y-118296900D01*
X125603467Y-118296899D01*
X125806420Y-118256530D01*
X125997598Y-118177341D01*
X126169655Y-118062377D01*
X126315977Y-117916055D01*
X126430941Y-117743998D01*
X126510130Y-117552820D01*
X126550500Y-117349865D01*
X126550500Y-117142935D01*
X126550499Y-117142930D01*
X126989500Y-117142930D01*
X126989500Y-117349869D01*
X127019946Y-117502929D01*
X127029870Y-117552820D01*
X127109059Y-117743998D01*
X127154432Y-117811904D01*
X127224024Y-117916057D01*
X127370342Y-118062375D01*
X127370345Y-118062377D01*
X127542402Y-118177341D01*
X127733580Y-118256530D01*
X127878052Y-118285267D01*
X127936530Y-118296899D01*
X127936534Y-118296900D01*
X127936535Y-118296900D01*
X128143466Y-118296900D01*
X128143467Y-118296899D01*
X128346420Y-118256530D01*
X128537598Y-118177341D01*
X128709655Y-118062377D01*
X128855977Y-117916055D01*
X128970941Y-117743998D01*
X129050130Y-117552820D01*
X129090500Y-117349865D01*
X129090500Y-117142935D01*
X129050130Y-116939980D01*
X128989974Y-116794752D01*
X128968610Y-116743174D01*
X128970301Y-116742473D01*
X128957807Y-116682479D01*
X128982805Y-116617234D01*
X128993719Y-116604750D01*
X130275852Y-115322619D01*
X130337175Y-115289134D01*
X130363533Y-115286300D01*
X133960438Y-115286300D01*
X135643567Y-115286300D01*
X135710606Y-115305985D01*
X135731248Y-115322619D01*
X137092924Y-116684295D01*
X137126409Y-116745618D01*
X137121425Y-116815310D01*
X137119804Y-116819429D01*
X137069870Y-116939979D01*
X137069868Y-116939987D01*
X137029500Y-117142930D01*
X137029500Y-117349869D01*
X137059946Y-117502929D01*
X137069870Y-117552820D01*
X137149059Y-117743998D01*
X137194432Y-117811904D01*
X137264024Y-117916057D01*
X137410342Y-118062375D01*
X137410345Y-118062377D01*
X137582402Y-118177341D01*
X137773580Y-118256530D01*
X137918052Y-118285267D01*
X137976530Y-118296899D01*
X137976534Y-118296900D01*
X137976535Y-118296900D01*
X138183466Y-118296900D01*
X138183467Y-118296899D01*
X138386420Y-118256530D01*
X138577598Y-118177341D01*
X138749655Y-118062377D01*
X138895977Y-117916055D01*
X139010941Y-117743998D01*
X139090130Y-117552820D01*
X139130500Y-117349865D01*
X139130500Y-117142935D01*
X139090130Y-116939980D01*
X139010941Y-116748802D01*
X138895977Y-116576745D01*
X138895975Y-116576742D01*
X138749657Y-116430424D01*
X138581655Y-116318170D01*
X138577598Y-116315459D01*
X138525002Y-116293673D01*
X138386420Y-116236270D01*
X138386412Y-116236268D01*
X138183469Y-116195900D01*
X138183465Y-116195900D01*
X137976535Y-116195900D01*
X137976530Y-116195900D01*
X137773587Y-116236268D01*
X137773579Y-116236270D01*
X137653029Y-116286204D01*
X137583559Y-116293673D01*
X137521080Y-116262398D01*
X137517895Y-116259324D01*
X136003912Y-114745341D01*
X136003904Y-114745335D01*
X135935395Y-114705782D01*
X135935390Y-114705779D01*
X135909913Y-114698952D01*
X135858962Y-114685300D01*
X134039562Y-114685300D01*
X130148138Y-114685300D01*
X130109924Y-114695539D01*
X130071709Y-114705779D01*
X130071704Y-114705782D01*
X130003195Y-114745335D01*
X130003187Y-114745341D01*
X128522271Y-116226256D01*
X128460948Y-116259741D01*
X128391256Y-116254757D01*
X128387155Y-116253143D01*
X128346420Y-116236270D01*
X128346412Y-116236268D01*
X128143469Y-116195900D01*
X128143465Y-116195900D01*
X127936535Y-116195900D01*
X127936530Y-116195900D01*
X127733587Y-116236268D01*
X127733579Y-116236270D01*
X127542403Y-116315458D01*
X127370342Y-116430424D01*
X127224024Y-116576742D01*
X127109058Y-116748803D01*
X127029870Y-116939979D01*
X127029868Y-116939987D01*
X126989500Y-117142930D01*
X126550499Y-117142930D01*
X126510130Y-116939980D01*
X126449974Y-116794752D01*
X126428610Y-116743174D01*
X126430301Y-116742473D01*
X126417807Y-116682479D01*
X126442805Y-116617234D01*
X126453719Y-116604751D01*
X126859460Y-116199011D01*
X126899022Y-116130488D01*
X126919500Y-116054062D01*
X126919500Y-115974938D01*
X126919500Y-110049721D01*
X126939185Y-109982682D01*
X126955819Y-109962040D01*
X126967130Y-109950729D01*
X126999495Y-109918364D01*
X127062095Y-109809936D01*
X127094500Y-109689001D01*
X127094500Y-109563799D01*
X127062095Y-109442864D01*
X126999495Y-109334436D01*
X126910964Y-109245905D01*
X126802536Y-109183305D01*
X126802537Y-109183305D01*
X126762224Y-109172503D01*
X126681601Y-109150900D01*
X126556399Y-109150900D01*
X126475775Y-109172503D01*
X126435463Y-109183305D01*
X126327037Y-109245904D01*
X126327034Y-109245906D01*
X126238506Y-109334434D01*
X126238504Y-109334437D01*
X126175905Y-109442863D01*
X126175905Y-109442864D01*
X126143500Y-109563799D01*
X126143500Y-109689001D01*
X126161607Y-109756575D01*
X126175905Y-109809936D01*
X126238504Y-109918362D01*
X126238506Y-109918365D01*
X126282181Y-109962040D01*
X126315666Y-110023363D01*
X126318500Y-110049721D01*
X126318500Y-115838666D01*
X126298815Y-115905705D01*
X126282181Y-115926347D01*
X125982271Y-116226256D01*
X125920948Y-116259741D01*
X125851256Y-116254757D01*
X125847155Y-116253143D01*
X125806420Y-116236270D01*
X125806412Y-116236268D01*
X125603469Y-116195900D01*
X125603465Y-116195900D01*
X125396535Y-116195900D01*
X125396530Y-116195900D01*
X125193587Y-116236268D01*
X125193579Y-116236270D01*
X125002403Y-116315458D01*
X124830342Y-116430424D01*
X124684024Y-116576742D01*
X124569058Y-116748803D01*
X124489870Y-116939979D01*
X124489868Y-116939987D01*
X124449500Y-117142930D01*
X124010500Y-117142930D01*
X124010500Y-116376649D01*
X124010499Y-116376647D01*
X123998868Y-116318170D01*
X123998867Y-116318169D01*
X123954552Y-116251847D01*
X123888230Y-116207532D01*
X123888229Y-116207531D01*
X123829752Y-116195900D01*
X123829748Y-116195900D01*
X122090252Y-116195900D01*
X122090247Y-116195900D01*
X122031770Y-116207531D01*
X122031769Y-116207532D01*
X121965447Y-116251847D01*
X121921132Y-116318169D01*
X121921131Y-116318170D01*
X121909500Y-116376647D01*
X113987700Y-116376647D01*
X113987700Y-113102755D01*
X115172200Y-113102755D01*
X115172200Y-113750600D01*
X116089188Y-113750600D01*
X116056275Y-113807607D01*
X116022200Y-113934774D01*
X116022200Y-114066426D01*
X116056275Y-114193593D01*
X116089188Y-114250600D01*
X115172200Y-114250600D01*
X115172200Y-114898444D01*
X115178601Y-114957972D01*
X115178603Y-114957979D01*
X115228845Y-115092686D01*
X115228849Y-115092693D01*
X115315009Y-115207787D01*
X115315012Y-115207790D01*
X115430106Y-115293950D01*
X115430113Y-115293954D01*
X115564820Y-115344196D01*
X115564827Y-115344198D01*
X115624355Y-115350599D01*
X115624372Y-115350600D01*
X116272200Y-115350600D01*
X116272200Y-114433612D01*
X116329207Y-114466525D01*
X116456374Y-114500600D01*
X116588026Y-114500600D01*
X116715193Y-114466525D01*
X116772200Y-114433612D01*
X116772200Y-115350600D01*
X117420028Y-115350600D01*
X117420044Y-115350599D01*
X117479572Y-115344198D01*
X117479579Y-115344196D01*
X117614286Y-115293954D01*
X117614293Y-115293950D01*
X117729387Y-115207790D01*
X117729390Y-115207787D01*
X117815550Y-115092693D01*
X117815554Y-115092686D01*
X117865796Y-114957979D01*
X117865798Y-114957972D01*
X117872199Y-114898444D01*
X117872200Y-114898427D01*
X117872200Y-114250600D01*
X116955212Y-114250600D01*
X116988125Y-114193593D01*
X117022200Y-114066426D01*
X117022200Y-113934774D01*
X116988125Y-113807607D01*
X116955212Y-113750600D01*
X117872200Y-113750600D01*
X117872200Y-113102772D01*
X117872199Y-113102755D01*
X117865798Y-113043227D01*
X117865796Y-113043220D01*
X117815554Y-112908513D01*
X117815550Y-112908506D01*
X117729390Y-112793412D01*
X117729387Y-112793409D01*
X117614293Y-112707249D01*
X117614286Y-112707245D01*
X117479579Y-112657003D01*
X117479572Y-112657001D01*
X117420044Y-112650600D01*
X117017765Y-112650600D01*
X116950726Y-112630915D01*
X116904971Y-112578111D01*
X116895027Y-112508953D01*
X116924052Y-112445397D01*
X116970312Y-112412039D01*
X116975808Y-112409762D01*
X117019798Y-112391541D01*
X117191855Y-112276577D01*
X117338177Y-112130255D01*
X117453141Y-111958198D01*
X117503075Y-111837646D01*
X117546916Y-111783244D01*
X117613210Y-111761179D01*
X117617636Y-111761100D01*
X118066567Y-111761100D01*
X118133606Y-111780785D01*
X118154248Y-111797419D01*
X118509689Y-112152860D01*
X118578212Y-112192422D01*
X118654638Y-112212900D01*
X118733762Y-112212900D01*
X122258679Y-112212900D01*
X122325718Y-112232585D01*
X122346360Y-112249219D01*
X122390036Y-112292895D01*
X122498464Y-112355495D01*
X122619399Y-112387900D01*
X122619401Y-112387900D01*
X122744599Y-112387900D01*
X122744601Y-112387900D01*
X122865536Y-112355495D01*
X122973964Y-112292895D01*
X123062495Y-112204364D01*
X123125095Y-112095936D01*
X123157500Y-111975001D01*
X123157500Y-111849799D01*
X123125095Y-111728864D01*
X123062495Y-111620436D01*
X122973964Y-111531905D01*
X122865536Y-111469305D01*
X122865537Y-111469305D01*
X122825224Y-111458503D01*
X122744601Y-111436900D01*
X122619399Y-111436900D01*
X122538775Y-111458503D01*
X122498463Y-111469305D01*
X122390037Y-111531904D01*
X122390034Y-111531906D01*
X122346360Y-111575581D01*
X122285037Y-111609066D01*
X122258679Y-111611900D01*
X118870033Y-111611900D01*
X118802994Y-111592215D01*
X118782352Y-111575581D01*
X118426912Y-111220141D01*
X118426904Y-111220135D01*
X118358395Y-111180582D01*
X118358390Y-111180579D01*
X118332913Y-111173752D01*
X118281962Y-111160100D01*
X118281960Y-111160100D01*
X117617636Y-111160100D01*
X117550597Y-111140415D01*
X117504842Y-111087611D01*
X117503075Y-111083553D01*
X117453141Y-110963002D01*
X117338177Y-110790945D01*
X117338175Y-110790942D01*
X117191857Y-110644624D01*
X117049729Y-110549658D01*
X117019798Y-110529659D01*
X116828620Y-110450470D01*
X116828612Y-110450468D01*
X116625669Y-110410100D01*
X116625665Y-110410100D01*
X116418735Y-110410100D01*
X116418730Y-110410100D01*
X116215787Y-110450468D01*
X116215779Y-110450470D01*
X116024603Y-110529658D01*
X115852542Y-110644624D01*
X115706224Y-110790942D01*
X115591258Y-110963003D01*
X115512070Y-111154179D01*
X115512068Y-111154187D01*
X115471700Y-111357130D01*
X115471700Y-111564069D01*
X115504480Y-111728863D01*
X115512070Y-111767020D01*
X115591259Y-111958198D01*
X115648741Y-112044226D01*
X115706224Y-112130257D01*
X115852542Y-112276575D01*
X115852545Y-112276577D01*
X116024602Y-112391541D01*
X116064193Y-112407940D01*
X116074088Y-112412039D01*
X116128491Y-112455880D01*
X116150556Y-112522174D01*
X116133277Y-112589874D01*
X116082139Y-112637484D01*
X116026635Y-112650600D01*
X115624355Y-112650600D01*
X115564827Y-112657001D01*
X115564820Y-112657003D01*
X115430113Y-112707245D01*
X115430106Y-112707249D01*
X115315012Y-112793409D01*
X115315009Y-112793412D01*
X115228849Y-112908506D01*
X115228845Y-112908513D01*
X115178603Y-113043220D01*
X115178601Y-113043227D01*
X115172200Y-113102755D01*
X113987700Y-113102755D01*
X113987700Y-108817130D01*
X115471700Y-108817130D01*
X115471700Y-109024069D01*
X115512068Y-109227012D01*
X115512070Y-109227020D01*
X115591259Y-109418198D01*
X115607740Y-109442863D01*
X115706224Y-109590257D01*
X115852542Y-109736575D01*
X115852545Y-109736577D01*
X116024602Y-109851541D01*
X116215780Y-109930730D01*
X116373187Y-109962040D01*
X116418730Y-109971099D01*
X116418734Y-109971100D01*
X116418735Y-109971100D01*
X116625666Y-109971100D01*
X116625667Y-109971099D01*
X116828620Y-109930730D01*
X117019798Y-109851541D01*
X117191855Y-109736577D01*
X117338177Y-109590255D01*
X117453141Y-109418198D01*
X117532330Y-109227020D01*
X117572700Y-109024065D01*
X117572700Y-108817135D01*
X117532330Y-108614180D01*
X117453141Y-108423002D01*
X117338177Y-108250945D01*
X117338175Y-108250942D01*
X117191857Y-108104624D01*
X117049729Y-108009658D01*
X117019798Y-107989659D01*
X116828620Y-107910470D01*
X116828612Y-107910468D01*
X116625669Y-107870100D01*
X116625665Y-107870100D01*
X116418735Y-107870100D01*
X116418730Y-107870100D01*
X116215787Y-107910468D01*
X116215779Y-107910470D01*
X116024603Y-107989658D01*
X115852542Y-108104624D01*
X115706224Y-108250942D01*
X115591258Y-108423003D01*
X115512070Y-108614179D01*
X115512068Y-108614187D01*
X115471700Y-108817130D01*
X113987700Y-108817130D01*
X113987700Y-106277130D01*
X115471700Y-106277130D01*
X115471700Y-106484069D01*
X115512068Y-106687012D01*
X115512070Y-106687020D01*
X115591258Y-106878196D01*
X115706224Y-107050257D01*
X115852542Y-107196575D01*
X115852545Y-107196577D01*
X116024602Y-107311541D01*
X116215780Y-107390730D01*
X116418730Y-107431099D01*
X116418734Y-107431100D01*
X116418735Y-107431100D01*
X116625666Y-107431100D01*
X116625667Y-107431099D01*
X116828620Y-107390730D01*
X117019798Y-107311541D01*
X117191855Y-107196577D01*
X117338177Y-107050255D01*
X117453141Y-106878198D01*
X117532330Y-106687020D01*
X117572700Y-106484065D01*
X117572700Y-106277135D01*
X117572579Y-106276527D01*
X117557047Y-106198438D01*
X117553203Y-106179113D01*
X134003700Y-106179113D01*
X134003700Y-106368086D01*
X134033259Y-106554718D01*
X134091654Y-106734436D01*
X134164904Y-106878196D01*
X134177440Y-106902799D01*
X134288510Y-107055673D01*
X134422127Y-107189290D01*
X134575001Y-107300360D01*
X134630875Y-107328829D01*
X134743363Y-107386145D01*
X134743365Y-107386145D01*
X134743368Y-107386147D01*
X134839697Y-107417446D01*
X134923081Y-107444540D01*
X135109714Y-107474100D01*
X135109719Y-107474100D01*
X135298686Y-107474100D01*
X135485318Y-107444540D01*
X135500931Y-107439467D01*
X135665032Y-107386147D01*
X135833399Y-107300360D01*
X135986273Y-107189290D01*
X136119890Y-107055673D01*
X136230960Y-106902799D01*
X136316747Y-106734432D01*
X136375140Y-106554718D01*
X136386330Y-106484065D01*
X136404700Y-106368086D01*
X136404700Y-106179113D01*
X136375140Y-105992481D01*
X136339568Y-105883003D01*
X136316747Y-105812768D01*
X136316745Y-105812765D01*
X136316745Y-105812763D01*
X136230959Y-105644400D01*
X136196990Y-105597646D01*
X136172998Y-105564624D01*
X136148458Y-105530847D01*
X143450100Y-105530847D01*
X143450100Y-107270352D01*
X143461731Y-107328829D01*
X143461732Y-107328830D01*
X143506047Y-107395152D01*
X143572369Y-107439467D01*
X143572370Y-107439468D01*
X143630847Y-107451099D01*
X143630850Y-107451100D01*
X143630852Y-107451100D01*
X145370350Y-107451100D01*
X145370351Y-107451099D01*
X145385168Y-107448152D01*
X145428829Y-107439468D01*
X145428829Y-107439467D01*
X145428831Y-107439467D01*
X145495152Y-107395152D01*
X145539467Y-107328831D01*
X145539467Y-107328829D01*
X145539468Y-107328829D01*
X145551099Y-107270352D01*
X145551100Y-107270350D01*
X145551100Y-105530849D01*
X145551099Y-105530847D01*
X145539468Y-105472370D01*
X145539467Y-105472369D01*
X145495152Y-105406047D01*
X145428830Y-105361732D01*
X145428829Y-105361731D01*
X145370352Y-105350100D01*
X145370348Y-105350100D01*
X143630852Y-105350100D01*
X143630847Y-105350100D01*
X143572370Y-105361731D01*
X143572369Y-105361732D01*
X143506047Y-105406047D01*
X143461732Y-105472369D01*
X143461731Y-105472370D01*
X143450100Y-105530847D01*
X136148458Y-105530847D01*
X136119890Y-105491527D01*
X135986273Y-105357910D01*
X135833399Y-105246840D01*
X135665036Y-105161054D01*
X135485318Y-105102659D01*
X135298686Y-105073100D01*
X135298681Y-105073100D01*
X135109719Y-105073100D01*
X135109714Y-105073100D01*
X134923081Y-105102659D01*
X134743363Y-105161054D01*
X134575000Y-105246840D01*
X134487779Y-105310210D01*
X134422127Y-105357910D01*
X134422125Y-105357912D01*
X134422124Y-105357912D01*
X134288512Y-105491524D01*
X134288512Y-105491525D01*
X134288510Y-105491527D01*
X134259942Y-105530847D01*
X134177440Y-105644400D01*
X134091654Y-105812763D01*
X134033259Y-105992481D01*
X134003700Y-106179113D01*
X117553203Y-106179113D01*
X117532331Y-106074187D01*
X117532330Y-106074180D01*
X117453141Y-105883002D01*
X117338177Y-105710945D01*
X117338175Y-105710942D01*
X117191857Y-105564624D01*
X117082454Y-105491524D01*
X117019798Y-105449659D01*
X116914512Y-105406048D01*
X116828620Y-105370470D01*
X116828612Y-105370468D01*
X116625669Y-105330100D01*
X116625665Y-105330100D01*
X116418735Y-105330100D01*
X116418730Y-105330100D01*
X116215787Y-105370468D01*
X116215779Y-105370470D01*
X116024603Y-105449658D01*
X115852542Y-105564624D01*
X115706224Y-105710942D01*
X115591258Y-105883003D01*
X115512070Y-106074179D01*
X115512068Y-106074187D01*
X115471700Y-106277130D01*
X113987700Y-106277130D01*
X113987700Y-103405513D01*
X137153300Y-103405513D01*
X137153300Y-103594486D01*
X137182859Y-103781118D01*
X137241254Y-103960836D01*
X137327040Y-104129199D01*
X137438110Y-104282073D01*
X137571727Y-104415690D01*
X137724601Y-104526760D01*
X137804147Y-104567290D01*
X137892963Y-104612545D01*
X137892965Y-104612545D01*
X137892968Y-104612547D01*
X137989297Y-104643846D01*
X138072681Y-104670940D01*
X138259314Y-104700500D01*
X138259319Y-104700500D01*
X138448286Y-104700500D01*
X138634918Y-104670940D01*
X138814632Y-104612547D01*
X138982999Y-104526760D01*
X139135873Y-104415690D01*
X139269490Y-104282073D01*
X139380560Y-104129199D01*
X139466347Y-103960832D01*
X139524740Y-103781118D01*
X139554300Y-103594486D01*
X139554300Y-103405513D01*
X139524740Y-103218881D01*
X139466345Y-103039163D01*
X139380559Y-102870800D01*
X139269490Y-102717927D01*
X139135873Y-102584310D01*
X138982999Y-102473240D01*
X138814636Y-102387454D01*
X138634918Y-102329059D01*
X138448286Y-102299500D01*
X138448281Y-102299500D01*
X138259319Y-102299500D01*
X138259314Y-102299500D01*
X138072681Y-102329059D01*
X137892963Y-102387454D01*
X137724600Y-102473240D01*
X137637379Y-102536610D01*
X137571727Y-102584310D01*
X137571725Y-102584312D01*
X137571724Y-102584312D01*
X137438112Y-102717924D01*
X137438112Y-102717925D01*
X137438110Y-102717927D01*
X137390410Y-102783579D01*
X137327040Y-102870800D01*
X137241254Y-103039163D01*
X137182859Y-103218881D01*
X137153300Y-103405513D01*
X113987700Y-103405513D01*
X113987700Y-99397648D01*
X116809500Y-99397648D01*
X116809500Y-99602351D01*
X116841522Y-99804534D01*
X116904781Y-99999223D01*
X116997715Y-100181613D01*
X117118028Y-100347213D01*
X117262786Y-100491971D01*
X117417749Y-100604556D01*
X117428390Y-100612287D01*
X117544607Y-100671503D01*
X117610776Y-100705218D01*
X117610778Y-100705218D01*
X117610781Y-100705220D01*
X117715137Y-100739127D01*
X117805465Y-100768477D01*
X117906557Y-100784488D01*
X118007648Y-100800500D01*
X118007649Y-100800500D01*
X118212351Y-100800500D01*
X118212352Y-100800500D01*
X118414534Y-100768477D01*
X118609219Y-100705220D01*
X118791610Y-100612287D01*
X118884590Y-100544732D01*
X118957213Y-100491971D01*
X118957215Y-100491968D01*
X118957219Y-100491966D01*
X119101966Y-100347219D01*
X119101968Y-100347215D01*
X119101971Y-100347213D01*
X119154732Y-100274590D01*
X119222287Y-100181610D01*
X119315220Y-99999219D01*
X119378477Y-99804534D01*
X119410500Y-99602352D01*
X119410500Y-99397648D01*
X141699500Y-99397648D01*
X141699500Y-99602351D01*
X141731522Y-99804534D01*
X141794781Y-99999223D01*
X141887715Y-100181613D01*
X142008028Y-100347213D01*
X142152786Y-100491971D01*
X142307749Y-100604556D01*
X142318390Y-100612287D01*
X142434607Y-100671503D01*
X142500776Y-100705218D01*
X142500778Y-100705218D01*
X142500781Y-100705220D01*
X142605137Y-100739127D01*
X142695465Y-100768477D01*
X142796557Y-100784488D01*
X142897648Y-100800500D01*
X142897649Y-100800500D01*
X143102351Y-100800500D01*
X143102352Y-100800500D01*
X143304534Y-100768477D01*
X143499219Y-100705220D01*
X143681610Y-100612287D01*
X143774590Y-100544732D01*
X143847213Y-100491971D01*
X143847215Y-100491968D01*
X143847219Y-100491966D01*
X143991966Y-100347219D01*
X143991968Y-100347215D01*
X143991971Y-100347213D01*
X144044732Y-100274590D01*
X144112287Y-100181610D01*
X144205220Y-99999219D01*
X144268477Y-99804534D01*
X144300500Y-99602352D01*
X144300500Y-99397648D01*
X144268477Y-99195466D01*
X144205220Y-99000781D01*
X144205218Y-99000778D01*
X144205218Y-99000776D01*
X144171503Y-98934607D01*
X144112287Y-98818390D01*
X144104556Y-98807749D01*
X143991971Y-98652786D01*
X143847213Y-98508028D01*
X143681613Y-98387715D01*
X143681612Y-98387714D01*
X143681610Y-98387713D01*
X143624653Y-98358691D01*
X143499223Y-98294781D01*
X143304534Y-98231522D01*
X143129995Y-98203878D01*
X143102352Y-98199500D01*
X142897648Y-98199500D01*
X142873329Y-98203351D01*
X142695465Y-98231522D01*
X142500776Y-98294781D01*
X142318386Y-98387715D01*
X142152786Y-98508028D01*
X142008028Y-98652786D01*
X141887715Y-98818386D01*
X141794781Y-99000776D01*
X141731522Y-99195465D01*
X141699500Y-99397648D01*
X119410500Y-99397648D01*
X119378477Y-99195466D01*
X119315220Y-99000781D01*
X119315218Y-99000778D01*
X119315218Y-99000776D01*
X119281503Y-98934607D01*
X119222287Y-98818390D01*
X119214556Y-98807749D01*
X119101971Y-98652786D01*
X118957213Y-98508028D01*
X118791613Y-98387715D01*
X118791612Y-98387714D01*
X118791610Y-98387713D01*
X118734653Y-98358691D01*
X118609223Y-98294781D01*
X118414534Y-98231522D01*
X118239995Y-98203878D01*
X118212352Y-98199500D01*
X118007648Y-98199500D01*
X117983329Y-98203351D01*
X117805465Y-98231522D01*
X117610776Y-98294781D01*
X117428386Y-98387715D01*
X117262786Y-98508028D01*
X117118028Y-98652786D01*
X116997715Y-98818386D01*
X116904781Y-99000776D01*
X116841522Y-99195465D01*
X116809500Y-99397648D01*
X113987700Y-99397648D01*
X113987700Y-94374071D01*
X116510000Y-94374071D01*
X116510000Y-94625928D01*
X116549397Y-94874669D01*
X116627219Y-95114184D01*
X116741557Y-95338583D01*
X116815748Y-95440697D01*
X116815748Y-95440698D01*
X117470690Y-94785756D01*
X117489668Y-94831574D01*
X117566274Y-94946224D01*
X117663776Y-95043726D01*
X117778426Y-95120332D01*
X117824242Y-95139309D01*
X117169300Y-95794250D01*
X117271416Y-95868442D01*
X117495815Y-95982780D01*
X117735330Y-96060602D01*
X117984072Y-96100000D01*
X118235928Y-96100000D01*
X118484669Y-96060602D01*
X118724184Y-95982780D01*
X118948575Y-95868446D01*
X118948581Y-95868442D01*
X119050697Y-95794250D01*
X119050698Y-95794250D01*
X118395757Y-95139309D01*
X118441574Y-95120332D01*
X118556224Y-95043726D01*
X118653726Y-94946224D01*
X118730332Y-94831574D01*
X118749309Y-94785757D01*
X119404250Y-95440698D01*
X119404250Y-95440697D01*
X119478442Y-95338581D01*
X119478446Y-95338575D01*
X119592780Y-95114184D01*
X119670602Y-94874669D01*
X119710000Y-94625928D01*
X119710000Y-94374071D01*
X119670602Y-94125330D01*
X119592780Y-93885815D01*
X119478442Y-93661416D01*
X119404250Y-93559301D01*
X119404250Y-93559300D01*
X118749309Y-94214241D01*
X118730332Y-94168426D01*
X118653726Y-94053776D01*
X118556224Y-93956274D01*
X118441574Y-93879668D01*
X118395755Y-93860689D01*
X119004099Y-93252347D01*
X133348600Y-93252347D01*
X133348600Y-93488452D01*
X133385534Y-93721647D01*
X133458497Y-93946202D01*
X133565687Y-94156574D01*
X133625938Y-94239504D01*
X133625940Y-94239505D01*
X134365637Y-93499808D01*
X134382675Y-93563393D01*
X134448501Y-93677407D01*
X134541593Y-93770499D01*
X134655607Y-93836325D01*
X134719190Y-93853362D01*
X133979493Y-94593058D01*
X134062428Y-94653314D01*
X134272797Y-94760502D01*
X134497352Y-94833465D01*
X134497351Y-94833465D01*
X134730548Y-94870400D01*
X134966652Y-94870400D01*
X135199847Y-94833465D01*
X135424402Y-94760502D01*
X135634763Y-94653318D01*
X135634769Y-94653314D01*
X135717704Y-94593058D01*
X135717705Y-94593058D01*
X135581533Y-94456886D01*
X135498718Y-94374071D01*
X141400000Y-94374071D01*
X141400000Y-94625928D01*
X141439397Y-94874669D01*
X141517219Y-95114184D01*
X141631557Y-95338583D01*
X141705748Y-95440697D01*
X141705748Y-95440698D01*
X142360690Y-94785756D01*
X142379668Y-94831574D01*
X142456274Y-94946224D01*
X142553776Y-95043726D01*
X142668426Y-95120332D01*
X142714242Y-95139309D01*
X142059300Y-95794250D01*
X142161416Y-95868442D01*
X142385815Y-95982780D01*
X142625330Y-96060602D01*
X142874072Y-96100000D01*
X143125928Y-96100000D01*
X143374669Y-96060602D01*
X143614184Y-95982780D01*
X143838575Y-95868446D01*
X143838581Y-95868442D01*
X143940697Y-95794250D01*
X143940698Y-95794250D01*
X143285757Y-95139309D01*
X143331574Y-95120332D01*
X143446224Y-95043726D01*
X143543726Y-94946224D01*
X143620332Y-94831574D01*
X143639309Y-94785757D01*
X144294250Y-95440698D01*
X144294250Y-95440697D01*
X144368442Y-95338581D01*
X144368446Y-95338575D01*
X144482780Y-95114184D01*
X144560602Y-94874669D01*
X144600000Y-94625928D01*
X144600000Y-94374071D01*
X144560602Y-94125330D01*
X144482780Y-93885815D01*
X144368442Y-93661416D01*
X144294250Y-93559301D01*
X144294250Y-93559300D01*
X143639309Y-94214241D01*
X143620332Y-94168426D01*
X143543726Y-94053776D01*
X143446224Y-93956274D01*
X143331574Y-93879668D01*
X143285755Y-93860689D01*
X143940698Y-93205748D01*
X143838583Y-93131557D01*
X143614184Y-93017219D01*
X143374669Y-92939397D01*
X143125928Y-92900000D01*
X142874072Y-92900000D01*
X142625330Y-92939397D01*
X142385815Y-93017219D01*
X142161413Y-93131559D01*
X142059301Y-93205747D01*
X142059300Y-93205748D01*
X142714242Y-93860690D01*
X142668426Y-93879668D01*
X142553776Y-93956274D01*
X142456274Y-94053776D01*
X142379668Y-94168426D01*
X142360690Y-94214242D01*
X141705748Y-93559300D01*
X141705747Y-93559301D01*
X141631559Y-93661413D01*
X141517219Y-93885815D01*
X141439397Y-94125330D01*
X141400000Y-94374071D01*
X135498718Y-94374071D01*
X134978008Y-93853362D01*
X135041593Y-93836325D01*
X135155607Y-93770499D01*
X135248699Y-93677407D01*
X135314525Y-93563393D01*
X135331562Y-93499809D01*
X136071258Y-94239505D01*
X136071258Y-94239504D01*
X136131514Y-94156569D01*
X136131518Y-94156563D01*
X136238702Y-93946202D01*
X136311665Y-93721647D01*
X136348600Y-93488452D01*
X136348600Y-93252347D01*
X136311665Y-93019152D01*
X136238702Y-92794597D01*
X136131514Y-92584228D01*
X136071258Y-92501294D01*
X136071258Y-92501293D01*
X135331562Y-93240990D01*
X135314525Y-93177407D01*
X135248699Y-93063393D01*
X135155607Y-92970301D01*
X135041593Y-92904475D01*
X134978009Y-92887437D01*
X135717705Y-92147740D01*
X135717704Y-92147738D01*
X135634774Y-92087487D01*
X135424402Y-91980297D01*
X135199847Y-91907334D01*
X135199848Y-91907334D01*
X134966652Y-91870400D01*
X134730548Y-91870400D01*
X134497352Y-91907334D01*
X134272797Y-91980297D01*
X134062430Y-92087484D01*
X133979494Y-92147740D01*
X134719191Y-92887437D01*
X134655607Y-92904475D01*
X134541593Y-92970301D01*
X134448501Y-93063393D01*
X134382675Y-93177407D01*
X134365637Y-93240991D01*
X133625940Y-92501294D01*
X133565684Y-92584230D01*
X133458497Y-92794597D01*
X133385534Y-93019152D01*
X133348600Y-93252347D01*
X119004099Y-93252347D01*
X119050698Y-93205748D01*
X118948583Y-93131557D01*
X118724184Y-93017219D01*
X118484669Y-92939397D01*
X118235928Y-92900000D01*
X117984072Y-92900000D01*
X117735330Y-92939397D01*
X117495815Y-93017219D01*
X117271413Y-93131559D01*
X117169301Y-93205747D01*
X117169300Y-93205748D01*
X117824242Y-93860690D01*
X117778426Y-93879668D01*
X117663776Y-93956274D01*
X117566274Y-94053776D01*
X117489668Y-94168426D01*
X117470690Y-94214242D01*
X116815748Y-93559300D01*
X116815747Y-93559301D01*
X116741559Y-93661413D01*
X116627219Y-93885815D01*
X116549397Y-94125330D01*
X116510000Y-94374071D01*
X113987700Y-94374071D01*
X113987700Y-87997150D01*
X113987926Y-87989663D01*
X113994441Y-87881949D01*
X114812100Y-87881949D01*
X114812100Y-88104850D01*
X114812101Y-88104866D01*
X114841194Y-88325852D01*
X114841195Y-88325857D01*
X114841196Y-88325863D01*
X114841197Y-88325865D01*
X114898890Y-88541180D01*
X114898893Y-88541190D01*
X114984193Y-88747122D01*
X114984195Y-88747126D01*
X115095652Y-88940174D01*
X115095657Y-88940180D01*
X115095658Y-88940182D01*
X115231351Y-89117022D01*
X115231357Y-89117029D01*
X115388970Y-89274642D01*
X115388976Y-89274647D01*
X115565826Y-89410348D01*
X115758874Y-89521805D01*
X115964819Y-89607110D01*
X116180137Y-89664804D01*
X116401143Y-89693900D01*
X116401150Y-89693900D01*
X116624050Y-89693900D01*
X116624057Y-89693900D01*
X116845063Y-89664804D01*
X117060381Y-89607110D01*
X117266326Y-89521805D01*
X117459374Y-89410348D01*
X117636224Y-89274647D01*
X117793847Y-89117024D01*
X117929548Y-88940174D01*
X118041005Y-88747126D01*
X118126310Y-88541181D01*
X118184004Y-88325863D01*
X118213100Y-88104857D01*
X118213100Y-87881949D01*
X142812100Y-87881949D01*
X142812100Y-88104850D01*
X142812101Y-88104866D01*
X142841194Y-88325852D01*
X142841195Y-88325857D01*
X142841196Y-88325863D01*
X142841197Y-88325865D01*
X142898890Y-88541180D01*
X142898893Y-88541190D01*
X142984193Y-88747122D01*
X142984195Y-88747126D01*
X143095652Y-88940174D01*
X143095657Y-88940180D01*
X143095658Y-88940182D01*
X143231351Y-89117022D01*
X143231357Y-89117029D01*
X143388970Y-89274642D01*
X143388976Y-89274647D01*
X143565826Y-89410348D01*
X143758874Y-89521805D01*
X143964819Y-89607110D01*
X144180137Y-89664804D01*
X144401143Y-89693900D01*
X144401150Y-89693900D01*
X144624050Y-89693900D01*
X144624057Y-89693900D01*
X144845063Y-89664804D01*
X145060381Y-89607110D01*
X145266326Y-89521805D01*
X145459374Y-89410348D01*
X145636224Y-89274647D01*
X145793847Y-89117024D01*
X145929548Y-88940174D01*
X146041005Y-88747126D01*
X146126310Y-88541181D01*
X146184004Y-88325863D01*
X146213100Y-88104857D01*
X146213100Y-87881943D01*
X146184004Y-87660937D01*
X146126310Y-87445619D01*
X146041005Y-87239674D01*
X145929548Y-87046626D01*
X145793847Y-86869776D01*
X145793842Y-86869770D01*
X145636229Y-86712157D01*
X145636222Y-86712151D01*
X145459382Y-86576458D01*
X145459380Y-86576457D01*
X145459374Y-86576452D01*
X145266326Y-86464995D01*
X145266322Y-86464993D01*
X145060390Y-86379693D01*
X145060383Y-86379691D01*
X145060381Y-86379690D01*
X144845063Y-86321996D01*
X144845057Y-86321995D01*
X144845052Y-86321994D01*
X144624066Y-86292901D01*
X144624063Y-86292900D01*
X144624057Y-86292900D01*
X144401143Y-86292900D01*
X144401137Y-86292900D01*
X144401133Y-86292901D01*
X144180147Y-86321994D01*
X144180140Y-86321995D01*
X144180137Y-86321996D01*
X143964819Y-86379690D01*
X143964809Y-86379693D01*
X143758877Y-86464993D01*
X143758873Y-86464995D01*
X143565826Y-86576452D01*
X143565817Y-86576458D01*
X143388977Y-86712151D01*
X143388970Y-86712157D01*
X143231357Y-86869770D01*
X143231351Y-86869777D01*
X143095658Y-87046617D01*
X143095652Y-87046626D01*
X142984195Y-87239673D01*
X142984193Y-87239677D01*
X142898893Y-87445609D01*
X142898890Y-87445619D01*
X142841197Y-87660934D01*
X142841194Y-87660947D01*
X142812101Y-87881933D01*
X142812100Y-87881949D01*
X118213100Y-87881949D01*
X118213100Y-87881943D01*
X118184004Y-87660937D01*
X118126310Y-87445619D01*
X118041005Y-87239674D01*
X117929548Y-87046626D01*
X117793847Y-86869776D01*
X117793842Y-86869770D01*
X117636229Y-86712157D01*
X117636222Y-86712151D01*
X117459382Y-86576458D01*
X117459380Y-86576457D01*
X117459374Y-86576452D01*
X117266326Y-86464995D01*
X117266322Y-86464993D01*
X117060390Y-86379693D01*
X117060383Y-86379691D01*
X117060381Y-86379690D01*
X116845063Y-86321996D01*
X116845057Y-86321995D01*
X116845052Y-86321994D01*
X116624066Y-86292901D01*
X116624063Y-86292900D01*
X116624057Y-86292900D01*
X116401143Y-86292900D01*
X116401137Y-86292900D01*
X116401133Y-86292901D01*
X116180147Y-86321994D01*
X116180140Y-86321995D01*
X116180137Y-86321996D01*
X115964819Y-86379690D01*
X115964809Y-86379693D01*
X115758877Y-86464993D01*
X115758873Y-86464995D01*
X115565826Y-86576452D01*
X115565817Y-86576458D01*
X115388977Y-86712151D01*
X115388970Y-86712157D01*
X115231357Y-86869770D01*
X115231351Y-86869777D01*
X115095658Y-87046617D01*
X115095652Y-87046626D01*
X114984195Y-87239673D01*
X114984193Y-87239677D01*
X114898893Y-87445609D01*
X114898890Y-87445619D01*
X114841197Y-87660934D01*
X114841194Y-87660947D01*
X114812101Y-87881933D01*
X114812100Y-87881949D01*
X113994441Y-87881949D01*
X113995140Y-87870397D01*
X114005471Y-87699605D01*
X114007276Y-87684740D01*
X114051099Y-87445609D01*
X114058980Y-87402597D01*
X114062564Y-87388063D01*
X114108804Y-87239674D01*
X114147896Y-87114222D01*
X114153198Y-87100241D01*
X114270931Y-86838649D01*
X114277876Y-86825416D01*
X114426280Y-86579926D01*
X114434767Y-86567630D01*
X114611680Y-86341817D01*
X114621595Y-86330626D01*
X114824426Y-86127795D01*
X114835617Y-86117880D01*
X115061430Y-85940967D01*
X115073726Y-85932480D01*
X115319216Y-85784076D01*
X115332449Y-85777131D01*
X115594041Y-85659398D01*
X115608022Y-85654096D01*
X115881868Y-85568762D01*
X115896397Y-85565180D01*
X116178544Y-85513475D01*
X116193401Y-85511671D01*
X116483464Y-85494126D01*
X116490951Y-85493900D01*
X116553092Y-85493900D01*
X144421308Y-85493900D01*
X144483449Y-85493900D01*
X144490936Y-85494126D01*
G37*
%TD.AperFunction*%
%TD*%
M02*
