%TF.GenerationSoftware,KiCad,Pcbnew,9.0.0*%
%TF.CreationDate,2025-04-01T13:34:09-03:00*%
%TF.ProjectId,KDT_Hierarchical,4b44545f-4869-4657-9261-726368696361,1.1*%
%TF.SameCoordinates,Original*%
%TF.FileFunction,Legend,Top*%
%TF.FilePolarity,Positive*%
%FSLAX46Y46*%
G04 Gerber Fmt 4.6, Leading zero omitted, Abs format (unit mm)*
G04 Created by KiCad (PCBNEW 9.0.0) date 2025-04-01 13:34:09*
%MOMM*%
%LPD*%
G01*
G04 APERTURE LIST*
G04 Aperture macros list*
%AMRoundRect*
0 Rectangle with rounded corners*
0 $1 Rounding radius*
0 $2 $3 $4 $5 $6 $7 $8 $9 X,Y pos of 4 corners*
0 Add a 4 corners polygon primitive as box body*
4,1,4,$2,$3,$4,$5,$6,$7,$8,$9,$2,$3,0*
0 Add four circle primitives for the rounded corners*
1,1,$1+$1,$2,$3*
1,1,$1+$1,$4,$5*
1,1,$1+$1,$6,$7*
1,1,$1+$1,$8,$9*
0 Add four rect primitives between the rounded corners*
20,1,$1+$1,$2,$3,$4,$5,0*
20,1,$1+$1,$4,$5,$6,$7,0*
20,1,$1+$1,$6,$7,$8,$9,0*
20,1,$1+$1,$8,$9,$2,$3,0*%
G04 Aperture macros list end*
%ADD10C,0.150000*%
%ADD11C,0.200000*%
%ADD12C,0.120000*%
%ADD13C,2.100000*%
%ADD14RoundRect,0.050000X-0.850000X-0.850000X0.850000X-0.850000X0.850000X0.850000X-0.850000X0.850000X0*%
%ADD15O,1.800000X1.800000*%
%ADD16RoundRect,0.050000X0.850000X0.850000X-0.850000X0.850000X-0.850000X-0.850000X0.850000X-0.850000X0*%
%ADD17RoundRect,0.050000X0.850000X-0.850000X0.850000X0.850000X-0.850000X0.850000X-0.850000X-0.850000X0*%
%ADD18RoundRect,0.271277X-0.366223X-0.503723X0.366223X-0.503723X0.366223X0.503723X-0.366223X0.503723X0*%
%ADD19RoundRect,0.262500X-0.275000X-0.262500X0.275000X-0.262500X0.275000X0.262500X-0.275000X0.262500X0*%
%ADD20RoundRect,0.262500X-0.262500X0.275000X-0.262500X-0.275000X0.262500X-0.275000X0.262500X0.275000X0*%
%ADD21C,3.100000*%
%ADD22RoundRect,0.269231X-0.430769X-0.655769X0.430769X-0.655769X0.430769X0.655769X-0.430769X0.655769X0*%
%ADD23C,2.300000*%
%ADD24C,2.000000*%
%ADD25RoundRect,0.243750X-0.281250X0.243750X-0.281250X-0.243750X0.281250X-0.243750X0.281250X0.243750X0*%
%ADD26RoundRect,0.271277X0.366223X0.503723X-0.366223X0.503723X-0.366223X-0.503723X0.366223X-0.503723X0*%
%ADD27RoundRect,0.250000X-0.400000X0.250000X-0.400000X-0.250000X0.400000X-0.250000X0.400000X0.250000X0*%
%ADD28RoundRect,0.100000X-0.675000X-0.100000X0.675000X-0.100000X0.675000X0.100000X-0.675000X0.100000X0*%
G04 APERTURE END LIST*
D10*
X140776560Y-111887000D02*
X140919417Y-111934619D01*
X140919417Y-111934619D02*
X141157512Y-111934619D01*
X141157512Y-111934619D02*
X141252750Y-111887000D01*
X141252750Y-111887000D02*
X141300369Y-111839380D01*
X141300369Y-111839380D02*
X141347988Y-111744142D01*
X141347988Y-111744142D02*
X141347988Y-111648904D01*
X141347988Y-111648904D02*
X141300369Y-111553666D01*
X141300369Y-111553666D02*
X141252750Y-111506047D01*
X141252750Y-111506047D02*
X141157512Y-111458428D01*
X141157512Y-111458428D02*
X140967036Y-111410809D01*
X140967036Y-111410809D02*
X140871798Y-111363190D01*
X140871798Y-111363190D02*
X140824179Y-111315571D01*
X140824179Y-111315571D02*
X140776560Y-111220333D01*
X140776560Y-111220333D02*
X140776560Y-111125095D01*
X140776560Y-111125095D02*
X140824179Y-111029857D01*
X140824179Y-111029857D02*
X140871798Y-110982238D01*
X140871798Y-110982238D02*
X140967036Y-110934619D01*
X140967036Y-110934619D02*
X141205131Y-110934619D01*
X141205131Y-110934619D02*
X141347988Y-110982238D01*
X142347988Y-111839380D02*
X142300369Y-111887000D01*
X142300369Y-111887000D02*
X142157512Y-111934619D01*
X142157512Y-111934619D02*
X142062274Y-111934619D01*
X142062274Y-111934619D02*
X141919417Y-111887000D01*
X141919417Y-111887000D02*
X141824179Y-111791761D01*
X141824179Y-111791761D02*
X141776560Y-111696523D01*
X141776560Y-111696523D02*
X141728941Y-111506047D01*
X141728941Y-111506047D02*
X141728941Y-111363190D01*
X141728941Y-111363190D02*
X141776560Y-111172714D01*
X141776560Y-111172714D02*
X141824179Y-111077476D01*
X141824179Y-111077476D02*
X141919417Y-110982238D01*
X141919417Y-110982238D02*
X142062274Y-110934619D01*
X142062274Y-110934619D02*
X142157512Y-110934619D01*
X142157512Y-110934619D02*
X142300369Y-110982238D01*
X142300369Y-110982238D02*
X142347988Y-111029857D01*
X143252750Y-111934619D02*
X142776560Y-111934619D01*
X142776560Y-111934619D02*
X142776560Y-110934619D01*
X140725760Y-109347000D02*
X140868617Y-109394619D01*
X140868617Y-109394619D02*
X141106712Y-109394619D01*
X141106712Y-109394619D02*
X141201950Y-109347000D01*
X141201950Y-109347000D02*
X141249569Y-109299380D01*
X141249569Y-109299380D02*
X141297188Y-109204142D01*
X141297188Y-109204142D02*
X141297188Y-109108904D01*
X141297188Y-109108904D02*
X141249569Y-109013666D01*
X141249569Y-109013666D02*
X141201950Y-108966047D01*
X141201950Y-108966047D02*
X141106712Y-108918428D01*
X141106712Y-108918428D02*
X140916236Y-108870809D01*
X140916236Y-108870809D02*
X140820998Y-108823190D01*
X140820998Y-108823190D02*
X140773379Y-108775571D01*
X140773379Y-108775571D02*
X140725760Y-108680333D01*
X140725760Y-108680333D02*
X140725760Y-108585095D01*
X140725760Y-108585095D02*
X140773379Y-108489857D01*
X140773379Y-108489857D02*
X140820998Y-108442238D01*
X140820998Y-108442238D02*
X140916236Y-108394619D01*
X140916236Y-108394619D02*
X141154331Y-108394619D01*
X141154331Y-108394619D02*
X141297188Y-108442238D01*
X141725760Y-109394619D02*
X141725760Y-108394619D01*
X141725760Y-108394619D02*
X141963855Y-108394619D01*
X141963855Y-108394619D02*
X142106712Y-108442238D01*
X142106712Y-108442238D02*
X142201950Y-108537476D01*
X142201950Y-108537476D02*
X142249569Y-108632714D01*
X142249569Y-108632714D02*
X142297188Y-108823190D01*
X142297188Y-108823190D02*
X142297188Y-108966047D01*
X142297188Y-108966047D02*
X142249569Y-109156523D01*
X142249569Y-109156523D02*
X142201950Y-109251761D01*
X142201950Y-109251761D02*
X142106712Y-109347000D01*
X142106712Y-109347000D02*
X141963855Y-109394619D01*
X141963855Y-109394619D02*
X141725760Y-109394619D01*
X142678141Y-109108904D02*
X143154331Y-109108904D01*
X142582903Y-109394619D02*
X142916236Y-108394619D01*
X142916236Y-108394619D02*
X143249569Y-109394619D01*
X142205322Y-105930819D02*
X142538655Y-106930819D01*
X142538655Y-106930819D02*
X142871988Y-105930819D01*
X142948188Y-113649238D02*
X142852950Y-113601619D01*
X142852950Y-113601619D02*
X142710093Y-113601619D01*
X142710093Y-113601619D02*
X142567236Y-113649238D01*
X142567236Y-113649238D02*
X142471998Y-113744476D01*
X142471998Y-113744476D02*
X142424379Y-113839714D01*
X142424379Y-113839714D02*
X142376760Y-114030190D01*
X142376760Y-114030190D02*
X142376760Y-114173047D01*
X142376760Y-114173047D02*
X142424379Y-114363523D01*
X142424379Y-114363523D02*
X142471998Y-114458761D01*
X142471998Y-114458761D02*
X142567236Y-114554000D01*
X142567236Y-114554000D02*
X142710093Y-114601619D01*
X142710093Y-114601619D02*
X142805331Y-114601619D01*
X142805331Y-114601619D02*
X142948188Y-114554000D01*
X142948188Y-114554000D02*
X142995807Y-114506380D01*
X142995807Y-114506380D02*
X142995807Y-114173047D01*
X142995807Y-114173047D02*
X142805331Y-114173047D01*
X113817400Y-87985600D02*
X113817400Y-121996200D01*
X118735200Y-87985600D02*
G75*
G02*
X114335200Y-87985600I-2200000J0D01*
G01*
X114335200Y-87985600D02*
G75*
G02*
X118735200Y-87985600I2200000J0D01*
G01*
X147218400Y-121996200D02*
G75*
G02*
X144500600Y-124714000I-2717800J0D01*
G01*
D11*
X131165600Y-115468400D02*
X141071600Y-115468400D01*
X141071600Y-122834400D01*
X131165600Y-122834400D01*
X131165600Y-115468400D01*
D10*
X118735200Y-121996200D02*
G75*
G02*
X114335200Y-121996200I-2200000J0D01*
G01*
X114335200Y-121996200D02*
G75*
G02*
X118735200Y-121996200I2200000J0D01*
G01*
X146700600Y-87985600D02*
G75*
G02*
X142300600Y-87985600I-2200000J0D01*
G01*
X142300600Y-87985600D02*
G75*
G02*
X146700600Y-87985600I2200000J0D01*
G01*
X113817400Y-87985600D02*
G75*
G02*
X116535200Y-85267800I2717800J0D01*
G01*
X116535200Y-124714000D02*
X144500600Y-124714000D01*
X146700600Y-121996200D02*
G75*
G02*
X142300600Y-121996200I-2200000J0D01*
G01*
X142300600Y-121996200D02*
G75*
G02*
X146700600Y-121996200I2200000J0D01*
G01*
D11*
X119799100Y-115468400D02*
X129578100Y-115468400D01*
X129578100Y-122834400D01*
X119799100Y-122834400D01*
X119799100Y-115468400D01*
D10*
X144500600Y-85267800D02*
X116535200Y-85267800D01*
X147218400Y-121996200D02*
X147218400Y-87985600D01*
X116535200Y-124714000D02*
G75*
G02*
X113817400Y-121996200I0J2717800D01*
G01*
X144500600Y-85267800D02*
G75*
G02*
X147218400Y-87985600I0J-2717800D01*
G01*
X124409369Y-87042619D02*
X123933179Y-87042619D01*
X123933179Y-87042619D02*
X123933179Y-86042619D01*
X124933179Y-86042619D02*
X125123655Y-86042619D01*
X125123655Y-86042619D02*
X125218893Y-86090238D01*
X125218893Y-86090238D02*
X125314131Y-86185476D01*
X125314131Y-86185476D02*
X125361750Y-86375952D01*
X125361750Y-86375952D02*
X125361750Y-86709285D01*
X125361750Y-86709285D02*
X125314131Y-86899761D01*
X125314131Y-86899761D02*
X125218893Y-86995000D01*
X125218893Y-86995000D02*
X125123655Y-87042619D01*
X125123655Y-87042619D02*
X124933179Y-87042619D01*
X124933179Y-87042619D02*
X124837941Y-86995000D01*
X124837941Y-86995000D02*
X124742703Y-86899761D01*
X124742703Y-86899761D02*
X124695084Y-86709285D01*
X124695084Y-86709285D02*
X124695084Y-86375952D01*
X124695084Y-86375952D02*
X124742703Y-86185476D01*
X124742703Y-86185476D02*
X124837941Y-86090238D01*
X124837941Y-86090238D02*
X124933179Y-86042619D01*
X125742703Y-86756904D02*
X126218893Y-86756904D01*
X125647465Y-87042619D02*
X125980798Y-86042619D01*
X125980798Y-86042619D02*
X126314131Y-87042619D01*
X126647465Y-87042619D02*
X126647465Y-86042619D01*
X126647465Y-86042619D02*
X126885560Y-86042619D01*
X126885560Y-86042619D02*
X127028417Y-86090238D01*
X127028417Y-86090238D02*
X127123655Y-86185476D01*
X127123655Y-86185476D02*
X127171274Y-86280714D01*
X127171274Y-86280714D02*
X127218893Y-86471190D01*
X127218893Y-86471190D02*
X127218893Y-86614047D01*
X127218893Y-86614047D02*
X127171274Y-86804523D01*
X127171274Y-86804523D02*
X127123655Y-86899761D01*
X127123655Y-86899761D02*
X127028417Y-86995000D01*
X127028417Y-86995000D02*
X126885560Y-87042619D01*
X126885560Y-87042619D02*
X126647465Y-87042619D01*
X138287360Y-114808000D02*
X138430217Y-114855619D01*
X138430217Y-114855619D02*
X138668312Y-114855619D01*
X138668312Y-114855619D02*
X138763550Y-114808000D01*
X138763550Y-114808000D02*
X138811169Y-114760380D01*
X138811169Y-114760380D02*
X138858788Y-114665142D01*
X138858788Y-114665142D02*
X138858788Y-114569904D01*
X138858788Y-114569904D02*
X138811169Y-114474666D01*
X138811169Y-114474666D02*
X138763550Y-114427047D01*
X138763550Y-114427047D02*
X138668312Y-114379428D01*
X138668312Y-114379428D02*
X138477836Y-114331809D01*
X138477836Y-114331809D02*
X138382598Y-114284190D01*
X138382598Y-114284190D02*
X138334979Y-114236571D01*
X138334979Y-114236571D02*
X138287360Y-114141333D01*
X138287360Y-114141333D02*
X138287360Y-114046095D01*
X138287360Y-114046095D02*
X138334979Y-113950857D01*
X138334979Y-113950857D02*
X138382598Y-113903238D01*
X138382598Y-113903238D02*
X138477836Y-113855619D01*
X138477836Y-113855619D02*
X138715931Y-113855619D01*
X138715931Y-113855619D02*
X138858788Y-113903238D01*
X139858788Y-114760380D02*
X139811169Y-114808000D01*
X139811169Y-114808000D02*
X139668312Y-114855619D01*
X139668312Y-114855619D02*
X139573074Y-114855619D01*
X139573074Y-114855619D02*
X139430217Y-114808000D01*
X139430217Y-114808000D02*
X139334979Y-114712761D01*
X139334979Y-114712761D02*
X139287360Y-114617523D01*
X139287360Y-114617523D02*
X139239741Y-114427047D01*
X139239741Y-114427047D02*
X139239741Y-114284190D01*
X139239741Y-114284190D02*
X139287360Y-114093714D01*
X139287360Y-114093714D02*
X139334979Y-113998476D01*
X139334979Y-113998476D02*
X139430217Y-113903238D01*
X139430217Y-113903238D02*
X139573074Y-113855619D01*
X139573074Y-113855619D02*
X139668312Y-113855619D01*
X139668312Y-113855619D02*
X139811169Y-113903238D01*
X139811169Y-113903238D02*
X139858788Y-113950857D01*
X140763550Y-114855619D02*
X140287360Y-114855619D01*
X140287360Y-114855619D02*
X140287360Y-113855619D01*
X121859922Y-123152019D02*
X122193255Y-124152019D01*
X122193255Y-124152019D02*
X122526588Y-123152019D01*
X122812303Y-124104400D02*
X122907541Y-124152019D01*
X122907541Y-124152019D02*
X123098017Y-124152019D01*
X123098017Y-124152019D02*
X123193255Y-124104400D01*
X123193255Y-124104400D02*
X123240874Y-124009161D01*
X123240874Y-124009161D02*
X123240874Y-123961542D01*
X123240874Y-123961542D02*
X123193255Y-123866304D01*
X123193255Y-123866304D02*
X123098017Y-123818685D01*
X123098017Y-123818685D02*
X122955160Y-123818685D01*
X122955160Y-123818685D02*
X122859922Y-123771066D01*
X122859922Y-123771066D02*
X122812303Y-123675828D01*
X122812303Y-123675828D02*
X122812303Y-123628209D01*
X122812303Y-123628209D02*
X122859922Y-123532971D01*
X122859922Y-123532971D02*
X122955160Y-123485352D01*
X122955160Y-123485352D02*
X123098017Y-123485352D01*
X123098017Y-123485352D02*
X123193255Y-123532971D01*
X123669446Y-123771066D02*
X124431351Y-123771066D01*
X124050398Y-124152019D02*
X124050398Y-123390114D01*
D11*
X131767054Y-119621904D02*
X132243244Y-119621904D01*
X131671816Y-119907619D02*
X132005149Y-118907619D01*
X132005149Y-118907619D02*
X132338482Y-119907619D01*
X132862292Y-118907619D02*
X132957530Y-118907619D01*
X132957530Y-118907619D02*
X133052768Y-118955238D01*
X133052768Y-118955238D02*
X133100387Y-119002857D01*
X133100387Y-119002857D02*
X133148006Y-119098095D01*
X133148006Y-119098095D02*
X133195625Y-119288571D01*
X133195625Y-119288571D02*
X133195625Y-119526666D01*
X133195625Y-119526666D02*
X133148006Y-119717142D01*
X133148006Y-119717142D02*
X133100387Y-119812380D01*
X133100387Y-119812380D02*
X133052768Y-119860000D01*
X133052768Y-119860000D02*
X132957530Y-119907619D01*
X132957530Y-119907619D02*
X132862292Y-119907619D01*
X132862292Y-119907619D02*
X132767054Y-119860000D01*
X132767054Y-119860000D02*
X132719435Y-119812380D01*
X132719435Y-119812380D02*
X132671816Y-119717142D01*
X132671816Y-119717142D02*
X132624197Y-119526666D01*
X132624197Y-119526666D02*
X132624197Y-119288571D01*
X132624197Y-119288571D02*
X132671816Y-119098095D01*
X132671816Y-119098095D02*
X132719435Y-119002857D01*
X132719435Y-119002857D02*
X132767054Y-118955238D01*
X132767054Y-118955238D02*
X132862292Y-118907619D01*
D10*
X138655588Y-123123438D02*
X138560350Y-123075819D01*
X138560350Y-123075819D02*
X138417493Y-123075819D01*
X138417493Y-123075819D02*
X138274636Y-123123438D01*
X138274636Y-123123438D02*
X138179398Y-123218676D01*
X138179398Y-123218676D02*
X138131779Y-123313914D01*
X138131779Y-123313914D02*
X138084160Y-123504390D01*
X138084160Y-123504390D02*
X138084160Y-123647247D01*
X138084160Y-123647247D02*
X138131779Y-123837723D01*
X138131779Y-123837723D02*
X138179398Y-123932961D01*
X138179398Y-123932961D02*
X138274636Y-124028200D01*
X138274636Y-124028200D02*
X138417493Y-124075819D01*
X138417493Y-124075819D02*
X138512731Y-124075819D01*
X138512731Y-124075819D02*
X138655588Y-124028200D01*
X138655588Y-124028200D02*
X138703207Y-123980580D01*
X138703207Y-123980580D02*
X138703207Y-123647247D01*
X138703207Y-123647247D02*
X138512731Y-123647247D01*
X139131779Y-124075819D02*
X139131779Y-123075819D01*
X139131779Y-123075819D02*
X139703207Y-124075819D01*
X139703207Y-124075819D02*
X139703207Y-123075819D01*
X140179398Y-124075819D02*
X140179398Y-123075819D01*
X140179398Y-123075819D02*
X140417493Y-123075819D01*
X140417493Y-123075819D02*
X140560350Y-123123438D01*
X140560350Y-123123438D02*
X140655588Y-123218676D01*
X140655588Y-123218676D02*
X140703207Y-123313914D01*
X140703207Y-123313914D02*
X140750826Y-123504390D01*
X140750826Y-123504390D02*
X140750826Y-123647247D01*
X140750826Y-123647247D02*
X140703207Y-123837723D01*
X140703207Y-123837723D02*
X140655588Y-123932961D01*
X140655588Y-123932961D02*
X140560350Y-124028200D01*
X140560350Y-124028200D02*
X140417493Y-124075819D01*
X140417493Y-124075819D02*
X140179398Y-124075819D01*
X127327188Y-123199638D02*
X127231950Y-123152019D01*
X127231950Y-123152019D02*
X127089093Y-123152019D01*
X127089093Y-123152019D02*
X126946236Y-123199638D01*
X126946236Y-123199638D02*
X126850998Y-123294876D01*
X126850998Y-123294876D02*
X126803379Y-123390114D01*
X126803379Y-123390114D02*
X126755760Y-123580590D01*
X126755760Y-123580590D02*
X126755760Y-123723447D01*
X126755760Y-123723447D02*
X126803379Y-123913923D01*
X126803379Y-123913923D02*
X126850998Y-124009161D01*
X126850998Y-124009161D02*
X126946236Y-124104400D01*
X126946236Y-124104400D02*
X127089093Y-124152019D01*
X127089093Y-124152019D02*
X127184331Y-124152019D01*
X127184331Y-124152019D02*
X127327188Y-124104400D01*
X127327188Y-124104400D02*
X127374807Y-124056780D01*
X127374807Y-124056780D02*
X127374807Y-123723447D01*
X127374807Y-123723447D02*
X127184331Y-123723447D01*
X127803379Y-124152019D02*
X127803379Y-123152019D01*
X127803379Y-123152019D02*
X128374807Y-124152019D01*
X128374807Y-124152019D02*
X128374807Y-123152019D01*
X128850998Y-124152019D02*
X128850998Y-123152019D01*
X128850998Y-123152019D02*
X129089093Y-123152019D01*
X129089093Y-123152019D02*
X129231950Y-123199638D01*
X129231950Y-123199638D02*
X129327188Y-123294876D01*
X129327188Y-123294876D02*
X129374807Y-123390114D01*
X129374807Y-123390114D02*
X129422426Y-123580590D01*
X129422426Y-123580590D02*
X129422426Y-123723447D01*
X129422426Y-123723447D02*
X129374807Y-123913923D01*
X129374807Y-123913923D02*
X129327188Y-124009161D01*
X129327188Y-124009161D02*
X129231950Y-124104400D01*
X129231950Y-124104400D02*
X129089093Y-124152019D01*
X129089093Y-124152019D02*
X128850998Y-124152019D01*
X116567179Y-102790619D02*
X116567179Y-101790619D01*
X117043369Y-102790619D02*
X117043369Y-101790619D01*
X117043369Y-101790619D02*
X117614797Y-102790619D01*
X117614797Y-102790619D02*
X117614797Y-101790619D01*
X118090988Y-102790619D02*
X118090988Y-101790619D01*
X118090988Y-101790619D02*
X118471940Y-101790619D01*
X118471940Y-101790619D02*
X118567178Y-101838238D01*
X118567178Y-101838238D02*
X118614797Y-101885857D01*
X118614797Y-101885857D02*
X118662416Y-101981095D01*
X118662416Y-101981095D02*
X118662416Y-102123952D01*
X118662416Y-102123952D02*
X118614797Y-102219190D01*
X118614797Y-102219190D02*
X118567178Y-102266809D01*
X118567178Y-102266809D02*
X118471940Y-102314428D01*
X118471940Y-102314428D02*
X118090988Y-102314428D01*
X119090988Y-101790619D02*
X119090988Y-102600142D01*
X119090988Y-102600142D02*
X119138607Y-102695380D01*
X119138607Y-102695380D02*
X119186226Y-102743000D01*
X119186226Y-102743000D02*
X119281464Y-102790619D01*
X119281464Y-102790619D02*
X119471940Y-102790619D01*
X119471940Y-102790619D02*
X119567178Y-102743000D01*
X119567178Y-102743000D02*
X119614797Y-102695380D01*
X119614797Y-102695380D02*
X119662416Y-102600142D01*
X119662416Y-102600142D02*
X119662416Y-101790619D01*
X119995750Y-101790619D02*
X120567178Y-101790619D01*
X120281464Y-102790619D02*
X120281464Y-101790619D01*
X118221360Y-111836200D02*
X118364217Y-111883819D01*
X118364217Y-111883819D02*
X118602312Y-111883819D01*
X118602312Y-111883819D02*
X118697550Y-111836200D01*
X118697550Y-111836200D02*
X118745169Y-111788580D01*
X118745169Y-111788580D02*
X118792788Y-111693342D01*
X118792788Y-111693342D02*
X118792788Y-111598104D01*
X118792788Y-111598104D02*
X118745169Y-111502866D01*
X118745169Y-111502866D02*
X118697550Y-111455247D01*
X118697550Y-111455247D02*
X118602312Y-111407628D01*
X118602312Y-111407628D02*
X118411836Y-111360009D01*
X118411836Y-111360009D02*
X118316598Y-111312390D01*
X118316598Y-111312390D02*
X118268979Y-111264771D01*
X118268979Y-111264771D02*
X118221360Y-111169533D01*
X118221360Y-111169533D02*
X118221360Y-111074295D01*
X118221360Y-111074295D02*
X118268979Y-110979057D01*
X118268979Y-110979057D02*
X118316598Y-110931438D01*
X118316598Y-110931438D02*
X118411836Y-110883819D01*
X118411836Y-110883819D02*
X118649931Y-110883819D01*
X118649931Y-110883819D02*
X118792788Y-110931438D01*
X119792788Y-111788580D02*
X119745169Y-111836200D01*
X119745169Y-111836200D02*
X119602312Y-111883819D01*
X119602312Y-111883819D02*
X119507074Y-111883819D01*
X119507074Y-111883819D02*
X119364217Y-111836200D01*
X119364217Y-111836200D02*
X119268979Y-111740961D01*
X119268979Y-111740961D02*
X119221360Y-111645723D01*
X119221360Y-111645723D02*
X119173741Y-111455247D01*
X119173741Y-111455247D02*
X119173741Y-111312390D01*
X119173741Y-111312390D02*
X119221360Y-111121914D01*
X119221360Y-111121914D02*
X119268979Y-111026676D01*
X119268979Y-111026676D02*
X119364217Y-110931438D01*
X119364217Y-110931438D02*
X119507074Y-110883819D01*
X119507074Y-110883819D02*
X119602312Y-110883819D01*
X119602312Y-110883819D02*
X119745169Y-110931438D01*
X119745169Y-110931438D02*
X119792788Y-110979057D01*
X120697550Y-111883819D02*
X120221360Y-111883819D01*
X120221360Y-111883819D02*
X120221360Y-110883819D01*
X123326638Y-94110011D02*
X123279019Y-94205249D01*
X123279019Y-94205249D02*
X123279019Y-94348106D01*
X123279019Y-94348106D02*
X123326638Y-94490963D01*
X123326638Y-94490963D02*
X123421876Y-94586201D01*
X123421876Y-94586201D02*
X123517114Y-94633820D01*
X123517114Y-94633820D02*
X123707590Y-94681439D01*
X123707590Y-94681439D02*
X123850447Y-94681439D01*
X123850447Y-94681439D02*
X124040923Y-94633820D01*
X124040923Y-94633820D02*
X124136161Y-94586201D01*
X124136161Y-94586201D02*
X124231400Y-94490963D01*
X124231400Y-94490963D02*
X124279019Y-94348106D01*
X124279019Y-94348106D02*
X124279019Y-94252868D01*
X124279019Y-94252868D02*
X124231400Y-94110011D01*
X124231400Y-94110011D02*
X124183780Y-94062392D01*
X124183780Y-94062392D02*
X123850447Y-94062392D01*
X123850447Y-94062392D02*
X123850447Y-94252868D01*
X124279019Y-93633820D02*
X123279019Y-93633820D01*
X123279019Y-93633820D02*
X124279019Y-93062392D01*
X124279019Y-93062392D02*
X123279019Y-93062392D01*
X124279019Y-92586201D02*
X123279019Y-92586201D01*
X123279019Y-92586201D02*
X123279019Y-92348106D01*
X123279019Y-92348106D02*
X123326638Y-92205249D01*
X123326638Y-92205249D02*
X123421876Y-92110011D01*
X123421876Y-92110011D02*
X123517114Y-92062392D01*
X123517114Y-92062392D02*
X123707590Y-92014773D01*
X123707590Y-92014773D02*
X123850447Y-92014773D01*
X123850447Y-92014773D02*
X124040923Y-92062392D01*
X124040923Y-92062392D02*
X124136161Y-92110011D01*
X124136161Y-92110011D02*
X124231400Y-92205249D01*
X124231400Y-92205249D02*
X124279019Y-92348106D01*
X124279019Y-92348106D02*
X124279019Y-92586201D01*
D11*
X120337054Y-119621904D02*
X120813244Y-119621904D01*
X120241816Y-119907619D02*
X120575149Y-118907619D01*
X120575149Y-118907619D02*
X120908482Y-119907619D01*
X121765625Y-119907619D02*
X121194197Y-119907619D01*
X121479911Y-119907619D02*
X121479911Y-118907619D01*
X121479911Y-118907619D02*
X121384673Y-119050476D01*
X121384673Y-119050476D02*
X121289435Y-119145714D01*
X121289435Y-119145714D02*
X121194197Y-119193333D01*
D10*
X118716588Y-113573038D02*
X118621350Y-113525419D01*
X118621350Y-113525419D02*
X118478493Y-113525419D01*
X118478493Y-113525419D02*
X118335636Y-113573038D01*
X118335636Y-113573038D02*
X118240398Y-113668276D01*
X118240398Y-113668276D02*
X118192779Y-113763514D01*
X118192779Y-113763514D02*
X118145160Y-113953990D01*
X118145160Y-113953990D02*
X118145160Y-114096847D01*
X118145160Y-114096847D02*
X118192779Y-114287323D01*
X118192779Y-114287323D02*
X118240398Y-114382561D01*
X118240398Y-114382561D02*
X118335636Y-114477800D01*
X118335636Y-114477800D02*
X118478493Y-114525419D01*
X118478493Y-114525419D02*
X118573731Y-114525419D01*
X118573731Y-114525419D02*
X118716588Y-114477800D01*
X118716588Y-114477800D02*
X118764207Y-114430180D01*
X118764207Y-114430180D02*
X118764207Y-114096847D01*
X118764207Y-114096847D02*
X118573731Y-114096847D01*
X136766419Y-100059877D02*
X137766419Y-99726544D01*
X137766419Y-99726544D02*
X136766419Y-99393211D01*
X136766419Y-98869401D02*
X136766419Y-98678925D01*
X136766419Y-98678925D02*
X136814038Y-98583687D01*
X136814038Y-98583687D02*
X136909276Y-98488449D01*
X136909276Y-98488449D02*
X137099752Y-98440830D01*
X137099752Y-98440830D02*
X137433085Y-98440830D01*
X137433085Y-98440830D02*
X137623561Y-98488449D01*
X137623561Y-98488449D02*
X137718800Y-98583687D01*
X137718800Y-98583687D02*
X137766419Y-98678925D01*
X137766419Y-98678925D02*
X137766419Y-98869401D01*
X137766419Y-98869401D02*
X137718800Y-98964639D01*
X137718800Y-98964639D02*
X137623561Y-99059877D01*
X137623561Y-99059877D02*
X137433085Y-99107496D01*
X137433085Y-99107496D02*
X137099752Y-99107496D01*
X137099752Y-99107496D02*
X136909276Y-99059877D01*
X136909276Y-99059877D02*
X136814038Y-98964639D01*
X136814038Y-98964639D02*
X136766419Y-98869401D01*
X136766419Y-98012258D02*
X137575942Y-98012258D01*
X137575942Y-98012258D02*
X137671180Y-97964639D01*
X137671180Y-97964639D02*
X137718800Y-97917020D01*
X137718800Y-97917020D02*
X137766419Y-97821782D01*
X137766419Y-97821782D02*
X137766419Y-97631306D01*
X137766419Y-97631306D02*
X137718800Y-97536068D01*
X137718800Y-97536068D02*
X137671180Y-97488449D01*
X137671180Y-97488449D02*
X137575942Y-97440830D01*
X137575942Y-97440830D02*
X136766419Y-97440830D01*
X136766419Y-97107496D02*
X136766419Y-96536068D01*
X137766419Y-96821782D02*
X136766419Y-96821782D01*
X136788638Y-94110011D02*
X136741019Y-94205249D01*
X136741019Y-94205249D02*
X136741019Y-94348106D01*
X136741019Y-94348106D02*
X136788638Y-94490963D01*
X136788638Y-94490963D02*
X136883876Y-94586201D01*
X136883876Y-94586201D02*
X136979114Y-94633820D01*
X136979114Y-94633820D02*
X137169590Y-94681439D01*
X137169590Y-94681439D02*
X137312447Y-94681439D01*
X137312447Y-94681439D02*
X137502923Y-94633820D01*
X137502923Y-94633820D02*
X137598161Y-94586201D01*
X137598161Y-94586201D02*
X137693400Y-94490963D01*
X137693400Y-94490963D02*
X137741019Y-94348106D01*
X137741019Y-94348106D02*
X137741019Y-94252868D01*
X137741019Y-94252868D02*
X137693400Y-94110011D01*
X137693400Y-94110011D02*
X137645780Y-94062392D01*
X137645780Y-94062392D02*
X137312447Y-94062392D01*
X137312447Y-94062392D02*
X137312447Y-94252868D01*
X137741019Y-93633820D02*
X136741019Y-93633820D01*
X136741019Y-93633820D02*
X137741019Y-93062392D01*
X137741019Y-93062392D02*
X136741019Y-93062392D01*
X137741019Y-92586201D02*
X136741019Y-92586201D01*
X136741019Y-92586201D02*
X136741019Y-92348106D01*
X136741019Y-92348106D02*
X136788638Y-92205249D01*
X136788638Y-92205249D02*
X136883876Y-92110011D01*
X136883876Y-92110011D02*
X136979114Y-92062392D01*
X136979114Y-92062392D02*
X137169590Y-92014773D01*
X137169590Y-92014773D02*
X137312447Y-92014773D01*
X137312447Y-92014773D02*
X137502923Y-92062392D01*
X137502923Y-92062392D02*
X137598161Y-92110011D01*
X137598161Y-92110011D02*
X137693400Y-92205249D01*
X137693400Y-92205249D02*
X137741019Y-92348106D01*
X137741019Y-92348106D02*
X137741019Y-92586201D01*
X132826360Y-114935000D02*
X132969217Y-114982619D01*
X132969217Y-114982619D02*
X133207312Y-114982619D01*
X133207312Y-114982619D02*
X133302550Y-114935000D01*
X133302550Y-114935000D02*
X133350169Y-114887380D01*
X133350169Y-114887380D02*
X133397788Y-114792142D01*
X133397788Y-114792142D02*
X133397788Y-114696904D01*
X133397788Y-114696904D02*
X133350169Y-114601666D01*
X133350169Y-114601666D02*
X133302550Y-114554047D01*
X133302550Y-114554047D02*
X133207312Y-114506428D01*
X133207312Y-114506428D02*
X133016836Y-114458809D01*
X133016836Y-114458809D02*
X132921598Y-114411190D01*
X132921598Y-114411190D02*
X132873979Y-114363571D01*
X132873979Y-114363571D02*
X132826360Y-114268333D01*
X132826360Y-114268333D02*
X132826360Y-114173095D01*
X132826360Y-114173095D02*
X132873979Y-114077857D01*
X132873979Y-114077857D02*
X132921598Y-114030238D01*
X132921598Y-114030238D02*
X133016836Y-113982619D01*
X133016836Y-113982619D02*
X133254931Y-113982619D01*
X133254931Y-113982619D02*
X133397788Y-114030238D01*
X133826360Y-114982619D02*
X133826360Y-113982619D01*
X133826360Y-113982619D02*
X134064455Y-113982619D01*
X134064455Y-113982619D02*
X134207312Y-114030238D01*
X134207312Y-114030238D02*
X134302550Y-114125476D01*
X134302550Y-114125476D02*
X134350169Y-114220714D01*
X134350169Y-114220714D02*
X134397788Y-114411190D01*
X134397788Y-114411190D02*
X134397788Y-114554047D01*
X134397788Y-114554047D02*
X134350169Y-114744523D01*
X134350169Y-114744523D02*
X134302550Y-114839761D01*
X134302550Y-114839761D02*
X134207312Y-114935000D01*
X134207312Y-114935000D02*
X134064455Y-114982619D01*
X134064455Y-114982619D02*
X133826360Y-114982619D01*
X134778741Y-114696904D02*
X135254931Y-114696904D01*
X134683503Y-114982619D02*
X135016836Y-113982619D01*
X135016836Y-113982619D02*
X135350169Y-114982619D01*
X133289922Y-123126619D02*
X133623255Y-124126619D01*
X133623255Y-124126619D02*
X133956588Y-123126619D01*
X134242303Y-124079000D02*
X134337541Y-124126619D01*
X134337541Y-124126619D02*
X134528017Y-124126619D01*
X134528017Y-124126619D02*
X134623255Y-124079000D01*
X134623255Y-124079000D02*
X134670874Y-123983761D01*
X134670874Y-123983761D02*
X134670874Y-123936142D01*
X134670874Y-123936142D02*
X134623255Y-123840904D01*
X134623255Y-123840904D02*
X134528017Y-123793285D01*
X134528017Y-123793285D02*
X134385160Y-123793285D01*
X134385160Y-123793285D02*
X134289922Y-123745666D01*
X134289922Y-123745666D02*
X134242303Y-123650428D01*
X134242303Y-123650428D02*
X134242303Y-123602809D01*
X134242303Y-123602809D02*
X134289922Y-123507571D01*
X134289922Y-123507571D02*
X134385160Y-123459952D01*
X134385160Y-123459952D02*
X134528017Y-123459952D01*
X134528017Y-123459952D02*
X134623255Y-123507571D01*
X135099446Y-123745666D02*
X135861351Y-123745666D01*
X135480398Y-124126619D02*
X135480398Y-123364714D01*
X129216379Y-87068019D02*
X129216379Y-86068019D01*
X129216379Y-86068019D02*
X129597331Y-86068019D01*
X129597331Y-86068019D02*
X129692569Y-86115638D01*
X129692569Y-86115638D02*
X129740188Y-86163257D01*
X129740188Y-86163257D02*
X129787807Y-86258495D01*
X129787807Y-86258495D02*
X129787807Y-86401352D01*
X129787807Y-86401352D02*
X129740188Y-86496590D01*
X129740188Y-86496590D02*
X129692569Y-86544209D01*
X129692569Y-86544209D02*
X129597331Y-86591828D01*
X129597331Y-86591828D02*
X129216379Y-86591828D01*
X130121141Y-86068019D02*
X130359236Y-87068019D01*
X130359236Y-87068019D02*
X130549712Y-86353733D01*
X130549712Y-86353733D02*
X130740188Y-87068019D01*
X130740188Y-87068019D02*
X130978284Y-86068019D01*
X131930664Y-87068019D02*
X131597331Y-86591828D01*
X131359236Y-87068019D02*
X131359236Y-86068019D01*
X131359236Y-86068019D02*
X131740188Y-86068019D01*
X131740188Y-86068019D02*
X131835426Y-86115638D01*
X131835426Y-86115638D02*
X131883045Y-86163257D01*
X131883045Y-86163257D02*
X131930664Y-86258495D01*
X131930664Y-86258495D02*
X131930664Y-86401352D01*
X131930664Y-86401352D02*
X131883045Y-86496590D01*
X131883045Y-86496590D02*
X131835426Y-86544209D01*
X131835426Y-86544209D02*
X131740188Y-86591828D01*
X131740188Y-86591828D02*
X131359236Y-86591828D01*
X121650360Y-114808000D02*
X121793217Y-114855619D01*
X121793217Y-114855619D02*
X122031312Y-114855619D01*
X122031312Y-114855619D02*
X122126550Y-114808000D01*
X122126550Y-114808000D02*
X122174169Y-114760380D01*
X122174169Y-114760380D02*
X122221788Y-114665142D01*
X122221788Y-114665142D02*
X122221788Y-114569904D01*
X122221788Y-114569904D02*
X122174169Y-114474666D01*
X122174169Y-114474666D02*
X122126550Y-114427047D01*
X122126550Y-114427047D02*
X122031312Y-114379428D01*
X122031312Y-114379428D02*
X121840836Y-114331809D01*
X121840836Y-114331809D02*
X121745598Y-114284190D01*
X121745598Y-114284190D02*
X121697979Y-114236571D01*
X121697979Y-114236571D02*
X121650360Y-114141333D01*
X121650360Y-114141333D02*
X121650360Y-114046095D01*
X121650360Y-114046095D02*
X121697979Y-113950857D01*
X121697979Y-113950857D02*
X121745598Y-113903238D01*
X121745598Y-113903238D02*
X121840836Y-113855619D01*
X121840836Y-113855619D02*
X122078931Y-113855619D01*
X122078931Y-113855619D02*
X122221788Y-113903238D01*
X122650360Y-114855619D02*
X122650360Y-113855619D01*
X122650360Y-113855619D02*
X122888455Y-113855619D01*
X122888455Y-113855619D02*
X123031312Y-113903238D01*
X123031312Y-113903238D02*
X123126550Y-113998476D01*
X123126550Y-113998476D02*
X123174169Y-114093714D01*
X123174169Y-114093714D02*
X123221788Y-114284190D01*
X123221788Y-114284190D02*
X123221788Y-114427047D01*
X123221788Y-114427047D02*
X123174169Y-114617523D01*
X123174169Y-114617523D02*
X123126550Y-114712761D01*
X123126550Y-114712761D02*
X123031312Y-114808000D01*
X123031312Y-114808000D02*
X122888455Y-114855619D01*
X122888455Y-114855619D02*
X122650360Y-114855619D01*
X123602741Y-114569904D02*
X124078931Y-114569904D01*
X123507503Y-114855619D02*
X123840836Y-113855619D01*
X123840836Y-113855619D02*
X124174169Y-114855619D01*
X133385160Y-86731504D02*
X133861350Y-86731504D01*
X133289922Y-87017219D02*
X133623255Y-86017219D01*
X133623255Y-86017219D02*
X133956588Y-87017219D01*
X134766112Y-87017219D02*
X134289922Y-87017219D01*
X134289922Y-87017219D02*
X134289922Y-86017219D01*
X135099446Y-86493409D02*
X135432779Y-86493409D01*
X135575636Y-87017219D02*
X135099446Y-87017219D01*
X135099446Y-87017219D02*
X135099446Y-86017219D01*
X135099446Y-86017219D02*
X135575636Y-86017219D01*
X136575636Y-87017219D02*
X136242303Y-86541028D01*
X136004208Y-87017219D02*
X136004208Y-86017219D01*
X136004208Y-86017219D02*
X136385160Y-86017219D01*
X136385160Y-86017219D02*
X136480398Y-86064838D01*
X136480398Y-86064838D02*
X136528017Y-86112457D01*
X136528017Y-86112457D02*
X136575636Y-86207695D01*
X136575636Y-86207695D02*
X136575636Y-86350552D01*
X136575636Y-86350552D02*
X136528017Y-86445790D01*
X136528017Y-86445790D02*
X136480398Y-86493409D01*
X136480398Y-86493409D02*
X136385160Y-86541028D01*
X136385160Y-86541028D02*
X136004208Y-86541028D01*
X136861351Y-86017219D02*
X137432779Y-86017219D01*
X137147065Y-87017219D02*
X137147065Y-86017219D01*
X118253122Y-105854619D02*
X118586455Y-106854619D01*
X118586455Y-106854619D02*
X118919788Y-105854619D01*
X123279019Y-99628077D02*
X124279019Y-99294744D01*
X124279019Y-99294744D02*
X123279019Y-98961411D01*
X124279019Y-98628077D02*
X123279019Y-98628077D01*
X124279019Y-98151887D02*
X123279019Y-98151887D01*
X123279019Y-98151887D02*
X124279019Y-97580459D01*
X124279019Y-97580459D02*
X123279019Y-97580459D01*
X118170560Y-109296200D02*
X118313417Y-109343819D01*
X118313417Y-109343819D02*
X118551512Y-109343819D01*
X118551512Y-109343819D02*
X118646750Y-109296200D01*
X118646750Y-109296200D02*
X118694369Y-109248580D01*
X118694369Y-109248580D02*
X118741988Y-109153342D01*
X118741988Y-109153342D02*
X118741988Y-109058104D01*
X118741988Y-109058104D02*
X118694369Y-108962866D01*
X118694369Y-108962866D02*
X118646750Y-108915247D01*
X118646750Y-108915247D02*
X118551512Y-108867628D01*
X118551512Y-108867628D02*
X118361036Y-108820009D01*
X118361036Y-108820009D02*
X118265798Y-108772390D01*
X118265798Y-108772390D02*
X118218179Y-108724771D01*
X118218179Y-108724771D02*
X118170560Y-108629533D01*
X118170560Y-108629533D02*
X118170560Y-108534295D01*
X118170560Y-108534295D02*
X118218179Y-108439057D01*
X118218179Y-108439057D02*
X118265798Y-108391438D01*
X118265798Y-108391438D02*
X118361036Y-108343819D01*
X118361036Y-108343819D02*
X118599131Y-108343819D01*
X118599131Y-108343819D02*
X118741988Y-108391438D01*
X119170560Y-109343819D02*
X119170560Y-108343819D01*
X119170560Y-108343819D02*
X119408655Y-108343819D01*
X119408655Y-108343819D02*
X119551512Y-108391438D01*
X119551512Y-108391438D02*
X119646750Y-108486676D01*
X119646750Y-108486676D02*
X119694369Y-108581914D01*
X119694369Y-108581914D02*
X119741988Y-108772390D01*
X119741988Y-108772390D02*
X119741988Y-108915247D01*
X119741988Y-108915247D02*
X119694369Y-109105723D01*
X119694369Y-109105723D02*
X119646750Y-109200961D01*
X119646750Y-109200961D02*
X119551512Y-109296200D01*
X119551512Y-109296200D02*
X119408655Y-109343819D01*
X119408655Y-109343819D02*
X119170560Y-109343819D01*
X120122941Y-109058104D02*
X120599131Y-109058104D01*
X120027703Y-109343819D02*
X120361036Y-108343819D01*
X120361036Y-108343819D02*
X120694369Y-109343819D01*
X140506655Y-101790619D02*
X140697131Y-101790619D01*
X140697131Y-101790619D02*
X140792369Y-101838238D01*
X140792369Y-101838238D02*
X140887607Y-101933476D01*
X140887607Y-101933476D02*
X140935226Y-102123952D01*
X140935226Y-102123952D02*
X140935226Y-102457285D01*
X140935226Y-102457285D02*
X140887607Y-102647761D01*
X140887607Y-102647761D02*
X140792369Y-102743000D01*
X140792369Y-102743000D02*
X140697131Y-102790619D01*
X140697131Y-102790619D02*
X140506655Y-102790619D01*
X140506655Y-102790619D02*
X140411417Y-102743000D01*
X140411417Y-102743000D02*
X140316179Y-102647761D01*
X140316179Y-102647761D02*
X140268560Y-102457285D01*
X140268560Y-102457285D02*
X140268560Y-102123952D01*
X140268560Y-102123952D02*
X140316179Y-101933476D01*
X140316179Y-101933476D02*
X140411417Y-101838238D01*
X140411417Y-101838238D02*
X140506655Y-101790619D01*
X141363798Y-101790619D02*
X141363798Y-102600142D01*
X141363798Y-102600142D02*
X141411417Y-102695380D01*
X141411417Y-102695380D02*
X141459036Y-102743000D01*
X141459036Y-102743000D02*
X141554274Y-102790619D01*
X141554274Y-102790619D02*
X141744750Y-102790619D01*
X141744750Y-102790619D02*
X141839988Y-102743000D01*
X141839988Y-102743000D02*
X141887607Y-102695380D01*
X141887607Y-102695380D02*
X141935226Y-102600142D01*
X141935226Y-102600142D02*
X141935226Y-101790619D01*
X142268560Y-101790619D02*
X142839988Y-101790619D01*
X142554274Y-102790619D02*
X142554274Y-101790619D01*
X143173322Y-102790619D02*
X143173322Y-101790619D01*
X143173322Y-101790619D02*
X143554274Y-101790619D01*
X143554274Y-101790619D02*
X143649512Y-101838238D01*
X143649512Y-101838238D02*
X143697131Y-101885857D01*
X143697131Y-101885857D02*
X143744750Y-101981095D01*
X143744750Y-101981095D02*
X143744750Y-102123952D01*
X143744750Y-102123952D02*
X143697131Y-102219190D01*
X143697131Y-102219190D02*
X143649512Y-102266809D01*
X143649512Y-102266809D02*
X143554274Y-102314428D01*
X143554274Y-102314428D02*
X143173322Y-102314428D01*
X144173322Y-101790619D02*
X144173322Y-102600142D01*
X144173322Y-102600142D02*
X144220941Y-102695380D01*
X144220941Y-102695380D02*
X144268560Y-102743000D01*
X144268560Y-102743000D02*
X144363798Y-102790619D01*
X144363798Y-102790619D02*
X144554274Y-102790619D01*
X144554274Y-102790619D02*
X144649512Y-102743000D01*
X144649512Y-102743000D02*
X144697131Y-102695380D01*
X144697131Y-102695380D02*
X144744750Y-102600142D01*
X144744750Y-102600142D02*
X144744750Y-101790619D01*
X145078084Y-101790619D02*
X145649512Y-101790619D01*
X145363798Y-102790619D02*
X145363798Y-101790619D01*
X126806560Y-114808000D02*
X126949417Y-114855619D01*
X126949417Y-114855619D02*
X127187512Y-114855619D01*
X127187512Y-114855619D02*
X127282750Y-114808000D01*
X127282750Y-114808000D02*
X127330369Y-114760380D01*
X127330369Y-114760380D02*
X127377988Y-114665142D01*
X127377988Y-114665142D02*
X127377988Y-114569904D01*
X127377988Y-114569904D02*
X127330369Y-114474666D01*
X127330369Y-114474666D02*
X127282750Y-114427047D01*
X127282750Y-114427047D02*
X127187512Y-114379428D01*
X127187512Y-114379428D02*
X126997036Y-114331809D01*
X126997036Y-114331809D02*
X126901798Y-114284190D01*
X126901798Y-114284190D02*
X126854179Y-114236571D01*
X126854179Y-114236571D02*
X126806560Y-114141333D01*
X126806560Y-114141333D02*
X126806560Y-114046095D01*
X126806560Y-114046095D02*
X126854179Y-113950857D01*
X126854179Y-113950857D02*
X126901798Y-113903238D01*
X126901798Y-113903238D02*
X126997036Y-113855619D01*
X126997036Y-113855619D02*
X127235131Y-113855619D01*
X127235131Y-113855619D02*
X127377988Y-113903238D01*
X128377988Y-114760380D02*
X128330369Y-114808000D01*
X128330369Y-114808000D02*
X128187512Y-114855619D01*
X128187512Y-114855619D02*
X128092274Y-114855619D01*
X128092274Y-114855619D02*
X127949417Y-114808000D01*
X127949417Y-114808000D02*
X127854179Y-114712761D01*
X127854179Y-114712761D02*
X127806560Y-114617523D01*
X127806560Y-114617523D02*
X127758941Y-114427047D01*
X127758941Y-114427047D02*
X127758941Y-114284190D01*
X127758941Y-114284190D02*
X127806560Y-114093714D01*
X127806560Y-114093714D02*
X127854179Y-113998476D01*
X127854179Y-113998476D02*
X127949417Y-113903238D01*
X127949417Y-113903238D02*
X128092274Y-113855619D01*
X128092274Y-113855619D02*
X128187512Y-113855619D01*
X128187512Y-113855619D02*
X128330369Y-113903238D01*
X128330369Y-113903238D02*
X128377988Y-113950857D01*
X129282750Y-114855619D02*
X128806560Y-114855619D01*
X128806560Y-114855619D02*
X128806560Y-113855619D01*
D12*
%TO.C,J7*%
X143230600Y-105130600D02*
X144500600Y-105130600D01*
X143230600Y-106400600D02*
X143230600Y-105130600D01*
X145543529Y-108560600D02*
X145940600Y-108560600D01*
X145543529Y-109320600D02*
X145940600Y-109320600D01*
X145543529Y-111100600D02*
X145940600Y-111100600D01*
X145543529Y-111860600D02*
X145940600Y-111860600D01*
X145543529Y-113640600D02*
X145940600Y-113640600D01*
X145543529Y-114400600D02*
X145940600Y-114400600D01*
X145610600Y-106020600D02*
X145940600Y-106020600D01*
X145610600Y-106780600D02*
X145940600Y-106780600D01*
X145940600Y-105070600D02*
X145940600Y-115350600D01*
X145940600Y-107670600D02*
X148600600Y-107670600D01*
X145940600Y-110210600D02*
X148600600Y-110210600D01*
X145940600Y-112750600D02*
X148600600Y-112750600D01*
X145940600Y-115350600D02*
X148600600Y-115350600D01*
X148600600Y-105070600D02*
X145940600Y-105070600D01*
X148600600Y-106020600D02*
X154600600Y-106020600D01*
X148600600Y-106080600D02*
X154600600Y-106080600D01*
X148600600Y-106200600D02*
X154600600Y-106200600D01*
X148600600Y-106320600D02*
X154600600Y-106320600D01*
X148600600Y-106440600D02*
X154600600Y-106440600D01*
X148600600Y-106560600D02*
X154600600Y-106560600D01*
X148600600Y-106680600D02*
X154600600Y-106680600D01*
X148600600Y-108560600D02*
X154600600Y-108560600D01*
X148600600Y-111100600D02*
X154600600Y-111100600D01*
X148600600Y-113640600D02*
X154600600Y-113640600D01*
X148600600Y-115350600D02*
X148600600Y-105070600D01*
X154600600Y-106020600D02*
X154600600Y-106780600D01*
X154600600Y-106780600D02*
X148600600Y-106780600D01*
X154600600Y-108560600D02*
X154600600Y-109320600D01*
X154600600Y-109320600D02*
X148600600Y-109320600D01*
X154600600Y-111100600D02*
X154600600Y-111860600D01*
X154600600Y-111860600D02*
X148600600Y-111860600D01*
X154600600Y-113640600D02*
X154600600Y-114400600D01*
X154600600Y-114400600D02*
X148600600Y-114400600D01*
%TO.C,J6*%
X117792200Y-115270600D02*
X116522200Y-115270600D01*
X117792200Y-114000600D02*
X117792200Y-115270600D01*
X115479271Y-111840600D02*
X115082200Y-111840600D01*
X115479271Y-111080600D02*
X115082200Y-111080600D01*
X115479271Y-109300600D02*
X115082200Y-109300600D01*
X115479271Y-108540600D02*
X115082200Y-108540600D01*
X115479271Y-106760600D02*
X115082200Y-106760600D01*
X115479271Y-106000600D02*
X115082200Y-106000600D01*
X115412200Y-114380600D02*
X115082200Y-114380600D01*
X115412200Y-113620600D02*
X115082200Y-113620600D01*
X115082200Y-115330600D02*
X115082200Y-105050600D01*
X115082200Y-112730600D02*
X112422200Y-112730600D01*
X115082200Y-110190600D02*
X112422200Y-110190600D01*
X115082200Y-107650600D02*
X112422200Y-107650600D01*
X115082200Y-105050600D02*
X112422200Y-105050600D01*
X112422200Y-115330600D02*
X115082200Y-115330600D01*
X112422200Y-114380600D02*
X106422200Y-114380600D01*
X112422200Y-114320600D02*
X106422200Y-114320600D01*
X112422200Y-114200600D02*
X106422200Y-114200600D01*
X112422200Y-114080600D02*
X106422200Y-114080600D01*
X112422200Y-113960600D02*
X106422200Y-113960600D01*
X112422200Y-113840600D02*
X106422200Y-113840600D01*
X112422200Y-113720600D02*
X106422200Y-113720600D01*
X112422200Y-111840600D02*
X106422200Y-111840600D01*
X112422200Y-109300600D02*
X106422200Y-109300600D01*
X112422200Y-106760600D02*
X106422200Y-106760600D01*
X112422200Y-105050600D02*
X112422200Y-115330600D01*
X106422200Y-114380600D02*
X106422200Y-113620600D01*
X106422200Y-113620600D02*
X112422200Y-113620600D01*
X106422200Y-111840600D02*
X106422200Y-111080600D01*
X106422200Y-111080600D02*
X112422200Y-111080600D01*
X106422200Y-109300600D02*
X106422200Y-108540600D01*
X106422200Y-108540600D02*
X112422200Y-108540600D01*
X106422200Y-106760600D02*
X106422200Y-106000600D01*
X106422200Y-106000600D02*
X112422200Y-106000600D01*
%TO.C,J5*%
X121517100Y-118576400D02*
X121517100Y-117246400D01*
X122847100Y-118576400D02*
X121517100Y-118576400D01*
X124117100Y-115916400D02*
X129257100Y-115916400D01*
X124117100Y-118576400D02*
X124117100Y-115916400D01*
X124117100Y-118576400D02*
X129257100Y-118576400D01*
X129257100Y-118576400D02*
X129257100Y-115916400D01*
%TO.C,C4*%
X132275948Y-100941200D02*
X132798452Y-100941200D01*
X132275948Y-102411200D02*
X132798452Y-102411200D01*
%TO.C,R3*%
X131164876Y-92339900D02*
X131674324Y-92339900D01*
X131164876Y-93384900D02*
X131674324Y-93384900D01*
%TO.C,R2*%
X123302500Y-110768676D02*
X123302500Y-111278124D01*
X124347500Y-110768676D02*
X124347500Y-111278124D01*
%TO.C,R8*%
X135838476Y-109154700D02*
X136347924Y-109154700D01*
X135838476Y-110199700D02*
X136347924Y-110199700D01*
%TO.C,R10*%
X129778136Y-98150000D02*
X131232264Y-98150000D01*
X129778136Y-99970000D02*
X131232264Y-99970000D01*
D10*
%TO.C,P2*%
X114110000Y-91012000D02*
X114110000Y-101012000D01*
X120610000Y-91012000D02*
X120610000Y-101012000D01*
X122610000Y-91012000D02*
X113610000Y-91012000D01*
X113610000Y-101012000D01*
X122610000Y-101012000D01*
X122610000Y-91012000D01*
X115110000Y-94012000D02*
X114110000Y-93012000D01*
X115110000Y-92012000D01*
X115110000Y-94012000D01*
G36*
X115110000Y-94012000D02*
G01*
X114110000Y-93012000D01*
X115110000Y-92012000D01*
X115110000Y-94012000D01*
G37*
D12*
%TO.C,D2*%
X134393000Y-87542000D02*
X134393000Y-89827000D01*
X135863000Y-87542000D02*
X134393000Y-87542000D01*
X135863000Y-89827000D02*
X135863000Y-87542000D01*
%TO.C,R1*%
X121473700Y-109574876D02*
X121473700Y-110084324D01*
X122518700Y-109574876D02*
X122518700Y-110084324D01*
D10*
%TO.C,P1*%
X140476600Y-101037400D02*
X140476600Y-91037400D01*
X146976600Y-101037400D02*
X146976600Y-91037400D01*
X138476600Y-101037400D02*
X147476600Y-101037400D01*
X147476600Y-91037400D01*
X138476600Y-91037400D01*
X138476600Y-101037400D01*
X146976600Y-99037400D02*
X145976600Y-100037400D01*
X145976600Y-98037400D01*
X146976600Y-99037400D01*
G36*
X146976600Y-99037400D02*
G01*
X145976600Y-100037400D01*
X145976600Y-98037400D01*
X146976600Y-99037400D01*
G37*
D12*
%TO.C,R4*%
X122692900Y-105485476D02*
X122692900Y-105994924D01*
X123737900Y-105485476D02*
X123737900Y-105994924D01*
%TO.C,R9*%
X125994900Y-106704676D02*
X125994900Y-107214124D01*
X127039900Y-106704676D02*
X127039900Y-107214124D01*
%TO.C,C2*%
X128734452Y-100941200D02*
X128211948Y-100941200D01*
X128734452Y-102411200D02*
X128211948Y-102411200D01*
%TO.C,J4*%
X121517100Y-122353200D02*
X121517100Y-121023200D01*
X122847100Y-122353200D02*
X121517100Y-122353200D01*
X124117100Y-119693200D02*
X129257100Y-119693200D01*
X124117100Y-122353200D02*
X124117100Y-119693200D01*
X124117100Y-122353200D02*
X129257100Y-122353200D01*
X129257100Y-122353200D02*
X129257100Y-119693200D01*
%TO.C,D3*%
X124588600Y-87542000D02*
X124588600Y-89827000D01*
X126058600Y-87542000D02*
X124588600Y-87542000D01*
X126058600Y-89827000D02*
X126058600Y-87542000D01*
%TO.C,J3*%
X133010600Y-118576400D02*
X133010600Y-117246400D01*
X134340600Y-118576400D02*
X133010600Y-118576400D01*
X135610600Y-115916400D02*
X140750600Y-115916400D01*
X135610600Y-118576400D02*
X135610600Y-115916400D01*
X135610600Y-118576400D02*
X140750600Y-118576400D01*
X140750600Y-118576400D02*
X140750600Y-115916400D01*
%TO.C,C1*%
X130741052Y-106884800D02*
X130218548Y-106884800D01*
X130741052Y-108354800D02*
X130218548Y-108354800D01*
%TO.C,T1*%
X126228600Y-93067800D02*
X126228600Y-97077800D01*
X128228600Y-93067800D02*
X126228600Y-93067800D01*
X128228600Y-93067800D02*
X128228600Y-97077800D01*
%TO.C,J2*%
X133010600Y-122255200D02*
X133010600Y-120925200D01*
X134340600Y-122255200D02*
X133010600Y-122255200D01*
X135610600Y-119595200D02*
X140750600Y-119595200D01*
X135610600Y-122255200D02*
X135610600Y-119595200D01*
X135610600Y-122255200D02*
X140750600Y-122255200D01*
X140750600Y-122255200D02*
X140750600Y-119595200D01*
%TO.C,R5*%
X124216900Y-105485476D02*
X124216900Y-105994924D01*
X125261900Y-105485476D02*
X125261900Y-105994924D01*
%TO.C,U1*%
X130479800Y-109032400D02*
X128979800Y-109032400D01*
X130479800Y-109032400D02*
X131979800Y-109032400D01*
X130479800Y-112252400D02*
X128979800Y-112252400D01*
X130479800Y-112252400D02*
X131979800Y-112252400D01*
X128267300Y-109232400D02*
X128027300Y-108902400D01*
X128507300Y-108902400D01*
X128267300Y-109232400D01*
G36*
X128267300Y-109232400D02*
G01*
X128027300Y-108902400D01*
X128507300Y-108902400D01*
X128267300Y-109232400D01*
G37*
%TO.C,D1*%
X129795600Y-87542000D02*
X129795600Y-89827000D01*
X131265600Y-87542000D02*
X129795600Y-87542000D01*
X131265600Y-89827000D02*
X131265600Y-87542000D01*
%TO.C,R6*%
X128992100Y-104596476D02*
X128992100Y-105105924D01*
X130037100Y-104596476D02*
X130037100Y-105105924D01*
%TO.C,R7*%
X130973300Y-104596476D02*
X130973300Y-105105924D01*
X132018300Y-104596476D02*
X132018300Y-105105924D01*
%TO.C,C3*%
X136862452Y-110847200D02*
X136339948Y-110847200D01*
X136862452Y-112317200D02*
X136339948Y-112317200D01*
%TD*%
%LPC*%
D13*
%TO.C,TP3*%
X134848600Y-93370400D03*
%TD*%
%TO.C,TP2*%
X138353800Y-102946200D03*
%TD*%
%TO.C,TP1*%
X135204200Y-106273600D03*
%TD*%
D14*
%TO.C,J7*%
X144500600Y-106400600D03*
D15*
X144500600Y-108940600D03*
X144500600Y-111480600D03*
X144500600Y-114020600D03*
%TD*%
D16*
%TO.C,J6*%
X116522200Y-114000600D03*
D15*
X116522200Y-111460600D03*
X116522200Y-108920600D03*
X116522200Y-106380600D03*
%TD*%
D17*
%TO.C,J5*%
X122847100Y-117246400D03*
D15*
X125387100Y-117246400D03*
X127927100Y-117246400D03*
%TD*%
D18*
%TO.C,C4*%
X131499700Y-101676200D03*
X133574700Y-101676200D03*
%TD*%
D19*
%TO.C,R3*%
X130507100Y-92862400D03*
X132332100Y-92862400D03*
%TD*%
D20*
%TO.C,R2*%
X123825000Y-110110900D03*
X123825000Y-111935900D03*
%TD*%
D21*
%TO.C,H3*%
X116512600Y-87993400D03*
%TD*%
D19*
%TO.C,R8*%
X135180700Y-109677200D03*
X137005700Y-109677200D03*
%TD*%
D22*
%TO.C,R10*%
X128955200Y-99060000D03*
X132055200Y-99060000D03*
%TD*%
D23*
%TO.C,P2*%
X118110000Y-93512000D03*
X118110000Y-98512000D03*
%TD*%
D24*
%TO.C,FID3*%
X121158000Y-87985600D03*
%TD*%
D25*
%TO.C,D2*%
X135128000Y-88239500D03*
X135128000Y-89814500D03*
%TD*%
D21*
%TO.C,H2*%
X144512600Y-121993400D03*
%TD*%
D20*
%TO.C,R1*%
X121996200Y-108917100D03*
X121996200Y-110742100D03*
%TD*%
D21*
%TO.C,H1*%
X144512600Y-87993400D03*
%TD*%
D24*
%TO.C,FID2*%
X116535200Y-117094000D03*
%TD*%
D23*
%TO.C,P1*%
X142976600Y-98537400D03*
X142976600Y-93537400D03*
%TD*%
D21*
%TO.C,H4*%
X116512600Y-121993400D03*
%TD*%
D20*
%TO.C,R4*%
X123215400Y-104827700D03*
X123215400Y-106652700D03*
%TD*%
%TO.C,R9*%
X126517400Y-106046900D03*
X126517400Y-107871900D03*
%TD*%
D26*
%TO.C,C2*%
X129510700Y-101676200D03*
X127435700Y-101676200D03*
%TD*%
D17*
%TO.C,J4*%
X122847100Y-121023200D03*
D15*
X125387100Y-121023200D03*
X127927100Y-121023200D03*
%TD*%
D25*
%TO.C,D3*%
X125323600Y-88239500D03*
X125323600Y-89814500D03*
%TD*%
D17*
%TO.C,J3*%
X134340600Y-117246400D03*
D15*
X136880600Y-117246400D03*
X139420600Y-117246400D03*
%TD*%
D26*
%TO.C,C1*%
X131517300Y-107619800D03*
X129442300Y-107619800D03*
%TD*%
D27*
%TO.C,T1*%
X127228600Y-93777800D03*
X127228600Y-97077800D03*
%TD*%
D17*
%TO.C,J2*%
X134340600Y-120925200D03*
D15*
X136880600Y-120925200D03*
X139420600Y-120925200D03*
%TD*%
D24*
%TO.C,FID1*%
X139954000Y-87985600D03*
%TD*%
D20*
%TO.C,R5*%
X124739400Y-104827700D03*
X124739400Y-106652700D03*
%TD*%
D28*
%TO.C,U1*%
X128279800Y-109642400D03*
X128279800Y-110142400D03*
X128279800Y-110642400D03*
X128279800Y-111142400D03*
X128279800Y-111642400D03*
X132679800Y-111642400D03*
X132679800Y-111142400D03*
X132679800Y-110642400D03*
X132679800Y-110142400D03*
X132679800Y-109642400D03*
%TD*%
D25*
%TO.C,D1*%
X130530600Y-88239500D03*
X130530600Y-89814500D03*
%TD*%
D20*
%TO.C,R6*%
X129514600Y-103938700D03*
X129514600Y-105763700D03*
%TD*%
%TO.C,R7*%
X131495800Y-103938700D03*
X131495800Y-105763700D03*
%TD*%
D26*
%TO.C,C3*%
X137638700Y-111582200D03*
X135563700Y-111582200D03*
%TD*%
%LPD*%
M02*
